<svg xmlns="http://www.w3.org/2000/svg" xmlns:xlink="http://www.w3.org/1999/xlink" width="162.121" height="153.12" viewBox="0 0 162.121 153.12">
  <defs>
    <clipPath id="clip-path">
      <rect id="Rectángulo_42594" data-name="Rectángulo 42594" width="162.121" height="140.031" fill="none"/>
    </clipPath>
    <clipPath id="clip-path-3">
      <rect id="Rectángulo_42591" data-name="Rectángulo 42591" width="153.758" height="84.2" fill="none"/>
    </clipPath>
    <clipPath id="clip-path-4">
      <rect id="Rectángulo_42616" data-name="Rectángulo 42616" width="41.056" height="45.342" fill="#fdc569"/>
    </clipPath>
    <clipPath id="clip-path-5">
      <path id="Trazado_212260" data-name="Trazado 212260" d="M9.887,27.784a17.9,17.9,0,1,0,17.9-17.9,17.9,17.9,0,0,0-17.9,17.9" transform="translate(-9.887 -9.887)" fill="none"/>
    </clipPath>
  </defs>
  <g id="Grupo_151658" data-name="Grupo 151658" transform="translate(-923.29 -132.072)">
    <g id="Grupo_151603" data-name="Grupo 151603" transform="translate(923.29 145.161)">
      <g id="Grupo_151602" data-name="Grupo 151602" clip-path="url(#clip-path)">
        <g id="Grupo_151601" data-name="Grupo 151601">
          <g id="Grupo_151600" data-name="Grupo 151600" clip-path="url(#clip-path)">
            <g id="Grupo_151599" data-name="Grupo 151599" transform="translate(0 55.832)" opacity="0.2">
              <g id="Grupo_151598" data-name="Grupo 151598">
                <g id="Grupo_151597" data-name="Grupo 151597" clip-path="url(#clip-path-3)">
                  <path id="Trazado_212236" data-name="Trazado 212236" d="M153.758,104.18c0,23.251-34.42,42.1-76.879,42.1S0,127.431,0,104.18s34.42-42.1,76.879-42.1,76.879,18.849,76.879,42.1" transform="translate(0 -62.08)" fill="#383838"/>
                </g>
              </g>
            </g>
            <path id="Trazado_212237" data-name="Trazado 212237" d="M117.631,49.719l.008,29.663a64.459,64.459,0,0,0-8.37-2.084,85.276,85.276,0,0,0-29.461-.049V77.3a64.113,64.113,0,0,0-8.652,2.167q.092-15.866.183-31.731a71.545,71.545,0,0,1,46.292,1.985" transform="translate(-7.162 -4.51)" fill="#848693"/>
            <path id="Trazado_212238" data-name="Trazado 212238" d="M175.95,87.292V99.31c0,.5-.016,1.009-.049,1.5a13.772,13.772,0,0,1-.132,1.407v.116c-.067.463-.132.909-.2,1.356a.126.126,0,0,0-.016.083c-.083.463-.183.909-.3,1.356a1.8,1.8,0,0,1-.067.281c-.067.314-.149.612-.248.926-.182.661-.4,1.307-.645,1.952-.132.364-.264.711-.431,1.076a29.106,29.106,0,0,1-1.968,3.854c-.149.264-.315.53-.48.794q-.4.6-.794,1.191c-.264.364-.529.728-.81,1.092-.331.447-.662.877-1.025,1.291a1.95,1.95,0,0,1-.232.281c-.513.629-1.075,1.24-1.654,1.853-.132.148-.264.281-.414.43-.4.4-.777.794-1.191,1.175-.43.4-.861.794-1.307,1.191s-.894.778-1.357,1.175c-.446.347-.893.711-1.339,1.059a1.282,1.282,0,0,1-.232.183c-.446.331-.893.678-1.356,1.009-1.009.728-2.085,1.455-3.176,2.133-1.091.7-2.233,1.373-3.408,2-1.175.662-2.4,1.291-3.639,1.886a85.651,85.651,0,0,1-12.093,4.78V111.335l32.852-31.909q2.855,3.932,5.707,7.866" transform="translate(-13.828 -7.994)" fill="#ba386d"/>
            <path id="Trazado_212239" data-name="Trazado 212239" d="M158.622,62.541l-.016.016L144.084,92.763l-21.242-11.6V69.149Z" transform="translate(-12.364 -6.295)" fill="#ba386d"/>
            <path id="Trazado_212240" data-name="Trazado 212240" d="M174.1,84.223q0,1.041-.1,2.084c-.017.216-.05.447-.067.679-.049.446-.116.909-.182,1.372-.049.248-.1.513-.165.778-.083.414-.165.827-.264,1.24-.067.281-.149.546-.232.81-.116.414-.232.811-.364,1.208-.1.264-.182.53-.281.794-.149.414-.315.81-.48,1.208-.115.248-.215.5-.331.744-.2.447-.43.877-.645,1.307-.116.2-.2.414-.314.612-.348.612-.7,1.24-1.092,1.836-.1.165-.232.331-.348.513-.281.43-.578.877-.909,1.307-.183.248-.364.5-.563.745-.264.347-.529.694-.827,1.041-.215.265-.447.53-.678.794q-.4.472-.844.943c-.248.264-.5.546-.761.81-.3.3-.6.6-.894.877-.281.281-.546.546-.844.81-.3.281-.629.562-.943.844-.3.264-.6.53-.91.778-.314.281-.662.546-.992.81-.6.479-1.208.943-1.836,1.406-.364.248-.711.513-1.076.778-.4.281-.81.546-1.224.81-.314.215-.629.43-.96.629-.413.282-.86.546-1.307.81-.314.2-.645.4-.959.579l-1.389.794c-.331.182-.662.347-.993.529-.479.265-.976.514-1.472.778-.331.165-.645.314-.976.479-.53.248-1.059.514-1.588.761-.281.133-.579.265-.86.38-.6.281-1.192.546-1.8.794-.1.049-.2.083-.3.132-2.266.943-4.649,1.82-7.1,2.614-.232.083-.463.148-.7.231l-16.525-22.96c1.687-.43,3.308-.926,4.83-1.472a.127.127,0,0,0,.066-.016,44.557,44.557,0,0,0,4.284-1.77c.016,0,.033-.016.049-.016a36.683,36.683,0,0,0,3.689-2.035c.016-.016.033-.016.033-.033A23.363,23.363,0,0,0,135,91.1c.016,0,.016-.016.032-.032a15.039,15.039,0,0,0,2.283-2.465c0-.016.016-.016.016-.033a13.088,13.088,0,0,0,.777-1.191.26.26,0,0,0,.067-.116,10.2,10.2,0,0,0,.48-.943c.032-.067.049-.149.083-.215a8.837,8.837,0,0,0,.3-.844c.032-.1.049-.215.083-.315a6.7,6.7,0,0,0,.165-.794,2,2,0,0,0,.049-.314,7.97,7.97,0,0,0,.084-1.092,11.333,11.333,0,0,0-.1-1.291,1.986,1.986,0,0,0-.066-.3,6.818,6.818,0,0,0-.315-1.24c0-.033-.016-.049-.033-.083a10.034,10.034,0,0,0-.479-1.158c-.049-.083-.1-.182-.148-.264a10.919,10.919,0,0,0-.711-1.191c-.033-.033-.05-.067-.083-.1a12.953,12.953,0,0,0-.844-1.092,1.953,1.953,0,0,1-.183-.215c-.347-.38-.711-.761-1.108-1.125-.033-.032-.083-.066-.116-.1-.38-.347-.777-.694-1.208-1.025a1.791,1.791,0,0,1-.182-.149c-.479-.363-.976-.728-1.488-1.075l-.1-.05c-.529-.347-1.059-.678-1.638-1.009l-.1-.049c-.6-.347-1.224-.678-1.869-.992a.126.126,0,0,1-.067-.033c-1.323-.645-2.746-1.241-4.267-1.8h-.017c-.6-.215-1.208-.43-1.836-.629l19.171-18.841c.646.248,1.273.513,1.9.778.281.115.563.248.861.363.728.315,1.472.646,2.184.977.132.066.248.115.38.182q1.166.546,2.283,1.141c.264.132.513.264.777.4.563.3,1.125.612,1.688.909.215.132.446.264.662.38.728.43,1.455.861,2.15,1.291.165.116.347.231.513.331.546.347,1.092.711,1.621,1.059.215.165.43.314.646.463.562.4,1.124.794,1.654,1.208.116.083.231.148.331.231.629.5,1.24.976,1.819,1.472.182.149.364.3.529.447.447.4.877.777,1.308,1.175.165.148.33.3.479.446.546.513,1.075,1.042,1.588,1.571.083.1.182.2.264.3.43.446.827.893,1.224,1.356.149.165.281.347.43.513.38.447.745.91,1.092,1.373.083.115.165.231.248.331.414.562.81,1.141,1.191,1.72.1.149.183.315.282.463.282.463.562.91.811,1.373.1.165.2.331.281.5.331.6.629,1.208.893,1.8a1.033,1.033,0,0,1,.084.2c.247.546.462,1.109.678,1.671.066.183.132.364.2.546.165.5.331.993.463,1.506.033.132.083.264.116.414.165.629.314,1.257.43,1.886.017.165.049.314.067.463q.124.769.2,1.538c.033.182.05.364.067.546.049.662.083,1.307.083,1.969" transform="translate(-11.979 -4.926)" fill="#e93686"/>
            <path id="Trazado_212241" data-name="Trazado 212241" d="M52.293,110.478V135.9c-.479-.132-.943-.281-1.406-.446-.7-.215-1.389-.463-2.069-.711-.182-.067-.38-.132-.562-.215-.777-.281-1.522-.563-2.266-.861-.016.017-.016,0-.033-.016-.347-.132-.678-.264-1.008-.414-.174-.071-.338-.148-.51-.22-1.781-.737-3.52-1.511-5.181-2.36-.115-.049-.215-.116-.331-.165-.6-.3-1.175-.612-1.753-.926-.2-.1-.414-.215-.612-.331q-1.12-.61-2.2-1.259l-.053-.031c-.513-.314-1.026-.629-1.539-.96a3.156,3.156,0,0,1-.43-.281q-1.514-.993-2.928-2.035c-.165-.115-.331-.231-.5-.363a1.7,1.7,0,0,1-.3-.215c-.3-.232-.578-.463-.844-.679s-.529-.413-.794-.629l-.226-.192c-.262-.219-.519-.439-.773-.661a.313.313,0,0,0-.026-.022c-.264-.232-.546-.48-.81-.728-.3-.281-.612-.562-.91-.844-.281-.264-.562-.546-.844-.826-.331-.315-.629-.629-.926-.96-.364-.4-.728-.794-1.075-1.208-.248-.281-.5-.562-.711-.86-.3-.364-.6-.728-.877-1.109-.182-.248-.364-.5-.546-.761-.248-.347-.48-.694-.711-1.041-.182-.248-.331-.514-.5-.762-.231-.38-.446-.744-.662-1.124-.215-.348-.413-.7-.6-1.059-.148-.315-.3-.629-.446-.926a24.666,24.666,0,0,1-1.042-2.481c-.067-.183-.132-.38-.182-.563a13.99,13.99,0,0,1-.431-1.356.061.061,0,0,1-.016-.049c-.067-.232-.116-.463-.182-.7a24.268,24.268,0,0,1-.762-6.087l.05-23.92a.537.537,0,0,1,0-.165,1.214,1.214,0,0,1-.017-.248c-.016-.363-.033-.728-.033-1.092,0-.331,0-.661.017-.976.016-.165.016-.331.033-.5s.016-.331.032-.5l.5.5,5.723,5.873,32.241,33.034Z" transform="translate(-1.382 -7.154)" fill="#b9ac7d"/>
            <rect id="Rectángulo_42592" data-name="Rectángulo 42592" width="31.113" height="31.516" transform="translate(32.994 18.841)" fill="#b9ac7d"/>
            <path id="Trazado_212242" data-name="Trazado 212242" d="M129.259,114.3v25.408a107.347,107.347,0,0,1-12.026,3.077h-.066c-1.042.215-2.117.414-3.193.579-.067.016-.132.033-.215.049-1.009.165-2.051.315-3.078.463-.165.016-.314.049-.479.067-.959.132-1.935.248-2.911.363-.264.033-.546.049-.827.083-.86.083-1.737.183-2.63.248-.43.033-.844.067-1.273.1-.761.05-1.506.116-2.266.149-.646.033-1.307.067-1.952.083-.562.033-1.124.067-1.687.083-1.24.033-2.464.049-3.722.049-1.82,0-3.623-.049-5.426-.132l-1.141-.049c-1.771-.083-3.507-.2-5.244-.347-.182-.033-.38-.05-.579-.067-1.654-.165-3.292-.347-4.913-.562l-.661-.1c-1.754-.248-3.49-.529-5.178-.844l-.5-.1c-.083-.017-.182-.033-.264-.049l-.248-.049c-3.342-.646-6.584-1.423-9.694-2.333-.083-.016-.148-.049-.231-.066-.761-.216-1.506-.447-2.25-.7V114.284l14.574-4.07.694.347c.513.232,1.009.5,1.522.711h.033c.877.364,1.8.678,2.73.976.264.083.546.149.827.232.661.2,1.356.363,2.051.513.33.083.661.148,1.008.215.7.132,1.407.232,2.118.315.314.032.629.083.943.115,1.042.1,2.1.149,3.193.149h.116q1.315,0,2.63-.1c.431-.032.844-.082,1.257-.132.5-.049.993-.1,1.489-.165.562-.066,1.108-.182,1.654-.281.364-.067.711-.116,1.075-.183.646-.132,1.291-.3,1.936-.446.264-.067.513-.116.761-.182.728-.2,1.455-.4,2.183-.629.149-.05.315-.083.48-.149.794-.248,1.588-.513,2.382-.81a1.506,1.506,0,0,0,.247-.083c.844-.315,1.688-.646,2.515-.993a.123.123,0,0,0,.083-.033c.563-.231,1.125-.463,1.687-.71Z" transform="translate(-5.698 -10.96)" fill="#6826cc"/>
            <path id="Trazado_212243" data-name="Trazado 212243" d="M129.259,112.336c-.678.215-1.39.43-2.084.629-.281.083-.579.182-.861.264-.694.183-1.389.38-2.1.563-.3.083-.612.165-.909.231-.711.182-1.44.364-2.167.53l-.844.2c-.777.165-1.538.348-2.316.5-.182.033-.38.067-.579.116a.57.57,0,0,0-.165.033.1.1,0,0,0-.066.016c-1.042.2-2.117.4-3.176.563-.083.016-.165.032-.231.049-1.026.165-2.051.314-3.078.463a4.888,4.888,0,0,1-.5.066c-.96.132-1.919.248-2.9.364-.264.033-.546.049-.827.083-.86.083-1.737.182-2.63.248l-1.291.1c-.761.049-1.506.116-2.249.149-.646.049-1.307.066-1.952.083-.562.032-1.124.066-1.687.083-1.24.032-2.464.049-3.722.049-1.655,0-3.309-.049-4.929-.1l-1.142-.049c-1.538-.083-3.06-.165-4.565-.281-.067-.017-.149-.017-.232-.033-1.737-.132-3.44-.315-5.144-.53a.152.152,0,0,1-.083-.016,113.269,113.269,0,0,1-20.231-4.367v-.016L73.133,89.376a75.26,75.26,0,0,0,11.332,1.969c1.356.149,2.746.248,4.151.315h.033c1.406.066,2.828.1,4.285.1.877,0,1.753-.016,2.614-.033.2-.016.4-.016.6-.016.794-.033,1.588-.067,2.365-.116a.127.127,0,0,1,.083-.016c.976-.067,1.935-.133,2.895-.232.364-.033.711-.083,1.059-.132,1.638-.182,3.242-.4,4.781-.662.016,0,.032-.016.049-.016q2.755-.472,5.31-1.141a.058.058,0,0,0,.049-.017Z" transform="translate(-5.698 -8.996)" fill="#9462e0"/>
            <path id="Trazado_212244" data-name="Trazado 212244" d="M56.626,78.288v30.623l16.508-22.96V55.345Z" transform="translate(-5.699 -5.571)" fill="#d5c485"/>
            <path id="Trazado_212245" data-name="Trazado 212245" d="M13.788,37.6V97.133l38.526,19.454V76.5Z" transform="translate(-1.388 -3.784)" fill="#b9ac7d"/>
            <path id="Trazado_212246" data-name="Trazado 212246" d="M68.817,49.774,58.975,63.438l-4.119,5.74H54.84l-2.531,3.54h-.017v.017c-.231-.083-.463-.149-.694-.232l-1.042-.347C49,71.643,47.495,71.08,46.022,70.5c-.513-.2-1.025-.4-1.522-.612-.1-.049-.2-.083-.3-.132a.749.749,0,0,1-.165-.083c-.562-.215-1.092-.463-1.638-.711-.281-.116-.579-.248-.86-.38-.53-.248-1.059-.513-1.588-.761-.331-.165-.645-.314-.976-.479-.2-.1-.4-.215-.6-.315-.3-.148-.6-.3-.877-.463-.331-.182-.662-.347-.993-.53l-1.389-.793c-.314-.183-.645-.38-.96-.579-.446-.264-.893-.53-1.307-.81-.33-.2-.645-.414-.96-.629-.115-.083-.231-.149-.347-.232-.3-.182-.6-.38-.877-.579-.182-.132-.347-.264-.529-.38-.183-.148-.364-.264-.546-.4a.357.357,0,0,0-.1-.067q-.893-.669-1.737-1.34c-.331-.264-.678-.529-.992-.81-.315-.248-.612-.513-.91-.777-.049-.049-.116-.1-.165-.149-.264-.231-.529-.463-.778-.694-.3-.265-.562-.53-.844-.81-.3-.281-.6-.579-.893-.877-.264-.265-.513-.546-.761-.811q-.447-.471-.844-.943c-.231-.264-.463-.53-.678-.794-.3-.347-.562-.694-.827-1.042-.2-.248-.38-.5-.562-.744-.165-.216-.315-.431-.479-.662-.149-.215-.3-.43-.431-.645-.066-.083-.115-.183-.182-.265-.049-.083-.116-.165-.165-.248-.2-.3-.38-.6-.562-.909s-.348-.612-.53-.926c-.116-.2-.2-.414-.314-.612-.067-.132-.132-.281-.216-.414v-.016c-.032-.049-.066-.116-.1-.165-.1-.232-.231-.463-.331-.711-.115-.248-.215-.5-.331-.745-.165-.4-.33-.793-.479-1.207-.1-.265-.182-.53-.281-.794-.132-.4-.248-.794-.363-1.208-.083-.264-.165-.53-.232-.81-.1-.414-.182-.827-.264-1.241-.067-.264-.116-.513-.165-.761v-.016c0-.033-.016-.067-.016-.1-.067-.431-.116-.861-.165-1.274-.017-.231-.049-.463-.067-.678V37.3a4.658,4.658,0,0,1-.049-.678.138.138,0,0,1,0-.116.353.353,0,0,1-.017-.132c-.016-.364-.032-.728-.032-1.092,0-.331,0-.662.016-.977.016-.165.016-.33.033-.5s.016-.331.033-.5c.016-.183.033-.364.066-.546q.076-.769.2-1.539c.016-.148.049-.3.066-.463.116-.629.265-1.257.431-1.886.033-.148.083-.281.116-.413.066-.248.132-.514.215-.761l.248-.745.2-.546c.215-.562.43-1.125.679-1.671a1.055,1.055,0,0,1,.082-.2c.265-.6.563-1.207.893-1.8.083-.165.183-.331.281-.5.248-.463.53-.91.811-1.373.1-.148.182-.314.281-.463.364-.562.761-1.125,1.158-1.671.016-.016.016-.032.032-.049.084-.1.166-.215.248-.331.017-.016.033-.049.05-.066.331-.447.678-.877,1.041-1.307.149-.165.281-.347.431-.513.4-.463.794-.91,1.224-1.357.083-.1.182-.2.264-.3l.3-.3c.414-.43.844-.86,1.291-1.273.148-.149.314-.3.479-.447.43-.4.861-.777,1.307-1.175.165-.148.347-.3.53-.446.3-.248.6-.5.893-.728a4.009,4.009,0,0,1,.414-.33c.165-.133.331-.281.513-.414a.084.084,0,0,1,.067-.033,1.613,1.613,0,0,1,.264-.2c.529-.414,1.092-.81,1.654-1.207.215-.149.43-.3.646-.463l.3-.2c.431-.281.877-.579,1.324-.861.165-.1.347-.215.513-.33.348-.216.7-.431,1.059-.646l1.093-.645c.214-.116.446-.248.661-.38.563-.3,1.125-.612,1.687-.91.265-.132.514-.264.778-.4q1.116-.6,2.283-1.141c.132-.067.248-.116.38-.183.711-.33,1.456-.661,2.184-.976.3-.116.579-.248.86-.364C44.931.513,45.559.248,46.2,0l6.021,5.905,6.385,6.286,6.749,6.633.016.017c-.629.2-1.24.414-1.836.629h-.017c-.38.148-.761.281-1.125.43l-1.092.447c-.694.3-1.389.6-2.051.926a.131.131,0,0,1-.067.032c-.115.05-.215.116-.331.165-.363.183-.728.364-1.075.563-.165.083-.315.182-.463.264l-.1.049c-.578.331-1.108.662-1.638,1.009l-.1.049c-.513.348-1.009.711-1.488,1.076a1.71,1.71,0,0,1-.183.148c-.049.033-.083.067-.132.1-.165.132-.331.264-.5.414-.2.165-.38.33-.579.513-.033.033-.083.066-.116.1l-.1.1a10.2,10.2,0,0,0-.745.744c-.083.1-.182.183-.264.281a2.255,2.255,0,0,1-.183.215,12.947,12.947,0,0,0-.844,1.092c-.032.033-.049.067-.083.1a1.143,1.143,0,0,0-.116.183,6.651,6.651,0,0,0-.446.728c-.049.1-.1.182-.148.281-.05.083-.1.182-.149.264-.033.083-.083.165-.116.248a8.871,8.871,0,0,0-.364.909c-.016.033-.032.05-.032.083a6.828,6.828,0,0,0-.315,1.241v.016a1.7,1.7,0,0,0-.066.281c0,.049-.017.116-.017.165-.016.148-.033.314-.049.463-.016.215-.033.447-.033.662,0,.2.017.413.017.612.032.165.049.315.066.48a.6.6,0,0,0,.017.165c.016.049.016.1.032.148.017.132.05.264.067.4.033.133.067.265.1.4.033.1.049.215.083.314a8.658,8.658,0,0,0,.3.844c.033.067.05.149.083.216a10.088,10.088,0,0,0,.48.943.263.263,0,0,0,.066.116c.116.2.232.4.364.6s.264.4.414.6c0,.016.016.016.016.033l.5.645a15.482,15.482,0,0,0,1.141,1.224,12.281,12.281,0,0,0,1.373,1.224c.231.183.479.38.728.563.264.2.546.4.827.6.248.182.513.347.777.513,0,.016.016.016.033.033.943.6,1.969,1.175,3.06,1.72.2.115.414.215.629.314.016,0,.032.017.049.017h.016a.5.5,0,0,0,.132.066.606.606,0,0,0,.183.083c.876.414,1.786.794,2.73,1.158.4.165.81.314,1.224.463a.125.125,0,0,0,.066.016c.563.2,1.158.4,1.754.579q1.488.5,3.077.893" transform="translate(-1.382)" fill="#ffeeb0"/>
            <path id="Trazado_212247" data-name="Trazado 212247" d="M136.831,28.476,117.643,47.317a64.458,64.458,0,0,0-8.37-2.085A82.79,82.79,0,0,0,94.4,43.926c-7.924,0-23.126,2.828-23.126,2.828V23.034A126.508,126.508,0,0,1,94.4,20.949a122.605,122.605,0,0,1,32.885,4.334q1.215.348,2.382.7c.314.1.645.215.96.314.694.215,1.356.43,2.034.662.248.083.53.182.794.264.877.315,1.737.629,2.58.96.282.1.53.2.794.3" transform="translate(-7.174 -2.109)" fill="#a2a7c5"/>
            <path id="Trazado_212248" data-name="Trazado 212248" d="M142.021,29.318l-.008,17.646L122.84,65.806l-.008-17.646Z" transform="translate(-12.363 -2.951)" fill="#666"/>
          </g>
        </g>
      </g>
    </g>
    <g id="Grupo_151640" data-name="Grupo 151640" transform="translate(994.374 132.072)">
      <g id="Grupo_151637" data-name="Grupo 151637">
        <g id="Grupo_151636" data-name="Grupo 151636" clip-path="url(#clip-path-4)">
          <path id="Trazado_212257" data-name="Trazado 212257" d="M41.056,20.528a20.528,20.528,0,1,0-24.9,20.056l4.39,4.759,4.4-4.768a21.05,21.05,0,0,0,3.8-1.236A20.438,20.438,0,0,0,41.056,20.528" fill="#595656"/>
          <path id="Trazado_212258" data-name="Trazado 212258" d="M45.682,27.784a17.9,17.9,0,1,0-17.9,17.9,17.9,17.9,0,0,0,17.9-17.9" transform="translate(-7.257 -7.256)" fill="#b289ae"/>
        </g>
      </g>
      <g id="Grupo_151639" data-name="Grupo 151639" transform="translate(2.63 2.63)">
        <g id="Grupo_151638" data-name="Grupo 151638" clip-path="url(#clip-path-5)">
          <path id="Trazado_212259" data-name="Trazado 212259" d="M49.074,48.277,38.449,45.326V42.544a6.34,6.34,0,0,0,3.483-4.972h1.451a1.41,1.41,0,1,0,0-2.82h-1.41v-.7l0-.005.809-1.875a4.99,4.99,0,0,0-2.514-6.518l-1.968-.9a6.406,6.406,0,0,0-6.5.7l-1.177.91a3.686,3.686,0,0,0-2.552,5.259l1.207,2.42h0v.7h-1.41a1.41,1.41,0,1,0,0,2.82h1.452a6.34,6.34,0,0,0,3.483,4.972v2.782L22.184,48.277a2.82,2.82,0,0,0-2.065,2.717v7.727h31.02V50.994a2.82,2.82,0,0,0-2.065-2.717M38.566,32.62c-.11.058-.223.108-.336.159.113-.051.226-.1.336-.159m.443-.255c-.088.055-.178.1-.267.154.089-.05.18-.1.267-.154m-2.873.955q-.246.02-.494.02.248,0,.494-.02m1.969-.483c-.118.05-.239.093-.359.136.121-.043.241-.086.359-.136m-.476.18c-.119.04-.24.072-.362.1.121-.032.242-.065.362-.1m-.489.141c-.117.028-.234.05-.352.072.118-.022.236-.043.352-.072m-.5.1c-.117.019-.235.031-.353.043.118-.012.236-.024.353-.043m-3.95-.639c.11.057.223.108.335.159-.113-.051-.225-.1-.335-.159m-.443-.255c.086.055.176.1.265.153-.089-.05-.179-.1-.265-.153m3.367.975q-.247,0-.494-.02.246.02.494.02m-.646-.038c-.118-.012-.236-.024-.353-.043.117.019.235.031.353.043m-.5-.072c-.118-.022-.235-.043-.352-.072.116.028.234.05.352.072m-.479-.108c-.121-.032-.242-.065-.362-.1.119.04.24.072.362.1m-.478-.148c-.121-.043-.241-.086-.359-.136.118.05.239.093.359.136" transform="translate(-17.397 -20.375)" fill="#fff"/>
        </g>
      </g>
    </g>
  </g>
</svg>
