<svg xmlns="http://www.w3.org/2000/svg" xmlns:xlink="http://www.w3.org/1999/xlink" width="820" height="306.626" viewBox="0 0 820 306.626">
  <defs>
    <linearGradient id="linear-gradient" x1="0.01" y1="0.626" x2="0.936" y2="0.599" gradientUnits="objectBoundingBox">
      <stop offset="0" stop-color="#ffedaf"/>
      <stop offset="0.271" stop-color="#fe7e81"/>
      <stop offset="0.864" stop-color="#ff1787"/>
      <stop offset="1" stop-color="#c13099"/>
    </linearGradient>
    <clipPath id="clip-path">
      <rect id="Rect치ngulo_293093" data-name="Rect치ngulo 293093" width="820" height="306.626" fill="url(#linear-gradient)"/>
    </clipPath>
    <linearGradient id="linear-gradient-3" x1="0.5" x2="0.5" y2="1" gradientUnits="objectBoundingBox">
      <stop offset="0" stop-color="#ffe0f0"/>
      <stop offset="0.793" stop-color="#fffffe"/>
      <stop offset="1" stop-color="#fff"/>
    </linearGradient>
    <clipPath id="clip-path-2">
      <rect id="Rect치ngulo_293094" data-name="Rect치ngulo 293094" width="52.542" height="7.992" transform="translate(0 0)" fill="none" stroke="#6826cc" stroke-width="2"/>
    </clipPath>
    <radialGradient id="radial-gradient" cx="0.747" cy="0.171" r="0.876" gradientTransform="matrix(-0.433, 0.902, -0.902, -0.433, 1.225, -0.428)" gradientUnits="objectBoundingBox">
      <stop offset="0" stop-color="#fff"/>
      <stop offset="1" stop-color="#d2d5e1"/>
    </radialGradient>
  </defs>
  <g id="Grupo_873845" data-name="Grupo 873845" transform="translate(-390 -10701.285)">
    <g id="Grupo_873757" data-name="Grupo 873757" transform="translate(390 10701.285)" clip-path="url(#clip-path)">
      <path id="Trazado_593405" data-name="Trazado 593405" d="M795.032,128.344a24.97,24.97,0,0,0-24.97,24.968,103.374,103.374,0,1,1-206.748,0V153.3C563.305,68.769,494.532,0,410,0S256.688,68.776,256.688,153.312a103.375,103.375,0,1,1-206.75,0,24.969,24.969,0,0,0-49.938,0C0,237.85,68.776,306.626,153.312,306.626s153.309-68.771,153.314-153.305v-.009a103.375,103.375,0,0,1,206.75,0v.012c.007,84.532,68.78,153.3,153.312,153.3S820,237.85,820,153.312a24.968,24.968,0,0,0-24.968-24.968" fill="url(#linear-gradient)"/>
    </g>
    <path id="Trazado_593630" data-name="Trazado 593630" d="M102,0A102,102,0,1,1,0,102,102,102,0,0,1,102,0Z" transform="translate(646 10959) rotate(180)" fill="url(#linear-gradient-3)"/>
    <path id="Trazado_593631" data-name="Trazado 593631" d="M102,0A102,102,0,1,1,0,102,102,102,0,0,1,102,0Z" transform="translate(698 10750)" fill="url(#linear-gradient-3)"/>
    <path id="Trazado_593632" data-name="Trazado 593632" d="M102,0A102,102,0,1,1,0,102,102,102,0,0,1,102,0Z" transform="translate(1159 10959) rotate(-180)" fill="url(#linear-gradient-3)"/>
    <path id="Trazado_593633" data-name="Trazado 593633" d="M46.483,14.431a4.016,4.016,0,0,1-1.818,1.295,7.417,7.417,0,0,1-2.64.44,5.2,5.2,0,0,1-2.689-.689,4.589,4.589,0,0,1-1.805-1.971,6.9,6.9,0,0,1-.66-2.992V9.567a6.4,6.4,0,0,1,1.312-4.279,4.549,4.549,0,0,1,3.661-1.54,4.812,4.812,0,0,1,3.2,1,4.31,4.31,0,0,1,1.428,2.876H44.416a2.316,2.316,0,0,0-2.532-2.183,2.483,2.483,0,0,0-2.146,1.014,5.159,5.159,0,0,0-.76,2.976v.927a4.9,4.9,0,0,0,.826,3.034,2.726,2.726,0,0,0,2.3,1.08,3.036,3.036,0,0,0,2.291-.727V11.393H41.9V9.8h4.582ZM53.962,16a3.113,3.113,0,0,1-.232-.838,3.393,3.393,0,0,1-4.565.232,2.47,2.47,0,0,1-.855-1.909,2.55,2.55,0,0,1,1.067-2.2,5.169,5.169,0,0,1,3.051-.768h1.237V9.924a1.573,1.573,0,0,0-.39-1.116,1.547,1.547,0,0,0-1.187-.419,1.777,1.777,0,0,0-1.129.344,1.066,1.066,0,0,0-.44.876H48.5a2.239,2.239,0,0,1,.49-1.382,3.263,3.263,0,0,1,1.332-1.009,4.68,4.68,0,0,1,1.88-.365,3.769,3.769,0,0,1,2.515.793,2.827,2.827,0,0,1,.963,2.229v4.051a4.591,4.591,0,0,0,.34,1.934V16Zm-2.216-1.453a2.294,2.294,0,0,0,1.125-.291,1.941,1.941,0,0,0,.793-.78V11.783H52.575a2.973,2.973,0,0,0-1.685.39,1.264,1.264,0,0,0-.564,1.1,1.179,1.179,0,0,0,.386.926A1.5,1.5,0,0,0,51.745,14.547Zm10.75-5.686a4.991,4.991,0,0,0-.822-.066,1.85,1.85,0,0,0-1.868,1.063V16H57.788V7.019h1.926l.05,1a2.273,2.273,0,0,1,2.025-1.17,1.888,1.888,0,0,1,.714.116ZM68.886,16a3.113,3.113,0,0,1-.232-.838,3.393,3.393,0,0,1-4.565.232,2.47,2.47,0,0,1-.855-1.909,2.55,2.55,0,0,1,1.067-2.2,5.169,5.169,0,0,1,3.051-.768h1.237V9.924a1.573,1.573,0,0,0-.39-1.116,1.547,1.547,0,0,0-1.187-.419,1.777,1.777,0,0,0-1.129.344,1.066,1.066,0,0,0-.44.876H63.425a2.239,2.239,0,0,1,.49-1.382,3.263,3.263,0,0,1,1.332-1.009,4.68,4.68,0,0,1,1.88-.365,3.769,3.769,0,0,1,2.515.793A2.827,2.827,0,0,1,70.6,9.874v4.051a4.591,4.591,0,0,0,.34,1.934V16ZM66.67,14.547a2.294,2.294,0,0,0,1.125-.291,1.941,1.941,0,0,0,.793-.78V11.783H67.5a2.973,2.973,0,0,0-1.685.39,1.264,1.264,0,0,0-.564,1.1,1.179,1.179,0,0,0,.386.926A1.5,1.5,0,0,0,66.67,14.547Zm7.919-7.529.058,1.038a3.229,3.229,0,0,1,2.615-1.2q2.806,0,2.855,3.212V16H78.1V10.181a1.85,1.85,0,0,0-.369-1.266A1.554,1.554,0,0,0,76.523,8.5a1.944,1.944,0,0,0-1.818,1.1V16H72.688V7.019ZM84.7,4.835V7.019h1.585V8.513H84.7v5.014a1.1,1.1,0,0,0,.2.743.943.943,0,0,0,.726.228,3.107,3.107,0,0,0,.706-.083v1.561a4.968,4.968,0,0,1-1.328.191q-2.324,0-2.324-2.565V8.513H81.2V7.019h1.478V4.835ZM89.97,16H87.953V7.019H89.97ZM87.829,4.678a1.083,1.083,0,0,1,.295-.778,1.108,1.108,0,0,1,.843-.31,1.122,1.122,0,0,1,.847.31,1.075,1.075,0,0,1,.3.778,1.05,1.05,0,0,1-.3.765,1.131,1.131,0,0,1-.847.305,1.117,1.117,0,0,1-.843-.305A1.058,1.058,0,0,1,87.829,4.678ZM94.32,14.39H99.1V16H91.813V14.68L96.37,8.646H91.9V7.019h7.031V8.3ZM106.082,16a3.113,3.113,0,0,1-.232-.838,3.393,3.393,0,0,1-4.565.232,2.47,2.47,0,0,1-.855-1.909,2.55,2.55,0,0,1,1.067-2.2,5.169,5.169,0,0,1,3.051-.768h1.237V9.924a1.573,1.573,0,0,0-.39-1.116,1.547,1.547,0,0,0-1.187-.419,1.777,1.777,0,0,0-1.129.344,1.066,1.066,0,0,0-.44.876H100.62a2.239,2.239,0,0,1,.49-1.382,3.263,3.263,0,0,1,1.332-1.009,4.68,4.68,0,0,1,1.88-.365,3.769,3.769,0,0,1,2.515.793,2.827,2.827,0,0,1,.963,2.229v4.051a4.591,4.591,0,0,0,.34,1.934V16Zm-2.216-1.453a2.294,2.294,0,0,0,1.125-.291,1.941,1.941,0,0,0,.793-.78V11.783H104.7a2.973,2.973,0,0,0-1.685.39,1.264,1.264,0,0,0-.564,1.1,1.179,1.179,0,0,0,.386.926A1.5,1.5,0,0,0,103.866,14.547Zm10.75-5.686a4.991,4.991,0,0,0-.822-.066,1.85,1.85,0,0,0-1.868,1.063V16h-2.017V7.019h1.926l.05,1a2.273,2.273,0,0,1,2.025-1.17,1.888,1.888,0,0,1,.714.116Zm5.13,2.573a5.307,5.307,0,0,1,.963-3.345,3.129,3.129,0,0,1,2.606-1.237A2.941,2.941,0,0,1,125.7,7.907l.116-.888h1.793V19.453h-2.017V15.236a3.011,3.011,0,0,1-2.291.93,3.1,3.1,0,0,1-2.582-1.258A5.557,5.557,0,0,1,119.745,11.435Zm2.017.174a3.748,3.748,0,0,0,.544,2.162,1.733,1.733,0,0,0,1.507.784,1.911,1.911,0,0,0,1.776-1.021V9.451a1.912,1.912,0,0,0-1.76-.979,1.762,1.762,0,0,0-1.515.772A4.089,4.089,0,0,0,121.762,11.609Zm13.456,3.511a3.128,3.128,0,0,1-2.523,1.046,2.788,2.788,0,0,1-2.212-.855,3.637,3.637,0,0,1-.751-2.474V7.019h2.017v5.794q0,1.71,1.419,1.71a1.993,1.993,0,0,0,1.984-1.054V7.019h2.017V16h-1.9Zm7.96,1.046a4.173,4.173,0,0,1-3.109-1.208,4.381,4.381,0,0,1-1.191-3.217v-.249a5.389,5.389,0,0,1,.519-2.4,3.949,3.949,0,0,1,1.457-1.648,3.851,3.851,0,0,1,2.092-.589,3.525,3.525,0,0,1,2.835,1.17,4.949,4.949,0,0,1,1,3.312v.813h-5.869a2.7,2.7,0,0,0,.743,1.76,2.23,2.23,0,0,0,1.639.647,2.731,2.731,0,0,0,2.258-1.121l1.087,1.038a3.631,3.631,0,0,1-1.44,1.249A4.509,4.509,0,0,1,143.178,16.166Zm-.241-7.695a1.7,1.7,0,0,0-1.341.581,3.012,3.012,0,0,0-.652,1.619h3.843v-.149a2.452,2.452,0,0,0-.54-1.531A1.686,1.686,0,0,0,142.938,8.471Zm13.6,7.695a4.173,4.173,0,0,1-3.109-1.208,4.381,4.381,0,0,1-1.191-3.217v-.249a5.389,5.389,0,0,1,.519-2.4,3.949,3.949,0,0,1,1.457-1.648,3.851,3.851,0,0,1,2.092-.589,3.525,3.525,0,0,1,2.835,1.17,4.949,4.949,0,0,1,1,3.312v.813h-5.869a2.7,2.7,0,0,0,.743,1.76,2.23,2.23,0,0,0,1.639.647,2.731,2.731,0,0,0,2.258-1.121L160,14.473a3.631,3.631,0,0,1-1.44,1.249A4.509,4.509,0,0,1,156.534,16.166Zm-.241-7.695a1.7,1.7,0,0,0-1.341.581,3.012,3.012,0,0,0-.652,1.619h3.843v-.149a2.452,2.452,0,0,0-.54-1.531A1.686,1.686,0,0,0,156.294,8.471ZM163.847,16H161.83V3.25h2.017ZM11.383,35.6a5.348,5.348,0,0,1-.946,3.324A3.031,3.031,0,0,1,7.9,40.166a3.051,3.051,0,0,1-2.366-.971v4.258H3.514V31.019H5.373l.083.913a2.963,2.963,0,0,1,2.416-1.079,3.062,3.062,0,0,1,2.577,1.224,5.49,5.49,0,0,1,.934,3.4Zm-2.009-.174a3.746,3.746,0,0,0-.535-2.133A1.741,1.741,0,0,0,7.307,32.5a1.856,1.856,0,0,0-1.776,1.021V37.51a1.873,1.873,0,0,0,1.793,1.046A1.739,1.739,0,0,0,8.83,37.78,4.124,4.124,0,0,0,9.374,35.426Zm8.417-2.565a4.992,4.992,0,0,0-.822-.066A1.85,1.85,0,0,0,15.1,33.857V40H13.084V31.019H15.01l.05,1a2.273,2.273,0,0,1,2.025-1.17,1.888,1.888,0,0,1,.714.116Zm.6,2.565a5.3,5.3,0,0,1,.523-2.378,3.819,3.819,0,0,1,1.469-1.627,4.14,4.14,0,0,1,2.175-.569,3.923,3.923,0,0,1,2.951,1.17,4.6,4.6,0,0,1,1.224,3.1l.008.473a5.343,5.343,0,0,1-.51,2.374,3.773,3.773,0,0,1-1.461,1.619,4.17,4.17,0,0,1-2.2.573A3.9,3.9,0,0,1,19.53,38.9a4.848,4.848,0,0,1-1.141-3.374Zm2.017.174a3.619,3.619,0,0,0,.573,2.171,1.862,1.862,0,0,0,1.594.784,1.842,1.842,0,0,0,1.59-.8,4,4,0,0,0,.569-2.333,3.572,3.572,0,0,0-.585-2.158,1.973,1.973,0,0,0-3.158-.012A3.922,3.922,0,0,0,20.406,35.6Zm7.662-.158a5.34,5.34,0,0,1,.963-3.333,3.085,3.085,0,0,1,2.582-1.258,2.931,2.931,0,0,1,2.308,1v-4.6h2.017V40H34.11l-.1-.93a2.973,2.973,0,0,1-2.416,1.1,3.068,3.068,0,0,1-2.552-1.27A5.535,5.535,0,0,1,28.067,35.443Zm2.017.174a3.739,3.739,0,0,0,.527,2.137,1.71,1.71,0,0,0,1.5.768,1.9,1.9,0,0,0,1.81-1.1V33.583A1.876,1.876,0,0,0,32.126,32.5a1.723,1.723,0,0,0-1.511.776A4.163,4.163,0,0,0,30.084,35.617Zm13.4,3.5a3.128,3.128,0,0,1-2.523,1.046,2.788,2.788,0,0,1-2.212-.855A3.637,3.637,0,0,1,38,36.837V31.019h2.017v5.794q0,1.71,1.419,1.71a1.993,1.993,0,0,0,1.984-1.054v-6.45h2.017V40h-1.9Zm7.695-.564a1.824,1.824,0,0,0,1.253-.44,1.5,1.5,0,0,0,.531-1.087h1.9a2.963,2.963,0,0,1-.523,1.565,3.43,3.43,0,0,1-1.328,1.15,3.958,3.958,0,0,1-1.81.423,3.829,3.829,0,0,1-2.988-1.22,4.84,4.84,0,0,1-1.1-3.37v-.208a4.759,4.759,0,0,1,1.1-3.283,3.8,3.8,0,0,1,2.988-1.233,3.69,3.69,0,0,1,2.611.934,3.345,3.345,0,0,1,1.058,2.453h-1.9a1.847,1.847,0,0,0-.527-1.27,1.7,1.7,0,0,0-1.258-.5,1.775,1.775,0,0,0-1.511.71,3.621,3.621,0,0,0-.54,2.154v.324a3.682,3.682,0,0,0,.527,2.179A1.773,1.773,0,0,0,51.177,38.556Zm7.736-9.72v2.183H60.5v1.494H58.913v5.014a1.1,1.1,0,0,0,.2.743.943.943,0,0,0,.726.228,3.107,3.107,0,0,0,.706-.083v1.561a4.968,4.968,0,0,1-1.328.191q-2.324,0-2.324-2.565V32.513H55.418V31.019H56.9V28.835Zm2.5,6.591a5.3,5.3,0,0,1,.523-2.378A3.819,3.819,0,0,1,63.4,31.421a4.14,4.14,0,0,1,2.175-.569,3.923,3.923,0,0,1,2.951,1.17,4.6,4.6,0,0,1,1.224,3.1l.008.473a5.343,5.343,0,0,1-.51,2.374,3.773,3.773,0,0,1-1.461,1.619,4.17,4.17,0,0,1-2.2.573A3.9,3.9,0,0,1,62.553,38.9a4.848,4.848,0,0,1-1.141-3.374Zm2.017.174A3.619,3.619,0,0,0,64,37.771a1.862,1.862,0,0,0,1.594.784,1.842,1.842,0,0,0,1.59-.8,4,4,0,0,0,.569-2.333,3.572,3.572,0,0,0-.585-2.158,1.973,1.973,0,0,0-3.158-.012A3.922,3.922,0,0,0,63.429,35.6Zm11.9-.174a5.3,5.3,0,0,1,.523-2.378,3.819,3.819,0,0,1,1.469-1.627,4.14,4.14,0,0,1,2.175-.569,3.923,3.923,0,0,1,2.951,1.17,4.6,4.6,0,0,1,1.224,3.1l.008.473a5.343,5.343,0,0,1-.51,2.374A3.773,3.773,0,0,1,81.7,39.593a4.17,4.17,0,0,1-2.2.573A3.9,3.9,0,0,1,76.465,38.9a4.848,4.848,0,0,1-1.141-3.374Zm2.017.174a3.619,3.619,0,0,0,.573,2.171,1.862,1.862,0,0,0,1.594.784,1.842,1.842,0,0,0,1.59-.8,4,4,0,0,0,.569-2.333,3.572,3.572,0,0,0-.585-2.158,1.973,1.973,0,0,0-3.158-.012A3.922,3.922,0,0,0,77.341,35.6ZM94.648,37.56a.914.914,0,0,0-.444-.822,4.723,4.723,0,0,0-1.473-.5,7.574,7.574,0,0,1-1.718-.548A2.293,2.293,0,0,1,89.5,33.575a2.391,2.391,0,0,1,.979-1.942,3.872,3.872,0,0,1,2.49-.78,4.029,4.029,0,0,1,2.6.8,2.529,2.529,0,0,1,.992,2.067H94.548a1.243,1.243,0,0,0-.432-.967,1.654,1.654,0,0,0-1.146-.386,1.787,1.787,0,0,0-1.083.307.968.968,0,0,0-.419.822.818.818,0,0,0,.39.722,5.365,5.365,0,0,0,1.577.519,7.466,7.466,0,0,1,1.864.623,2.639,2.639,0,0,1,1,.867,2.212,2.212,0,0,1,.328,1.229,2.34,2.34,0,0,1-1,1.963A4.283,4.283,0,0,1,93,40.166a4.644,4.644,0,0,1-1.967-.4,3.238,3.238,0,0,1-1.345-1.1,2.594,2.594,0,0,1-.481-1.5h1.959a1.421,1.421,0,0,0,.54,1.1,2.1,2.1,0,0,0,1.32.386,2.04,2.04,0,0,0,1.212-.3A.938.938,0,0,0,94.648,37.56Zm7.695,2.606a4.173,4.173,0,0,1-3.109-1.208,4.381,4.381,0,0,1-1.191-3.217v-.249a5.389,5.389,0,0,1,.519-2.4,3.949,3.949,0,0,1,1.457-1.648,3.851,3.851,0,0,1,2.092-.589,3.525,3.525,0,0,1,2.835,1.17,4.949,4.949,0,0,1,1,3.312v.813h-5.869a2.7,2.7,0,0,0,.743,1.76,2.23,2.23,0,0,0,1.639.647,2.731,2.731,0,0,0,2.258-1.121l1.087,1.038a3.631,3.631,0,0,1-1.44,1.249A4.509,4.509,0,0,1,102.343,40.166Zm-.241-7.695a1.7,1.7,0,0,0-1.341.581,3.012,3.012,0,0,0-.652,1.619h3.843v-.149a2.452,2.452,0,0,0-.54-1.531A1.686,1.686,0,0,0,102.1,32.471Zm10.11.39a4.992,4.992,0,0,0-.822-.066,1.85,1.85,0,0,0-1.868,1.063V40h-2.017V31.019h1.926l.05,1a2.273,2.273,0,0,1,2.025-1.17,1.888,1.888,0,0,1,.714.116Zm4.59,4.582,1.9-6.425h2.083L117.674,40h-1.751l-3.138-8.981h2.092ZM124.19,40h-2.017V31.019h2.017Zm-2.142-11.322a1.083,1.083,0,0,1,.295-.778,1.108,1.108,0,0,1,.843-.31,1.122,1.122,0,0,1,.847.31,1.075,1.075,0,0,1,.3.778,1.05,1.05,0,0,1-.3.765,1.131,1.131,0,0,1-.847.305,1.117,1.117,0,0,1-.843-.305A1.058,1.058,0,0,1,122.049,28.678Zm8.027,9.878a1.824,1.824,0,0,0,1.253-.44,1.5,1.5,0,0,0,.531-1.087h1.9a2.963,2.963,0,0,1-.523,1.565,3.43,3.43,0,0,1-1.328,1.15,3.958,3.958,0,0,1-1.81.423,3.829,3.829,0,0,1-2.988-1.22,4.84,4.84,0,0,1-1.1-3.37v-.208a4.759,4.759,0,0,1,1.1-3.283,3.8,3.8,0,0,1,2.988-1.233,3.69,3.69,0,0,1,2.611.934,3.345,3.345,0,0,1,1.058,2.453h-1.9a1.847,1.847,0,0,0-.527-1.27,1.7,1.7,0,0,0-1.258-.5,1.775,1.775,0,0,0-1.511.71,3.621,3.621,0,0,0-.54,2.154v.324a3.682,3.682,0,0,0,.527,2.179A1.773,1.773,0,0,0,130.076,38.556ZM137.43,40h-2.017V31.019h2.017Zm-2.142-11.322a1.083,1.083,0,0,1,.295-.778,1.108,1.108,0,0,1,.843-.31,1.122,1.122,0,0,1,.847.31,1.075,1.075,0,0,1,.3.778,1.05,1.05,0,0,1-.3.765,1.131,1.131,0,0,1-.847.305,1.117,1.117,0,0,1-.843-.305A1.058,1.058,0,0,1,135.289,28.678Zm3.959,6.749a5.3,5.3,0,0,1,.523-2.378,3.819,3.819,0,0,1,1.469-1.627,4.14,4.14,0,0,1,2.175-.569,3.923,3.923,0,0,1,2.951,1.17,4.6,4.6,0,0,1,1.224,3.1l.008.473a5.343,5.343,0,0,1-.51,2.374,3.773,3.773,0,0,1-1.461,1.619,4.17,4.17,0,0,1-2.2.573,3.9,3.9,0,0,1-3.042-1.266,4.848,4.848,0,0,1-1.141-3.374Zm2.017.174a3.619,3.619,0,0,0,.573,2.171,1.862,1.862,0,0,0,1.594.784,1.842,1.842,0,0,0,1.59-.8,4,4,0,0,0,.569-2.333A3.572,3.572,0,0,0,145,33.268a1.973,1.973,0,0,0-3.158-.012A3.922,3.922,0,0,0,141.265,35.6ZM155.684,40h-2.017V27.25h2.017Zm4.341,0h-2.017V27.25h2.017Zm6.151.166a4.173,4.173,0,0,1-3.109-1.208,4.381,4.381,0,0,1-1.191-3.217v-.249a5.389,5.389,0,0,1,.519-2.4,3.949,3.949,0,0,1,1.457-1.648,3.851,3.851,0,0,1,2.092-.589,3.525,3.525,0,0,1,2.835,1.17,4.949,4.949,0,0,1,1,3.312v.813H163.91a2.7,2.7,0,0,0,.743,1.76,2.23,2.23,0,0,0,1.639.647,2.731,2.731,0,0,0,2.258-1.121l1.087,1.038a3.631,3.631,0,0,1-1.44,1.249A4.509,4.509,0,0,1,166.176,40.166Zm-.241-7.695a1.7,1.7,0,0,0-1.341.581,3.012,3.012,0,0,0-.652,1.619h3.843v-.149a2.452,2.452,0,0,0-.54-1.531A1.686,1.686,0,0,0,165.935,32.471Zm5.055,2.972a5.253,5.253,0,0,1,.984-3.341,3.157,3.157,0,0,1,2.611-1.249A2.958,2.958,0,0,1,177,31.923l.091-.9h1.818v8.708a3.619,3.619,0,0,1-1.1,2.789,4.189,4.189,0,0,1-2.968,1.021,4.783,4.783,0,0,1-1.93-.411,3.429,3.429,0,0,1-1.432-1.075l.955-1.212a2.883,2.883,0,0,0,2.291,1.1,2.228,2.228,0,0,0,1.585-.544,2.084,2.084,0,0,0,.581-1.6v-.606a2.97,2.97,0,0,1-2.324.971,3.15,3.15,0,0,1-2.577-1.253A5.423,5.423,0,0,1,170.99,35.443Zm2.009.174a3.616,3.616,0,0,0,.552,2.129,1.775,1.775,0,0,0,1.531.776,1.941,1.941,0,0,0,1.81-1.046V33.525A1.913,1.913,0,0,0,175.1,32.5a1.782,1.782,0,0,0-1.548.789A4.049,4.049,0,0,0,173,35.617Zm13.422,3.5a3.128,3.128,0,0,1-2.523,1.046,2.788,2.788,0,0,1-2.212-.855,3.637,3.637,0,0,1-.751-2.474V31.019h2.017v5.794q0,1.71,1.419,1.71a1.993,1.993,0,0,0,1.984-1.054v-6.45h2.017V40h-1.9Zm7.96,1.046a4.173,4.173,0,0,1-3.109-1.208,4.381,4.381,0,0,1-1.191-3.217v-.249a5.389,5.389,0,0,1,.519-2.4,3.949,3.949,0,0,1,1.457-1.648,3.851,3.851,0,0,1,2.092-.589,3.525,3.525,0,0,1,2.835,1.17,4.949,4.949,0,0,1,1,3.312v.813h-5.869a2.7,2.7,0,0,0,.743,1.76,2.23,2.23,0,0,0,1.639.647,2.731,2.731,0,0,0,2.258-1.121l1.087,1.038a3.631,3.631,0,0,1-1.44,1.249A4.509,4.509,0,0,1,194.382,40.166Zm-.241-7.695a1.7,1.7,0,0,0-1.341.581,3.012,3.012,0,0,0-.652,1.619h3.843v-.149a2.452,2.452,0,0,0-.54-1.531A1.686,1.686,0,0,0,194.141,32.471ZM28.624,64a3.113,3.113,0,0,1-.232-.838,3.393,3.393,0,0,1-4.565.232,2.47,2.47,0,0,1-.855-1.909,2.55,2.55,0,0,1,1.067-2.2,5.169,5.169,0,0,1,3.051-.768h1.237v-.589a1.573,1.573,0,0,0-.39-1.116,1.547,1.547,0,0,0-1.187-.419,1.777,1.777,0,0,0-1.129.344,1.066,1.066,0,0,0-.44.876H23.162a2.239,2.239,0,0,1,.49-1.382,3.263,3.263,0,0,1,1.332-1.009,4.68,4.68,0,0,1,1.88-.365,3.769,3.769,0,0,1,2.515.793,2.827,2.827,0,0,1,.963,2.229v4.051a4.591,4.591,0,0,0,.34,1.934V64Zm-2.216-1.453a2.294,2.294,0,0,0,1.125-.291,1.941,1.941,0,0,0,.793-.78V59.783H27.237a2.973,2.973,0,0,0-1.685.39,1.264,1.264,0,0,0-.564,1.1,1.179,1.179,0,0,0,.386.926A1.5,1.5,0,0,0,26.407,62.547Zm15.315-.988a.914.914,0,0,0-.444-.822,4.723,4.723,0,0,0-1.473-.5,7.574,7.574,0,0,1-1.718-.548,2.293,2.293,0,0,1-1.511-2.117,2.391,2.391,0,0,1,.979-1.942,3.872,3.872,0,0,1,2.49-.78,4.029,4.029,0,0,1,2.6.8,2.529,2.529,0,0,1,.992,2.067H41.623a1.243,1.243,0,0,0-.432-.967,1.654,1.654,0,0,0-1.146-.386,1.787,1.787,0,0,0-1.083.307.968.968,0,0,0-.419.822.818.818,0,0,0,.39.722,5.365,5.365,0,0,0,1.577.519,7.466,7.466,0,0,1,1.864.623,2.639,2.639,0,0,1,1,.867,2.212,2.212,0,0,1,.328,1.229,2.34,2.34,0,0,1-1,1.963,4.283,4.283,0,0,1-2.631.751,4.644,4.644,0,0,1-1.967-.4,3.238,3.238,0,0,1-1.345-1.1,2.594,2.594,0,0,1-.481-1.5h1.959a1.421,1.421,0,0,0,.54,1.1,2.1,2.1,0,0,0,1.32.386,2.04,2.04,0,0,0,1.212-.3A.938.938,0,0,0,41.722,61.56ZM50.9,63.12a3.128,3.128,0,0,1-2.523,1.046,2.788,2.788,0,0,1-2.212-.855,3.637,3.637,0,0,1-.751-2.474V55.019h2.017v5.794q0,1.71,1.419,1.71a1.993,1.993,0,0,0,1.984-1.054v-6.45h2.017V64h-1.9Zm16.1-3.52a5.348,5.348,0,0,1-.946,3.324,3.287,3.287,0,0,1-4.906.27v4.258H59.137V55.019H61l.083.913A2.963,2.963,0,0,1,63.5,54.853a3.062,3.062,0,0,1,2.577,1.224,5.49,5.49,0,0,1,.934,3.4ZM65,59.426a3.746,3.746,0,0,0-.535-2.133,1.741,1.741,0,0,0-1.531-.789,1.856,1.856,0,0,0-1.776,1.021V61.51a1.873,1.873,0,0,0,1.793,1.046,1.739,1.739,0,0,0,1.507-.776A4.124,4.124,0,0,0,65,59.426Zm9.156,3.694a3.128,3.128,0,0,1-2.523,1.046,2.788,2.788,0,0,1-2.212-.855,3.637,3.637,0,0,1-.751-2.474V55.019h2.017v5.794q0,1.71,1.419,1.71a1.993,1.993,0,0,0,1.984-1.054v-6.45H76.1V64H74.2ZM73,51.25h2.3L73,53.765l-1.619,0ZM86.04,59.6a5.4,5.4,0,0,1-.934,3.329,3.042,3.042,0,0,1-2.569,1.237,2.93,2.93,0,0,1-2.457-1.137l-.1.971H78.154V51.25h2.017v4.632a2.92,2.92,0,0,1,2.349-1.029,3.077,3.077,0,0,1,2.582,1.22,5.484,5.484,0,0,1,.938,3.412Zm-2.017-.174a3.813,3.813,0,0,0-.515-2.191,1.714,1.714,0,0,0-1.494-.73,1.873,1.873,0,0,0-1.843,1.146v3.7a1.892,1.892,0,0,0,1.859,1.17,1.7,1.7,0,0,0,1.461-.706,3.7,3.7,0,0,0,.531-2.133ZM89.875,64H87.858V51.25h2.017Zm4.341,0H92.2V55.019h2.017ZM92.075,52.678a1.083,1.083,0,0,1,.295-.778,1.108,1.108,0,0,1,.843-.31,1.122,1.122,0,0,1,.847.31,1.075,1.075,0,0,1,.3.778,1.05,1.05,0,0,1-.3.765,1.131,1.131,0,0,1-.847.305,1.117,1.117,0,0,1-.843-.305A1.058,1.058,0,0,1,92.075,52.678Zm8.027,9.878a1.824,1.824,0,0,0,1.253-.44,1.5,1.5,0,0,0,.531-1.087h1.9a2.963,2.963,0,0,1-.523,1.565,3.43,3.43,0,0,1-1.328,1.15,3.958,3.958,0,0,1-1.81.423,3.829,3.829,0,0,1-2.988-1.22,4.84,4.84,0,0,1-1.1-3.37v-.208a4.759,4.759,0,0,1,1.1-3.283,3.8,3.8,0,0,1,2.988-1.233,3.69,3.69,0,0,1,2.611.934,3.345,3.345,0,0,1,1.058,2.453h-1.9a1.847,1.847,0,0,0-.527-1.27,1.7,1.7,0,0,0-1.258-.5,1.775,1.775,0,0,0-1.511.71,3.621,3.621,0,0,0-.54,2.154v.324a3.681,3.681,0,0,0,.527,2.179A1.773,1.773,0,0,0,100.1,62.556Zm4.831-3.129a5.3,5.3,0,0,1,.523-2.378,3.819,3.819,0,0,1,1.469-1.627,4.14,4.14,0,0,1,2.175-.569,3.923,3.923,0,0,1,2.951,1.17,4.6,4.6,0,0,1,1.224,3.1l.008.473a5.343,5.343,0,0,1-.51,2.374,3.773,3.773,0,0,1-1.461,1.619,4.17,4.17,0,0,1-2.2.573,3.9,3.9,0,0,1-3.042-1.266,4.848,4.848,0,0,1-1.141-3.374Zm2.017.174a3.619,3.619,0,0,0,.573,2.171,1.862,1.862,0,0,0,1.594.784,1.842,1.842,0,0,0,1.59-.8,4,4,0,0,0,.569-2.333,3.572,3.572,0,0,0-.585-2.158,1.973,1.973,0,0,0-3.158-.012A3.922,3.922,0,0,0,106.95,59.6Zm11.9-.174a5.3,5.3,0,0,1,.523-2.378,3.819,3.819,0,0,1,1.469-1.627,4.14,4.14,0,0,1,2.175-.569,3.923,3.923,0,0,1,2.951,1.17,4.6,4.6,0,0,1,1.224,3.1l.008.473a5.343,5.343,0,0,1-.51,2.374,3.773,3.773,0,0,1-1.461,1.619,4.17,4.17,0,0,1-2.2.573,3.9,3.9,0,0,1-3.042-1.266,4.848,4.848,0,0,1-1.141-3.374Zm2.017.174a3.619,3.619,0,0,0,.573,2.171,1.862,1.862,0,0,0,1.594.784,1.842,1.842,0,0,0,1.59-.8,4,4,0,0,0,.569-2.333,3.572,3.572,0,0,0-.585-2.158,1.973,1.973,0,0,0-3.158-.012A3.922,3.922,0,0,0,120.862,59.6Zm15.921,0a5.4,5.4,0,0,1-.934,3.329,3.042,3.042,0,0,1-2.569,1.237,2.93,2.93,0,0,1-2.457-1.137l-.1.971H128.9V51.25h2.017v4.632a2.92,2.92,0,0,1,2.349-1.029,3.077,3.077,0,0,1,2.582,1.22,5.484,5.484,0,0,1,.938,3.412Zm-2.017-.174a3.813,3.813,0,0,0-.515-2.191,1.714,1.714,0,0,0-1.494-.73,1.873,1.873,0,0,0-1.843,1.146v3.7a1.892,1.892,0,0,0,1.859,1.17,1.7,1.7,0,0,0,1.461-.706,3.7,3.7,0,0,0,.531-2.133Zm5.811-4.408V64.8a2.955,2.955,0,0,1-.685,2.1,2.625,2.625,0,0,1-2,.726,4.031,4.031,0,0,1-1.071-.141V65.893a3.108,3.108,0,0,0,.714.075q1,0,1.029-1.1V55.019Zm-2.191-2.341a1.083,1.083,0,0,1,.295-.778,1.108,1.108,0,0,1,.843-.31,1.122,1.122,0,0,1,.847.31,1.075,1.075,0,0,1,.3.778,1.05,1.05,0,0,1-.3.765,1.131,1.131,0,0,1-.847.305,1.117,1.117,0,0,1-.843-.305A1.058,1.058,0,0,1,138.385,52.678Zm8.3,11.488a4.173,4.173,0,0,1-3.109-1.208,4.381,4.381,0,0,1-1.191-3.217v-.249a5.389,5.389,0,0,1,.519-2.4,3.949,3.949,0,0,1,1.457-1.648,3.851,3.851,0,0,1,2.092-.589,3.525,3.525,0,0,1,2.835,1.17,4.949,4.949,0,0,1,1,3.312v.813h-5.869a2.7,2.7,0,0,0,.743,1.76,2.23,2.23,0,0,0,1.639.647,2.731,2.731,0,0,0,2.258-1.121l1.087,1.038a3.631,3.631,0,0,1-1.44,1.249A4.509,4.509,0,0,1,146.686,64.166Zm-.241-7.695a1.7,1.7,0,0,0-1.341.581,3.012,3.012,0,0,0-.652,1.619H148.3v-.149a2.452,2.452,0,0,0-.54-1.531A1.686,1.686,0,0,0,146.445,56.471Zm7.936-3.636v2.183h1.585v1.494H154.38v5.014a1.1,1.1,0,0,0,.2.743.943.943,0,0,0,.726.228,3.107,3.107,0,0,0,.706-.083v1.561a4.968,4.968,0,0,1-1.328.191q-2.324,0-2.324-2.565V56.513h-1.478V55.019h1.478V52.835ZM159.651,64h-2.017V55.019h2.017ZM157.51,52.678a1.083,1.083,0,0,1,.295-.778,1.108,1.108,0,0,1,.843-.31,1.122,1.122,0,0,1,.847.31,1.075,1.075,0,0,1,.3.778,1.05,1.05,0,0,1-.3.765,1.131,1.131,0,0,1-.847.305,1.117,1.117,0,0,1-.843-.305A1.058,1.058,0,0,1,157.51,52.678Zm7.5,8.766,1.9-6.425H169L165.885,64h-1.751L161,55.019h2.092Zm4.74-2.017a5.3,5.3,0,0,1,.523-2.378,3.819,3.819,0,0,1,1.469-1.627,4.14,4.14,0,0,1,2.175-.569,3.923,3.923,0,0,1,2.951,1.17,4.6,4.6,0,0,1,1.224,3.1l.008.473a5.343,5.343,0,0,1-.51,2.374,3.773,3.773,0,0,1-1.461,1.619,4.17,4.17,0,0,1-2.2.573,3.9,3.9,0,0,1-3.042-1.266,4.848,4.848,0,0,1-1.141-3.374Zm2.017.174a3.619,3.619,0,0,0,.573,2.171,1.862,1.862,0,0,0,1.594.784,1.842,1.842,0,0,0,1.59-.8,4,4,0,0,0,.569-2.333,3.572,3.572,0,0,0-.585-2.158,1.973,1.973,0,0,0-3.158-.012A3.922,3.922,0,0,0,171.771,59.6Z" transform="translate(442 10712.285)" fill="#12263f"/>
    <path id="Trazado_593634" data-name="Trazado 593634" d="M45.038,10.272a7.46,7.46,0,0,1-.544,2.976,4.847,4.847,0,0,1-1.523,2l2.075,1.619-1.361,1.229-2.573-2.034a5.213,5.213,0,0,1-1.087.108,4.825,4.825,0,0,1-2.611-.718A4.716,4.716,0,0,1,35.637,13.4,7.183,7.183,0,0,1,35,10.339V9.658a7.352,7.352,0,0,1,.627-3.121A4.71,4.71,0,0,1,37.4,4.466a4.8,4.8,0,0,1,2.611-.718,4.887,4.887,0,0,1,2.635.71A4.65,4.65,0,0,1,44.407,6.5a7.336,7.336,0,0,1,.631,3.1Zm-2.108-.631a5.248,5.248,0,0,0-.764-3.1,2.508,2.508,0,0,0-2.158-1.054,2.469,2.469,0,0,0-2.121,1.067A5.165,5.165,0,0,0,37.1,9.567v.706a5.3,5.3,0,0,0,.768,3.063,2.684,2.684,0,0,0,4.308.042,5.356,5.356,0,0,0,.751-3.1Zm9.488,5.479a3.128,3.128,0,0,1-2.523,1.046,2.788,2.788,0,0,1-2.212-.855,3.637,3.637,0,0,1-.751-2.474V7.019h2.017v5.794q0,1.71,1.419,1.71a1.993,1.993,0,0,0,1.984-1.054V7.019h2.017V16h-1.9Zm7.96,1.046a4.173,4.173,0,0,1-3.109-1.208,4.381,4.381,0,0,1-1.191-3.217v-.249a5.389,5.389,0,0,1,.519-2.4,3.949,3.949,0,0,1,1.457-1.648,3.851,3.851,0,0,1,2.092-.589,3.525,3.525,0,0,1,2.835,1.17,4.949,4.949,0,0,1,1,3.312v.813H58.111a2.7,2.7,0,0,0,.743,1.76,2.23,2.23,0,0,0,1.639.647,2.731,2.731,0,0,0,2.258-1.121l1.087,1.038a3.631,3.631,0,0,1-1.44,1.249A4.509,4.509,0,0,1,60.377,16.166Zm-.241-7.695a1.7,1.7,0,0,0-1.341.581,3.012,3.012,0,0,0-.652,1.619h3.843v-.149a2.452,2.452,0,0,0-.54-1.531A1.686,1.686,0,0,0,60.137,8.471Zm9.289,2.972A5.253,5.253,0,0,1,70.409,8.1,3.157,3.157,0,0,1,73.02,6.853a2.958,2.958,0,0,1,2.416,1.071l.091-.9h1.818v8.708a3.619,3.619,0,0,1-1.1,2.789,4.189,4.189,0,0,1-2.968,1.021,4.783,4.783,0,0,1-1.93-.411,3.429,3.429,0,0,1-1.432-1.075l.955-1.212a2.883,2.883,0,0,0,2.291,1.1,2.228,2.228,0,0,0,1.585-.544,2.084,2.084,0,0,0,.581-1.6v-.606A2.97,2.97,0,0,1,73,16.166a3.15,3.15,0,0,1-2.577-1.253A5.423,5.423,0,0,1,69.425,11.443Zm2.009.174a3.616,3.616,0,0,0,.552,2.129,1.775,1.775,0,0,0,1.531.776,1.941,1.941,0,0,0,1.81-1.046V9.525A1.913,1.913,0,0,0,73.534,8.5a1.782,1.782,0,0,0-1.548.789A4.049,4.049,0,0,0,71.434,11.617Zm11.937,4.549a4.173,4.173,0,0,1-3.109-1.208,4.381,4.381,0,0,1-1.191-3.217v-.249a5.389,5.389,0,0,1,.519-2.4,3.949,3.949,0,0,1,1.457-1.648,3.851,3.851,0,0,1,2.092-.589,3.525,3.525,0,0,1,2.835,1.17,4.949,4.949,0,0,1,1,3.312v.813H81.1a2.7,2.7,0,0,0,.743,1.76,2.23,2.23,0,0,0,1.639.647,2.731,2.731,0,0,0,2.258-1.121l1.087,1.038a3.631,3.631,0,0,1-1.44,1.249A4.509,4.509,0,0,1,83.371,16.166ZM83.13,8.471a1.7,1.7,0,0,0-1.341.581,3.012,3.012,0,0,0-.652,1.619h3.843v-.149a2.452,2.452,0,0,0-.54-1.531A1.686,1.686,0,0,0,83.13,8.471Zm7.28-1.453.058,1.038a3.229,3.229,0,0,1,2.615-1.2q2.806,0,2.855,3.212V16H93.921V10.181a1.85,1.85,0,0,0-.369-1.266A1.554,1.554,0,0,0,92.344,8.5a1.944,1.944,0,0,0-1.818,1.1V16H88.509V7.019Zm11.538,9.147a4.173,4.173,0,0,1-3.109-1.208,4.381,4.381,0,0,1-1.191-3.217v-.249a5.389,5.389,0,0,1,.519-2.4,3.949,3.949,0,0,1,1.457-1.648,3.851,3.851,0,0,1,2.092-.589,3.525,3.525,0,0,1,2.835,1.17,4.949,4.949,0,0,1,1,3.312v.813H99.682a2.7,2.7,0,0,0,.743,1.76,2.23,2.23,0,0,0,1.639.647,2.731,2.731,0,0,0,2.258-1.121l1.087,1.038a3.631,3.631,0,0,1-1.44,1.249A4.509,4.509,0,0,1,101.948,16.166Zm-.241-7.695a1.7,1.7,0,0,0-1.341.581,3.012,3.012,0,0,0-.652,1.619h3.843v-.149a2.452,2.452,0,0,0-.54-1.531A1.686,1.686,0,0,0,101.707,8.471Zm10.11.39A4.991,4.991,0,0,0,111,8.795a1.85,1.85,0,0,0-1.868,1.063V16h-2.017V7.019h1.926l.05,1a2.273,2.273,0,0,1,2.025-1.17,1.888,1.888,0,0,1,.714.116Zm5.072,7.3a4.173,4.173,0,0,1-3.109-1.208,4.381,4.381,0,0,1-1.191-3.217v-.249a5.389,5.389,0,0,1,.519-2.4,3.949,3.949,0,0,1,1.457-1.648,3.851,3.851,0,0,1,2.092-.589,3.525,3.525,0,0,1,2.835,1.17,4.949,4.949,0,0,1,1,3.312v.813h-5.869a2.7,2.7,0,0,0,.743,1.76,2.23,2.23,0,0,0,1.639.647,2.731,2.731,0,0,0,2.258-1.121l1.087,1.038a3.631,3.631,0,0,1-1.44,1.249A4.509,4.509,0,0,1,116.889,16.166Zm-.241-7.695a1.7,1.7,0,0,0-1.341.581,3.012,3.012,0,0,0-.652,1.619H118.5v-.149a2.452,2.452,0,0,0-.54-1.531A1.686,1.686,0,0,0,116.648,8.471ZM128.436,16h-2.017V3.25h2.017ZM136,16a3.113,3.113,0,0,1-.232-.838,3.393,3.393,0,0,1-4.565.232,2.47,2.47,0,0,1-.855-1.909,2.55,2.55,0,0,1,1.067-2.2,5.169,5.169,0,0,1,3.051-.768H135.7V9.924a1.573,1.573,0,0,0-.39-1.116,1.547,1.547,0,0,0-1.187-.419,1.777,1.777,0,0,0-1.129.344,1.066,1.066,0,0,0-.44.876h-2.017a2.239,2.239,0,0,1,.49-1.382,3.263,3.263,0,0,1,1.332-1.009,4.68,4.68,0,0,1,1.88-.365,3.769,3.769,0,0,1,2.515.793,2.827,2.827,0,0,1,.963,2.229v4.051a4.591,4.591,0,0,0,.34,1.934V16Zm-2.216-1.453a2.294,2.294,0,0,0,1.125-.291,1.941,1.941,0,0,0,.793-.78V11.783h-1.087a2.973,2.973,0,0,0-1.685.39,1.264,1.264,0,0,0-.564,1.1,1.179,1.179,0,0,0,.386.926A1.5,1.5,0,0,0,133.781,14.547ZM32.3,37.56a.914.914,0,0,0-.444-.822,4.723,4.723,0,0,0-1.473-.5,7.574,7.574,0,0,1-1.718-.548,2.293,2.293,0,0,1-1.511-2.117,2.391,2.391,0,0,1,.979-1.942,3.872,3.872,0,0,1,2.49-.78,4.029,4.029,0,0,1,2.6.8,2.529,2.529,0,0,1,.992,2.067H32.2a1.243,1.243,0,0,0-.432-.967,1.654,1.654,0,0,0-1.146-.386,1.787,1.787,0,0,0-1.083.307.968.968,0,0,0-.419.822.818.818,0,0,0,.39.722,5.365,5.365,0,0,0,1.577.519,7.466,7.466,0,0,1,1.864.623,2.639,2.639,0,0,1,1,.867,2.212,2.212,0,0,1,.328,1.229,2.34,2.34,0,0,1-1,1.963,4.283,4.283,0,0,1-2.631.751,4.644,4.644,0,0,1-1.967-.4,3.238,3.238,0,0,1-1.345-1.1,2.594,2.594,0,0,1-.481-1.5h1.959a1.421,1.421,0,0,0,.54,1.1,2.1,2.1,0,0,0,1.32.386,2.04,2.04,0,0,0,1.212-.3A.938.938,0,0,0,32.3,37.56ZM41.41,40a3.113,3.113,0,0,1-.232-.838,3.393,3.393,0,0,1-4.565.232,2.47,2.47,0,0,1-.855-1.909,2.55,2.55,0,0,1,1.067-2.2,5.169,5.169,0,0,1,3.051-.768h1.237v-.589a1.573,1.573,0,0,0-.39-1.116,1.547,1.547,0,0,0-1.187-.419,1.777,1.777,0,0,0-1.129.344,1.066,1.066,0,0,0-.44.876H35.948a2.239,2.239,0,0,1,.49-1.382,3.263,3.263,0,0,1,1.332-1.009,4.68,4.68,0,0,1,1.88-.365,3.769,3.769,0,0,1,2.515.793,2.827,2.827,0,0,1,.963,2.229v4.051a4.591,4.591,0,0,0,.34,1.934V40Zm-2.216-1.453a2.294,2.294,0,0,0,1.125-.291,1.941,1.941,0,0,0,.793-.78V35.783H40.024a2.973,2.973,0,0,0-1.685.39,1.264,1.264,0,0,0-.564,1.1,1.179,1.179,0,0,0,.386.926A1.5,1.5,0,0,0,39.194,38.547Zm8.575-9.712v2.183h1.585v1.494H47.769v5.014a1.1,1.1,0,0,0,.2.743.943.943,0,0,0,.726.228,3.107,3.107,0,0,0,.706-.083v1.561a4.968,4.968,0,0,1-1.328.191q-2.324,0-2.324-2.565V32.513H44.274V31.019h1.478V28.835ZM53.04,40H51.022V31.019H53.04ZM50.9,28.678a1.083,1.083,0,0,1,.295-.778,1.108,1.108,0,0,1,.843-.31,1.122,1.122,0,0,1,.847.31,1.075,1.075,0,0,1,.3.778,1.05,1.05,0,0,1-.3.765,1.131,1.131,0,0,1-.847.305,1.117,1.117,0,0,1-.843-.305A1.058,1.058,0,0,1,50.9,28.678ZM60.27,37.56a.914.914,0,0,0-.444-.822,4.723,4.723,0,0,0-1.473-.5,7.574,7.574,0,0,1-1.718-.548,2.293,2.293,0,0,1-1.511-2.117,2.391,2.391,0,0,1,.979-1.942,3.872,3.872,0,0,1,2.49-.78,4.029,4.029,0,0,1,2.6.8,2.529,2.529,0,0,1,.992,2.067H60.17a1.243,1.243,0,0,0-.432-.967,1.654,1.654,0,0,0-1.146-.386,1.787,1.787,0,0,0-1.083.307.968.968,0,0,0-.419.822.818.818,0,0,0,.39.722,5.365,5.365,0,0,0,1.577.519,7.466,7.466,0,0,1,1.864.623,2.639,2.639,0,0,1,1,.867,2.212,2.212,0,0,1,.328,1.229,2.34,2.34,0,0,1-1,1.963,4.283,4.283,0,0,1-2.631.751,4.644,4.644,0,0,1-1.967-.4,3.238,3.238,0,0,1-1.345-1.1,2.594,2.594,0,0,1-.481-1.5h1.959a1.421,1.421,0,0,0,.54,1.1,2.1,2.1,0,0,0,1.32.386,2.04,2.04,0,0,0,1.212-.3A.938.938,0,0,0,60.27,37.56ZM64.719,40V32.513h-1.37V31.019h1.37V30.2a3.085,3.085,0,0,1,.83-2.308,3.18,3.18,0,0,1,2.324-.813A4.662,4.662,0,0,1,69,27.225l-.05,1.577a3.973,3.973,0,0,0-.772-.066,1.3,1.3,0,0,0-1.444,1.486v.8h1.826v1.494H66.736V40ZM75.4,40a3.113,3.113,0,0,1-.232-.838,3.393,3.393,0,0,1-4.565.232,2.47,2.47,0,0,1-.855-1.909,2.55,2.55,0,0,1,1.067-2.2,5.169,5.169,0,0,1,3.051-.768H75.1v-.589a1.573,1.573,0,0,0-.39-1.116,1.547,1.547,0,0,0-1.187-.419,1.777,1.777,0,0,0-1.129.344,1.066,1.066,0,0,0-.44.876H69.94a2.239,2.239,0,0,1,.49-1.382,3.263,3.263,0,0,1,1.332-1.009,4.68,4.68,0,0,1,1.88-.365,3.769,3.769,0,0,1,2.515.793,2.827,2.827,0,0,1,.963,2.229v4.051a4.591,4.591,0,0,0,.34,1.934V40Zm-2.216-1.453a2.294,2.294,0,0,0,1.125-.291,1.941,1.941,0,0,0,.793-.78V35.783H74.016a2.973,2.973,0,0,0-1.685.39,1.264,1.264,0,0,0-.564,1.1,1.179,1.179,0,0,0,.386.926A1.5,1.5,0,0,0,73.186,38.547Zm9.737.008a1.824,1.824,0,0,0,1.253-.44,1.5,1.5,0,0,0,.531-1.087h1.9a2.963,2.963,0,0,1-.523,1.565,3.43,3.43,0,0,1-1.328,1.15,3.958,3.958,0,0,1-1.81.423,3.829,3.829,0,0,1-2.988-1.22,4.84,4.84,0,0,1-1.1-3.37v-.208a4.759,4.759,0,0,1,1.1-3.283,3.8,3.8,0,0,1,2.988-1.233,3.69,3.69,0,0,1,2.611.934,3.345,3.345,0,0,1,1.058,2.453h-1.9a1.847,1.847,0,0,0-.527-1.27,1.7,1.7,0,0,0-1.258-.5,1.775,1.775,0,0,0-1.511.71,3.621,3.621,0,0,0-.54,2.154v.324a3.681,3.681,0,0,0,.527,2.179A1.773,1.773,0,0,0,82.922,38.556Zm8.9,0a1.824,1.824,0,0,0,1.253-.44,1.5,1.5,0,0,0,.531-1.087h1.9a2.963,2.963,0,0,1-.523,1.565,3.43,3.43,0,0,1-1.328,1.15,3.958,3.958,0,0,1-1.81.423,3.829,3.829,0,0,1-2.988-1.22,4.84,4.84,0,0,1-1.1-3.37v-.208a4.759,4.759,0,0,1,1.1-3.283,3.8,3.8,0,0,1,2.988-1.233,3.69,3.69,0,0,1,2.611.934,3.345,3.345,0,0,1,1.058,2.453h-1.9a1.847,1.847,0,0,0-.527-1.27,1.7,1.7,0,0,0-1.258-.5,1.775,1.775,0,0,0-1.511.71,3.621,3.621,0,0,0-.54,2.154v.324a3.681,3.681,0,0,0,.527,2.179A1.773,1.773,0,0,0,91.821,38.556ZM99.175,40H97.158V31.019h2.017ZM97.034,28.678a1.083,1.083,0,0,1,.295-.778,1.108,1.108,0,0,1,.843-.31,1.122,1.122,0,0,1,.847.31,1.075,1.075,0,0,1,.3.778,1.05,1.05,0,0,1-.3.765,1.131,1.131,0,0,1-.847.305,1.117,1.117,0,0,1-.843-.305A1.058,1.058,0,0,1,97.034,28.678Zm3.959,6.749a5.3,5.3,0,0,1,.523-2.378,3.819,3.819,0,0,1,1.469-1.627,4.14,4.14,0,0,1,2.175-.569,3.923,3.923,0,0,1,2.951,1.17,4.6,4.6,0,0,1,1.224,3.1l.008.473a5.343,5.343,0,0,1-.51,2.374,3.773,3.773,0,0,1-1.461,1.619,4.17,4.17,0,0,1-2.2.573,3.9,3.9,0,0,1-3.042-1.266,4.848,4.848,0,0,1-1.141-3.374Zm2.017.174a3.619,3.619,0,0,0,.573,2.171,1.862,1.862,0,0,0,1.594.784,1.842,1.842,0,0,0,1.59-.8,4,4,0,0,0,.569-2.333,3.572,3.572,0,0,0-.585-2.158,1.973,1.973,0,0,0-3.158-.012A3.922,3.922,0,0,0,103.01,35.6Zm2.706-8.351h2.3l-2.3,2.515-1.619,0Zm7.205,3.769.058,1.038a3.229,3.229,0,0,1,2.615-1.2q2.806,0,2.855,3.212V40h-2.017V34.181a1.85,1.85,0,0,0-.369-1.266,1.554,1.554,0,0,0-1.208-.411,1.944,1.944,0,0,0-1.818,1.1V40h-2.017V31.019Zm11.438,4.424a5.34,5.34,0,0,1,.963-3.333,3.085,3.085,0,0,1,2.582-1.258,2.931,2.931,0,0,1,2.308,1v-4.6h2.017V40H130.4l-.1-.93a2.973,2.973,0,0,1-2.416,1.1,3.068,3.068,0,0,1-2.552-1.27A5.535,5.535,0,0,1,124.36,35.443Zm2.017.174a3.739,3.739,0,0,0,.527,2.137,1.71,1.71,0,0,0,1.5.768,1.9,1.9,0,0,0,1.81-1.1V33.583a1.876,1.876,0,0,0-1.793-1.079,1.723,1.723,0,0,0-1.511.776A4.163,4.163,0,0,0,126.377,35.617Zm11.912,4.549a4.173,4.173,0,0,1-3.109-1.208,4.381,4.381,0,0,1-1.191-3.217v-.249a5.389,5.389,0,0,1,.519-2.4,3.949,3.949,0,0,1,1.457-1.648,3.851,3.851,0,0,1,2.092-.589,3.525,3.525,0,0,1,2.835,1.17,4.949,4.949,0,0,1,1,3.312v.813h-5.869a2.7,2.7,0,0,0,.743,1.76,2.23,2.23,0,0,0,1.639.647,2.731,2.731,0,0,0,2.258-1.121l1.087,1.038a3.631,3.631,0,0,1-1.44,1.249A4.509,4.509,0,0,1,138.289,40.166Zm-.241-7.695a1.7,1.7,0,0,0-1.341.581,3.012,3.012,0,0,0-.652,1.619H139.9v-.149a2.452,2.452,0,0,0-.54-1.531A1.686,1.686,0,0,0,138.048,32.471ZM145.6,40h-2.017V27.25H145.6ZM65.756,62.556a1.824,1.824,0,0,0,1.253-.44,1.5,1.5,0,0,0,.531-1.087h1.9a2.963,2.963,0,0,1-.523,1.565,3.43,3.43,0,0,1-1.328,1.15,3.958,3.958,0,0,1-1.81.423,3.829,3.829,0,0,1-2.988-1.22,4.84,4.84,0,0,1-1.1-3.37v-.208a4.759,4.759,0,0,1,1.1-3.283,3.8,3.8,0,0,1,2.988-1.233,3.69,3.69,0,0,1,2.611.934,3.345,3.345,0,0,1,1.058,2.453h-1.9a1.847,1.847,0,0,0-.527-1.27,1.7,1.7,0,0,0-1.258-.5,1.775,1.775,0,0,0-1.511.71,3.621,3.621,0,0,0-.54,2.154v.324a3.682,3.682,0,0,0,.527,2.179A1.773,1.773,0,0,0,65.756,62.556ZM73.111,64H71.094V51.25h2.017Zm4.341,0H75.435V55.019h2.017ZM75.311,52.678a1.083,1.083,0,0,1,.295-.778,1.108,1.108,0,0,1,.843-.31,1.122,1.122,0,0,1,.847.31,1.075,1.075,0,0,1,.3.778,1.05,1.05,0,0,1-.3.765,1.131,1.131,0,0,1-.847.305,1.117,1.117,0,0,1-.843-.305A1.058,1.058,0,0,1,75.311,52.678ZM83.6,64.166a4.173,4.173,0,0,1-3.109-1.208A4.381,4.381,0,0,1,79.3,59.742v-.249a5.389,5.389,0,0,1,.519-2.4,3.949,3.949,0,0,1,1.457-1.648,3.851,3.851,0,0,1,2.092-.589,3.525,3.525,0,0,1,2.835,1.17,4.949,4.949,0,0,1,1,3.312v.813H81.337a2.7,2.7,0,0,0,.743,1.76,2.23,2.23,0,0,0,1.639.647,2.731,2.731,0,0,0,2.258-1.121l1.087,1.038a3.631,3.631,0,0,1-1.44,1.249A4.509,4.509,0,0,1,83.6,64.166Zm-.241-7.695a1.7,1.7,0,0,0-1.341.581,3.012,3.012,0,0,0-.652,1.619h3.843v-.149a2.452,2.452,0,0,0-.54-1.531A1.686,1.686,0,0,0,83.362,56.471Zm7.28-1.453.058,1.038a3.229,3.229,0,0,1,2.615-1.2q2.806,0,2.855,3.212V64H94.153V58.181a1.85,1.85,0,0,0-.369-1.266,1.554,1.554,0,0,0-1.208-.411,1.944,1.944,0,0,0-1.818,1.1V64H88.741V55.019Zm10.11-2.183v2.183h1.585v1.494h-1.585v5.014a1.1,1.1,0,0,0,.2.743.943.943,0,0,0,.726.228,3.107,3.107,0,0,0,.706-.083v1.561a4.968,4.968,0,0,1-1.328.191q-2.324,0-2.324-2.565V56.513H97.258V55.019h1.478V52.835Zm7.081,11.331a4.173,4.173,0,0,1-3.109-1.208,4.381,4.381,0,0,1-1.191-3.217v-.249a5.389,5.389,0,0,1,.519-2.4,3.949,3.949,0,0,1,1.457-1.648,3.851,3.851,0,0,1,2.092-.589,3.525,3.525,0,0,1,2.835,1.17,4.949,4.949,0,0,1,1,3.312v.813h-5.869a2.7,2.7,0,0,0,.743,1.76,2.23,2.23,0,0,0,1.639.647,2.731,2.731,0,0,0,2.258-1.121l1.087,1.038a3.631,3.631,0,0,1-1.44,1.249A4.509,4.509,0,0,1,107.833,64.166Zm-.241-7.695a1.7,1.7,0,0,0-1.341.581,3.012,3.012,0,0,0-.652,1.619h3.843v-.149a2.452,2.452,0,0,0-.54-1.531A1.686,1.686,0,0,0,107.592,56.471Z" transform="translate(977 10717.5)" fill="#12263f"/>
    <path id="Trazado_593635" data-name="Trazado 593635" d="M20.691,10.272a7.46,7.46,0,0,1-.544,2.976,4.847,4.847,0,0,1-1.523,2L20.7,16.863l-1.361,1.229-2.573-2.034a5.213,5.213,0,0,1-1.087.108,4.825,4.825,0,0,1-2.611-.718A4.716,4.716,0,0,1,11.291,13.4a7.183,7.183,0,0,1-.635-3.063V9.658a7.352,7.352,0,0,1,.627-3.121,4.71,4.71,0,0,1,1.768-2.071,4.8,4.8,0,0,1,2.611-.718,4.887,4.887,0,0,1,2.635.71A4.651,4.651,0,0,1,20.061,6.5a7.336,7.336,0,0,1,.631,3.1Zm-2.108-.631a5.248,5.248,0,0,0-.764-3.1,2.509,2.509,0,0,0-2.158-1.054A2.469,2.469,0,0,0,13.54,6.558a5.165,5.165,0,0,0-.784,3.009v.706a5.3,5.3,0,0,0,.768,3.063,2.474,2.474,0,0,0,2.154,1.1,2.478,2.478,0,0,0,2.154-1.062,5.356,5.356,0,0,0,.751-3.1Zm9.488,5.479a3.128,3.128,0,0,1-2.523,1.046,2.788,2.788,0,0,1-2.212-.855,3.637,3.637,0,0,1-.751-2.474V7.019H24.6v5.794q0,1.71,1.419,1.71A1.993,1.993,0,0,0,28,13.468V7.019h2.017V16h-1.9Zm7.96,1.046a4.173,4.173,0,0,1-3.109-1.208,4.381,4.381,0,0,1-1.191-3.217v-.249a5.389,5.389,0,0,1,.519-2.4,3.949,3.949,0,0,1,1.457-1.648A3.851,3.851,0,0,1,35.8,6.853a3.525,3.525,0,0,1,2.835,1.17,4.949,4.949,0,0,1,1,3.312v.813H33.765a2.7,2.7,0,0,0,.743,1.76,2.23,2.23,0,0,0,1.639.647,2.731,2.731,0,0,0,2.258-1.121l1.087,1.038a3.631,3.631,0,0,1-1.44,1.249A4.509,4.509,0,0,1,36.031,16.166Zm-.241-7.695a1.7,1.7,0,0,0-1.341.581,3.012,3.012,0,0,0-.652,1.619h3.843v-.149A2.452,2.452,0,0,0,37.1,8.99,1.686,1.686,0,0,0,35.791,8.471ZM50.466,13.56a.914.914,0,0,0-.444-.822,4.723,4.723,0,0,0-1.473-.5,7.574,7.574,0,0,1-1.718-.548A2.293,2.293,0,0,1,45.32,9.575,2.391,2.391,0,0,1,46.3,7.633a3.872,3.872,0,0,1,2.49-.78,4.029,4.029,0,0,1,2.6.8,2.529,2.529,0,0,1,.992,2.067H50.367a1.243,1.243,0,0,0-.432-.967,1.654,1.654,0,0,0-1.146-.386,1.787,1.787,0,0,0-1.083.307.968.968,0,0,0-.419.822.818.818,0,0,0,.39.722,5.365,5.365,0,0,0,1.577.519,7.466,7.466,0,0,1,1.864.623,2.639,2.639,0,0,1,1,.867,2.212,2.212,0,0,1,.328,1.229,2.34,2.34,0,0,1-1,1.963,4.283,4.283,0,0,1-2.631.751,4.644,4.644,0,0,1-1.967-.4,3.238,3.238,0,0,1-1.345-1.1,2.594,2.594,0,0,1-.481-1.5H46.98a1.421,1.421,0,0,0,.54,1.1,2.1,2.1,0,0,0,1.32.386,2.04,2.04,0,0,0,1.212-.3A.938.938,0,0,0,50.466,13.56Zm7.695,2.606a4.173,4.173,0,0,1-3.109-1.208,4.381,4.381,0,0,1-1.191-3.217v-.249a5.389,5.389,0,0,1,.519-2.4,3.949,3.949,0,0,1,1.457-1.648,3.851,3.851,0,0,1,2.092-.589,3.525,3.525,0,0,1,2.835,1.17,4.949,4.949,0,0,1,1,3.312v.813H55.9a2.7,2.7,0,0,0,.743,1.76,2.23,2.23,0,0,0,1.639.647,2.731,2.731,0,0,0,2.258-1.121l1.087,1.038a3.631,3.631,0,0,1-1.44,1.249A4.509,4.509,0,0,1,58.161,16.166ZM57.92,8.471a1.7,1.7,0,0,0-1.341.581,3.012,3.012,0,0,0-.652,1.619h3.843v-.149a2.452,2.452,0,0,0-.54-1.531A1.686,1.686,0,0,0,57.92,8.471ZM68.695,16a3.113,3.113,0,0,1-.232-.838,3.393,3.393,0,0,1-4.565.232,2.47,2.47,0,0,1-.855-1.909,2.55,2.55,0,0,1,1.067-2.2,5.169,5.169,0,0,1,3.051-.768H68.4V9.924a1.573,1.573,0,0,0-.39-1.116,1.547,1.547,0,0,0-1.187-.419,1.777,1.777,0,0,0-1.129.344,1.066,1.066,0,0,0-.44.876H63.233a2.239,2.239,0,0,1,.49-1.382,3.263,3.263,0,0,1,1.332-1.009,4.68,4.68,0,0,1,1.88-.365,3.769,3.769,0,0,1,2.515.793,2.827,2.827,0,0,1,.963,2.229v4.051a4.591,4.591,0,0,0,.34,1.934V16Zm-2.216-1.453a2.294,2.294,0,0,0,1.125-.291,1.941,1.941,0,0,0,.793-.78V11.783H67.309a2.973,2.973,0,0,0-1.685.39,1.264,1.264,0,0,0-.564,1.1,1.179,1.179,0,0,0,.386.926A1.5,1.5,0,0,0,66.479,14.547ZM82.2,15.12a3.128,3.128,0,0,1-2.523,1.046,2.788,2.788,0,0,1-2.212-.855,3.637,3.637,0,0,1-.751-2.474V7.019H78.73v5.794q0,1.71,1.419,1.71a1.993,1.993,0,0,0,1.984-1.054V7.019h2.017V16h-1.9Zm9.04-1.561a.914.914,0,0,0-.444-.822,4.723,4.723,0,0,0-1.473-.5,7.574,7.574,0,0,1-1.718-.548,2.293,2.293,0,0,1-1.511-2.117,2.391,2.391,0,0,1,.979-1.942,3.872,3.872,0,0,1,2.49-.78,4.029,4.029,0,0,1,2.6.8,2.529,2.529,0,0,1,.992,2.067H91.14a1.243,1.243,0,0,0-.432-.967,1.654,1.654,0,0,0-1.146-.386,1.787,1.787,0,0,0-1.083.307.968.968,0,0,0-.419.822.818.818,0,0,0,.39.722,5.365,5.365,0,0,0,1.577.519,7.466,7.466,0,0,1,1.864.623,2.639,2.639,0,0,1,1,.867,2.212,2.212,0,0,1,.328,1.229,2.34,2.34,0,0,1-1,1.963,4.283,4.283,0,0,1-2.631.751,4.644,4.644,0,0,1-1.967-.4,3.238,3.238,0,0,1-1.345-1.1,2.594,2.594,0,0,1-.481-1.5h1.959a1.421,1.421,0,0,0,.54,1.1,2.1,2.1,0,0,0,1.32.386,2.04,2.04,0,0,0,1.212-.3A.938.938,0,0,0,91.24,13.56ZM100.346,16a3.113,3.113,0,0,1-.232-.838,3.393,3.393,0,0,1-4.565.232,2.47,2.47,0,0,1-.855-1.909,2.55,2.55,0,0,1,1.067-2.2,5.169,5.169,0,0,1,3.051-.768h1.237V9.924a1.573,1.573,0,0,0-.39-1.116,1.547,1.547,0,0,0-1.187-.419,1.777,1.777,0,0,0-1.129.344,1.066,1.066,0,0,0-.44.876H94.884a2.239,2.239,0,0,1,.49-1.382,3.263,3.263,0,0,1,1.332-1.009,4.68,4.68,0,0,1,1.88-.365,3.769,3.769,0,0,1,2.515.793,2.827,2.827,0,0,1,.963,2.229v4.051a4.591,4.591,0,0,0,.34,1.934V16Zm-2.216-1.453a2.294,2.294,0,0,0,1.125-.291,1.941,1.941,0,0,0,.793-.78V11.783H98.959a2.973,2.973,0,0,0-1.685.39,1.264,1.264,0,0,0-.564,1.1,1.179,1.179,0,0,0,.386.926A1.5,1.5,0,0,0,98.129,14.547Zm5.669-3.1a5.34,5.34,0,0,1,.963-3.333,3.085,3.085,0,0,1,2.582-1.258,2.931,2.931,0,0,1,2.308,1V3.25h2.017V16h-1.826l-.1-.93a2.973,2.973,0,0,1-2.416,1.1,3.068,3.068,0,0,1-2.552-1.27A5.535,5.535,0,0,1,103.8,11.443Zm2.017.174a3.739,3.739,0,0,0,.527,2.137,1.71,1.71,0,0,0,1.5.768,1.9,1.9,0,0,0,1.81-1.1V9.583A1.876,1.876,0,0,0,107.858,8.5a1.723,1.723,0,0,0-1.511.776A4.163,4.163,0,0,0,105.816,11.617Zm7.579-.191a5.3,5.3,0,0,1,.523-2.378,3.819,3.819,0,0,1,1.469-1.627,4.14,4.14,0,0,1,2.175-.569,3.923,3.923,0,0,1,2.951,1.17,4.6,4.6,0,0,1,1.224,3.1l.008.473a5.343,5.343,0,0,1-.51,2.374,3.773,3.773,0,0,1-1.461,1.619,4.17,4.17,0,0,1-2.2.573,3.9,3.9,0,0,1-3.042-1.266,4.848,4.848,0,0,1-1.141-3.374Zm2.017.174a3.619,3.619,0,0,0,.573,2.171,1.862,1.862,0,0,0,1.594.784,1.842,1.842,0,0,0,1.59-.8,4,4,0,0,0,.569-2.333,3.572,3.572,0,0,0-.585-2.158,1.973,1.973,0,0,0-3.158-.012A3.922,3.922,0,0,0,115.412,11.6Zm11.9-.158a5.34,5.34,0,0,1,.963-3.333,3.085,3.085,0,0,1,2.582-1.258,2.931,2.931,0,0,1,2.308,1V3.25h2.017V16H133.35l-.1-.93a2.973,2.973,0,0,1-2.416,1.1,3.068,3.068,0,0,1-2.552-1.27A5.535,5.535,0,0,1,127.307,11.443Zm2.017.174a3.739,3.739,0,0,0,.527,2.137,1.71,1.71,0,0,0,1.5.768,1.9,1.9,0,0,0,1.81-1.1V9.583A1.876,1.876,0,0,0,131.366,8.5a1.723,1.723,0,0,0-1.511.776A4.163,4.163,0,0,0,129.324,11.617Zm11.912,4.549a4.173,4.173,0,0,1-3.109-1.208,4.381,4.381,0,0,1-1.191-3.217v-.249a5.389,5.389,0,0,1,.519-2.4,3.949,3.949,0,0,1,1.457-1.648A3.851,3.851,0,0,1,141,6.853a3.525,3.525,0,0,1,2.835,1.17,4.949,4.949,0,0,1,1,3.312v.813h-5.869a2.7,2.7,0,0,0,.743,1.76,2.23,2.23,0,0,0,1.639.647,2.731,2.731,0,0,0,2.258-1.121l1.087,1.038a3.631,3.631,0,0,1-1.44,1.249A4.509,4.509,0,0,1,141.235,16.166Zm-.241-7.695a1.7,1.7,0,0,0-1.341.581A3.012,3.012,0,0,0,139,10.671h3.843v-.149a2.452,2.452,0,0,0-.54-1.531A1.686,1.686,0,0,0,140.995,8.471ZM152.782,16h-2.017V3.25h2.017Zm7.562,0a3.113,3.113,0,0,1-.232-.838,3.393,3.393,0,0,1-4.565.232,2.47,2.47,0,0,1-.855-1.909,2.55,2.55,0,0,1,1.067-2.2,5.169,5.169,0,0,1,3.051-.768h1.237V9.924a1.573,1.573,0,0,0-.39-1.116,1.547,1.547,0,0,0-1.187-.419,1.777,1.777,0,0,0-1.129.344,1.066,1.066,0,0,0-.44.876h-2.017a2.239,2.239,0,0,1,.49-1.382A3.263,3.263,0,0,1,156.7,7.218a4.68,4.68,0,0,1,1.88-.365,3.769,3.769,0,0,1,2.515.793,2.827,2.827,0,0,1,.963,2.229v4.051a4.591,4.591,0,0,0,.34,1.934V16Zm-2.216-1.453a2.294,2.294,0,0,0,1.125-.291,1.941,1.941,0,0,0,.793-.78V11.783h-1.087a2.973,2.973,0,0,0-1.685.39,1.264,1.264,0,0,0-.564,1.1,1.179,1.179,0,0,0,.386.926A1.5,1.5,0,0,0,158.127,14.547ZM31.669,40V32.513H30.3V31.019h1.37V30.2a3.085,3.085,0,0,1,.83-2.308,3.18,3.18,0,0,1,2.324-.813,4.662,4.662,0,0,1,1.129.149L35.9,28.8a3.973,3.973,0,0,0-.772-.066,1.3,1.3,0,0,0-1.444,1.486v.8h1.826v1.494H33.686V40Zm4.939-4.574a5.3,5.3,0,0,1,.523-2.378A3.819,3.819,0,0,1,38.6,31.421a4.14,4.14,0,0,1,2.175-.569,3.923,3.923,0,0,1,2.951,1.17,4.6,4.6,0,0,1,1.224,3.1l.008.473a5.343,5.343,0,0,1-.51,2.374,3.773,3.773,0,0,1-1.461,1.619,4.17,4.17,0,0,1-2.2.573A3.9,3.9,0,0,1,37.75,38.9a4.848,4.848,0,0,1-1.141-3.374Zm2.017.174a3.619,3.619,0,0,0,.573,2.171,1.862,1.862,0,0,0,1.594.784,1.842,1.842,0,0,0,1.59-.8,4,4,0,0,0,.569-2.333,3.572,3.572,0,0,0-.585-2.158,1.973,1.973,0,0,0-3.158-.012A3.922,3.922,0,0,0,38.625,35.6Zm12.742-2.739a4.992,4.992,0,0,0-.822-.066,1.85,1.85,0,0,0-1.868,1.063V40H46.66V31.019h1.926l.05,1a2.273,2.273,0,0,1,2.025-1.17,1.888,1.888,0,0,1,.714.116Zm3.171-1.843.058.938a3.232,3.232,0,0,1,2.59-1.1,2.483,2.483,0,0,1,2.465,1.378,3.186,3.186,0,0,1,2.756-1.378,2.8,2.8,0,0,1,2.212.822,3.618,3.618,0,0,1,.743,2.424V40H63.345V34.156a1.786,1.786,0,0,0-.374-1.253,1.635,1.635,0,0,0-1.237-.4,1.679,1.679,0,0,0-1.125.369,1.948,1.948,0,0,0-.61.967L60.008,40H57.991V34.09A1.439,1.439,0,0,0,56.372,32.5a1.776,1.776,0,0,0-1.718.988V40H52.637V31.019ZM72.8,40a3.113,3.113,0,0,1-.232-.838A3.393,3.393,0,0,1,68,39.394a2.47,2.47,0,0,1-.855-1.909,2.55,2.55,0,0,1,1.067-2.2,5.169,5.169,0,0,1,3.051-.768H72.5v-.589a1.573,1.573,0,0,0-.39-1.116,1.547,1.547,0,0,0-1.187-.419,1.777,1.777,0,0,0-1.129.344,1.066,1.066,0,0,0-.44.876H67.338a2.239,2.239,0,0,1,.49-1.382,3.263,3.263,0,0,1,1.332-1.009,4.68,4.68,0,0,1,1.88-.365,3.769,3.769,0,0,1,2.515.793,2.827,2.827,0,0,1,.963,2.229v4.051a4.591,4.591,0,0,0,.34,1.934V40Zm-2.216-1.453a2.294,2.294,0,0,0,1.125-.291,1.941,1.941,0,0,0,.793-.78V35.783H71.413a2.973,2.973,0,0,0-1.685.39,1.264,1.264,0,0,0-.564,1.1,1.179,1.179,0,0,0,.386.926A1.5,1.5,0,0,0,70.583,38.547Zm13.97.008a1.824,1.824,0,0,0,1.253-.44,1.5,1.5,0,0,0,.531-1.087h1.9a2.963,2.963,0,0,1-.523,1.565,3.43,3.43,0,0,1-1.328,1.15,3.958,3.958,0,0,1-1.81.423,3.829,3.829,0,0,1-2.988-1.22,4.84,4.84,0,0,1-1.1-3.37v-.208a4.759,4.759,0,0,1,1.1-3.283,3.8,3.8,0,0,1,2.988-1.233,3.69,3.69,0,0,1,2.611.934,3.345,3.345,0,0,1,1.058,2.453h-1.9a1.847,1.847,0,0,0-.527-1.27,1.7,1.7,0,0,0-1.258-.5,1.775,1.775,0,0,0-1.511.71,3.621,3.621,0,0,0-.54,2.154v.324a3.681,3.681,0,0,0,.527,2.179A1.773,1.773,0,0,0,84.553,38.556Zm4.831-3.129a5.3,5.3,0,0,1,.523-2.378,3.819,3.819,0,0,1,1.469-1.627,4.14,4.14,0,0,1,2.175-.569,3.923,3.923,0,0,1,2.951,1.17,4.6,4.6,0,0,1,1.224,3.1l.008.473a5.343,5.343,0,0,1-.51,2.374,3.773,3.773,0,0,1-1.461,1.619,4.17,4.17,0,0,1-2.2.573A3.9,3.9,0,0,1,90.526,38.9a4.848,4.848,0,0,1-1.141-3.374ZM91.4,35.6a3.619,3.619,0,0,0,.573,2.171,1.862,1.862,0,0,0,1.594.784,1.842,1.842,0,0,0,1.59-.8,4,4,0,0,0,.569-2.333,3.572,3.572,0,0,0-.585-2.158,1.973,1.973,0,0,0-3.158-.012A3.922,3.922,0,0,0,91.4,35.6Zm12.742-2.739a4.992,4.992,0,0,0-.822-.066,1.85,1.85,0,0,0-1.868,1.063V40H99.437V31.019h1.926l.05,1a2.273,2.273,0,0,1,2.025-1.17,1.888,1.888,0,0,1,.714.116Zm5.977,0a4.992,4.992,0,0,0-.822-.066,1.85,1.85,0,0,0-1.868,1.063V40h-2.017V31.019h1.926l.05,1a2.273,2.273,0,0,1,2.025-1.17,1.888,1.888,0,0,1,.714.116Zm5.072,7.3a4.173,4.173,0,0,1-3.109-1.208,4.381,4.381,0,0,1-1.191-3.217v-.249a5.389,5.389,0,0,1,.519-2.4,3.949,3.949,0,0,1,1.457-1.648,3.851,3.851,0,0,1,2.092-.589,3.525,3.525,0,0,1,2.835,1.17,4.949,4.949,0,0,1,1,3.312v.813h-5.869a2.7,2.7,0,0,0,.743,1.76,2.23,2.23,0,0,0,1.639.647,2.731,2.731,0,0,0,2.258-1.121l1.087,1.038a3.631,3.631,0,0,1-1.44,1.249A4.509,4.509,0,0,1,115.192,40.166Zm-.241-7.695a1.7,1.7,0,0,0-1.341.581,3.012,3.012,0,0,0-.652,1.619H116.8v-.149a2.452,2.452,0,0,0-.54-1.531A1.686,1.686,0,0,0,114.951,32.471Zm9.1,6.084a1.824,1.824,0,0,0,1.253-.44,1.5,1.5,0,0,0,.531-1.087h1.9a2.963,2.963,0,0,1-.523,1.565,3.43,3.43,0,0,1-1.328,1.15,3.958,3.958,0,0,1-1.81.423,3.829,3.829,0,0,1-2.988-1.22,4.84,4.84,0,0,1-1.1-3.37v-.208a4.759,4.759,0,0,1,1.1-3.283,3.8,3.8,0,0,1,2.988-1.233,3.69,3.69,0,0,1,2.611.934,3.345,3.345,0,0,1,1.058,2.453h-1.9a1.847,1.847,0,0,0-.527-1.27,1.7,1.7,0,0,0-1.258-.5,1.775,1.775,0,0,0-1.511.71,3.621,3.621,0,0,0-.54,2.154v.324a3.681,3.681,0,0,0,.527,2.179A1.773,1.773,0,0,0,124.049,38.556Zm7.736-9.72v2.183h1.585v1.494h-1.585v5.014a1.1,1.1,0,0,0,.2.743.943.943,0,0,0,.726.228,3.107,3.107,0,0,0,.706-.083v1.561a4.968,4.968,0,0,1-1.328.191q-2.324,0-2.324-2.565V32.513H128.29V31.019h1.478V28.835ZM140.277,40a3.113,3.113,0,0,1-.232-.838,3.393,3.393,0,0,1-4.565.232,2.47,2.47,0,0,1-.855-1.909,2.55,2.55,0,0,1,1.067-2.2,5.169,5.169,0,0,1,3.051-.768h1.237v-.589a1.573,1.573,0,0,0-.39-1.116,1.547,1.547,0,0,0-1.187-.419,1.777,1.777,0,0,0-1.129.344,1.066,1.066,0,0,0-.44.876h-2.017a2.239,2.239,0,0,1,.49-1.382,3.263,3.263,0,0,1,1.332-1.009,4.68,4.68,0,0,1,1.88-.365,3.769,3.769,0,0,1,2.515.793,2.827,2.827,0,0,1,.963,2.229v4.051a4.591,4.591,0,0,0,.34,1.934V40Zm-2.216-1.453a2.294,2.294,0,0,0,1.125-.291,1.941,1.941,0,0,0,.793-.78V35.783H138.89a2.973,2.973,0,0,0-1.685.39,1.264,1.264,0,0,0-.564,1.1,1.179,1.179,0,0,0,.386.926A1.5,1.5,0,0,0,138.06,38.547Z" transform="translate(714 10925.5)" fill="#12263f"/>
    <path id="Trazado_593432" data-name="Trazado 593432" d="M110.047,191.71A55.565,55.565,0,1,1,165.866,136.4a55.628,55.628,0,0,1-55.818,55.309" transform="translate(434.134 10720.854)" fill="url(#radial-gradient)"/>
    <path id="Trazado_593412" data-name="Trazado 593412" d="M33.374,46.55a3.824,3.824,0,0,1,2.529.956l1.687-1.912a6.374,6.374,0,1,0,0,9.561L35.9,53.242a3.824,3.824,0,1,1-2.529-6.693Z" transform="translate(511.061 10826.489)"/>
    <path id="Trazado_593413" data-name="Trazado 593413" d="M42.747,48.127l2.363-.956a11.473,11.473,0,1,0,0,8.6l-2.363-.956a8.923,8.923,0,1,1,0-6.693Z" transform="translate(509.963 10825.39)"/>
    <path id="Trazado_593414" data-name="Trazado 593414" d="M68.968,45H58.77a1.275,1.275,0,0,0-.9.373l-3.451,3.451H32v2.55H54.418l3.451,3.451a1.275,1.275,0,0,0,.9.374h10.2a1.275,1.275,0,0,0,1.275-1.275V46.275A1.275,1.275,0,0,0,68.968,45Zm-1.275,7.649H59.3l-2.55-2.55,2.55-2.55h8.4Z" transform="translate(512.435 10826.764)"/>
    <path id="Trazado_593415" data-name="Trazado 593415" d="M10,37h2.55v7.649H10Z" transform="translate(506.39 10824.565)"/>
    <path id="Trazado_593416" data-name="Trazado 593416" d="M72.288,53.991V43.945a6.374,6.374,0,0,0-4.828-6.182l-5.37-1.34V35.6a5.847,5.847,0,0,0,2.55-4.858V23.4a7.649,7.649,0,1,0-15.3,0V24.95l-5.1-1.275v-.829A5.851,5.851,0,0,0,46.792,18V10.649a7.649,7.649,0,1,0-15.3,0V18a5.851,5.851,0,0,0,2.55,4.85v.829l-5.1,1.275V23.4a7.649,7.649,0,1,0-15.3,0v7.343A5.847,5.847,0,0,0,16.2,35.6v.826l-5.373,1.341A6.374,6.374,0,0,0,6,43.945V53.991H8.55V43.945a3.824,3.824,0,0,1,2.9-3.708l6.336-1.581a1.275,1.275,0,0,0,.966-1.238v-2.55a1.275,1.275,0,0,0-.709-1.147A3.314,3.314,0,0,1,16.2,30.739V23.4a5.1,5.1,0,0,1,10.2,0v7.343a3.314,3.314,0,0,1-1.841,2.983,1.275,1.275,0,0,0-.709,1.147v2.55a1.275,1.275,0,0,0,.966,1.238l6.332,1.579a3.843,3.843,0,0,1,2.9,3.594l2.55-.074a6.407,6.407,0,0,0-4.826-5.991L26.4,36.423V35.6a5.847,5.847,0,0,0,2.55-4.858V27.63c.119-.042.224-.108.347-.139l6.336-1.583a1.275,1.275,0,0,0,.966-1.237v-2.55a1.275,1.275,0,0,0-.7-1.141A3.314,3.314,0,0,1,34.045,18V10.649a5.1,5.1,0,0,1,10.2,0V18A3.314,3.314,0,0,1,42.4,20.981a1.275,1.275,0,0,0-.7,1.141v2.55a1.275,1.275,0,0,0,.966,1.237l6.334,1.583c.119.029.233.073.348.113v3.135a5.847,5.847,0,0,0,2.55,4.858v.826l-5.373,1.341a6.406,6.406,0,0,0-4.825,5.991l2.55.074a3.842,3.842,0,0,1,2.894-3.592l6.336-1.581a1.275,1.275,0,0,0,.969-1.238v-2.55a1.275,1.275,0,0,0-.709-1.147,3.314,3.314,0,0,1-1.841-2.983V23.4a5.1,5.1,0,1,1,10.2,0v7.343a3.314,3.314,0,0,1-1.841,2.983,1.275,1.275,0,0,0-.709,1.147v2.55a1.275,1.275,0,0,0,.966,1.238l6.332,1.579a3.824,3.824,0,0,1,2.9,3.71V53.991Z" transform="translate(505.291 10815.224)"/>
    <path id="Trazado_593417" data-name="Trazado 593417" d="M52,37h2.55v7.649H52Z" transform="translate(517.93 10824.565)"/>
    <path id="Trazado_593418" data-name="Trazado 593418" d="M2.539,53.612l5.1,3.606a1.275,1.275,0,0,0,1.471,0l4.769-3.372h9.858a16.566,16.566,0,0,0,32.557,2.867l-2.47-.637a14.022,14.022,0,1,1,0-7.011l2.471-.637A16.566,16.566,0,0,0,23.736,51.3H13.878L9.109,47.926a1.275,1.275,0,0,0-1.471,0l-5.1,3.606a1.275,1.275,0,0,0,0,2.08Zm5.835-3.08,2.891,2.04-2.891,2.04-2.891-2.04Z" transform="translate(504.192 10824.291)"/>
    <path id="Trazado_593406" data-name="Trazado 593406" d="M-3899-1025.126v13.47" transform="translate(4443 11811.626)" fill="none" stroke="#6826cc" stroke-linecap="round" stroke-width="2"/>
    <path id="Trazado_593407" data-name="Trazado 593407" d="M52.042,7.492A50.989,50.989,0,0,0,.5,7.492" transform="translate(518 10800)" fill="none" stroke="#6826cc" stroke-linecap="round" stroke-linejoin="round" stroke-width="2"/>
    <path id="Trazado_593434" data-name="Trazado 593434" d="M110.047,191.71A55.565,55.565,0,1,1,165.866,136.4a55.628,55.628,0,0,1-55.818,55.309" transform="translate(947.262 10720.42)" fill="url(#radial-gradient)"/>
    <path id="Trazado_593422" data-name="Trazado 593422" d="M68.592,47.621h-6.3a.573.573,0,0,1-.458-.917,16.707,16.707,0,0,0,3.322-9.967v-.573a5.735,5.735,0,0,0-5.728-5.728,2.294,2.294,0,0,0-2.291,2.291V34.7a10.673,10.673,0,0,1-5.38,9.27l-6.381,3.647H42.243V45.33H21.6a11.437,11.437,0,1,0-4.561,3.619V68.243h25.2V65.951H45.46l5.728,2.291h17.4a3.422,3.422,0,0,0,2.543-5.728,3.384,3.384,0,0,0,0-4.583,3.384,3.384,0,0,0,0-4.583,3.422,3.422,0,0,0-2.543-5.728Zm-65.3-9.165a9.165,9.165,0,1,1,16.3,5.733,9.161,9.161,0,0,0-3.358-2.61,5.728,5.728,0,1,0-7.563,0,9.185,9.185,0,0,0-3.358,2.61,9.112,9.112,0,0,1-2.025-5.733Zm5.728-1.146a3.437,3.437,0,1,1,3.437,3.437A3.441,3.441,0,0,1,9.019,37.311ZM6.966,45.778a6.871,6.871,0,0,1,10.98,0,9.1,9.1,0,0,1-10.98,0ZM19.33,47.621H35.369v18.33H19.33Zm20.621,18.33H37.66V47.621h2.291Zm28.641,0H51.628L45.9,63.66H42.243V49.913h3.742l6.908-3.948A12.97,12.97,0,0,0,59.427,34.7V32.728a3.441,3.441,0,0,1,3.437,3.437v.573A14.409,14.409,0,0,1,60,45.331a2.864,2.864,0,0,0,2.292,4.581h6.3a1.146,1.146,0,0,1,0,2.291H62.864V54.5h5.728a1.146,1.146,0,0,1,0,2.291H62.864v2.291h5.728a1.146,1.146,0,0,1,0,2.291H62.864V63.66h5.728a1.146,1.146,0,0,1,0,2.291Z" transform="translate(1021 10823.786)"/>
    <path id="Trazado_593423" data-name="Trazado 593423" d="M54.456,30.913A11.456,11.456,0,1,0,43,19.456,11.469,11.469,0,0,0,54.456,30.913Zm-5.49-4.135a6.871,6.871,0,0,1,10.98,0,9.1,9.1,0,0,1-10.98,0Zm2.053-8.467a3.437,3.437,0,1,1,3.437,3.437A3.441,3.441,0,0,1,51.019,18.311Zm3.437-8.019a9.155,9.155,0,0,1,7.14,14.9,9.161,9.161,0,0,0-3.358-2.61,5.728,5.728,0,1,0-7.563,0,9.185,9.185,0,0,0-3.358,2.61,9.155,9.155,0,0,1,7.14-14.9Z" transform="translate(1027.116 10821.02)"/>
    <path id="Trazado_593424" data-name="Trazado 593424" d="M29.039,33.078A16.039,16.039,0,1,0,13,17.039,16.056,16.056,0,0,0,29.039,33.078Zm0-2.291a13.7,13.7,0,0,1-9.85-4.178,10.248,10.248,0,0,1,2.78-4.484L23.763,29.3l5.276-3.956L34.314,29.3l1.794-7.176a10.269,10.269,0,0,1,2.78,4.484A13.706,13.706,0,0,1,29.039,30.786Zm-4.583-18.33a4.583,4.583,0,1,1,4.583,4.583A4.587,4.587,0,0,1,24.456,12.456Zm4.583,9.667L26.9,19.559a10.076,10.076,0,0,1,4.273,0ZM33.5,20.346c.207.1.411.2.611.314L32.928,25.4,30.691,23.72Zm-8.927,0,2.811,3.374L25.149,25.4,23.965,20.66C24.164,20.547,24.368,20.445,24.575,20.346ZM29.039,3.291a13.728,13.728,0,0,1,11.517,21.23,12.543,12.543,0,0,0-7.2-6.723,6.873,6.873,0,1,0-8.632,0,12.539,12.539,0,0,0-7.2,6.723A13.73,13.73,0,0,1,29.039,3.291Z" transform="translate(1022.748 10820)"/>
    <path id="Trazado_593425" data-name="Trazado 593425" d="M23,31h2.291v2.291H23Z" transform="translate(1024.204 10824.369)"/>
    <path id="Trazado_593426" data-name="Trazado 593426" d="M27,31H45.33v2.291H27Z" transform="translate(1024.786 10824.369)"/>
    <path id="Trazado_593427" data-name="Trazado 593427" d="M23,35H45.913v2.291H23Z" transform="translate(1024.204 10824.951)"/>
    <path id="Trazado_593428" data-name="Trazado 593428" d="M23,39H43.621v2.291H23Z" transform="translate(1024.204 10825.534)"/>
    <path id="Trazado_593429" data-name="Trazado 593429" d="M19,57h2.291v2.291H19Z" transform="translate(1023.621 10828.155)"/>
    <path id="Trazado_593430" data-name="Trazado 593430" d="M23,57h2.291v2.291H23Z" transform="translate(1024.204 10828.155)"/>
    <path id="Trazado_593431" data-name="Trazado 593431" d="M27,57h2.291v2.291H27Z" transform="translate(1024.786 10828.155)"/>
    <path id="Trazado_593409" data-name="Trazado 593409" d="M-3899-1025.126v13.47" transform="translate(4956.5 11811.626)" fill="none" stroke="#6826cc" stroke-linecap="round" stroke-width="2"/>
    <path id="Trazado_593408" data-name="Trazado 593408" d="M52.042,7.492A50.989,50.989,0,0,0,.5,7.492" transform="translate(1031 10800)" fill="none" stroke="#6826cc" stroke-linecap="round" stroke-linejoin="round" stroke-width="2"/>
    <path id="Trazado_593435" data-name="Trazado 593435" d="M110.047,191.71A55.565,55.565,0,1,1,165.866,136.4a55.628,55.628,0,0,1-55.818,55.309" transform="translate(689.698 10716.29)" fill="url(#radial-gradient)"/>
    <g id="Grupo_873761" data-name="Grupo 873761" transform="translate(767 10818)">
      <path id="Trazado_593419" data-name="Trazado 593419" d="M72.167,56.055,65.426,49.3l1.893-3.28a5.972,5.972,0,0,0-.909-7.152h0l-2.069-2.1a1.865,1.865,0,0,1-.531-1.526,26.322,26.322,0,0,0,0-5.944,1.869,1.869,0,0,1,.533-1.528l2.069-2.1a5.972,5.972,0,0,0,.91-7.151l-2.745-4.757a5.974,5.974,0,0,0-6.653-2.787l-2.854.74a1.87,1.87,0,0,1-1.591-.3,25.961,25.961,0,0,0-5.151-2.98A1.866,1.866,0,0,1,47.272,7.2l-.783-2.836A5.976,5.976,0,0,0,40.751,0H35.259A5.967,5.967,0,0,0,29.52,4.365L28.734,7.2a1.86,1.86,0,0,1-1.052,1.221A25.987,25.987,0,0,0,22.529,11.4a1.868,1.868,0,0,1-1.592.3l-2.855-.74a5.973,5.973,0,0,0-6.648,2.786L8.687,18.51A5.968,5.968,0,0,0,9.6,25.663l2.065,2.1A1.874,1.874,0,0,1,12.2,29.29a26.024,26.024,0,0,0,0,5.949,1.875,1.875,0,0,1-.532,1.528L9.6,38.867a5.968,5.968,0,0,0-.914,7.152l2.747,4.757a5.978,5.978,0,0,0,6.65,2.787l2.854-.741a1.866,1.866,0,0,1,1.591.3,25.983,25.983,0,0,0,5.154,2.981,1.86,1.86,0,0,1,1.052,1.222l.785,2.834a5.968,5.968,0,0,0,5.739,4.368h5.492a5.977,5.977,0,0,0,5.739-4.368l.782-2.833a1.871,1.871,0,0,1,1.054-1.226c.741-.321,1.467-.68,2.175-1.069L61.83,66.39A7.308,7.308,0,0,0,72.167,56.055ZM52.632,50.319l-3.124-3.124a19.122,19.122,0,0,0,3.509-3.536L56.154,46.8ZM47.26,53.65a4.538,4.538,0,0,0-2.568,2.967l-.782,2.832a3.291,3.291,0,0,1-3.159,2.406H35.259a3.284,3.284,0,0,1-3.159-2.4l-.785-2.835a4.525,4.525,0,0,0-2.568-2.965,23.3,23.3,0,0,1-4.621-2.673,4.515,4.515,0,0,0-2.7-.9,4.61,4.61,0,0,0-1.161.149l-2.851.74a3.292,3.292,0,0,1-3.661-1.535L11.005,44.68a3.284,3.284,0,0,1,.5-3.936l2.068-2.1a4.543,4.543,0,0,0,1.281-3.708,23.355,23.355,0,0,1,0-5.34,4.542,4.542,0,0,0-1.283-3.708l-2.067-2.1a3.284,3.284,0,0,1-.5-3.936l2.747-4.757a3.29,3.29,0,0,1,3.659-1.533l2.853.74a4.531,4.531,0,0,0,3.861-.746,23.306,23.306,0,0,1,4.621-2.673,4.523,4.523,0,0,0,2.568-2.964L32.1,5.079a3.283,3.283,0,0,1,3.158-2.4h5.492a3.29,3.29,0,0,1,3.158,2.4l.783,2.836a4.531,4.531,0,0,0,2.568,2.966,23.278,23.278,0,0,1,4.62,2.673,4.533,4.533,0,0,0,3.859.745l2.852-.739a3.29,3.29,0,0,1,3.663,1.533L65,19.85a3.287,3.287,0,0,1-.5,3.936l-2.067,2.1A4.533,4.533,0,0,0,61.148,29.6a23.649,23.649,0,0,1,0,5.34,4.528,4.528,0,0,0,1.285,3.708l2.068,2.1a3.288,3.288,0,0,1,.5,3.936l-1.533,2.656-2.612-2.616a1.687,1.687,0,0,0-2.493-.133l-.316.316-3.541-3.541A18.842,18.842,0,0,0,44.219,14.469,1.338,1.338,0,1,0,43.336,17,16.171,16.171,0,1,1,32.66,17a1.338,1.338,0,1,0-.884-2.527A18.848,18.848,0,1,0,47.225,48.7l3.248,3.248a23.222,23.222,0,0,1-3.214,1.7ZM70.273,64.5a4.679,4.679,0,0,1-6.548,0L52.993,53.743l6.55-6.549L70.273,57.947a4.676,4.676,0,0,1,0,6.549Z" transform="translate(-7.893 0)"/>
      <path id="Trazado_593420" data-name="Trazado 593420" d="M147.245,181.281a4.343,4.343,0,0,0,0,6.086l4.461,4.461a4.461,4.461,0,0,0,6.231,0l9.624-9.624a4.3,4.3,0,1,0-6.086-6.086l-6.654,6.654-1.491-1.491a4.344,4.344,0,0,0-6.086,0Zm6.63,4.33a1.359,1.359,0,0,0,1.893,0l7.6-7.6a1.626,1.626,0,1,1,2.3,2.3l-9.624,9.624a1.69,1.69,0,0,1-1.447.477,1.747,1.747,0,0,1-1-.477l-4.461-4.461a1.626,1.626,0,1,1,2.3-2.3Z" transform="translate(-127.516 -151.455)"/>
      <path id="Trazado_593421" data-name="Trazado 593421" d="M222.966,102.113a1.338,1.338,0,1,0,.724-1.748A1.351,1.351,0,0,0,222.966,102.113Z" transform="translate(-194.093 -86.845)"/>
    </g>
    <path id="Trazado_593411" data-name="Trazado 593411" d="M-3899-1025.126v13.47" transform="translate(-3098.5 9897.355) rotate(180)" fill="none" stroke="#6826cc" stroke-linecap="round" stroke-width="2"/>
    <path id="Trazado_593410" data-name="Trazado 593410" d="M52.042,7.492A50.989,50.989,0,0,0,.5,7.492" transform="translate(826.542 10909.011) rotate(180)" fill="none" stroke="#6826cc" stroke-linecap="round" stroke-linejoin="round" stroke-width="2"/>
  </g>
</svg>
