<svg xmlns="http://www.w3.org/2000/svg" xmlns:xlink="http://www.w3.org/1999/xlink" width="610" height="205" viewBox="0 0 610 205">
  <defs>
    <clipPath id="clip-path">
      <rect id="Rectángulo_292181" data-name="Rectángulo 292181" width="29.79" height="175" fill="#ea3584"/>
    </clipPath>
  </defs>
  <g id="Grupo_873842" data-name="Grupo 873842" transform="translate(-705 -2272)">
    <rect id="Rectángulo_292180" data-name="Rectángulo 292180" width="610" height="205" transform="translate(705 2272)" fill="#fff" opacity="0.5"/>
    <text id="_Edad._Sexo._Estado_civil._Nivel_educativo._Nacionalidad._Cultura._Profesión._Niveles_de_ingresos." data-name="● Edad.
● Sexo.
● Estado civil.
● Nivel educativo.
● Nacionalidad.
● Cultura.
● Profesión.
● Niveles de ingresos." transform="translate(754 2287)" fill="#ea3584" font-size="16" font-family="SegoeUI, Segoe UI"><tspan x="0" y="17">●</tspan><tspan y="17" xml:space="preserve" fill="#12263f" font-family="Roboto-Regular, Roboto"> Edad.</tspan><tspan x="0" y="39">●</tspan><tspan y="39" xml:space="preserve" fill="#12263f" font-family="Roboto-Regular, Roboto"> Sexo.</tspan><tspan x="0" y="61">●</tspan><tspan y="61" font-family="Roboto-Regular, Roboto"> </tspan><tspan y="61" fill="#12263f" font-family="Roboto-Regular, Roboto">Estado civil.</tspan><tspan x="0" y="83">●</tspan><tspan y="83" font-family="Roboto-Regular, Roboto"> </tspan><tspan y="83" fill="#12263f" font-family="Roboto-Regular, Roboto">Nivel educativo.</tspan><tspan x="0" y="105">●</tspan><tspan y="105" font-family="Roboto-Regular, Roboto"> </tspan><tspan y="105" fill="#12263f" font-family="Roboto-Regular, Roboto">Nacionalidad.</tspan><tspan x="0" y="127">●</tspan><tspan y="127" xml:space="preserve" fill="#12263f" font-family="Roboto-Regular, Roboto"> Cultura.</tspan><tspan x="0" y="149">●</tspan><tspan y="149" xml:space="preserve" fill="#12263f" font-family="Roboto-Regular, Roboto"> Profesión.</tspan><tspan x="0" y="171">●</tspan><tspan y="171" xml:space="preserve" fill="#12263f" font-family="Roboto-Regular, Roboto"> Niveles de ingresos.</tspan></text>
    <text id="Mercado_meta_el_buyer_persona." data-name="Mercado meta, el buyer persona." transform="translate(1020 2365)" fill="#12263f" font-size="16" font-family="Roboto-Regular, Roboto"><tspan x="0" y="15">Mercado meta, el buyer persona.</tspan></text>
    <g id="Grupo_871930" data-name="Grupo 871930" transform="translate(947.248 2287)">
      <g id="Grupo_871929" data-name="Grupo 871929" clip-path="url(#clip-path)">
        <path id="Trazado_217913" data-name="Trazado 217913" d="M3.071,0a3.071,3.071,0,0,0,0,6.141h9.21V79.389l8.588,8.11-8.588,8.11v73.249H3.071a3.07,3.07,0,1,0,0,6.141H18.421V98.236L29.79,87.5,18.421,76.764V0Z" fill="#ea3584" fill-rule="evenodd"/>
      </g>
    </g>
  </g>
</svg>
