<svg xmlns="http://www.w3.org/2000/svg" xmlns:xlink="http://www.w3.org/1999/xlink" width="1030" height="289.744" viewBox="0 0 1030 289.744">
  <defs>
    <linearGradient id="linear-gradient" x1="-0.008" y1="0.367" x2="0.942" y2="0.25" gradientUnits="objectBoundingBox">
      <stop offset="0" stop-color="#ffedaf"/>
      <stop offset="0.271" stop-color="#fe7e81"/>
      <stop offset="0.864" stop-color="#ff1787"/>
      <stop offset="1" stop-color="#c13099"/>
    </linearGradient>
    <clipPath id="clip-path">
      <rect id="Rectángulo_42638" data-name="Rectángulo 42638" width="148.607" height="148.608" fill="#fff"/>
    </clipPath>
    <radialGradient id="radial-gradient" cx="0.747" cy="0.171" r="0.876" gradientTransform="matrix(-0.433, 0.902, -0.902, -0.433, 1.225, -0.428)" gradientUnits="objectBoundingBox">
      <stop offset="0" stop-color="#fff"/>
      <stop offset="1" stop-color="#d2d5e1"/>
    </radialGradient>
    <clipPath id="clip-path-2">
      <rect id="Rectángulo_42639" data-name="Rectángulo 42639" width="148.608" height="148.608" fill="none"/>
    </clipPath>
    <clipPath id="clip-path-3">
      <rect id="Rectángulo_42640" data-name="Rectángulo 42640" width="148.608" height="148.607" fill="none"/>
    </clipPath>
    <clipPath id="clip-path-4">
      <rect id="Rectángulo_42641" data-name="Rectángulo 42641" width="148.607" height="148.607" fill="none"/>
    </clipPath>
    <clipPath id="clip-path-6">
      <rect id="Rectángulo_42643" data-name="Rectángulo 42643" width="148.607" height="148.608" fill="none"/>
    </clipPath>
  </defs>
  <g id="Grupo_873842" data-name="Grupo 873842" transform="translate(-285 -6301.279)">
    <path id="Trazado_593621" data-name="Trazado 593621" d="M14.972,13.643a1.353,1.353,0,0,0-.527-1.147,6.917,6.917,0,0,0-1.9-.844,13.458,13.458,0,0,1-2.171-.875A3.547,3.547,0,0,1,8.2,7.6a3.09,3.09,0,0,1,.584-1.85,3.812,3.812,0,0,1,1.679-1.27,6.318,6.318,0,0,1,2.457-.457,5.751,5.751,0,0,1,2.443.5,3.891,3.891,0,0,1,1.666,1.4,3.668,3.668,0,0,1,.593,2.057H14.98a1.726,1.726,0,0,0-.554-1.367,2.276,2.276,0,0,0-1.556-.488,2.432,2.432,0,0,0-1.5.409,1.289,1.289,0,0,0-.536,1.077,1.235,1.235,0,0,0,.628,1.046,7.1,7.1,0,0,0,1.85.791,7.994,7.994,0,0,1,3.278,1.679,3.343,3.343,0,0,1,1.028,2.5,3.08,3.08,0,0,1-1.257,2.606,5.5,5.5,0,0,1-3.384.945,6.534,6.534,0,0,1-2.689-.541,4.256,4.256,0,0,1-1.85-1.481,3.793,3.793,0,0,1-.637-2.18h2.646q0,2.118,2.531,2.118a2.462,2.462,0,0,0,1.468-.382A1.244,1.244,0,0,0,14.972,13.643Zm8.64,3.533a4.668,4.668,0,0,1-3.406-1.283,4.561,4.561,0,0,1-1.314-3.419v-.246a5.745,5.745,0,0,1,.554-2.562,4.064,4.064,0,0,1,1.569-1.74,4.4,4.4,0,0,1,2.316-.611A3.947,3.947,0,0,1,26.4,8.545a5,5,0,0,1,1.121,3.489v1.037H21.467a2.36,2.36,0,0,0,.743,1.494,2.245,2.245,0,0,0,1.569.563,2.742,2.742,0,0,0,2.294-1.063l1.248,1.4a3.813,3.813,0,0,1-1.547,1.261A5.075,5.075,0,0,1,23.611,17.176Zm-.29-7.813a1.587,1.587,0,0,0-1.226.512,2.651,2.651,0,0,0-.6,1.466h3.533v-.2a1.891,1.891,0,0,0-.457-1.311A1.638,1.638,0,0,0,23.321,9.362Zm5.273,2.813A5.573,5.573,0,0,1,29.636,8.65a3.375,3.375,0,0,1,2.808-1.336,2.96,2.96,0,0,1,2.435,1.072l.105-.9h2.3v9.193a4.064,4.064,0,0,1-.567,2.171,3.641,3.641,0,0,1-1.6,1.406,5.608,5.608,0,0,1-2.408.483,5.215,5.215,0,0,1-2.039-.417,3.619,3.619,0,0,1-1.5-1.077L30.3,17.7a2.975,2.975,0,0,0,2.3,1.063,2.178,2.178,0,0,0,1.573-.541,2.027,2.027,0,0,0,.563-1.534v-.51a2.938,2.938,0,0,1-2.312.993,3.366,3.366,0,0,1-2.773-1.34,5.572,5.572,0,0,1-1.059-3.555Zm2.54.181a3.489,3.489,0,0,0,.519,2.035,1.648,1.648,0,0,0,1.424.737,1.762,1.762,0,0,0,1.661-.874V10.236a1.758,1.758,0,0,0-1.644-.874,1.659,1.659,0,0,0-1.437.751A3.933,3.933,0,0,0,31.135,12.356ZM41.62,7.49,41.7,8.554a3.342,3.342,0,0,1,2.733-1.239,2.536,2.536,0,0,1,2.522,1.45,3.265,3.265,0,0,1,2.856-1.45,2.836,2.836,0,0,1,2.3.9,4.141,4.141,0,0,1,.756,2.711V17H50.321V10.922A1.818,1.818,0,0,0,50,9.737a1.4,1.4,0,0,0-1.116-.374,1.585,1.585,0,0,0-1.582,1.092L47.315,17h-2.54V10.93a1.8,1.8,0,0,0-.325-1.2,1.414,1.414,0,0,0-1.107-.37,1.645,1.645,0,0,0-1.564.9V17h-2.54V7.49ZM59.2,17.176a4.668,4.668,0,0,1-3.406-1.283,4.561,4.561,0,0,1-1.314-3.419v-.246a5.745,5.745,0,0,1,.554-2.562A4.064,4.064,0,0,1,56.6,7.925a4.4,4.4,0,0,1,2.316-.611,3.947,3.947,0,0,1,3.072,1.23,5,5,0,0,1,1.121,3.489v1.037H57.054a2.36,2.36,0,0,0,.743,1.494,2.245,2.245,0,0,0,1.569.563,2.742,2.742,0,0,0,2.294-1.063l1.248,1.4a3.813,3.813,0,0,1-1.547,1.261A5.075,5.075,0,0,1,59.2,17.176Zm-.29-7.813a1.587,1.587,0,0,0-1.226.512,2.651,2.651,0,0,0-.6,1.466h3.533v-.2a1.891,1.891,0,0,0-.457-1.311A1.638,1.638,0,0,0,58.908,9.362Zm7.98-1.872.079,1.1A3.32,3.32,0,0,1,69.7,7.314a2.759,2.759,0,0,1,2.25.888,4.142,4.142,0,0,1,.756,2.654V17h-2.54V10.9a1.654,1.654,0,0,0-.352-1.176,1.572,1.572,0,0,0-1.169-.366,1.747,1.747,0,0,0-1.608.916V17H64.5V7.49ZM77.673,5.152V7.49H79.3V9.354H77.673V14.1a1.133,1.133,0,0,0,.2.756,1.015,1.015,0,0,0,.773.229,4.051,4.051,0,0,0,.747-.062v1.925a5.229,5.229,0,0,1-1.538.229,2.425,2.425,0,0,1-2.725-2.7V9.354H73.744V7.49h1.389V5.152ZM86.225,17a2.821,2.821,0,0,1-.255-.853,3.073,3.073,0,0,1-2.4,1.028,3.376,3.376,0,0,1-2.316-.809,2.6,2.6,0,0,1-.918-2.039,2.687,2.687,0,0,1,1.121-2.32A5.529,5.529,0,0,1,84.7,11.19h1.169v-.545a1.567,1.567,0,0,0-.338-1.055,1.331,1.331,0,0,0-1.068-.4,1.513,1.513,0,0,0-1.006.308,1.045,1.045,0,0,0-.365.844h-2.54a2.551,2.551,0,0,1,.51-1.529,3.37,3.37,0,0,1,1.441-1.1,5.253,5.253,0,0,1,2.092-.4A4.15,4.15,0,0,1,87.38,8.2a3.09,3.09,0,0,1,1.033,2.483V14.8a4.546,4.546,0,0,0,.378,2.048V17Zm-2.1-1.767a2.188,2.188,0,0,0,1.037-.25,1.645,1.645,0,0,0,.7-.672V12.676h-.949q-1.907,0-2.03,1.318l-.009.149a1.017,1.017,0,0,0,.334.782A1.3,1.3,0,0,0,84.124,15.233Zm10.2-.105a1.666,1.666,0,0,0,1.143-.387,1.355,1.355,0,0,0,.457-1.028H98.3a3.258,3.258,0,0,1-.527,1.771,3.48,3.48,0,0,1-1.419,1.248,4.442,4.442,0,0,1-1.991.444,4.129,4.129,0,0,1-3.217-1.3A5.13,5.13,0,0,1,89.969,12.3v-.167a5.071,5.071,0,0,1,1.169-3.507,4.08,4.08,0,0,1,3.208-1.31A4,4,0,0,1,97.207,8.33a3.594,3.594,0,0,1,1.094,2.7H95.919a1.745,1.745,0,0,0-.457-1.206,1.7,1.7,0,0,0-2.5.183,3.749,3.749,0,0,0-.453,2.1v.264a3.8,3.8,0,0,0,.448,2.113A1.549,1.549,0,0,0,94.319,15.128ZM102.432,17H99.883V7.49h2.549Zm-2.7-11.971a1.251,1.251,0,0,1,.382-.94,1.648,1.648,0,0,1,2.079,0,1.244,1.244,0,0,1,.387.94,1.247,1.247,0,0,1-.391.949,1.629,1.629,0,0,1-2.065,0A1.247,1.247,0,0,1,99.733,5.029Zm4.395,7.128a5.64,5.64,0,0,1,.545-2.522,3.989,3.989,0,0,1,1.569-1.714,4.577,4.577,0,0,1,2.377-.606,4.33,4.33,0,0,1,3.142,1.178,4.727,4.727,0,0,1,1.358,3.2l.018.65a4.97,4.97,0,0,1-1.222,3.511,4.735,4.735,0,0,1-6.561,0,5.058,5.058,0,0,1-1.226-3.586Zm2.54.18a3.555,3.555,0,0,0,.51,2.073,1.831,1.831,0,0,0,2.9.009,3.89,3.89,0,0,0,.519-2.267,3.519,3.519,0,0,0-.519-2.06,1.686,1.686,0,0,0-1.459-.731,1.658,1.658,0,0,0-1.441.726A3.955,3.955,0,0,0,106.668,12.338ZM109.12,3.5h2.769l-2.435,2.725h-2.065Zm7.919,3.99.079,1.1a3.32,3.32,0,0,1,2.733-1.274,2.759,2.759,0,0,1,2.25.888,4.142,4.142,0,0,1,.756,2.654V17h-2.54V10.9a1.654,1.654,0,0,0-.352-1.176,1.572,1.572,0,0,0-1.169-.366,1.747,1.747,0,0,0-1.608.916V17h-2.54V7.49Z" transform="translate(334 6550.279)" fill="#12263f"/>
    <path id="Trazado_593622" data-name="Trazado 593622" d="M51.222,12.491V17H48.585V4.2h4.992a5.776,5.776,0,0,1,2.536.527,3.886,3.886,0,0,1,1.683,1.5,4.178,4.178,0,0,1,.589,2.21A3.674,3.674,0,0,1,57.1,11.406a5.363,5.363,0,0,1-3.564,1.085Zm0-2.136h2.355a2.316,2.316,0,0,0,1.6-.492,1.79,1.79,0,0,0,.549-1.406,2.111,2.111,0,0,0-.554-1.521,2.068,2.068,0,0,0-1.529-.6H51.222ZM62.709,17H60.161V3.5h2.549Zm7.6,0a2.821,2.821,0,0,1-.255-.853,3.073,3.073,0,0,1-2.4,1.028,3.376,3.376,0,0,1-2.316-.809,2.6,2.6,0,0,1-.918-2.039,2.687,2.687,0,0,1,1.121-2.32,5.529,5.529,0,0,1,3.239-.817h1.169v-.545a1.567,1.567,0,0,0-.338-1.055,1.331,1.331,0,0,0-1.068-.4,1.513,1.513,0,0,0-1.006.308,1.045,1.045,0,0,0-.365.844h-2.54a2.551,2.551,0,0,1,.51-1.529,3.37,3.37,0,0,1,1.441-1.1,5.253,5.253,0,0,1,2.092-.4,4.15,4.15,0,0,1,2.791.883A3.09,3.09,0,0,1,72.5,10.681V14.8a4.546,4.546,0,0,0,.378,2.048V17Zm-2.1-1.767a2.188,2.188,0,0,0,1.037-.25,1.645,1.645,0,0,0,.7-.672V12.676H69q-1.907,0-2.03,1.318l-.009.149a1.017,1.017,0,0,0,.334.782A1.3,1.3,0,0,0,68.211,15.233ZM76.79,7.49l.079,1.1A3.32,3.32,0,0,1,79.6,7.314a2.759,2.759,0,0,1,2.25.888,4.142,4.142,0,0,1,.756,2.654V17h-2.54V10.9a1.654,1.654,0,0,0-.352-1.176,1.572,1.572,0,0,0-1.169-.366,1.747,1.747,0,0,0-1.608.916V17H74.4V7.49Z" transform="translate(654 6550.279)" fill="#12263f"/>
    <path id="Trazado_593623" data-name="Trazado 593623" d="M28.142,17H25.505V4.2h2.637Zm1.881-4.825a5.731,5.731,0,0,1,1-3.542A3.237,3.237,0,0,1,33.75,7.314a2.913,2.913,0,0,1,2.294,1.037V3.5h2.549V17H36.3l-.123-1.011a2.989,2.989,0,0,1-2.443,1.187,3.228,3.228,0,0,1-2.694-1.323A5.916,5.916,0,0,1,30.023,12.175Zm2.54.181a3.775,3.775,0,0,0,.466,2.057,1.516,1.516,0,0,0,1.354.715,1.7,1.7,0,0,0,1.661-1V10.36a1.675,1.675,0,0,0-1.644-1Q32.563,9.362,32.563,12.356Zm12.375,4.82a4.668,4.668,0,0,1-3.406-1.283,4.561,4.561,0,0,1-1.314-3.419v-.246a5.745,5.745,0,0,1,.554-2.562,4.064,4.064,0,0,1,1.569-1.74,4.4,4.4,0,0,1,2.316-.611,3.947,3.947,0,0,1,3.072,1.23,5,5,0,0,1,1.121,3.489v1.037H42.793a2.36,2.36,0,0,0,.743,1.494,2.245,2.245,0,0,0,1.569.563A2.742,2.742,0,0,0,47.4,14.064l1.248,1.4A3.813,3.813,0,0,1,47.1,16.723,5.075,5.075,0,0,1,44.938,17.176Zm-.29-7.813a1.587,1.587,0,0,0-1.226.512,2.651,2.651,0,0,0-.6,1.466h3.533v-.2A1.891,1.891,0,0,0,45.9,9.826,1.638,1.638,0,0,0,44.648,9.362Zm7.98-1.872.079,1.1a3.32,3.32,0,0,1,2.733-1.274,2.759,2.759,0,0,1,2.25.888,4.142,4.142,0,0,1,.756,2.654V17h-2.54V10.9a1.654,1.654,0,0,0-.352-1.176,1.572,1.572,0,0,0-1.169-.366,1.747,1.747,0,0,0-1.608.916V17h-2.54V7.49ZM63.413,5.152V7.49h1.626V9.354H63.413V14.1a1.133,1.133,0,0,0,.2.756,1.015,1.015,0,0,0,.773.229,4.051,4.051,0,0,0,.747-.062v1.925a5.229,5.229,0,0,1-1.538.229,2.425,2.425,0,0,1-2.725-2.7V9.354H59.484V7.49h1.389V5.152ZM69.134,17H66.585V7.49h2.549Zm-2.7-11.971a1.251,1.251,0,0,1,.382-.94,1.648,1.648,0,0,1,2.079,0,1.244,1.244,0,0,1,.387.94,1.247,1.247,0,0,1-.391.949,1.629,1.629,0,0,1-2.065,0A1.247,1.247,0,0,1,66.436,5.029ZM71.841,17V9.354H70.426V7.49h1.415V7.051a3.566,3.566,0,0,1,1.1-2.764,4.438,4.438,0,0,1,3.063-.971,10.16,10.16,0,0,1,2.883.519l-.369,2.1a11.248,11.248,0,0,0-1.336-.33,6.564,6.564,0,0,0-1.02-.075Q74.39,5.53,74.39,7.1V7.49h1.872V9.354H74.39V17Zm8.235,0H77.528V7.49h2.549Zm6.056-1.872a1.666,1.666,0,0,0,1.143-.387,1.355,1.355,0,0,0,.457-1.028h2.382a3.258,3.258,0,0,1-.527,1.771,3.48,3.48,0,0,1-1.419,1.248,4.442,4.442,0,0,1-1.991.444,4.129,4.129,0,0,1-3.217-1.3A5.13,5.13,0,0,1,81.782,12.3v-.167a5.071,5.071,0,0,1,1.169-3.507,4.08,4.08,0,0,1,3.208-1.31A4,4,0,0,1,89.02,8.33a3.594,3.594,0,0,1,1.094,2.7H87.732a1.745,1.745,0,0,0-.457-1.206,1.7,1.7,0,0,0-2.5.183,3.749,3.749,0,0,0-.453,2.1v.264a3.8,3.8,0,0,0,.448,2.113A1.549,1.549,0,0,0,86.132,15.128ZM97.075,17a2.821,2.821,0,0,1-.255-.853,3.073,3.073,0,0,1-2.4,1.028,3.376,3.376,0,0,1-2.316-.809,2.6,2.6,0,0,1-.918-2.039,2.687,2.687,0,0,1,1.121-2.32,5.529,5.529,0,0,1,3.239-.817h1.169v-.545a1.567,1.567,0,0,0-.338-1.055,1.331,1.331,0,0,0-1.068-.4A1.513,1.513,0,0,0,94.3,9.5a1.045,1.045,0,0,0-.365.844H91.4a2.551,2.551,0,0,1,.51-1.529,3.37,3.37,0,0,1,1.441-1.1,5.253,5.253,0,0,1,2.092-.4A4.15,4.15,0,0,1,98.23,8.2a3.09,3.09,0,0,1,1.033,2.483V14.8a4.546,4.546,0,0,0,.378,2.048V17Zm-2.1-1.767a2.188,2.188,0,0,0,1.037-.25,1.645,1.645,0,0,0,.7-.672V12.676h-.949q-1.907,0-2.03,1.318l-.009.149a1.017,1.017,0,0,0,.334.782A1.3,1.3,0,0,0,94.974,15.233Zm11.584-5.361a6.9,6.9,0,0,0-.914-.07,1.86,1.86,0,0,0-1.89.976V17h-2.54V7.49h2.4l.07,1.134a2.354,2.354,0,0,1,2.118-1.31,2.662,2.662,0,0,1,.791.114Zm-64.753,20a6.9,6.9,0,0,0-.914-.07,1.86,1.86,0,0,0-1.89.976V37h-2.54V27.49h2.4l.07,1.134a2.354,2.354,0,0,1,2.118-1.31,2.662,2.662,0,0,1,.791.114ZM45.707,37H43.158V27.49h2.549Zm-2.7-11.971a1.251,1.251,0,0,1,.382-.94,1.648,1.648,0,0,1,2.079,0,1.342,1.342,0,0,1,0,1.89,1.629,1.629,0,0,1-2.065,0A1.247,1.247,0,0,1,43.009,25.029Zm9.167,12.146a4.668,4.668,0,0,1-3.406-1.283,4.561,4.561,0,0,1-1.314-3.419v-.246a5.745,5.745,0,0,1,.554-2.562,4.064,4.064,0,0,1,1.569-1.74,4.4,4.4,0,0,1,2.316-.611,3.947,3.947,0,0,1,3.072,1.23,5,5,0,0,1,1.121,3.489v1.037H50.031a2.36,2.36,0,0,0,.743,1.494,2.245,2.245,0,0,0,1.569.563,2.742,2.742,0,0,0,2.294-1.063l1.248,1.4a3.813,3.813,0,0,1-1.547,1.261A5.075,5.075,0,0,1,52.176,37.176Zm-.29-7.813a1.587,1.587,0,0,0-1.226.512,2.651,2.651,0,0,0-.6,1.466h3.533v-.2a1.891,1.891,0,0,0-.457-1.311A1.638,1.638,0,0,0,51.886,29.362Zm10.793,5.01a.818.818,0,0,0-.461-.734,5.241,5.241,0,0,0-1.481-.479q-3.393-.712-3.393-2.883a2.613,2.613,0,0,1,1.05-2.114,4.237,4.237,0,0,1,2.747-.848,4.56,4.56,0,0,1,2.9.853,2.687,2.687,0,0,1,1.085,2.215h-2.54a1.229,1.229,0,0,0-.352-.9,1.488,1.488,0,0,0-1.1-.356,1.52,1.52,0,0,0-.993.29.916.916,0,0,0-.352.738.783.783,0,0,0,.4.681,4.114,4.114,0,0,0,1.349.448,11.019,11.019,0,0,1,1.6.426,2.628,2.628,0,0,1,2.013,2.558,2.481,2.481,0,0,1-1.116,2.1,4.815,4.815,0,0,1-2.883.8,5.029,5.029,0,0,1-2.123-.426,3.561,3.561,0,0,1-1.455-1.169,2.716,2.716,0,0,1-.527-1.6h2.408a1.326,1.326,0,0,0,.5,1.037,1.987,1.987,0,0,0,1.248.36,1.839,1.839,0,0,0,1.1-.277A.861.861,0,0,0,62.679,34.372Zm3.735-2.2a5.573,5.573,0,0,1,1.042-3.524,3.375,3.375,0,0,1,2.808-1.336A2.96,2.96,0,0,1,72.7,28.387l.105-.9h2.3v9.193a4.064,4.064,0,0,1-.567,2.171,3.641,3.641,0,0,1-1.6,1.406,5.608,5.608,0,0,1-2.408.483,5.215,5.215,0,0,1-2.039-.417,3.619,3.619,0,0,1-1.5-1.077L68.119,37.7a2.975,2.975,0,0,0,2.3,1.063A2.178,2.178,0,0,0,72,38.226a2.027,2.027,0,0,0,.563-1.534v-.51a2.938,2.938,0,0,1-2.312.993,3.366,3.366,0,0,1-2.773-1.34,5.572,5.572,0,0,1-1.059-3.555Zm2.54.181a3.489,3.489,0,0,0,.519,2.035,1.648,1.648,0,0,0,1.424.737,1.762,1.762,0,0,0,1.661-.874V30.236a1.758,1.758,0,0,0-1.644-.874,1.659,1.659,0,0,0-1.437.751A3.933,3.933,0,0,0,68.954,32.356Zm7.708-.2a5.64,5.64,0,0,1,.545-2.522,3.989,3.989,0,0,1,1.569-1.714,4.577,4.577,0,0,1,2.377-.606A4.33,4.33,0,0,1,84.3,28.492a4.727,4.727,0,0,1,1.358,3.2l.018.65a4.97,4.97,0,0,1-1.222,3.511,4.735,4.735,0,0,1-6.561,0,5.058,5.058,0,0,1-1.226-3.586Zm2.54.18a3.555,3.555,0,0,0,.51,2.073,1.831,1.831,0,0,0,2.9.009,3.89,3.89,0,0,0,.519-2.267,3.519,3.519,0,0,0-.519-2.06,1.686,1.686,0,0,0-1.459-.731,1.658,1.658,0,0,0-1.441.726A3.955,3.955,0,0,0,79.2,32.338Zm13.184,2.035a.818.818,0,0,0-.461-.734,5.241,5.241,0,0,0-1.481-.479q-3.393-.712-3.393-2.883a2.613,2.613,0,0,1,1.05-2.114,4.237,4.237,0,0,1,2.747-.848,4.56,4.56,0,0,1,2.9.853,2.687,2.687,0,0,1,1.085,2.215h-2.54a1.229,1.229,0,0,0-.352-.9,1.488,1.488,0,0,0-1.1-.356,1.52,1.52,0,0,0-.993.29.916.916,0,0,0-.352.738.783.783,0,0,0,.4.681,4.114,4.114,0,0,0,1.349.448,11.019,11.019,0,0,1,1.6.426,2.628,2.628,0,0,1,2.013,2.558,2.481,2.481,0,0,1-1.116,2.1,4.815,4.815,0,0,1-2.883.8,5.029,5.029,0,0,1-2.123-.426,3.561,3.561,0,0,1-1.455-1.169,2.716,2.716,0,0,1-.527-1.6H89.16a1.326,1.326,0,0,0,.5,1.037,1.987,1.987,0,0,0,1.248.36,1.839,1.839,0,0,0,1.1-.277A.861.861,0,0,0,92.386,34.372Z" transform="translate(974 6550.279)" fill="#12263f"/>
    <path id="Trazado_593624" data-name="Trazado 593624" d="M36.448,14.363H31.825L30.946,17h-2.8L32.906,4.2h2.443L40.139,17h-2.8Zm-3.911-2.136h3.2l-1.608-4.79ZM44.059,5.152V7.49h1.626V9.354H44.059V14.1a1.133,1.133,0,0,0,.2.756,1.015,1.015,0,0,0,.773.229,4.051,4.051,0,0,0,.747-.062v1.925a5.229,5.229,0,0,1-1.538.229,2.425,2.425,0,0,1-2.725-2.7V9.354H40.13V7.49h1.389V5.152Zm8.385,4.72a6.9,6.9,0,0,0-.914-.07,1.86,1.86,0,0,0-1.89.976V17H47.1V7.49h2.4l.07,1.134a2.354,2.354,0,0,1,2.118-1.31,2.662,2.662,0,0,1,.791.114ZM56.346,17H53.8V7.49h2.549Zm-2.7-11.971a1.251,1.251,0,0,1,.382-.94,1.648,1.648,0,0,1,2.079,0,1.244,1.244,0,0,1,.387.94,1.247,1.247,0,0,1-.391.949,1.629,1.629,0,0,1-2.065,0A1.247,1.247,0,0,1,53.648,5.029Zm13.359,7.3a5.758,5.758,0,0,1-.976,3.564,3.231,3.231,0,0,1-2.725,1.279,2.969,2.969,0,0,1-2.47-1.187L60.723,17H58.438V3.5h2.54V8.343A2.893,2.893,0,0,1,63.29,7.314a3.258,3.258,0,0,1,2.729,1.279,5.767,5.767,0,0,1,.989,3.6Zm-2.54-.194a3.8,3.8,0,0,0-.457-2.111,1.544,1.544,0,0,0-1.362-.666,1.675,1.675,0,0,0-1.67,1v3.764a1.7,1.7,0,0,0,1.688,1,1.569,1.569,0,0,0,1.617-1.217A6.294,6.294,0,0,0,64.467,12.139Zm9.8,3.894a3.185,3.185,0,0,1-2.6,1.143,3,3,0,0,1-2.333-.879,3.752,3.752,0,0,1-.822-2.575V7.49h2.54v6.151q0,1.487,1.354,1.487a1.834,1.834,0,0,0,1.775-.9V7.49h2.549V17H74.337ZM81.685,5.152V7.49h1.626V9.354H81.685V14.1a1.133,1.133,0,0,0,.2.756,1.015,1.015,0,0,0,.773.229,4.051,4.051,0,0,0,.747-.062v1.925a5.229,5.229,0,0,1-1.538.229,2.425,2.425,0,0,1-2.725-2.7V9.354H77.756V7.49h1.389V5.152Zm2.382,7a5.64,5.64,0,0,1,.545-2.522,3.989,3.989,0,0,1,1.569-1.714,4.577,4.577,0,0,1,2.377-.606A4.33,4.33,0,0,1,91.7,8.492a4.727,4.727,0,0,1,1.358,3.2l.018.65a4.97,4.97,0,0,1-1.222,3.511,4.735,4.735,0,0,1-6.561,0,5.058,5.058,0,0,1-1.226-3.586Zm2.54.18a3.555,3.555,0,0,0,.51,2.073,1.831,1.831,0,0,0,2.9.009,3.89,3.89,0,0,0,.519-2.267,3.519,3.519,0,0,0-.519-2.06,1.686,1.686,0,0,0-1.459-.731,1.658,1.658,0,0,0-1.441.726A3.955,3.955,0,0,0,86.607,12.338Zm13.184,2.035a.818.818,0,0,0-.461-.734,5.241,5.241,0,0,0-1.481-.479q-3.393-.712-3.393-2.883a2.613,2.613,0,0,1,1.05-2.114,4.237,4.237,0,0,1,2.747-.848,4.56,4.56,0,0,1,2.9.853,2.687,2.687,0,0,1,1.085,2.215h-2.54a1.229,1.229,0,0,0-.352-.9,1.488,1.488,0,0,0-1.1-.356,1.52,1.52,0,0,0-.993.29.916.916,0,0,0-.352.738.783.783,0,0,0,.4.681,4.114,4.114,0,0,0,1.349.448,11.019,11.019,0,0,1,1.6.426,2.628,2.628,0,0,1,2.013,2.558,2.481,2.481,0,0,1-1.116,2.1,4.815,4.815,0,0,1-2.883.8,5.029,5.029,0,0,1-2.123-.426,3.561,3.561,0,0,1-1.455-1.169,2.716,2.716,0,0,1-.527-1.6h2.408a1.326,1.326,0,0,0,.5,1.037,1.987,1.987,0,0,0,1.248.36,1.839,1.839,0,0,0,1.1-.277A.861.861,0,0,0,99.791,14.372Z" transform="translate(495 6315.279)" fill="#12263f"/>
    <path id="Trazado_593625" data-name="Trazado 593625" d="M13.237,12.737a4.528,4.528,0,0,1-1.525,3.252,5.355,5.355,0,0,1-3.625,1.187,4.816,4.816,0,0,1-3.872-1.657A6.793,6.793,0,0,1,2.8,10.971v-.782a7.671,7.671,0,0,1,.65-3.252A4.874,4.874,0,0,1,5.313,4.779a5.207,5.207,0,0,1,2.808-.751A5.217,5.217,0,0,1,11.69,5.214a4.866,4.866,0,0,1,1.564,3.331H10.618a2.673,2.673,0,0,0-.69-1.8,2.555,2.555,0,0,0-1.806-.558,2.24,2.24,0,0,0-1.973.945,5.3,5.3,0,0,0-.672,2.931v.967A5.667,5.667,0,0,0,6.1,14.064a2.2,2.2,0,0,0,1.982.958,2.6,2.6,0,0,0,1.824-.558,2.521,2.521,0,0,0,.69-1.727Zm1.169-.58a5.64,5.64,0,0,1,.545-2.522A3.989,3.989,0,0,1,16.52,7.921,4.577,4.577,0,0,1,18.9,7.314a4.33,4.33,0,0,1,3.142,1.178,4.727,4.727,0,0,1,1.358,3.2l.018.65a4.97,4.97,0,0,1-1.222,3.511,4.247,4.247,0,0,1-3.278,1.323,4.268,4.268,0,0,1-3.283-1.318,5.058,5.058,0,0,1-1.226-3.586Zm2.54.18a3.555,3.555,0,0,0,.51,2.073,1.831,1.831,0,0,0,2.9.009,3.89,3.89,0,0,0,.519-2.267,3.519,3.519,0,0,0-.519-2.06A1.686,1.686,0,0,0,18.9,9.362a1.658,1.658,0,0,0-1.441.726A3.955,3.955,0,0,0,16.946,12.338ZM27.361,7.49l.079,1.063a3.342,3.342,0,0,1,2.733-1.239A2.536,2.536,0,0,1,32.7,8.765a3.265,3.265,0,0,1,2.856-1.45,2.836,2.836,0,0,1,2.3.9,4.141,4.141,0,0,1,.756,2.711V17H36.062V10.922a1.818,1.818,0,0,0-.316-1.185,1.4,1.4,0,0,0-1.116-.374,1.585,1.585,0,0,0-1.582,1.092L33.056,17h-2.54V10.93a1.8,1.8,0,0,0-.325-1.2,1.414,1.414,0,0,0-1.107-.37,1.645,1.645,0,0,0-1.564.9V17h-2.54V7.49Zm18.9,8.543a3.185,3.185,0,0,1-2.6,1.143,3,3,0,0,1-2.333-.879,3.752,3.752,0,0,1-.822-2.575V7.49h2.54v6.151q0,1.487,1.354,1.487a1.834,1.834,0,0,0,1.775-.9V7.49h2.549V17H46.328ZM52.972,7.49l.079,1.1a3.32,3.32,0,0,1,2.733-1.274,2.759,2.759,0,0,1,2.25.888,4.142,4.142,0,0,1,.756,2.654V17H56.25V10.9A1.654,1.654,0,0,0,55.9,9.728a1.572,1.572,0,0,0-1.169-.366,1.747,1.747,0,0,0-1.608.916V17h-2.54V7.49ZM63.4,17H60.847V7.49H63.4ZM60.7,5.029a1.251,1.251,0,0,1,.382-.94,1.648,1.648,0,0,1,2.079,0,1.244,1.244,0,0,1,.387.94,1.247,1.247,0,0,1-.391.949,1.629,1.629,0,0,1-2.065,0A1.247,1.247,0,0,1,60.7,5.029Zm8.745,10.1a1.666,1.666,0,0,0,1.143-.387,1.355,1.355,0,0,0,.457-1.028h2.382a3.258,3.258,0,0,1-.527,1.771,3.48,3.48,0,0,1-1.419,1.248,4.442,4.442,0,0,1-1.991.444,4.129,4.129,0,0,1-3.217-1.3A5.13,5.13,0,0,1,65.092,12.3v-.167a5.071,5.071,0,0,1,1.169-3.507,4.08,4.08,0,0,1,3.208-1.31A4,4,0,0,1,72.33,8.33a3.594,3.594,0,0,1,1.094,2.7H71.042a1.745,1.745,0,0,0-.457-1.206,1.7,1.7,0,0,0-2.5.183,3.749,3.749,0,0,0-.453,2.1v.264a3.8,3.8,0,0,0,.448,2.113A1.549,1.549,0,0,0,69.443,15.128ZM80.385,17a2.821,2.821,0,0,1-.255-.853,3.073,3.073,0,0,1-2.4,1.028,3.376,3.376,0,0,1-2.316-.809,2.6,2.6,0,0,1-.918-2.039,2.687,2.687,0,0,1,1.121-2.32,5.529,5.529,0,0,1,3.239-.817h1.169v-.545a1.567,1.567,0,0,0-.338-1.055,1.331,1.331,0,0,0-1.068-.4,1.513,1.513,0,0,0-1.006.308,1.045,1.045,0,0,0-.365.844h-2.54a2.551,2.551,0,0,1,.51-1.529,3.37,3.37,0,0,1,1.441-1.1,5.253,5.253,0,0,1,2.092-.4,4.15,4.15,0,0,1,2.791.883,3.09,3.09,0,0,1,1.033,2.483V14.8a4.546,4.546,0,0,0,.378,2.048V17Zm-2.1-1.767a2.188,2.188,0,0,0,1.037-.25,1.645,1.645,0,0,0,.7-.672V12.676h-.949q-1.907,0-2.03,1.318l-.009.149a1.017,1.017,0,0,0,.334.782A1.3,1.3,0,0,0,78.285,15.233Zm10.2-.105a1.666,1.666,0,0,0,1.143-.387,1.355,1.355,0,0,0,.457-1.028h2.382a3.258,3.258,0,0,1-.527,1.771,3.48,3.48,0,0,1-1.419,1.248,4.442,4.442,0,0,1-1.991.444,4.129,4.129,0,0,1-3.217-1.3A5.13,5.13,0,0,1,84.129,12.3v-.167A5.071,5.071,0,0,1,85.3,8.624a4.08,4.08,0,0,1,3.208-1.31A4,4,0,0,1,91.367,8.33a3.594,3.594,0,0,1,1.094,2.7H90.08a1.745,1.745,0,0,0-.457-1.206,1.7,1.7,0,0,0-2.5.183,3.749,3.749,0,0,0-.453,2.1v.264a3.8,3.8,0,0,0,.448,2.113A1.549,1.549,0,0,0,88.48,15.128ZM96.592,17H94.043V7.49h2.549Zm-2.7-11.971a1.251,1.251,0,0,1,.382-.94,1.648,1.648,0,0,1,2.079,0,1.244,1.244,0,0,1,.387.94,1.247,1.247,0,0,1-.391.949,1.629,1.629,0,0,1-2.065,0A1.247,1.247,0,0,1,93.894,5.029Zm4.395,7.128a5.64,5.64,0,0,1,.545-2.522A3.989,3.989,0,0,1,100.4,7.921a4.577,4.577,0,0,1,2.377-.606,4.33,4.33,0,0,1,3.142,1.178,4.727,4.727,0,0,1,1.358,3.2l.018.65a4.97,4.97,0,0,1-1.222,3.511,4.735,4.735,0,0,1-6.561,0,5.058,5.058,0,0,1-1.226-3.586Zm2.54.18a3.555,3.555,0,0,0,.51,2.073,1.831,1.831,0,0,0,2.9.009,3.89,3.89,0,0,0,.519-2.267,3.519,3.519,0,0,0-.519-2.06,1.686,1.686,0,0,0-1.459-.731,1.658,1.658,0,0,0-1.441.726A3.955,3.955,0,0,0,100.829,12.338ZM111.2,7.49l.079,1.1a3.32,3.32,0,0,1,2.733-1.274,2.759,2.759,0,0,1,2.25.888,4.142,4.142,0,0,1,.756,2.654V17h-2.54V10.9a1.654,1.654,0,0,0-.352-1.176,1.572,1.572,0,0,0-1.169-.366,1.747,1.747,0,0,0-1.608.916V17h-2.54V7.49Zm12.12,9.686a4.668,4.668,0,0,1-3.406-1.283,4.561,4.561,0,0,1-1.314-3.419v-.246a5.745,5.745,0,0,1,.554-2.562,4.064,4.064,0,0,1,1.569-1.74,4.4,4.4,0,0,1,2.316-.611,3.947,3.947,0,0,1,3.072,1.23,5,5,0,0,1,1.121,3.489v1.037h-6.056a2.36,2.36,0,0,0,.743,1.494,2.245,2.245,0,0,0,1.569.563,2.742,2.742,0,0,0,2.294-1.063l1.248,1.4a3.813,3.813,0,0,1-1.547,1.261A5.075,5.075,0,0,1,123.32,17.176Zm-.29-7.813a1.587,1.587,0,0,0-1.226.512,2.651,2.651,0,0,0-.6,1.466h3.533v-.2a1.891,1.891,0,0,0-.457-1.311A1.638,1.638,0,0,0,123.03,9.362Zm10.793,5.01a.818.818,0,0,0-.461-.734,5.241,5.241,0,0,0-1.481-.479q-3.393-.712-3.393-2.883a2.613,2.613,0,0,1,1.05-2.114,4.237,4.237,0,0,1,2.747-.848,4.56,4.56,0,0,1,2.9.853,2.687,2.687,0,0,1,1.085,2.215h-2.54a1.229,1.229,0,0,0-.352-.9,1.488,1.488,0,0,0-1.1-.356,1.52,1.52,0,0,0-.993.29.916.916,0,0,0-.352.738.783.783,0,0,0,.4.681,4.114,4.114,0,0,0,1.349.448,11.019,11.019,0,0,1,1.6.426,2.628,2.628,0,0,1,2.013,2.558,2.481,2.481,0,0,1-1.116,2.1,4.815,4.815,0,0,1-2.883.8,5.029,5.029,0,0,1-2.123-.426,3.561,3.561,0,0,1-1.455-1.169,2.716,2.716,0,0,1-.527-1.6H130.6a1.326,1.326,0,0,0,.5,1.037,1.987,1.987,0,0,0,1.248.36,1.839,1.839,0,0,0,1.1-.277A.861.861,0,0,0,133.823,14.372Z" transform="translate(810 6315.279)" fill="#12263f"/>
    <path id="Trazado_593626" data-name="Trazado 593626" d="M6.313,12.491V17H3.677V4.2H8.669A5.776,5.776,0,0,1,11.2,4.73a3.886,3.886,0,0,1,1.683,1.5,4.178,4.178,0,0,1,.589,2.21,3.674,3.674,0,0,1-1.288,2.966,5.363,5.363,0,0,1-3.564,1.085Zm0-2.136H8.669a2.316,2.316,0,0,0,1.6-.492,1.79,1.79,0,0,0,.549-1.406,2.111,2.111,0,0,0-.554-1.521,2.068,2.068,0,0,0-1.529-.6H6.313Zm8.3,1.8a5.64,5.64,0,0,1,.545-2.522,3.989,3.989,0,0,1,1.569-1.714A4.577,4.577,0,0,1,19.1,7.314a4.33,4.33,0,0,1,3.142,1.178,4.727,4.727,0,0,1,1.358,3.2l.018.65A4.97,4.97,0,0,1,22.4,15.853a4.247,4.247,0,0,1-3.278,1.323,4.268,4.268,0,0,1-3.283-1.318,5.058,5.058,0,0,1-1.226-3.586Zm2.54.18a3.555,3.555,0,0,0,.51,2.073,1.831,1.831,0,0,0,2.9.009,3.89,3.89,0,0,0,.519-2.267,3.519,3.519,0,0,0-.519-2.06A1.686,1.686,0,0,0,19.1,9.362a1.658,1.658,0,0,0-1.441.726A3.955,3.955,0,0,0,17.15,12.338Zm13.184,2.035a.818.818,0,0,0-.461-.734,5.241,5.241,0,0,0-1.481-.479Q25,12.447,25,10.276a2.613,2.613,0,0,1,1.05-2.114A4.237,4.237,0,0,1,28.8,7.314a4.56,4.56,0,0,1,2.9.853,2.687,2.687,0,0,1,1.085,2.215h-2.54a1.229,1.229,0,0,0-.352-.9,1.488,1.488,0,0,0-1.1-.356,1.52,1.52,0,0,0-.993.29.916.916,0,0,0-.352.738.783.783,0,0,0,.4.681,4.114,4.114,0,0,0,1.349.448,11.019,11.019,0,0,1,1.6.426A2.628,2.628,0,0,1,32.8,14.267a2.481,2.481,0,0,1-1.116,2.1,4.815,4.815,0,0,1-2.883.8,5.029,5.029,0,0,1-2.123-.426,3.561,3.561,0,0,1-1.455-1.169,2.716,2.716,0,0,1-.527-1.6h2.408a1.326,1.326,0,0,0,.5,1.037,1.987,1.987,0,0,0,1.248.36,1.839,1.839,0,0,0,1.1-.277A.861.861,0,0,0,30.334,14.372ZM37.119,17H34.57V7.49h2.549Zm-2.7-11.971a1.251,1.251,0,0,1,.382-.94,1.648,1.648,0,0,1,2.079,0,1.244,1.244,0,0,1,.387.94,1.247,1.247,0,0,1-.391.949,1.629,1.629,0,0,1-2.065,0A1.247,1.247,0,0,1,34.421,5.029Zm8.745,10.1a1.666,1.666,0,0,0,1.143-.387,1.355,1.355,0,0,0,.457-1.028h2.382a3.258,3.258,0,0,1-.527,1.771A3.48,3.48,0,0,1,45.2,16.732a4.442,4.442,0,0,1-1.991.444,4.129,4.129,0,0,1-3.217-1.3A5.13,5.13,0,0,1,38.815,12.3v-.167a5.071,5.071,0,0,1,1.169-3.507,4.08,4.08,0,0,1,3.208-1.31A4,4,0,0,1,46.053,8.33a3.594,3.594,0,0,1,1.094,2.7H44.766a1.745,1.745,0,0,0-.457-1.206,1.7,1.7,0,0,0-2.5.183,3.749,3.749,0,0,0-.453,2.1v.264a3.8,3.8,0,0,0,.448,2.113A1.549,1.549,0,0,0,43.166,15.128ZM51.278,17H48.729V7.49h2.549ZM48.58,5.029a1.251,1.251,0,0,1,.382-.94,1.648,1.648,0,0,1,2.079,0,1.244,1.244,0,0,1,.387.94,1.247,1.247,0,0,1-.391.949,1.629,1.629,0,0,1-2.065,0A1.247,1.247,0,0,1,48.58,5.029Zm4.395,7.128a5.64,5.64,0,0,1,.545-2.522,3.989,3.989,0,0,1,1.569-1.714,4.577,4.577,0,0,1,2.377-.606,4.33,4.33,0,0,1,3.142,1.178,4.727,4.727,0,0,1,1.358,3.2l.018.65a4.97,4.97,0,0,1-1.222,3.511,4.735,4.735,0,0,1-6.561,0,5.058,5.058,0,0,1-1.226-3.586Zm2.54.18a3.555,3.555,0,0,0,.51,2.073,1.831,1.831,0,0,0,2.9.009,3.89,3.89,0,0,0,.519-2.267,3.519,3.519,0,0,0-.519-2.06,1.686,1.686,0,0,0-1.459-.731,1.658,1.658,0,0,0-1.441.726A3.955,3.955,0,0,0,55.515,12.338ZM65.886,7.49l.079,1.1A3.32,3.32,0,0,1,68.7,7.314a2.759,2.759,0,0,1,2.25.888,4.142,4.142,0,0,1,.756,2.654V17h-2.54V10.9a1.654,1.654,0,0,0-.352-1.176,1.572,1.572,0,0,0-1.169-.366,1.747,1.747,0,0,0-1.608.916V17H63.5V7.49ZM79.14,17a2.821,2.821,0,0,1-.255-.853,3.073,3.073,0,0,1-2.4,1.028,3.376,3.376,0,0,1-2.316-.809,2.6,2.6,0,0,1-.918-2.039,2.687,2.687,0,0,1,1.121-2.32,5.529,5.529,0,0,1,3.239-.817h1.169v-.545a1.567,1.567,0,0,0-.338-1.055,1.331,1.331,0,0,0-1.068-.4,1.513,1.513,0,0,0-1.006.308,1.045,1.045,0,0,0-.365.844h-2.54a2.551,2.551,0,0,1,.51-1.529,3.37,3.37,0,0,1,1.441-1.1,5.253,5.253,0,0,1,2.092-.4A4.15,4.15,0,0,1,80.3,8.2a3.09,3.09,0,0,1,1.033,2.483V14.8a4.546,4.546,0,0,0,.378,2.048V17Zm-2.1-1.767a2.188,2.188,0,0,0,1.037-.25,1.645,1.645,0,0,0,.7-.672V12.676H77.83q-1.907,0-2.03,1.318l-.009.149a1.017,1.017,0,0,0,.334.782A1.3,1.3,0,0,0,77.039,15.233ZM85.661,7.49l.079,1.063a3.342,3.342,0,0,1,2.733-1.239A2.536,2.536,0,0,1,91,8.765a3.265,3.265,0,0,1,2.856-1.45,2.836,2.836,0,0,1,2.3.9,4.141,4.141,0,0,1,.756,2.711V17H94.362V10.922a1.818,1.818,0,0,0-.316-1.185,1.4,1.4,0,0,0-1.116-.374,1.585,1.585,0,0,0-1.582,1.092L91.356,17h-2.54V10.93a1.8,1.8,0,0,0-.325-1.2,1.414,1.414,0,0,0-1.107-.37,1.645,1.645,0,0,0-1.564.9V17h-2.54V7.49ZM101.543,17H98.994V7.49h2.549Zm-2.7-11.971a1.251,1.251,0,0,1,.382-.94,1.648,1.648,0,0,1,2.079,0,1.244,1.244,0,0,1,.387.94,1.247,1.247,0,0,1-.391.949,1.629,1.629,0,0,1-2.065,0A1.247,1.247,0,0,1,98.845,5.029Zm9.167,12.146a4.668,4.668,0,0,1-3.406-1.283,4.561,4.561,0,0,1-1.314-3.419v-.246a5.745,5.745,0,0,1,.554-2.562,4.064,4.064,0,0,1,1.569-1.74,4.4,4.4,0,0,1,2.316-.611,3.947,3.947,0,0,1,3.072,1.23,5,5,0,0,1,1.121,3.489v1.037h-6.056a2.36,2.36,0,0,0,.743,1.494,2.245,2.245,0,0,0,1.569.563,2.742,2.742,0,0,0,2.294-1.063l1.248,1.4a3.813,3.813,0,0,1-1.547,1.261A5.075,5.075,0,0,1,108.012,17.176Zm-.29-7.813a1.587,1.587,0,0,0-1.226.512,2.651,2.651,0,0,0-.6,1.466h3.533v-.2a1.891,1.891,0,0,0-.457-1.311A1.638,1.638,0,0,0,107.722,9.362ZM115.7,7.49l.079,1.1a3.32,3.32,0,0,1,2.733-1.274,2.759,2.759,0,0,1,2.25.888,4.142,4.142,0,0,1,.756,2.654V17h-2.54V10.9a1.654,1.654,0,0,0-.352-1.176,1.572,1.572,0,0,0-1.169-.366,1.747,1.747,0,0,0-1.608.916V17h-2.54V7.49Zm10.784-2.338V7.49h1.626V9.354h-1.626V14.1a1.133,1.133,0,0,0,.2.756,1.015,1.015,0,0,0,.773.229,4.051,4.051,0,0,0,.747-.062v1.925a5.229,5.229,0,0,1-1.538.229,2.425,2.425,0,0,1-2.725-2.7V9.354h-1.389V7.49h1.389V5.152Zm2.382,7a5.64,5.64,0,0,1,.545-2.522,3.989,3.989,0,0,1,1.569-1.714,4.577,4.577,0,0,1,2.377-.606A4.33,4.33,0,0,1,136.5,8.492a4.727,4.727,0,0,1,1.358,3.2l.018.65a4.97,4.97,0,0,1-1.222,3.511,4.735,4.735,0,0,1-6.561,0,5.058,5.058,0,0,1-1.226-3.586Zm2.54.18a3.555,3.555,0,0,0,.51,2.073,1.831,1.831,0,0,0,2.9.009,3.89,3.89,0,0,0,.519-2.267,3.519,3.519,0,0,0-.519-2.06,1.686,1.686,0,0,0-1.459-.731,1.658,1.658,0,0,0-1.441.726A3.955,3.955,0,0,0,131.408,12.338Z" transform="translate(1130 6315.279)" fill="#12263f"/>
    <path id="Trazado_212285" data-name="Trazado 212285" d="M960.995,142.562a45.611,45.611,0,0,1-91.136-.418H869.8A114.6,114.6,0,0,0,640.646,141.1a45.611,45.611,0,0,1-91.136-.418h-.1A114.587,114.587,0,0,0,320.3,141.1h.051a45.611,45.611,0,0,1-91.136-.418h-.055A114.6,114.6,0,0,0,0,139.634l69.014.317a45.606,45.606,0,0,1,91.127.417h.067a114.591,114.591,0,0,0,229.145,1.045H389.3a45.611,45.611,0,0,1,91.136.42h.1a114.587,114.587,0,0,0,229.108-.417h.01a45.606,45.606,0,0,1,91.127.418h.066A114.592,114.592,0,0,0,1030,142.879Z" transform="translate(285 6305.485)" fill="url(#linear-gradient)"/>
    <g id="Grupo_151707" data-name="Grupo 151707" transform="translate(325.269 6371.334)" opacity="0.64">
      <g id="Grupo_151706" data-name="Grupo 151706">
        <g id="Grupo_151705" data-name="Grupo 151705" clip-path="url(#clip-path)">
          <path id="Trazado_212286" data-name="Trazado 212286" d="M183.544,135.425A74.3,74.3,0,1,0,108.9,209.387a74.3,74.3,0,0,0,74.644-73.962" transform="translate(-34.938 -60.78)" fill="#fff"/>
        </g>
      </g>
    </g>
    <path id="Trazado_212287" data-name="Trazado 212287" d="M105.984,183.545A51.483,51.483,0,1,1,157.7,132.3a51.541,51.541,0,0,1-51.717,51.246" transform="translate(293.263 6313.699)" fill="url(#radial-gradient)"/>
    <path id="Trazado_212334" data-name="Trazado 212334" d="M105.984,183.545A51.483,51.483,0,1,1,157.7,132.3a51.541,51.541,0,0,1-51.717,51.246" transform="translate(453.915 6313.699)" fill="url(#radial-gradient)"/>
    <g id="Grupo_151710" data-name="Grupo 151710" transform="translate(485.476 6372.069)" opacity="0.64">
      <g id="Grupo_151709" data-name="Grupo 151709">
        <g id="Grupo_151708" data-name="Grupo 151708" clip-path="url(#clip-path-2)">
          <path id="Trazado_212288" data-name="Trazado 212288" d="M173.935,135.381a74.3,74.3,0,1,0,74.644-73.962,74.3,74.3,0,0,0-74.644,73.962" transform="translate(-173.934 -61.418)" fill="#fff"/>
        </g>
      </g>
    </g>
    <g id="Grupo_151713" data-name="Grupo 151713" transform="translate(645.566 6372.804)" opacity="0.64">
      <g id="Grupo_151712" data-name="Grupo 151712">
        <g id="Grupo_151711" data-name="Grupo 151711" clip-path="url(#clip-path-3)">
          <path id="Trazado_212290" data-name="Trazado 212290" d="M461.436,136.7a74.3,74.3,0,1,0-74.643,73.962A74.3,74.3,0,0,0,461.436,136.7" transform="translate(-312.829 -62.055)" fill="#fff"/>
        </g>
      </g>
    </g>
    <g id="Grupo_151716" data-name="Grupo 151716" transform="translate(805.774 6373.539)" opacity="0.64">
      <g id="Grupo_151715" data-name="Grupo 151715">
        <g id="Grupo_151714" data-name="Grupo 151714" clip-path="url(#clip-path-4)">
          <path id="Trazado_212292" data-name="Trazado 212292" d="M451.827,136.656a74.3,74.3,0,1,0,74.644-73.962,74.3,74.3,0,0,0-74.644,73.962" transform="translate(-451.826 -62.693)" fill="#fff"/>
        </g>
      </g>
    </g>
    <g id="Grupo_151719" data-name="Grupo 151719" transform="translate(965.916 6371.334)" opacity="0.64">
      <g id="Grupo_151718" data-name="Grupo 151718">
        <g id="Grupo_151717" data-name="Grupo 151717" clip-path="url(#clip-path-2)">
          <path id="Trazado_212309" data-name="Trazado 212309" d="M739.372,135.425a74.3,74.3,0,1,0-74.644,73.962,74.3,74.3,0,0,0,74.644-73.962" transform="translate(-590.765 -60.78)" fill="#fff"/>
        </g>
      </g>
    </g>
    <g id="Grupo_151722" data-name="Grupo 151722" transform="translate(1126.124 6372.069)" opacity="0.64">
      <g id="Grupo_151721" data-name="Grupo 151721">
        <g id="Grupo_151720" data-name="Grupo 151720" clip-path="url(#clip-path-6)">
          <path id="Trazado_212311" data-name="Trazado 212311" d="M729.763,135.381a74.3,74.3,0,1,0,74.643-73.962,74.3,74.3,0,0,0-74.643,73.962" transform="translate(-729.762 -61.418)" fill="#fff"/>
        </g>
      </g>
    </g>
    <path id="Trazado_593627" data-name="Trazado 593627" d="M0,0H1030V288.582H0Z" transform="translate(285 6301.279)" fill="none"/>
    <path id="Trazado_593628" data-name="Trazado 593628" d="M0,0H1030V288.582H0Z" transform="translate(285 6301.279)" fill="none"/>
    <path id="Trazado_212313" data-name="Trazado 212313" d="M-7977.984-8228.466v45.888" transform="translate(8377.484 14725.588)" fill="none" stroke="#a2a7c5" stroke-width="2" stroke-dasharray="4"/>
    <path id="Trazado_212320" data-name="Trazado 212320" d="M-7977.984-8228.466v45.888" transform="translate(8697.484 14725.588)" fill="none" stroke="#a2a7c5" stroke-width="2" stroke-dasharray="4"/>
    <path id="Trazado_212322" data-name="Trazado 212322" d="M-7977.984-8228.466v45.888" transform="translate(9018.484 14725.588)" fill="none" stroke="#a2a7c5" stroke-width="2" stroke-dasharray="4"/>
    <path id="Trazado_212317" data-name="Trazado 212317" d="M-7977.984-8228.466v45.888" transform="translate(-7418.484 -1834.189) rotate(180)" fill="none" stroke="#a2a7c5" stroke-width="2" stroke-dasharray="4"/>
    <path id="Trazado_212323" data-name="Trazado 212323" d="M-7977.984-8228.466v45.888" transform="translate(-7097.484 -1834.189) rotate(180)" fill="none" stroke="#a2a7c5" stroke-width="2" stroke-dasharray="4"/>
    <path id="Trazado_212325" data-name="Trazado 212325" d="M-7977.984-8228.466v45.888" transform="translate(-6777.484 -1834.189) rotate(180)" fill="none" stroke="#a2a7c5" stroke-width="2" stroke-dasharray="4"/>
    <path id="Trazado_212314" data-name="Trazado 212314" d="M-7977.984-8228.466v38.961" transform="translate(-7809.005 14520.993) rotate(90)" fill="none" stroke="#ea3584" stroke-width="2"/>
    <path id="Trazado_212319" data-name="Trazado 212319" d="M-7977.984-8228.466v38.961" transform="translate(-7489.005 14520.993) rotate(90)" fill="none" stroke="#ea3584" stroke-width="2"/>
    <path id="Trazado_212321" data-name="Trazado 212321" d="M-7977.984-8228.466v38.961" transform="translate(-7169.004 14520.993) rotate(90)" fill="none" stroke="#ea3584" stroke-width="2"/>
    <path id="Trazado_212318" data-name="Trazado 212318" d="M-7977.984-8228.466v38.961" transform="translate(8768.966 -1629.594) rotate(-90)" fill="none" stroke="#ea3584" stroke-width="2"/>
    <path id="Trazado_212324" data-name="Trazado 212324" d="M-7977.984-8228.466v38.961" transform="translate(9088.966 -1629.594) rotate(-90)" fill="none" stroke="#ea3584" stroke-width="2"/>
    <path id="Trazado_212326" data-name="Trazado 212326" d="M-7977.984-8228.466v38.961" transform="translate(9408.966 -1629.594) rotate(-90)" fill="none" stroke="#ea3584" stroke-width="2"/>
    <path id="redes" d="M52.591,26.3a13.148,13.148,0,1,0-11.9-18.7L37.168,6.3a5.319,5.319,0,0,0,.083-.82,5.526,5.526,0,1,0-.837,2.877l3.515,1.3a12.908,12.908,0,0,0,.18,7.6l-12.05,5.107A13.084,13.084,0,0,0,11.8,16.2L8.77,9.829a5.45,5.45,0,1,0-3.291,1.127A5.387,5.387,0,0,0,6.8,10.778L9.822,17.14a13.125,13.125,0,0,0-.7,22.264l-2,3.6a5.422,5.422,0,0,0-1.638-.277,5.544,5.544,0,1,0,3.553,1.343l2.008-3.61A13.037,13.037,0,0,0,24.424,38.9l4.312,4.744A13.085,13.085,0,0,0,25.2,52.591a13.233,13.233,0,0,0,.163,1.967l-5.074,1.2a5.446,5.446,0,1,0,.528,2.307c0-.06-.017-.117-.018-.178l5.064-1.2A13.142,13.142,0,1,0,49.927,46.374l6.436-4.185a5.587,5.587,0,1,0-1.19-1.84l-6.451,4.194a13.221,13.221,0,0,0-4.9-3.889l5.348-14.825a13.1,13.1,0,0,0,3.417.467ZM31.774,8.765a3.287,3.287,0,1,1,3.287-3.287A3.291,3.291,0,0,1,31.774,8.765ZM2.191,5.478A3.287,3.287,0,1,1,5.478,8.765,3.291,3.291,0,0,1,2.191,5.478ZM5.478,51.495a3.287,3.287,0,1,1,3.287-3.287A3.291,3.291,0,0,1,5.478,51.495Zm9.861,9.861a3.287,3.287,0,1,1,3.287-3.287A3.291,3.291,0,0,1,15.339,61.356ZM60.26,35.06a3.287,3.287,0,1,1-3.287,3.287A3.291,3.291,0,0,1,60.26,35.06ZM46.138,21.983A5.494,5.494,0,0,1,51.5,17.53h2.191a5.494,5.494,0,0,1,5.357,4.453,10.874,10.874,0,0,1-12.9,0Zm6.452-6.644a3.287,3.287,0,1,1,3.287-3.287A3.291,3.291,0,0,1,52.591,15.339Zm0-13.148a10.94,10.94,0,0,1,8.27,18.121A7.761,7.761,0,0,0,56.5,15.88a5.478,5.478,0,1,0-7.814,0,7.761,7.761,0,0,0-4.363,4.432,10.94,10.94,0,0,1,8.27-18.121ZM5.478,28.487a10.956,10.956,0,1,1,19.211,7.182,7.762,7.762,0,0,0-4.369-4.449,5.479,5.479,0,1,0-7.815,0,7.759,7.759,0,0,0-4.357,4.414A10.9,10.9,0,0,1,5.478,28.487Zm7.648-1.1a3.287,3.287,0,1,1,3.287,3.287A3.291,3.291,0,0,1,13.126,27.391ZM9.964,37.307a5.493,5.493,0,0,1,5.353-4.438h2.191a5.492,5.492,0,0,1,5.359,4.467,10.872,10.872,0,0,1-12.9-.029Zm21.913,24.1a5.493,5.493,0,0,1,5.353-4.438h2.191A5.492,5.492,0,0,1,44.78,61.44a10.872,10.872,0,0,1-12.9-.029Zm6.449-6.629a3.287,3.287,0,1,1,3.287-3.287A3.291,3.291,0,0,1,38.326,54.782ZM49.3,52.591a10.9,10.9,0,0,1-2.7,7.182,7.762,7.762,0,0,0-4.369-4.449,5.479,5.479,0,1,0-7.815,0,7.759,7.759,0,0,0-4.357,4.414A10.951,10.951,0,1,1,49.3,52.591ZM41.765,39.909a12.967,12.967,0,0,0-11.407,2.264l-4.312-4.744a13.052,13.052,0,0,0,2.871-13.05l12.05-5.107a13.219,13.219,0,0,0,6.147,5.813Zm0,0" transform="translate(367 6412.279)"/>
    <path id="Trazado_212335" data-name="Trazado 212335" d="M105.984,183.545A51.483,51.483,0,1,1,157.7,132.3a51.541,51.541,0,0,1-51.717,51.246" transform="translate(454.263 6313.699)" fill="url(#radial-gradient)"/>
    <g id="reunion" transform="translate(528 6413.279)">
      <path id="Trazado_212327" data-name="Trazado 212327" d="M1.086,10.864h16.3v2.173a1.086,1.086,0,0,0,1.854.768l2.941-2.941h2.809a1.087,1.087,0,0,0,1.086-1.086V1.086A1.087,1.087,0,0,0,24.987,0H1.086A1.087,1.087,0,0,0,0,1.086V9.777a1.087,1.087,0,0,0,1.086,1.086ZM2.173,2.173H23.9V8.691H21.727a1.083,1.083,0,0,0-.768.318l-1.4,1.4V9.777a1.087,1.087,0,0,0-1.086-1.086H2.173Zm0,0" transform="translate(0)"/>
      <path id="Trazado_212328" data-name="Trazado 212328" d="M305.086,8.691h4.982l2.941,2.941a1.086,1.086,0,0,0,1.854-.768V8.691H320.3A1.087,1.087,0,0,0,321.382,7.6V1.086A1.087,1.087,0,0,0,320.3,0H305.086A1.087,1.087,0,0,0,304,1.086V7.6a1.087,1.087,0,0,0,1.086,1.086Zm1.086-6.518h13.036V6.518h-5.432A1.087,1.087,0,0,0,312.691,7.6v.637l-1.4-1.4a1.083,1.083,0,0,0-.768-.318h-4.345Zm0,0" transform="translate(-262.718 0)"/>
      <path id="Trazado_212329" data-name="Trazado 212329" d="M5.432,85.627V99.75H7.6V85.627H16.3V98.664a1.087,1.087,0,0,0,1.086,1.086H23.9a1.087,1.087,0,0,0,1.086-1.086v-16.3a5.377,5.377,0,0,0-1.114-3.259H31.5V97.578H27.159V99.75H38.023V97.578H33.677V79.109h7.607A5.41,5.41,0,0,0,40.2,82.368v16.3a1.087,1.087,0,0,0,1.086,1.086H47.8a1.087,1.087,0,0,0,1.086-1.086V85.627h8.691V99.75H59.75V85.627A5.438,5.438,0,0,0,65.182,80.2V66.073a5.42,5.42,0,0,0-3.714-5.127,7.6,7.6,0,1,0-9.953,0A5.42,5.42,0,0,0,47.8,66.073v4.345H39.109A1.087,1.087,0,0,0,38.023,71.5v5.432H27.581l2.782-8.348L28.3,67.9l-3.012,9.035H15.478l1.691-7.6h5.646a1.083,1.083,0,0,0,.768-.318l6.2-6.2h.777a4.285,4.285,0,0,0-.14,1.086,4.345,4.345,0,1,0,8.691,0,4.285,4.285,0,0,0-.14-1.086h2.313a1.087,1.087,0,0,0,1.086-1.086V56.535a1.087,1.087,0,0,0-1.816-.805,2.148,2.148,0,0,1-1.443.566,2.173,2.173,0,0,1,0-4.345,2.153,2.153,0,0,1,1.444.566,1.086,1.086,0,0,0,1.815-.805V46.518a1.087,1.087,0,0,0-1.086-1.086H38.969a4.285,4.285,0,0,0,.14-1.086,4.345,4.345,0,0,0-8.691,0,4.285,4.285,0,0,0,.14,1.086H28.246a1.087,1.087,0,0,0-1.086,1.086v7.155l-6.968,6.968H17.263a7.6,7.6,0,1,0-10.2.389,5.422,5.422,0,0,0-3.351,4.052L2.173,72.968V63.9H0V80.2a5.438,5.438,0,0,0,5.432,5.432ZM51.059,55.209a5.432,5.432,0,1,1,5.432,5.432A5.438,5.438,0,0,1,51.059,55.209ZM40.2,72.591h8.691A1.087,1.087,0,0,0,49.973,71.5V66.073a3.263,3.263,0,0,1,3.259-3.259H59.75a3.263,3.263,0,0,1,3.259,3.259V80.2a3.263,3.263,0,0,1-3.259,3.259H47.8a1.087,1.087,0,0,0-1.086,1.086V97.578H42.368V82.368a3.263,3.263,0,0,1,3.259-3.259H55.4a1.087,1.087,0,0,0,1.086-1.086V68.246H54.318v8.691H40.2ZM29.332,47.6h3.02a1.087,1.087,0,0,0,.805-1.816,2.148,2.148,0,0,1-.566-1.443,2.173,2.173,0,0,1,4.345,0,2.153,2.153,0,0,1-.566,1.444,1.086,1.086,0,0,0,.805,1.815H40.2v2.313a4.285,4.285,0,0,0-1.086-.14,4.345,4.345,0,0,0,0,8.691,4.285,4.285,0,0,0,1.086-.14v2.313h-3.02a1.087,1.087,0,0,0-.805,1.816,2.148,2.148,0,0,1,.566,1.443,2.173,2.173,0,0,1-4.345,0,2.148,2.148,0,0,1,.566-1.443,1.087,1.087,0,0,0-.805-1.816h-.4l1.4-1.4a1.085,1.085,0,0,0,0-1.536l-4.027-4.027Zm-22.814,7.6a5.432,5.432,0,1,1,5.432,5.432A5.438,5.438,0,0,1,6.518,55.209ZM3.086,79.622,5.848,65.487A3.267,3.267,0,0,1,9.06,62.814H20.641a1.083,1.083,0,0,0,.768-.318l6.836-6.836,2.809,2.809-8.691,8.691H16.3a1.086,1.086,0,0,0-1.06.851l-2.173,9.777a1.087,1.087,0,0,0,1.06,1.322h5.432a3.263,3.263,0,0,1,3.259,3.259V97.577H18.468V84.541a1.087,1.087,0,0,0-1.086-1.086H6.29a3.26,3.26,0,0,1-3.2-3.833Zm0,0" transform="translate(0 -34.568)"/>
      <path id="Trazado_212330" data-name="Trazado 212330" d="M32,32h4.345v2.173H32Zm0,0" transform="translate(-27.655 -27.655)"/>
      <path id="Trazado_212331" data-name="Trazado 212331" d="M80,32h2.173v2.173H80Zm0,0" transform="translate(-69.136 -27.655)"/>
      <path id="Trazado_212332" data-name="Trazado 212332" d="M112,32h2.173v2.173H112Zm0,0" transform="translate(-96.791 -27.655)"/>
      <path id="Trazado_212333" data-name="Trazado 212333" d="M144,32h2.173v2.173H144Zm0,0" transform="translate(-124.445 -27.655)"/>
    </g>
    <path id="Trazado_212336" data-name="Trazado 212336" d="M105.984,183.545A51.483,51.483,0,1,1,157.7,132.3a51.541,51.541,0,0,1-51.717,51.246" transform="translate(774.263 6313.699)" fill="url(#radial-gradient)"/>
    <path id="Trazado_212337" data-name="Trazado 212337" d="M105.984,183.545A51.483,51.483,0,1,1,157.7,132.3a51.541,51.541,0,0,1-51.717,51.246" transform="translate(934.263 6313.699)" fill="url(#radial-gradient)"/>
    <path id="Trazado_212338" data-name="Trazado 212338" d="M105.984,183.545A51.483,51.483,0,1,1,157.7,132.3a51.541,51.541,0,0,1-51.717,51.246" transform="translate(1094.263 6313.699)" fill="url(#radial-gradient)"/>
    <path id="Trazado_212339" data-name="Trazado 212339" d="M105.984,183.545A51.483,51.483,0,1,1,157.7,132.3a51.541,51.541,0,0,1-51.717,51.246" transform="translate(614.263 6313.699)" fill="url(#radial-gradient)"/>
    <g id="cronologia" transform="translate(688 6413.279)">
      <path id="Trazado_212340" data-name="Trazado 212340" d="M55.749,45.911V9.838a1.088,1.088,0,0,0-.32-.773L46.684.32A1.088,1.088,0,0,0,45.911,0H1.093A1.092,1.092,0,0,0,0,1.093V59.028a1.092,1.092,0,0,0,1.093,1.093H46.95a9.833,9.833,0,1,0,8.8-14.21ZM47,3.732l5.013,5.013H47ZM2.186,57.935V2.186H44.818V9.838a1.092,1.092,0,0,0,1.093,1.093h7.652V46.164a9.794,9.794,0,0,0-7.4,11.771ZM55.749,63.4A7.652,7.652,0,1,1,63.4,55.749,7.662,7.662,0,0,1,55.749,63.4Zm0,0"/>
      <path id="Trazado_212341" data-name="Trazado 212341" d="M366.4,384.13l-2.506-2.506-1.546,1.546,3.279,3.279a1.093,1.093,0,0,0,1.546,0l6.559-6.559-1.546-1.546Zm0,0" transform="translate(-312.833 -326.647)"/>
      <path id="Trazado_212342" data-name="Trazado 212342" d="M72.793,70.254a6.565,6.565,0,0,0-6.46,5.466H62.857a6.551,6.551,0,0,0-12.921,0H48.745a6.559,6.559,0,0,1,0-13.117H55.4a6.551,6.551,0,0,0,12.921,0h7.75a8.745,8.745,0,1,0,0-17.49H74.881a6.551,6.551,0,0,0-12.921,0H53.019a6.568,6.568,0,0,0-5.367-5.367v-.4L53.463,37.4a1.093,1.093,0,0,0,.143-2.015L47.047,32.11a1.093,1.093,0,0,0-1.581.978v6.657A6.555,6.555,0,1,0,53.019,47.3h8.942a6.551,6.551,0,0,0,12.921,0h1.19a6.559,6.559,0,1,1,0,13.117h-7.75a6.551,6.551,0,0,0-12.921,0H48.745a8.745,8.745,0,1,0,0,17.49h1.191a6.551,6.551,0,0,0,12.921,0h3.477a6.556,6.556,0,1,0,6.459-7.652Zm-25.142-35.4,2.617,1.307-2.617.872ZM46.559,50.578a4.363,4.363,0,0,1-1.093-8.59v4.217h2.186V41.989a4.363,4.363,0,0,1-1.093,8.59Zm21.862,0a4.372,4.372,0,1,1,4.372-4.372A4.377,4.377,0,0,1,68.421,50.578Zm-6.559,6.559a4.372,4.372,0,1,1-4.372,4.372A4.377,4.377,0,0,1,61.862,57.137ZM56.4,81.185a4.372,4.372,0,1,1,4.372-4.372A4.377,4.377,0,0,1,56.4,81.185Zm16.4,0a4.372,4.372,0,1,1,4.372-4.372A4.377,4.377,0,0,1,72.793,81.185Zm0,0" transform="translate(-34.534 -27.623)"/>
      <path id="Trazado_212343" data-name="Trazado 212343" d="M232,32h2.186v2.186H232Zm0,0" transform="translate(-200.3 -27.628)"/>
      <path id="Trazado_212344" data-name="Trazado 212344" d="M264,32h2.186v2.186H264Zm0,0" transform="translate(-227.927 -27.628)"/>
      <path id="Trazado_212345" data-name="Trazado 212345" d="M296,32h2.186v2.186H296Zm0,0" transform="translate(-255.555 -27.628)"/>
    </g>
    <g id="anuncio" transform="translate(848 6413.279)">
      <path id="Trazado_212346" data-name="Trazado 212346" d="M1.1,203.44H4.391v13.172a1.1,1.1,0,0,0,1.1,1.1H16.465a1.1,1.1,0,0,0,1.1-1.1V194.659h9.879a1.1,1.1,0,0,0,1.1-1.1v-2.744l11.652,4.855a1.084,1.084,0,0,0,.422.085,1.1,1.1,0,0,0,1.1-1.1V177.1a1.1,1.1,0,0,0-1.519-1.013l-12.97,5.4H23.051a1.1,1.1,0,0,0-1.1,1.1v5.488H15.872a6.586,6.586,0,1,0-9.791,0H5.488A5.5,5.5,0,0,0,0,193.561v8.781a1.1,1.1,0,0,0,1.1,1.1Zm38.418-10.428-10.977-4.574v-5.123l10.977-4.573Zm-15.367-9.33h2.2v4.391h-2.2Zm-17.562,0a4.391,4.391,0,1,1,4.391,4.391A4.395,4.395,0,0,1,6.586,183.683ZM2.2,193.561a3.3,3.3,0,0,1,3.293-3.293H26.344v2.2H16.465a1.1,1.1,0,0,0-1.1,1.1v21.953H12.074V202.343h-2.2v13.172H6.586V193.561h-2.2v7.684H2.2Zm0,0" transform="translate(0 -151.851)"/>
      <path id="Trazado_212347" data-name="Trazado 212347" d="M355.758,16.469a5.481,5.481,0,0,0-5.026-5.445,6.586,6.586,0,1,0-9.705,0A5.481,5.481,0,0,0,336,16.469V18.66a1.1,1.1,0,0,0,1.1,1.1H354.66a1.1,1.1,0,0,0,1.1-1.1ZM345.879,2.2a4.391,4.391,0,1,1-4.391,4.391A4.395,4.395,0,0,1,345.879,2.2Zm7.684,15.367H338.2V16.469a3.3,3.3,0,0,1,3.3-3.3h8.773a3.3,3.3,0,0,1,3.3,3.3Zm0,0" transform="translate(-289.899)"/>
      <path id="Trazado_212348" data-name="Trazado 212348" d="M355.758,184.469a5.481,5.481,0,0,0-5.026-5.445,6.586,6.586,0,1,0-9.705,0A5.481,5.481,0,0,0,336,184.469v2.191a1.1,1.1,0,0,0,1.1,1.1H354.66a1.1,1.1,0,0,0,1.1-1.1ZM345.879,170.2a4.391,4.391,0,1,1-4.391,4.391A4.395,4.395,0,0,1,345.879,170.2Zm7.684,15.367H338.2v-1.093a3.3,3.3,0,0,1,3.3-3.3h8.773a3.3,3.3,0,0,1,3.3,3.3Zm0,0" transform="translate(-289.899 -144.949)"/>
      <path id="Trazado_212349" data-name="Trazado 212349" d="M355.758,352.469a5.481,5.481,0,0,0-5.026-5.445,6.586,6.586,0,1,0-9.705,0A5.481,5.481,0,0,0,336,352.469v2.191a1.1,1.1,0,0,0,1.1,1.1H354.66a1.1,1.1,0,0,0,1.1-1.1ZM345.879,338.2a4.391,4.391,0,1,1-4.391,4.391A4.395,4.395,0,0,1,345.879,338.2Zm7.684,15.367H338.2v-1.093a3.3,3.3,0,0,1,3.3-3.3h8.773a3.3,3.3,0,0,1,3.3,3.3Zm0,0" transform="translate(-289.899 -289.899)"/>
      <path id="Trazado_212350" data-name="Trazado 212350" d="M77.069,22.967a1.1,1.1,0,0,0,1.2-.238l7.362-7.362h11.62a3.3,3.3,0,0,0,3.293-3.293V3.293A3.3,3.3,0,0,0,97.247,0H75.294A3.3,3.3,0,0,0,72,3.293v8.781a3.3,3.3,0,0,0,3.293,3.293h1.1v6.586a1.1,1.1,0,0,0,.677,1.014Zm-1.775-9.8a1.1,1.1,0,0,1-1.1-1.1V3.293a1.1,1.1,0,0,1,1.1-1.1H97.247a1.1,1.1,0,0,1,1.1,1.1v8.781a1.1,1.1,0,0,1-1.1,1.1H85.172a1.093,1.093,0,0,0-.776.322l-5.81,5.81V14.27a1.1,1.1,0,0,0-1.1-1.1Zm0,0" transform="translate(-62.122 -0.001)"/>
      <path id="Trazado_212351" data-name="Trazado 212351" d="M104,32h4.391v2.2H104Zm0,0" transform="translate(-89.731 -27.61)"/>
      <path id="Trazado_212352" data-name="Trazado 212352" d="M104,64h6.586v2.2H104Zm0,0" transform="translate(-89.731 -55.219)"/>
      <path id="Trazado_212353" data-name="Trazado 212353" d="M152,32h13.172v2.2H152Zm0,0" transform="translate(-131.145 -27.61)"/>
      <path id="Trazado_212354" data-name="Trazado 212354" d="M168,64h2.2v2.2H168Zm0,0" transform="translate(-144.949 -55.219)"/>
      <path id="Trazado_212355" data-name="Trazado 212355" d="M200,64h2.2v2.2H200Zm0,0" transform="translate(-172.559 -55.219)"/>
      <path id="Trazado_212356" data-name="Trazado 212356" d="M232,64h2.2v2.2H232Zm0,0" transform="translate(-200.168 -55.219)"/>
    </g>
    <g id="fast_1_" data-name="fast(1)" transform="translate(1006 6416.278)">
      <path id="Trazado_212357" data-name="Trazado 212357" d="M73.321,74.749a1.365,1.365,0,0,0,.968-.4l.008-.007a1.37,1.37,0,0,0-1.916-1.957l-.029.029a1.369,1.369,0,0,0,.97,2.336Zm0,0" transform="translate(-62.099 -62.137)"/>
      <path id="Trazado_212358" data-name="Trazado 212358" d="M69.813,30.5a35.259,35.259,0,0,0-9.958-20.23A35.085,35.085,0,0,0,14.782,6.446,1.37,1.37,0,0,0,16.368,8.68q.663-.47,1.344-.9l3.406,5.9a25.623,25.623,0,0,0-7.455,7.467l-5.9-3.406a32.052,32.052,0,0,1,2-2.811,1.37,1.37,0,0,0-2.143-1.707A35.094,35.094,0,0,0,4.691,52.59a6.121,6.121,0,1,0,10.613-6.1A22.8,22.8,0,0,1,51.17,18.959a22.821,22.821,0,0,1,6.322,20.259L43.343,33.866a8.366,8.366,0,1,0-1.714,6.4l14.925,2.439A23.061,23.061,0,0,1,54.8,46.49a6.121,6.121,0,0,0,10.613,6.1,35.221,35.221,0,0,0,4.4-22.089ZM12.931,47.855a3.382,3.382,0,1,1-5.867,3.368A32.026,32.026,0,0,1,2.757,36.444H9.551a25.683,25.683,0,0,0,3.38,11.411Zm-3.2-16.121c-.087.655-.145,1.313-.18,1.971H2.762q.063-1.419.249-2.843A32.47,32.47,0,0,1,6.4,20.111l5.9,3.4a25.456,25.456,0,0,0-2.564,8.22ZM31.07,39.063a5.638,5.638,0,1,1,9.079-6.405L36.242,31.18a3.648,3.648,0,0,0-2.987.194,4.2,4.2,0,0,0-1.61,6.009,3.649,3.649,0,0,0,2.489,1.662l4.12.673a5.646,5.646,0,0,1-7.185-.655Zm10.158-1.635-.011,0-6.641-1.085a.946.946,0,0,1-.631-.444,1.457,1.457,0,0,1,.559-2.086,1.058,1.058,0,0,1,.475-.123.825.825,0,0,1,.293.053l6.276,2.374.04.015L47.9,38.519Zm-4.8-27.846V2.77a32.113,32.113,0,0,1,13.6,3.63L46.62,12.3a25.356,25.356,0,0,0-10.2-2.72ZM20.081,6.4a32.082,32.082,0,0,1,13.6-3.633V9.582a25.356,25.356,0,0,0-10.2,2.72ZM48.99,13.676l3.408-5.9a32.68,32.68,0,0,1,9.954,9.959l-5.907,3.411a25.627,25.627,0,0,0-7.455-7.467Zm8.826,9.839,5.907-3.41A32.351,32.351,0,0,1,67.1,30.862q.187,1.424.249,2.843H60.56q-.052-.987-.18-1.97a25.444,25.444,0,0,0-2.565-8.22Zm5.227,27.711a3.382,3.382,0,0,1-5.866-3.368,25.385,25.385,0,0,0,2.108-4.7l1.669.273a1.37,1.37,0,0,0,.706-2.633l-1.585-.6a25.863,25.863,0,0,0,.485-3.751h6.794a32.021,32.021,0,0,1-4.309,14.781Zm0,0"/>
      <path id="Trazado_212359" data-name="Trazado 212359" d="M203.8,354.5H187.361a1.369,1.369,0,0,0-1.369,1.369v4.382a1.369,1.369,0,0,0,1.369,1.369H203.8a1.37,1.37,0,0,0,1.37-1.369v-4.382A1.37,1.37,0,0,0,203.8,354.5Zm-1.369,4.382H188.731v-1.644h13.695Zm0,0" transform="translate(-160.524 -305.954)"/>
      <path id="Trazado_212360" data-name="Trazado 212360" d="M99.545,246.145a1.369,1.369,0,0,0,0,2.739h.033a1.369,1.369,0,1,0,0-2.739Zm0,0" transform="translate(-84.733 -212.44)"/>
      <path id="Trazado_212361" data-name="Trazado 212361" d="M174.673,118.842l-.016-.028a1.37,1.37,0,0,0-2.372,1.37l.016.028a1.369,1.369,0,1,0,2.372-1.37Zm0,0" transform="translate(-148.536 -101.953)"/>
      <path id="Trazado_212362" data-name="Trazado 212362" d="M321.175,120.914a1.368,1.368,0,0,0,1.187-.685l.016-.028a1.369,1.369,0,1,0-2.372-1.37l-.016.028a1.37,1.37,0,0,0,1.185,2.054Zm0,0" transform="translate(-276.016 -101.968)"/>
      <path id="Trazado_212363" data-name="Trazado 212363" d="M394.988,248.915a1.37,1.37,0,0,0,0-2.739h-.032a1.37,1.37,0,1,0,0,2.739Zm0,0" transform="translate(-339.692 -212.467)"/>
      <path id="Trazado_212364" data-name="Trazado 212364" d="M212.4,416.5h-.032a1.369,1.369,0,1,0,0,2.739h.032a1.369,1.369,0,1,0,0-2.739Zm0,0" transform="translate(-182.104 -359.472)"/>
      <path id="Trazado_212365" data-name="Trazado 212365" d="M246.954,416.5h-5.62a1.37,1.37,0,0,0,0,2.739h5.62a1.37,1.37,0,0,0,0-2.739Zm0,0" transform="translate(-207.107 -359.472)"/>
    </g>
    <g id="rating" transform="translate(1155.411 6413.279)">
      <path id="Trazado_212366" data-name="Trazado 212366" d="M377.564,129.436a1.264,1.264,0,0,0,1.14-.012c1.021-.532,4.354-2.476,4.393-5.151a3.217,3.217,0,0,0-4.969-2.7,3.186,3.186,0,0,0-1.746-.519,3.312,3.312,0,0,0-3.227,3.19c-.056,2.776,3.361,4.68,4.409,5.2Zm-1.191-6.465h.009a1.283,1.283,0,0,1,.883.354h0a1.262,1.262,0,0,0,1.722,0,1.3,1.3,0,0,1,2.189.919c-.018,1.266-1.812,2.607-3.061,3.313-1.263-.68-3.064-1.989-3.038-3.28A1.363,1.363,0,0,1,376.372,122.971Z" transform="translate(-313.505 -105.543)"/>
      <path id="Trazado_212367" data-name="Trazado 212367" d="M65.425,129.436a1.264,1.264,0,0,0,1.14-.013c1.021-.532,4.354-2.476,4.393-5.151a3.217,3.217,0,0,0-4.969-2.7,3.187,3.187,0,0,0-1.768-.519,3.264,3.264,0,0,0-3.2,3.19c-.056,2.776,3.361,4.68,4.41,5.2Zm-1.192-6.465h.009a1.282,1.282,0,0,1,.882.354h0a1.262,1.262,0,0,0,1.722,0,1.3,1.3,0,0,1,2.189.919c-.018,1.266-1.812,2.607-3.062,3.313-1.263-.68-3.064-1.989-3.038-3.28A1.363,1.363,0,0,1,64.234,122.971Z" transform="translate(-41.351 -105.543)"/>
      <path id="Trazado_212368" data-name="Trazado 212368" d="M24.649,26.859H27.74a.411.411,0,0,1,.292.121l2.092,2.088a1.653,1.653,0,0,0,2.319.008l2.133-2.1a.411.411,0,0,1,.29-.119h3.054a3.438,3.438,0,0,0,3.434-3.434v-3.6a4.376,4.376,0,0,0,1.492.261h4.142a1.1,1.1,0,0,1,.826.373l2.094,2.379a1.924,1.924,0,0,0,1.435.652h.008a1.924,1.924,0,0,0,1.433-.641l2.145-2.4a1.1,1.1,0,0,1,.82-.367h4.1a4.379,4.379,0,0,0,1.354-.214v3.556a3.438,3.438,0,0,0,3.434,3.434h3.091a.411.411,0,0,1,.292.121l2.092,2.088a1.653,1.653,0,0,0,2.319.008l2.133-2.1a.411.411,0,0,1,.29-.119h3.054a3.438,3.438,0,0,0,3.434-3.434V14.509a3.438,3.438,0,0,0-3.434-3.434H64.241V4.4a4.4,4.4,0,0,0-4.4-4.4H52.019a.961.961,0,0,0,0,1.921h7.827A2.477,2.477,0,0,1,62.32,4.4V15.687a2.477,2.477,0,0,1-2.474,2.474h-4.1A3.026,3.026,0,0,0,53.5,19.168l-2.146,2.4-2.094-2.379a3.023,3.023,0,0,0-2.268-1.025H42.846a2.477,2.477,0,0,1-2.474-2.474V4.4a2.477,2.477,0,0,1,2.474-2.474h4.689a.961.961,0,0,0,0-1.921H42.846a4.4,4.4,0,0,0-4.4,4.4v6.68h-13.8a3.438,3.438,0,0,0-3.434,3.434v8.915a3.438,3.438,0,0,0,3.434,3.434ZM77.905,13a1.514,1.514,0,0,1,1.512,1.513v8.915a1.514,1.514,0,0,1-1.512,1.513H74.851a2.321,2.321,0,0,0-1.637.67l-1.94,1.908-1.9-1.9a2.319,2.319,0,0,0-1.649-.682H64.634a1.514,1.514,0,0,1-1.513-1.513v-4.81a4.378,4.378,0,0,0,1.12-2.928V13H77.905ZM23.136,14.509A1.514,1.514,0,0,1,24.649,13h13.8v2.69a4.375,4.375,0,0,0,.983,2.766v4.971a1.514,1.514,0,0,1-1.513,1.513H34.867a2.321,2.321,0,0,0-1.637.67l-1.94,1.908-1.9-1.9a2.32,2.32,0,0,0-1.649-.682H24.649a1.514,1.514,0,0,1-1.513-1.513V14.509Z" transform="translate(-6.649)"/>
      <path id="Trazado_212369" data-name="Trazado 212369" d="M200.9,40.843c-.08,3.956,4.939,6.743,6.479,7.5a1.425,1.425,0,0,0,1.285-.014c1.5-.783,6.408-3.635,6.463-7.455a4.424,4.424,0,0,0-7.111-3.514,4.4,4.4,0,0,0-2.708-.91A4.491,4.491,0,0,0,200.9,40.843Zm4.421-2.469h.018a2.479,2.479,0,0,1,1.706.683h0a1.422,1.422,0,0,0,1.94,0,2.5,2.5,0,0,1,4.221,1.793c-.031,2.127-2.772,4.346-5.2,5.659-2.468-1.265-5.224-3.448-5.18-5.626A2.588,2.588,0,0,1,205.316,38.374Z" transform="translate(-163.312 -31.782)"/>
      <path id="Trazado_212370" data-name="Trazado 212370" d="M75.114,225.6V211.6a10.449,10.449,0,0,0-15.213-9.3.961.961,0,0,0,.878,1.709,8.429,8.429,0,0,1,3.889-.937,8.534,8.534,0,0,1,8.524,8.524v12.3c-.026-.011-.051-.025-.078-.035h0l-4.839-1.994V220a11.367,11.367,0,0,0,3.271-7.53c0-3.508-1.562-6.264-4.177-7.373a.962.962,0,0,0-.745,0,1,1,0,0,0-.569.682,6.931,6.931,0,0,1-5.309,5.283l-2.2.471a1.114,1.114,0,0,0-.757,1.132,11.394,11.394,0,0,0,3.27,7.35v1.866l-3.822,1.575a4.785,4.785,0,0,0-1.094-.988V211.6a8.47,8.47,0,0,1,1.539-4.887.961.961,0,0,0-1.573-1.1,10.381,10.381,0,0,0-1.887,5.991v9.968l-5.258-2.166v-3.65c2.407-1.95,3.833-5.457,4.1-8.908a7.84,7.84,0,0,0,2.4-4.2A3.564,3.564,0,0,0,55,199.718a3.521,3.521,0,0,0-1.447-1.242,3.684,3.684,0,0,0,.043-.979,3.649,3.649,0,0,0-5.2-2.966A4.229,4.229,0,0,0,42.6,192.78a3.652,3.652,0,0,0-5.727,1.74,4.8,4.8,0,0,0-2.887,7.658,12.134,12.134,0,0,0,.164,2.488,4.571,4.571,0,0,0,2.243,3.149,15.742,15.742,0,0,0,.367,1.861,1.013,1.013,0,0,0,1.173.686.961.961,0,0,0,.686-1.173,13.831,13.831,0,0,1-.368-2c-.042-.371.1-.535.939-.946a3.882,3.882,0,0,0,1.75-1.337,5.621,5.621,0,0,0,5.092-2.486,4.3,4.3,0,0,0,2.673.705,4.456,4.456,0,0,0,1.714,1.891c.572.394.749.517.752,1.242-.2,4.49-2.683,9.127-6.505,9.127a5.419,5.419,0,0,1-4.348-2.468.961.961,0,0,0-1.555,1.129,8.964,8.964,0,0,0,1.609,1.716v3.64l-6.367,2.623a4.8,4.8,0,0,0-1.921,1.438l-3.865-1.593v-2.954a11.188,11.188,0,0,0,3.119-4.886.96.96,0,0,0,.673-.432c1-1.56,2.917-6.292-.158-9.406a4.766,4.766,0,0,0-4.313-1.213,3.042,3.042,0,0,0-.2-.37c-1.3-2.027-4.651-2.311-7.635-.647a.961.961,0,1,0,.936,1.678c2.238-1.248,4.434-1.005,5.08,0a2.1,2.1,0,0,1,.047,1.764,5.159,5.159,0,0,1-3.146,3.038,11.281,11.281,0,0,0-4.342,2.842,8.749,8.749,0,0,1-.073-4.723.961.961,0,0,0-1.84-.555,10.528,10.528,0,0,0,.848,7.665.96.96,0,0,0,.7.436,11.219,11.219,0,0,0,3.093,4.8v2.962c-.088.039-4.8,1.973-4.893,2.018a4.151,4.151,0,0,0-2.525,3.828v3.028a2.246,2.246,0,0,0,2.243,2.243H73.451a2.245,2.245,0,0,0,2.243-2.243v-3.028a4.159,4.159,0,0,0-.58-2.122ZM50.251,201.772a.961.961,0,0,0-1.222-.655,2.179,2.179,0,0,1-2.477-.852.961.961,0,0,0-1.708.24,3.643,3.643,0,0,1-3.469,2.512,6.54,6.54,0,0,1-.845-.111.961.961,0,0,0-1.118.737c-.083.376-.368.546-1.048.871a3.914,3.914,0,0,0-1.609,1.176,2.628,2.628,0,0,1-.712-1.377,10.732,10.732,0,0,1-.116-2.39.961.961,0,0,0-.253-.728,2.881,2.881,0,0,1,2.028-4.837.961.961,0,0,0,.928-.871,1.726,1.726,0,0,1,3.1-.88.961.961,0,0,0,1.4.141,2.3,2.3,0,0,1,3.808,1.471.961.961,0,0,0,1.694.505,1.714,1.714,0,0,1,1.49-.62,1.729,1.729,0,0,1,1.359,2.553.961.961,0,0,0,.742,1.418,1.613,1.613,0,0,1,1.183.707,1.644,1.644,0,0,1,.215,1.354,9.067,9.067,0,0,1-.975,2.362,3.726,3.726,0,0,0-1.126-1.062,2.568,2.568,0,0,1-1.262-1.667Zm10.9,11.164a8.86,8.86,0,0,0,6.417-5.515,6.228,6.228,0,0,1,2.06,5.046c0,3.448-3,7.436-4.958,7.436-1.814,0-4.523-3.4-4.911-6.669ZM42.964,231.07a18.877,18.877,0,0,0-3.577-9.179l1.723-.71a5.365,5.365,0,0,0,3.559,1.352h0a5.367,5.367,0,0,0,3.561-1.352l1.7.7a18.887,18.887,0,0,0-3.607,9.189Zm8.8-8.431,2.832,1.167a2.877,2.877,0,0,1,1.787,2.669v4.6H48.258A16.939,16.939,0,0,1,51.768,222.639Zm-7.1-5.329a6.6,6.6,0,0,0,2.374-.434v2.789a3.447,3.447,0,0,1-2.373.946h0a3.447,3.447,0,0,1-2.373-.945v-2.788A6.642,6.642,0,0,0,44.669,217.311ZM31.033,231.07H29.357l1.676-1.945Zm.011-4.9-4.223,4.9H22.449l-4.4-5.9,3.7-1.526a4.459,4.459,0,0,0,2.865,1.042h0a4.458,4.458,0,0,0,2.866-1.042l3.73,1.537a4.814,4.814,0,0,0-.166.983Zm-.556-20.621c1.672,1.693,1.146,4.262.486,5.871a16.263,16.263,0,0,0-2.631-2.128,4.634,4.634,0,0,1-1.582-1.65,6.267,6.267,0,0,0,.829-1.611,4.993,4.993,0,0,0,.245-1.139,2.914,2.914,0,0,1,2.652.657Zm-10.957,7.224a9.332,9.332,0,0,1,3.751-2.513,7.564,7.564,0,0,0,2.111-1.177,6.7,6.7,0,0,0,1.915,1.828,14.419,14.419,0,0,1,2.371,1.933c-.741,3.155-3.324,5.78-5.065,5.78S20.251,215.951,19.531,212.771Zm5.082,7.772a4.325,4.325,0,0,0,1.687-.37v1.955a2.539,2.539,0,0,1-1.686.64h0a2.538,2.538,0,0,1-1.686-.641V220.17A4.3,4.3,0,0,0,24.614,220.543Zm-9.1,10.206v-3.028a2.236,2.236,0,0,1,.773-1.694l3.767,5.044H15.832A.322.322,0,0,1,15.511,230.749Zm17.444-4.274a2.877,2.877,0,0,1,1.787-2.669l2.808-1.157a16.934,16.934,0,0,1,3.479,8.421H32.955v-4.6Zm25.354,4.6v-4.6a4.828,4.828,0,0,0-.183-1.312l2.943-1.213a13.55,13.55,0,0,0,1.608,7.12Zm4.674-8.554v-1.109a3.612,3.612,0,0,0,3.373,0s0,1.015,0,1.115c0,2.883,0,5.858-1.686,8.051-1.686-2.189-1.686-5.167-1.686-8.053A.011.011,0,0,0,62.982,222.516Zm10.79,8.233a.322.322,0,0,1-.322.322H66.66a13.553,13.553,0,0,0,1.609-7.12l4.114,1.7h0a2.238,2.238,0,0,1,1.39,2.076Z" transform="translate(0 -167.405)"/>
    </g>
  </g>
</svg>
