<svg xmlns="http://www.w3.org/2000/svg" xmlns:xlink="http://www.w3.org/1999/xlink" width="295" height="198" viewBox="0 0 295 198">
  <defs>
    <clipPath id="clip-path">
      <rect id="Rectángulo_293079" data-name="Rectángulo 293079" width="235.015" height="197.342" fill="none"/>
    </clipPath>
    <clipPath id="clip-path-3">
      <rect id="Rectángulo_293060" data-name="Rectángulo 293060" width="82.35" height="82.403" fill="none"/>
    </clipPath>
    <clipPath id="clip-path-4">
      <rect id="Rectángulo_293061" data-name="Rectángulo 293061" width="4.993" height="14.246" fill="none"/>
    </clipPath>
    <clipPath id="clip-path-5">
      <rect id="Rectángulo_293062" data-name="Rectángulo 293062" width="12.31" height="2.973" fill="none"/>
    </clipPath>
    <clipPath id="clip-path-6">
      <rect id="Rectángulo_293063" data-name="Rectángulo 293063" width="4.539" height="1.55" fill="none"/>
    </clipPath>
    <clipPath id="clip-path-7">
      <rect id="Rectángulo_293064" data-name="Rectángulo 293064" width="27.895" height="74.246" fill="none"/>
    </clipPath>
    <clipPath id="clip-path-8">
      <rect id="Rectángulo_293065" data-name="Rectángulo 293065" width="27.786" height="74.039" fill="none"/>
    </clipPath>
    <clipPath id="clip-path-9">
      <rect id="Rectángulo_293066" data-name="Rectángulo 293066" width="12.386" height="22.19" fill="none"/>
    </clipPath>
    <clipPath id="clip-path-10">
      <rect id="Rectángulo_293067" data-name="Rectángulo 293067" width="123.464" height="3.51" fill="none"/>
    </clipPath>
    <clipPath id="clip-path-11">
      <rect id="Rectángulo_293068" data-name="Rectángulo 293068" width="43.012" height="3.51" fill="none"/>
    </clipPath>
    <clipPath id="clip-path-12">
      <rect id="Rectángulo_293069" data-name="Rectángulo 293069" width="4.068" height="1.276" fill="none"/>
    </clipPath>
    <clipPath id="clip-path-13">
      <rect id="Rectángulo_293070" data-name="Rectángulo 293070" width="4.069" height="1.276" fill="none"/>
    </clipPath>
    <clipPath id="clip-path-15">
      <rect id="Rectángulo_293072" data-name="Rectángulo 293072" width="12.187" height="24.587" fill="none"/>
    </clipPath>
    <clipPath id="clip-path-16">
      <rect id="Rectángulo_293074" data-name="Rectángulo 293074" width="26.244" height="26.554" fill="none"/>
    </clipPath>
    <clipPath id="clip-path-17">
      <rect id="Rectángulo_293075" data-name="Rectángulo 293075" width="19.197" height="19.423" fill="none"/>
    </clipPath>
    <clipPath id="clip-path-20">
      <rect id="Rectángulo_42719" data-name="Rectángulo 42719" width="15.073" height="15.073" fill="#ea3584"/>
    </clipPath>
  </defs>
  <g id="Grupo_873742" data-name="Grupo 873742" transform="translate(-180 -7885)">
    <g id="Grupo_873738" data-name="Grupo 873738" transform="translate(222 7885.329)">
      <g id="Grupo_873737" data-name="Grupo 873737" clip-path="url(#clip-path)">
        <g id="Grupo_873732" data-name="Grupo 873732">
          <g id="Grupo_873731" data-name="Grupo 873731" clip-path="url(#clip-path)">
            <g id="Grupo_873685" data-name="Grupo 873685" transform="translate(152.664 110.686)" style="mix-blend-mode: multiply;isolation: isolate">
              <g id="Grupo_873684" data-name="Grupo 873684">
                <g id="Grupo_873683" data-name="Grupo 873683" clip-path="url(#clip-path-3)">
                  <path id="Trazado_593303" data-name="Trazado 593303" d="M309.265,219.705a13.421,13.421,0,0,1,1.766-9.185,9.7,9.7,0,0,1,5.589,7.027,11.176,11.176,0,0,1,.01,4.264q2.312-3.7,4.318-7.61a11.026,11.026,0,0,1-5.017-6.432,13.633,13.633,0,0,1,.491-9.418,9.656,9.656,0,0,1,6.508,6.206,11.3,11.3,0,0,1,.6,4.251q1.174-2.65,2.206-5.374a15.82,15.82,0,0,1,.093-8.694,16.014,16.014,0,0,1,5.765-8.453,13.622,13.622,0,0,1-4.043,17.835q-.4,1.069-.831,2.127a15.513,15.513,0,0,1,3.43-2.8,10.236,10.236,0,0,1,9.143-1.108,14.55,14.55,0,0,1-6.724,8.962,9.318,9.318,0,0,1-8.292.542q-1.909,4.05-4.141,7.91a15.252,15.252,0,0,1,3.771-2.258,10.279,10.279,0,0,1,9.188.232,14.346,14.346,0,0,1-7.864,7.828,9.346,9.346,0,0,1-8.27-.649q-2.438,3.716-5.173,7.211a15.12,15.12,0,0,1,4.037-1.7,10.3,10.3,0,0,1,9.051,1.532,14.246,14.246,0,0,1-8.844,6.61,9.361,9.361,0,0,1-8.091-1.8q-2.922,3.332-6.115,6.415a15.045,15.045,0,0,1,4.231-1.117,10.3,10.3,0,0,1,8.744,2.78,14.238,14.238,0,0,1-9.668,5.311,9.359,9.359,0,0,1-7.764-2.906q-3.362,2.9-6.966,5.518a15.14,15.14,0,0,1,4.355-.526,10.29,10.29,0,0,1,8.281,3.962,14.32,14.32,0,0,1-10.341,3.937,9.346,9.346,0,0,1-7.3-3.949q-3.756,2.416-7.728,4.523a15.3,15.3,0,0,1,4.415.074,10.262,10.262,0,0,1,7.671,5.065,14.511,14.511,0,0,1-10.867,2.493,9.321,9.321,0,0,1-6.712-4.918,106.955,106.955,0,0,1-13.8,5.211.988.988,0,1,1-.559-1.858,105.039,105.039,0,0,0,10.257-3.674,11,11,0,0,1,.346-8.168,13.736,13.736,0,0,1,6.448-6.888,9.662,9.662,0,0,1,.993,8.931,11.235,11.235,0,0,1-2.289,3.637q3.978-1.938,7.754-4.191a11.049,11.049,0,0,1-.844-8.113,13.476,13.476,0,0,1,5.349-7.677,9.707,9.707,0,0,1,2.257,8.687,11.152,11.152,0,0,1-1.727,3.9q3.627-2.453,7.028-5.192a11.068,11.068,0,0,1-1.986-7.9,13.35,13.35,0,0,1,4.2-8.32,9.725,9.725,0,0,1,3.452,8.28,11.094,11.094,0,0,1-1.154,4.093q3.234-2.919,6.213-6.1a11.071,11.071,0,0,1-3.069-7.542,13.328,13.328,0,0,1,3-8.82,9.723,9.723,0,0,1,4.566,7.722,11.114,11.114,0,0,1-.574,4.213q2.794-3.337,5.31-6.9a11.058,11.058,0,0,1-4.083-7.049" transform="translate(-256.936 -186.286)" fill="#e0e8ff"/>
                </g>
              </g>
            </g>
            <path id="Trazado_593304" data-name="Trazado 593304" d="M219.074,326.681H3.989a3.989,3.989,0,0,1,0-7.978H219.074a3.989,3.989,0,0,1,0,7.978" transform="translate(0 -129.339)" fill="#758aff"/>
            <path id="Trazado_593305" data-name="Trazado 593305" d="M108.567,162.224a18.282,18.282,0,0,1-5.453-26.606c2.352-3.192,5.881-5.922,6.325-9.863.46-4.084-2.6-7.623-4.006-11.484a15.077,15.077,0,0,1,2.261-14.206c2.237-2.849,5.538-4.913,7.032-8.213.939-2.075,1.051-4.411,1.312-6.673s.74-4.624,2.229-6.346,4.282-2.506,6.1-1.131c3.439-3.55,7.487-7.854,12.044-9.766s10.031-2.183,14.3.315c3.374,1.976,5.618,5.4,8.582,7.946,2.546,2.191,5.589,3.714,8.335,5.649s5.3,4.468,6.146,7.719c1.383,5.345-2.188,10.713-2.354,16.232-.16,5.362,2.888,10.3,3.567,15.625.688,5.4-1.135,10.877-4.011,15.5s-6.757,8.514-10.6,12.365c-1.559,6.956-6.684,11.881-13.224,14.716s-13.858,3.321-20.982,3.063a39.543,39.543,0,0,1-17.591-4.84" transform="translate(-40.405 -26.963)" fill="#6b3c00"/>
            <path id="Trazado_593306" data-name="Trazado 593306" d="M127.26,171.283c-1.482-1.961-1.439-4.7-.82-7.076s1.739-4.616,2.227-7.025c.661-3.255.133-6.627-.542-9.879s-1.5-6.515-1.441-9.836,1.149-6.791,3.69-8.93c8.908-7.5,23.332-4.893,34.914-3.674,5.854.617,9.856,6.264,11.711,11.849a25.266,25.266,0,0,1-.986,17.264,43.13,43.13,0,0,1-10.118,14.318c-2.509,2.456-6.952.484-10.4,1.16-3.377.663-6.288,2.723-9.462,4.053a23.06,23.06,0,0,1-16.128.576c-1.53-.516-2.818-1.2-2.647-2.8" transform="translate(-51.148 -50.086)" fill="#593200"/>
            <path id="Trazado_593307" data-name="Trazado 593307" d="M177.926,194.522a31.021,31.021,0,0,0-16.873-11.032c-3.052-.764-6.217-1.058-9.219-2a17.367,17.367,0,0,1-2.495-1,54.973,54.973,0,0,1-1.721-14.071H130.025a54.973,54.973,0,0,1-1.721,14.071,17.312,17.312,0,0,1-2.495,1c-3,.942-6.167,1.236-9.219,2A30.747,30.747,0,0,0,93.3,213.634v43.475l78.483-1.149a12.738,12.738,0,0,0,12.552-12.736v-29.59a31.026,31.026,0,0,0-6.413-19.112" transform="translate(-37.865 -67.537)" fill="#ffc582"/>
            <path id="Trazado_593308" data-name="Trazado 593308" d="M161.721,273.217c1.5-3.927,1.627-8.217,2.171-12.386,1.042-8,3.649-15.694,5.5-23.543s3.49-16.4,1.463-24.208a142.823,142.823,0,0,1-34.491-.053c-4.33,1.815-6.577,7.279-7.381,11.9s-.216,9.362-.126,14.056c.1,5.134-.405,10.272-.163,15.4s1.3,10.378,4.2,14.617a26.4,26.4,0,0,0,6.816,6.551l21.055-.308a15.086,15.086,0,0,0,.957-2.03" transform="translate(-52.175 -86.452)" fill="#fff"/>
            <path id="Trazado_593309" data-name="Trazado 593309" d="M128.984,229.023c.8-4.625,3.052-10.089,7.381-11.9a142.823,142.823,0,0,0,34.491.053,29.584,29.584,0,0,1,.875,5.807,32.865,32.865,0,0,0-.875-9.9,142.824,142.824,0,0,1-34.491-.054c-4.329,1.815-6.577,7.279-7.381,11.9a37.54,37.54,0,0,0-.374,7.691,28.5,28.5,0,0,1,.374-3.6" transform="translate(-52.177 -86.451)" fill="#ededed"/>
            <path id="Trazado_593310" data-name="Trazado 593310" d="M128.9,263.276c0-.16-.011-.321-.015-.482-.075,3.522-.276,7.044-.185,10.564.074-3.36.264-6.721.2-10.082" transform="translate(-52.222 -106.649)" fill="#ededed"/>
            <path id="Trazado_593311" data-name="Trazado 593311" d="M154.335,173.9a37.416,37.416,0,0,0,18.1-4.9c-.034-.859-.055-1.719-.048-2.579H154.794a54.767,54.767,0,0,1-.459,7.481" transform="translate(-62.633 -67.536)" fill="#94724c"/>
            <path id="Trazado_593312" data-name="Trazado 593312" d="M136.6,125.5a8.173,8.173,0,0,0-2.867-3.384,3.4,3.4,0,0,0-4.135.373,4.691,4.691,0,0,0-.791,3.463,12.724,12.724,0,0,0,2.17,6.945,6.4,6.4,0,0,0,6.45,2.61c.341-3.345.766-7.047-.826-10.008" transform="translate(-52.262 -49.346)" fill="#ffc582"/>
            <path id="Trazado_593313" data-name="Trazado 593313" d="M137.154,129.484l.255.042a14.874,14.874,0,0,0-1.131-2.365,4.967,4.967,0,0,0-1.862-1.806,3.007,3.007,0,0,0-2.535-.156,2.173,2.173,0,0,0-1.324,2.072,2.162,2.162,0,0,1,2.044-.576,2.088,2.088,0,0,1,1.543,1.4,1.591,1.591,0,0,0-1.209,1.317,3.126,3.126,0,0,0,.279,1.834,2.887,2.887,0,0,0,.575.925,1.37,1.37,0,0,0,.974.433,2.025,2.025,0,0,1-1.434.812,3.9,3.9,0,0,0,3.8-.247,16.979,16.979,0,0,0,.029-3.689" transform="translate(-52.982 -50.723)" fill="#d6a56d"/>
            <path id="Trazado_593314" data-name="Trazado 593314" d="M195.269,127.658a8.173,8.173,0,0,1,2.867-3.384,3.4,3.4,0,0,1,4.135.373,4.691,4.691,0,0,1,.791,3.463,12.723,12.723,0,0,1-2.17,6.945,6.4,6.4,0,0,1-6.45,2.61c-.34-3.345-.766-7.047.827-10.008" transform="translate(-78.78 -50.223)" fill="#ffc582"/>
            <path id="Trazado_593315" data-name="Trazado 593315" d="M196.15,131.644l-.255.042a14.877,14.877,0,0,1,1.131-2.365,4.963,4.963,0,0,1,1.862-1.806,3.007,3.007,0,0,1,2.535-.156,2.173,2.173,0,0,1,1.324,2.072,2.162,2.162,0,0,0-2.044-.576,2.088,2.088,0,0,0-1.543,1.4,1.591,1.591,0,0,1,1.209,1.317,3.126,3.126,0,0,1-.279,1.834,2.887,2.887,0,0,1-.575.925,1.37,1.37,0,0,1-.974.433,2.023,2.023,0,0,0,1.434.812,3.9,3.9,0,0,1-3.8-.247,16.981,16.981,0,0,1-.029-3.689" transform="translate(-79.5 -51.6)" fill="#d6a56d"/>
            <path id="Trazado_593316" data-name="Trazado 593316" d="M140.719,128.943a5.063,5.063,0,1,1-5.064-5.064,5.064,5.064,0,0,1,5.064,5.064" transform="translate(-52.998 -50.274)" fill="#0094c6"/>
            <path id="Trazado_593317" data-name="Trazado 593317" d="M201.044,128.943a5.063,5.063,0,1,1-5.064-5.064,5.064,5.064,0,0,1,5.064,5.064" transform="translate(-77.48 -50.274)" fill="#0094c6"/>
            <path id="Trazado_593318" data-name="Trazado 593318" d="M174.916,117.756c0,13.334-8.037,24.143-17.952,24.143s-17.952-10.809-17.952-24.143,0-24.143,17.952-24.143,17.952,10.809,17.952,24.143" transform="translate(-56.415 -37.991)" fill="#ffc582"/>
            <path id="Trazado_593319" data-name="Trazado 593319" d="M140.7,117.3c-.56-.259.408-1.231,1.868-1.625,3.868-1.043,8.149-1.487,11.364.9.127.667-.725,1.459-1.4,1.54a4.4,4.4,0,0,1-1.97-.421,17.473,17.473,0,0,0-9.863-.4" transform="translate(-57.036 -46.602)" fill="#6b3c00"/>
            <path id="Trazado_593320" data-name="Trazado 593320" d="M188.317,117.3c.56-.259-.408-1.231-1.868-1.625-3.868-1.043-8.149-1.487-11.364.9-.127.667.725,1.459,1.4,1.54a4.4,4.4,0,0,0,1.97-.421,17.473,17.473,0,0,1,9.863-.4" transform="translate(-71.049 -46.602)" fill="#6b3c00"/>
            <path id="Trazado_593321" data-name="Trazado 593321" d="M153.939,143.238c0,.7-2.219,1.262-4.957,1.262s-4.957-.565-4.957-1.262,2.219-1.262,4.957-1.262,4.957.565,4.957,1.262" transform="translate(-58.449 -57.618)" fill="#ffa866"/>
            <path id="Trazado_593322" data-name="Trazado 593322" d="M187.191,143.238c0,.7-2.219,1.262-4.957,1.262s-4.957-.565-4.957-1.262,2.219-1.262,4.957-1.262,4.957.565,4.957,1.262" transform="translate(-71.944 -57.618)" fill="#ffa866"/>
            <g id="Grupo_873688" data-name="Grupo 873688" transform="translate(96.416 73.953)" style="mix-blend-mode: multiply;isolation: isolate">
              <g id="Grupo_873687" data-name="Grupo 873687">
                <g id="Grupo_873686" data-name="Grupo 873686" clip-path="url(#clip-path-4)">
                  <path id="Trazado_593323" data-name="Trazado 593323" d="M166.339,125.464a13.316,13.316,0,0,1-2.231,9.418,3.287,3.287,0,0,0-.839,1.868,1.938,1.938,0,0,0,1.468,1.652,4.845,4.845,0,0,0,2.337-.061" transform="translate(-162.675 -124.87)" fill="none" stroke="#d9d9d9" stroke-linecap="round" stroke-linejoin="round" stroke-width="2"/>
                </g>
              </g>
            </g>
            <path id="Trazado_593324" data-name="Trazado 593324" d="M147.112,129.682a8,8,0,1,1,8-8,8.006,8.006,0,0,1-8,8m0-14.693a6.7,6.7,0,1,0,6.7,6.7,6.7,6.7,0,0,0-6.7-6.7" transform="translate(-56.457 -46.137)" fill="#fff"/>
            <path id="Trazado_593325" data-name="Trazado 593325" d="M180.891,129.682a8,8,0,1,1,8-8,8.006,8.006,0,0,1-8,8m0-14.693a6.7,6.7,0,1,0,6.7,6.7,6.7,6.7,0,0,0-6.7-6.7" transform="translate(-70.165 -46.137)" fill="#fff"/>
            <path id="Trazado_593326" data-name="Trazado 593326" d="M165.057,126.658,164.3,125.6a5.408,5.408,0,0,1,6.132,0l-.756,1.06a4.152,4.152,0,0,0-4.624,0" transform="translate(-66.679 -50.58)" fill="#fff"/>
            <g id="Grupo_873691" data-name="Grupo 873691" transform="translate(94.802 89.822)" style="mix-blend-mode: multiply;isolation: isolate">
              <g id="Grupo_873690" data-name="Grupo 873690">
                <g id="Grupo_873689" data-name="Grupo 873689" clip-path="url(#clip-path-5)">
                  <path id="Trazado_593327" data-name="Trazado 593327" d="M160.553,152.589a10.645,10.645,0,0,0,11.122-.417" transform="translate(-159.959 -151.578)" fill="none" stroke="#d9d9d9" stroke-linecap="round" stroke-linejoin="round" stroke-width="2"/>
                </g>
              </g>
            </g>
            <g id="Grupo_873694" data-name="Grupo 873694" transform="translate(98.326 94.171)" style="mix-blend-mode: multiply;isolation: isolate">
              <g id="Grupo_873693" data-name="Grupo 873693">
                <g id="Grupo_873692" data-name="Grupo 873692" clip-path="url(#clip-path-6)">
                  <path id="Trazado_593328" data-name="Trazado 593328" d="M166.484,159.491a6.936,6.936,0,0,0,3.351.267" transform="translate(-165.89 -158.897)" fill="none" stroke="#d9d9d9" stroke-linecap="round" stroke-linejoin="round" stroke-width="2"/>
                </g>
              </g>
            </g>
            <path id="Trazado_593329" data-name="Trazado 593329" d="M126.457,116.4a37.813,37.813,0,0,0,13.265-17.735,22.714,22.714,0,0,0,16.134,5.848,6.8,6.8,0,0,1-2.684-2.591,26.635,26.635,0,0,1,14.129,9.155,61.006,61.006,0,0,0,4.471,5.409,8.225,8.225,0,0,0,6.293,2.585c-1.451-6.175-2.865-12.558-5.19-18.46-1.428-3.623-3.113-7.315-6.094-9.82-3.709-3.118-8.888-3.91-13.721-3.555A32.991,32.991,0,0,0,138.4,91.851a31.514,31.514,0,0,0-13.131,15.967,11.834,11.834,0,0,0-.894,4.541,5.409,5.409,0,0,0,2.077,4.04" transform="translate(-50.474 -35.37)" fill="#6b3c00"/>
            <path id="Trazado_593330" data-name="Trazado 593330" d="M136.841,141.917a1.635,1.635,0,1,1-1.635-1.635,1.635,1.635,0,0,1,1.635,1.635" transform="translate(-54.207 -56.93)" fill="#ffee3d"/>
            <path id="Trazado_593331" data-name="Trazado 593331" d="M202.71,141.917a1.635,1.635,0,1,1-1.635-1.635,1.635,1.635,0,0,1,1.635,1.635" transform="translate(-80.938 -56.93)" fill="#ffee3d"/>
            <path id="Trazado_593332" data-name="Trazado 593332" d="M152.271,123.124a1.636,1.636,0,0,0-1.376,1.188l1.376,1.376-1.376,1.376a1.636,1.636,0,0,0,1.376,1.189c.9,0,1.635-1.149,1.635-2.564s-.731-2.564-1.635-2.564" transform="translate(-61.238 -49.967)" fill="#453e18"/>
            <path id="Trazado_593333" data-name="Trazado 593333" d="M184.415,123.124a1.636,1.636,0,0,0-1.376,1.188l1.376,1.376-1.376,1.376a1.636,1.636,0,0,0,1.376,1.189c.9,0,1.635-1.149,1.635-2.564s-.731-2.564-1.635-2.564" transform="translate(-74.282 -49.967)" fill="#453e18"/>
            <path id="Trazado_593334" data-name="Trazado 593334" d="M133.751,102.845a18.109,18.109,0,0,1,.788-7.954,19.663,19.663,0,0,1,4.172-7.075,20.041,20.041,0,0,1,6.79-4.86,20.536,20.536,0,0,1,16.479,0,20.042,20.042,0,0,1,6.792,4.86,19.671,19.671,0,0,1,4.172,7.077,18.1,18.1,0,0,1,.785,7.955,21.549,21.549,0,0,0-6.753-13.237,19.663,19.663,0,0,0-26.477,0,21.521,21.521,0,0,0-6.749,13.241" transform="translate(-54.221 -32.965)" fill="#fff"/>
            <path id="Trazado_593335" data-name="Trazado 593335" d="M194.41,194.077c-2.529-.633-5.134-.948-7.661-1.572A594.723,594.723,0,0,0,175.5,266.982l29.647-.434A12.738,12.738,0,0,0,217.7,253.811v-29.59a30.749,30.749,0,0,0-23.286-30.144" transform="translate(-71.222 -78.124)" fill="#ea3584"/>
            <path id="Trazado_593336" data-name="Trazado 593336" d="M124.814,192.266c-2.7.724-5.507,1.034-8.223,1.714A30.749,30.749,0,0,0,93.3,224.124V267.6l42.8-.626a594.7,594.7,0,0,0-11.29-74.707" transform="translate(-37.865 -78.027)" fill="#ea3584"/>
            <g id="Grupo_873697" data-name="Grupo 873697" transform="translate(70.345 114.764)" opacity="0.18" style="mix-blend-mode: multiply;isolation: isolate">
              <g id="Grupo_873696" data-name="Grupo 873696">
                <g id="Grupo_873695" data-name="Grupo 873695" clip-path="url(#clip-path-7)">
                  <path id="Trazado_593337" data-name="Trazado 593337" d="M126.772,194.338c-.922.231-1.831.51-2.727.826q-3.1,8.807-5.654,17.736c3.235,1.867,6.361,4.191,9.881,5.667-1.27,3.1-2.629,6.527-3.9,9.624a291.422,291.422,0,0,1,16.582,39.2l5.33-.065a497.668,497.668,0,0,0-13.576-74.181c-1.977.4-3.98.7-5.938,1.188" transform="translate(-118.391 -193.15)" fill="#009fcf"/>
                </g>
              </g>
            </g>
            <g id="Grupo_873700" data-name="Grupo 873700" transform="translate(104.276 114.818)" opacity="0.18" style="mix-blend-mode: multiply;isolation: isolate">
              <g id="Grupo_873699" data-name="Grupo 873699">
                <g id="Grupo_873698" data-name="Grupo 873698" clip-path="url(#clip-path-8)">
                  <path id="Trazado_593338" data-name="Trazado 593338" d="M197.434,228.23c-1.242-3.1-2.57-6.527-3.812-9.624,3.442-1.477,6.5-3.8,9.662-5.667q-2.448-8.8-5.437-17.476a30.061,30.061,0,0,0-3.436-1.087c-1.866-.467-3.774-.762-5.662-1.135A507.889,507.889,0,0,0,175.5,267.28l5.8-.085a294.717,294.717,0,0,1,16.135-38.965" transform="translate(-175.498 -193.241)" fill="#009fcf"/>
                </g>
              </g>
            </g>
            <path id="Trazado_593339" data-name="Trazado 593339" d="M138.361,192.266c-2.195.588-4.458.906-6.687,1.368q-2.752,9.384-4.99,18.908c2.664,1.867,5.238,4.191,8.136,5.667-1.046,3.1-2.165,6.527-3.21,9.625a328.1,328.1,0,0,1,13.653,39.2l4.389-.064a594.7,594.7,0,0,0-11.29-74.707" transform="translate(-51.412 -78.027)" fill="#ea3584"/>
            <path id="Trazado_593340" data-name="Trazado 593340" d="M193.981,193.981c-2.394-.565-4.847-.887-7.232-1.476A594.835,594.835,0,0,0,175.5,266.982l4.881-.071a327.9,327.9,0,0,1,13.591-38.979c-1.046-3.1-2.165-6.526-3.21-9.624,2.9-1.476,5.472-3.8,8.136-5.667q-2.2-9.394-4.916-18.658" transform="translate(-71.222 -78.124)" fill="#ea3584"/>
            <path id="Trazado_593341" data-name="Trazado 593341" d="M148.25,191.449a.986.986,0,0,1-.69-.286,1.314,1.314,0,0,1-.124-.15.828.828,0,0,1-.084-.169.984.984,0,0,1-.059-.182.973.973,0,0,1-.02-.189.917.917,0,0,1,.078-.377.818.818,0,0,1,.084-.169,1.426,1.426,0,0,1,.124-.15,1.018,1.018,0,0,1,.879-.267.862.862,0,0,1,.182.059.716.716,0,0,1,.169.091.922.922,0,0,1,.15.117,1.355,1.355,0,0,1,.124.15,1.4,1.4,0,0,1,.092.169c.02.059.039.124.052.182a.987.987,0,0,1,.02.195.973.973,0,0,1-.02.189c-.013.059-.032.124-.052.182a1.434,1.434,0,0,1-.092.169,1.254,1.254,0,0,1-.124.15.631.631,0,0,1-.15.117.7.7,0,0,1-.169.091.826.826,0,0,1-.182.058.882.882,0,0,1-.189.02" transform="translate(-59.768 -76.902)" fill="#ffee3d"/>
            <path id="Trazado_593342" data-name="Trazado 593342" d="M160.215,198.056h0a.973.973,0,0,1-.931-.872.981.981,0,0,1-1.054.716h-.007a.977.977,0,0,1-.859-.937.978.978,0,0,1-1.9-.371.975.975,0,0,1-1.848-.572.977.977,0,0,1-1.744-.859,3.288,3.288,0,0,0-2.851-1.419.977.977,0,1,1,1.549-1.191h.007a.835.835,0,0,0,1.178,1.178.981.981,0,0,1,.313,1.113.979.979,0,0,1,1.679.84.973.973,0,0,1,1.8.56.984.984,0,0,1,1.074-.56.972.972,0,0,1,.794.931.976.976,0,0,1,1.894.214.975.975,0,0,1,1.9.072.976.976,0,0,1,1.9-.092.977.977,0,0,1,1.881-.273.975.975,0,0,1,1.835-.469.979.979,0,0,1,1.77-.683,2.012,2.012,0,0,0,2.011-2.03.967.967,0,0,1,1.191.046.977.977,0,0,1,1.562-1.146,3.145,3.145,0,0,0-1.62,2.687A1.054,1.054,0,0,0,170,196.012a.973.973,0,0,1-1.256-.3.977.977,0,0,1-1.809.7.975.975,0,0,1-1.874.475.987.987,0,0,1-.84.976.972.972,0,0,1-1.08-.7.974.974,0,0,1-.925.891.985.985,0,0,1-1.008-.794.972.972,0,0,1-.957.8Z" transform="translate(-60.396 -77.898)" fill="#ffee3d"/>
            <path id="Trazado_593343" data-name="Trazado 593343" d="M190.441,191.494a.986.986,0,0,1-.69-.286.975.975,0,0,1-.286-.69.985.985,0,0,1,.286-.69,1.008,1.008,0,0,1,1.38,0,.976.976,0,0,1-.69,1.666" transform="translate(-76.89 -76.927)" fill="#ffee3d"/>
            <path id="Trazado_593344" data-name="Trazado 593344" d="M149.422,150.155h-.031a33.2,33.2,0,0,1-5.622-.654,11.386,11.386,0,0,1-5.19-2.557,11.617,11.617,0,0,1-3.283-6.316,33.144,33.144,0,0,1-.392-6.988.554.554,0,0,1,.544-.529.536.536,0,0,1,.528.544,32.4,32.4,0,0,0,.372,6.763,10.567,10.567,0,0,0,2.955,5.734,10.334,10.334,0,0,0,4.71,2.3,32.352,32.352,0,0,0,5.44.627.536.536,0,0,1-.03,1.071" transform="translate(-54.74 -54.02)" fill="#006385"/>
            <path id="Trazado_593345" data-name="Trazado 593345" d="M159.232,159.834c0,.8-.9,1.453-2.018,1.453s-2.018-.651-2.018-1.453.9-1.453,2.018-1.453,2.018.651,2.018,1.453" transform="translate(-62.982 -64.275)" fill="#006385"/>
            <path id="Trazado_593346" data-name="Trazado 593346" d="M92.7,212.6c-6.075,6.24-10.253,14.122-13.176,22.325s-4.654,16.775-6.375,25.311c-.5,2.455-.989,5.011-.369,7.438,1.27,4.974,6.765,7.692,11.865,8.288s10.321-.26,15.368.686C103.76,255.435,102.2,231.94,92.7,212.6" transform="translate(-29.416 -86.28)" fill="#ea3584"/>
            <path id="Trazado_593347" data-name="Trazado 593347" d="M135.432,299.528a63.942,63.942,0,0,1,11.4-2.591,21.441,21.441,0,0,1,11.443,1.645,12.988,12.988,0,0,1,7.241,8.677c.255,1.217-2.088,1.543-3.283,1.885a11.176,11.176,0,0,1-3.706.207l-12.412-.692c-2.955-.165-6.177.561-8.654-1.058a5.684,5.684,0,0,1-2.268-3.684c-.3-1.451.145-2.911.239-4.389" transform="translate(-54.824 -120.445)" fill="#ffc582"/>
            <path id="Trazado_593348" data-name="Trazado 593348" d="M92.4,290.383a294.156,294.156,0,0,1,32.467-.046c.989,5.073,2.317,10.623,1.875,15.772a52.631,52.631,0,0,1-26.422.26c-5.956-1.468-8-9.852-7.92-15.986" transform="translate(-37.498 -117.654)" fill="#ea3584"/>
            <g id="Grupo_873703" data-name="Grupo 873703" transform="translate(69.005 150.386)" opacity="0.18" style="mix-blend-mode: multiply;isolation: isolate">
              <g id="Grupo_873702" data-name="Grupo 873702">
                <g id="Grupo_873701" data-name="Grupo 873701" clip-path="url(#clip-path-9)">
                  <path id="Trazado_593349" data-name="Trazado 593349" d="M128.522,275.292a34.876,34.876,0,0,0-12.386-3.576,108.339,108.339,0,0,0,.434-18.614,49.044,49.044,0,0,1,2.649,15.355c3.66,1.333,7.273,3.51,9.3,6.835" transform="translate(-116.136 -253.102)" fill="#009fcf"/>
                </g>
              </g>
            </g>
            <path id="Trazado_593350" data-name="Trazado 593350" d="M233.015,312.8H109.551v1.022a2.488,2.488,0,0,0,2.488,2.488H230.527a2.488,2.488,0,0,0,2.488-2.488Z" transform="translate(-44.459 -126.942)" fill="#e0e8ff"/>
            <g id="Grupo_873706" data-name="Grupo 873706" transform="translate(65.092 185.855)" style="mix-blend-mode: multiply;isolation: isolate">
              <g id="Grupo_873705" data-name="Grupo 873705">
                <g id="Grupo_873704" data-name="Grupo 873704" clip-path="url(#clip-path-10)">
                  <path id="Trazado_593351" data-name="Trazado 593351" d="M233.015,312.8H109.551v1.022a2.488,2.488,0,0,0,2.488,2.488H230.527a2.488,2.488,0,0,0,2.488-2.488Z" transform="translate(-109.551 -312.797)" fill="#d0d8ed"/>
                </g>
              </g>
            </g>
            <g id="Grupo_873709" data-name="Grupo 873709" transform="translate(65.092 185.855)" style="mix-blend-mode: multiply;isolation: isolate">
              <g id="Grupo_873708" data-name="Grupo 873708">
                <g id="Grupo_873707" data-name="Grupo 873707" clip-path="url(#clip-path-11)">
                  <path id="Trazado_593352" data-name="Trazado 593352" d="M152.563,313.818V312.8H109.551v1.022a2.488,2.488,0,0,0,2.488,2.488h38.037a2.488,2.488,0,0,0,2.488-2.488" transform="translate(-109.551 -312.796)" fill="#d0d8ed"/>
                </g>
              </g>
            </g>
            <path id="Trazado_593353" data-name="Trazado 593353" d="M262.393,276.862H181.941l17.94-49.289a5.256,5.256,0,0,1,4.532-3.323h73.806c1.835,0,2.781,1.488,2.113,3.323Z" transform="translate(-73.837 -91.007)" fill="#fff"/>
            <path id="Trazado_593354" data-name="Trazado 593354" d="M267.166,264.994a8.173,8.173,0,0,1-7.047,5.167c-2.854,0-4.325-2.313-3.286-5.167a8.173,8.173,0,0,1,7.047-5.167c2.854,0,4.325,2.313,3.286,5.167" transform="translate(-104.095 -105.445)" fill="#c5cce0"/>
            <g id="Grupo_873712" data-name="Grupo 873712" transform="translate(96.053 186.981)" style="mix-blend-mode: multiply;isolation: isolate">
              <g id="Grupo_873711" data-name="Grupo 873711">
                <g id="Grupo_873710" data-name="Grupo 873710" clip-path="url(#clip-path-12)">
                  <path id="Trazado_593355" data-name="Trazado 593355" d="M165.088,315.968H162.3a.638.638,0,0,1,0-1.276h2.792a.638.638,0,1,1,0,1.276" transform="translate(-161.658 -314.692)" fill="#d0d8ed"/>
                </g>
              </g>
            </g>
            <g id="Grupo_873715" data-name="Grupo 873715" transform="translate(90.388 186.981)" style="mix-blend-mode: multiply;isolation: isolate">
              <g id="Grupo_873714" data-name="Grupo 873714">
                <g id="Grupo_873713" data-name="Grupo 873713" clip-path="url(#clip-path-13)">
                  <path id="Trazado_593356" data-name="Trazado 593356" d="M155.555,315.968h-2.792a.638.638,0,1,1,0-1.276h2.792a.638.638,0,1,1,0,1.276" transform="translate(-152.125 -314.692)" fill="#d0d8ed"/>
                </g>
              </g>
            </g>
            <g id="Grupo_873718" data-name="Grupo 873718" transform="translate(84.725 186.981)" style="mix-blend-mode: multiply;isolation: isolate">
              <g id="Grupo_873717" data-name="Grupo 873717">
                <g id="Grupo_873716" data-name="Grupo 873716" clip-path="url(#clip-path-12)">
                  <path id="Trazado_593357" data-name="Trazado 593357" d="M146.023,315.968h-2.792a.638.638,0,1,1,0-1.276h2.792a.638.638,0,1,1,0,1.276" transform="translate(-142.593 -314.692)" fill="#d0d8ed"/>
                </g>
              </g>
            </g>
            <path id="Trazado_593358" data-name="Trazado 593358" d="M85.065,295.813a8.487,8.487,0,1,1,8.488-8.488,8.5,8.5,0,0,1-8.488,8.488m0-14.322a5.834,5.834,0,1,0,5.835,5.834,5.841,5.841,0,0,0-5.835-5.834" transform="translate(-31.077 -113.16)" fill="#d6d6d6"/>
            <path id="Trazado_593359" data-name="Trazado 593359" d="M51.006,294.609a11.308,11.308,0,0,0,.406,3.014,5.9,5.9,0,0,0,5.708,4.287H67.542a5.9,5.9,0,0,0,5.708-4.287,11.332,11.332,0,0,0,.406-3.014V277.324H51.006Z" transform="translate(-20.7 -112.546)" fill="#fff"/>
            <g id="Grupo_873721" data-name="Grupo 873721" transform="translate(40.769 164.778)" opacity="0.1">
              <g id="Grupo_873720" data-name="Grupo 873720">
                <g id="Grupo_873719" data-name="Grupo 873719" clip-path="url(#clip-path-15)">
                  <path id="Trazado_593360" data-name="Trazado 593360" d="M74.729,277.324v17.285a11.316,11.316,0,0,1-.406,3.015,5.9,5.9,0,0,1-5.708,4.287h6.073a5.9,5.9,0,0,0,5.708-4.287,11.316,11.316,0,0,0,.406-3.015V277.324Z" transform="translate(-68.615 -277.324)"/>
                </g>
              </g>
            </g>
            <g id="Grupo_873727" data-name="Grupo 873727" transform="translate(19.257 85.378)" style="mix-blend-mode: screen;isolation: isolate">
              <g id="Grupo_873726" data-name="Grupo 873726">
                <g id="Grupo_873725" data-name="Grupo 873725" clip-path="url(#clip-path-16)">
                  <path id="Trazado_593362" data-name="Trazado 593362" d="M56.93,156.969a11.454,11.454,0,0,0-.073-1.26l1.8-.775a13.2,13.2,0,0,0-.417-1.826l-1.961.082a11.358,11.358,0,0,0-1.091-2.265l1.285-1.481A13.294,13.294,0,0,0,55.3,147.98l-1.72.918a11.475,11.475,0,0,0-1.974-1.563l.515-1.891a13.184,13.184,0,0,0-1.688-.815l-1.157,1.582a11.324,11.324,0,0,0-2.453-.564l-.355-1.919c-.31-.022-.622-.037-.937-.037s-.627.015-.937.037l-.355,1.919a11.332,11.332,0,0,0-2.453.564l-1.157-1.582a13.169,13.169,0,0,0-1.687.815l.515,1.891a11.425,11.425,0,0,0-1.974,1.563l-1.72-.918a13.3,13.3,0,0,0-1.169,1.465l1.285,1.481a11.358,11.358,0,0,0-1.091,2.265l-1.96-.082a13.03,13.03,0,0,0-.417,1.826l1.795.775a10.892,10.892,0,0,0,0,2.519L32.41,159a13.01,13.01,0,0,0,.417,1.826l1.96-.081a11.353,11.353,0,0,0,1.091,2.264l-1.285,1.481a13.294,13.294,0,0,0,1.169,1.465l1.72-.918a11.449,11.449,0,0,0,1.974,1.563l-.515,1.891a13.164,13.164,0,0,0,1.687.814l1.157-1.582a11.3,11.3,0,0,0,2.453.564l.355,1.92c.31.022.622.037.937.037s.627-.015.937-.037l.355-1.92a11.288,11.288,0,0,0,2.453-.564l1.157,1.582a13.179,13.179,0,0,0,1.688-.814l-.515-1.891a11.449,11.449,0,0,0,1.974-1.563l1.72.918a13.293,13.293,0,0,0,1.169-1.465l-1.285-1.481a11.374,11.374,0,0,0,1.091-2.265l1.961.081A13.179,13.179,0,0,0,58.653,159l-1.8-.775a11.437,11.437,0,0,0,.073-1.26m-11.4,8.064a8.064,8.064,0,1,1,8.064-8.064,8.064,8.064,0,0,1-8.064,8.064" transform="translate(-32.41 -143.692)" fill="#e0e8ff"/>
                </g>
              </g>
            </g>
            <g id="Grupo_873730" data-name="Grupo 873730" transform="translate(188.556 107.392)" style="mix-blend-mode: screen;isolation: isolate">
              <g id="Grupo_873729" data-name="Grupo 873729">
                <g id="Grupo_873728" data-name="Grupo 873728" clip-path="url(#clip-path-17)">
                  <path id="Trazado_593363" data-name="Trazado 593363" d="M335.279,190.455a8.429,8.429,0,0,0-.053-.922l1.314-.567a9.637,9.637,0,0,0-.3-1.336l-1.434.06a8.238,8.238,0,0,0-.8-1.657l.94-1.083a9.777,9.777,0,0,0-.854-1.072l-1.258.672a8.378,8.378,0,0,0-1.444-1.143l.377-1.383a9.686,9.686,0,0,0-1.235-.6l-.847,1.157a8.284,8.284,0,0,0-1.794-.412l-.26-1.4c-.227-.016-.455-.027-.686-.027s-.459.011-.686.027l-.26,1.4a8.285,8.285,0,0,0-1.794.412l-.847-1.157a9.686,9.686,0,0,0-1.235.6l.377,1.383a8.378,8.378,0,0,0-1.444,1.143l-1.258-.672a9.713,9.713,0,0,0-.855,1.072l.94,1.083a8.3,8.3,0,0,0-.8,1.657l-1.434-.06a9.641,9.641,0,0,0-.3,1.336l1.314.567a7.964,7.964,0,0,0,0,1.843l-1.314.566a9.642,9.642,0,0,0,.3,1.336l1.434-.059a8.334,8.334,0,0,0,.8,1.657l-.94,1.083a9.708,9.708,0,0,0,.855,1.071l1.258-.672A8.352,8.352,0,0,0,322.5,197.5l-.377,1.383a9.679,9.679,0,0,0,1.235.6l.847-1.157a8.288,8.288,0,0,0,1.794.413l.26,1.4c.227.015.455.027.686.027s.459-.011.686-.027l.26-1.4a8.287,8.287,0,0,0,1.794-.413l.847,1.157a9.679,9.679,0,0,0,1.235-.6l-.377-1.383a8.352,8.352,0,0,0,1.444-1.144l1.258.672a9.771,9.771,0,0,0,.854-1.071l-.94-1.083a8.269,8.269,0,0,0,.8-1.657l1.434.059a9.637,9.637,0,0,0,.3-1.336l-1.314-.566a8.438,8.438,0,0,0,.053-.922m-8.338,5.9a5.9,5.9,0,1,1,5.9-5.9,5.9,5.9,0,0,1-5.9,5.9" transform="translate(-317.343 -180.743)" fill="#e0e8ff"/>
                </g>
              </g>
            </g>
            <path id="Trazado_593364" data-name="Trazado 593364" d="M266.9,153.629H246.223a6.067,6.067,0,0,0-6.067,6.067v9.88a6.067,6.067,0,0,0,6.067,6.067h.695l-1.406,1.988a.791.791,0,0,0,.954,1.185l6.593-2.794a4.773,4.773,0,0,1,1.862-.378H266.9a6.067,6.067,0,0,0,6.067-6.067V159.7a6.067,6.067,0,0,0-6.067-6.067" transform="translate(-97.462 -62.347)" fill="#fff"/>
            <path id="Trazado_593365" data-name="Trazado 593365" d="M270.927,164.6H246.437a1.052,1.052,0,1,1,0-2.1h24.489a1.052,1.052,0,0,1,0,2.1" transform="translate(-99.584 -65.945)" fill="#ededed"/>
            <path id="Trazado_593366" data-name="Trazado 593366" d="M270.927,172.489H246.437a1.052,1.052,0,1,1,0-2.1h24.489a1.052,1.052,0,0,1,0,2.1" transform="translate(-99.584 -69.147)" fill="#ededed"/>
            <path id="Trazado_593367" data-name="Trazado 593367" d="M260.2,180.377H246.436a1.052,1.052,0,0,1,0-2.1H260.2a1.052,1.052,0,0,1,0,2.1" transform="translate(-99.584 -72.348)" fill="#ededed"/>
            <path id="Trazado_593368" data-name="Trazado 593368" d="M318.435,98.051H298.754a12.085,12.085,0,0,1-12.085-12.085V66.285A12.085,12.085,0,0,1,298.754,54.2h19.681A12.085,12.085,0,0,1,330.52,66.285V85.966a12.086,12.086,0,0,1-12.085,12.085" transform="translate(-116.338 -21.996)" fill="#a2a7c5"/>
          </g>
        </g>
        <g id="Grupo_873734" data-name="Grupo 873734">
          <g id="Grupo_873733" data-name="Grupo 873733" clip-path="url(#clip-path)">
            <path id="Trazado_593371" data-name="Trazado 593371" d="M59.613,85.473h-31.5A10.151,10.151,0,0,1,17.96,75.322V58.792A10.151,10.151,0,0,1,28.111,48.641h31.5A10.151,10.151,0,0,1,69.764,58.792v16.53A10.151,10.151,0,0,1,59.613,85.473" transform="translate(-7.289 -19.74)" fill="#758aff"/>
            <path id="Trazado_593372" data-name="Trazado 593372" d="M37.468,65.618A4.315,4.315,0,1,1,33.154,61.3a4.314,4.314,0,0,1,4.314,4.314" transform="translate(-11.704 -24.879)" fill="#fff"/>
            <path id="Trazado_593373" data-name="Trazado 593373" d="M72.022,63.958H50.195a1.327,1.327,0,0,1,0-2.654H72.022a1.327,1.327,0,0,1,0,2.654" transform="translate(-19.832 -24.879)" fill="#fff"/>
            <path id="Trazado_593374" data-name="Trazado 593374" d="M72.022,74.109H50.195a1.327,1.327,0,0,1,0-2.654H72.022a1.327,1.327,0,0,1,0,2.654" transform="translate(-19.832 -28.998)" fill="#fff"/>
            <path id="Trazado_593375" data-name="Trazado 593375" d="M37.468,87.663a4.315,4.315,0,1,1-4.314-4.314,4.314,4.314,0,0,1,4.314,4.314" transform="translate(-11.704 -33.825)" fill="#fff"/>
            <path id="Trazado_593376" data-name="Trazado 593376" d="M72.022,86H50.195a1.327,1.327,0,0,1,0-2.654H72.022a1.327,1.327,0,0,1,0,2.654" transform="translate(-19.832 -33.825)" fill="#fff"/>
            <path id="Trazado_593377" data-name="Trazado 593377" d="M72.022,96.155H50.195a1.327,1.327,0,0,1,0-2.654H72.022a1.327,1.327,0,0,1,0,2.654" transform="translate(-19.832 -37.945)" fill="#fff"/>
            <path id="Trazado_593378" data-name="Trazado 593378" d="M30.39,234.956H14.983A9.461,9.461,0,0,1,5.522,225.5V210.089a9.461,9.461,0,0,1,9.461-9.461H30.39a9.461,9.461,0,0,1,9.461,9.461V225.5a9.461,9.461,0,0,1-9.461,9.461" transform="translate(-2.241 -81.42)" fill="#a2a7c5"/>
          </g>
        </g>
        <g id="Grupo_873736" data-name="Grupo 873736">
          <g id="Grupo_873735" data-name="Grupo 873735" clip-path="url(#clip-path)">
            <path id="Trazado_593379" data-name="Trazado 593379" d="M169.937,31.969H150.256a12.086,12.086,0,0,1-12.085-12.085v-7.8A12.085,12.085,0,0,1,150.256,0h19.681a12.085,12.085,0,0,1,12.085,12.085v7.8a12.086,12.086,0,0,1-12.085,12.085" transform="translate(-56.074 0)" fill="#6826cc"/>
            <path id="Trazado_593380" data-name="Trazado 593380" d="M191.011,24.711A3.208,3.208,0,1,1,187.8,21.5a3.208,3.208,0,0,1,3.208,3.208" transform="translate(-74.914 -8.727)" fill="#fff"/>
            <path id="Trazado_593381" data-name="Trazado 593381" d="M176.09,24.711a3.208,3.208,0,1,1-3.208-3.208,3.208,3.208,0,0,1,3.208,3.208" transform="translate(-68.858 -8.727)" fill="#fff"/>
            <path id="Trazado_593382" data-name="Trazado 593382" d="M161.168,24.711A3.208,3.208,0,1,1,157.96,21.5a3.208,3.208,0,0,1,3.208,3.208" transform="translate(-62.803 -8.727)" fill="#fff"/>
          </g>
        </g>
      </g>
    </g>
    <g id="_x30_6_link" transform="translate(228.999 8008.473)">
      <g id="Grupo_873739" data-name="Grupo 873739" transform="translate(1.002 3)">
        <path id="Trazado_593383" data-name="Trazado 593383" d="M11.909,19.111l0,0L8.449,22.565a2.4,2.4,0,0,1-3.305,0l-.976-.977a2.341,2.341,0,0,1,0-3.305l5.116-5.116a2.179,2.179,0,0,1,.6-.431,2.353,2.353,0,0,1,2.707.431l.977.977a2.3,2.3,0,0,1,.658,1.428l.613.613a1.532,1.532,0,0,0,1.076.437,1.486,1.486,0,0,0,.671-.158c.036-.017.065-.039.1-.058a4.775,4.775,0,0,0-1.358-4.018l-.977-.977a4.821,4.821,0,0,0-5.577-.9,4.639,4.639,0,0,0-1.24.9L2.411,16.528a4.826,4.826,0,0,0,0,6.817l.977.977a4.826,4.826,0,0,0,6.817,0l3.861-3.867a5.611,5.611,0,0,1-2.156-1.343Z" transform="translate(-1.001 -4.204)" fill="#fff"/>
        <path id="Trazado_593384" data-name="Trazado 593384" d="M26.323,5.387l-.977-.977a4.825,4.825,0,0,0-6.817,0L14.647,8.27a5.62,5.62,0,0,1,2.178,1.35l0,0,3.458-3.458a2.4,2.4,0,0,1,3.305,0l.976.977a2.341,2.341,0,0,1,0,3.305L19.45,15.564a2.179,2.179,0,0,1-.6.431,2.355,2.355,0,0,1-2.707-.431l-.977-.977a2.3,2.3,0,0,1-.658-1.428l-.613-.613a1.528,1.528,0,0,0-1.075-.438,1.482,1.482,0,0,0-.671.159c-.036.017-.065.039-.1.058a4.775,4.775,0,0,0,1.358,4.018l.977.977a4.821,4.821,0,0,0,5.577.9,4.639,4.639,0,0,0,1.24-.9L26.322,12.2a4.824,4.824,0,0,0,0-6.816Z" transform="translate(-2.896 -3)" fill="#fff"/>
      </g>
    </g>
    <g id="familia" transform="translate(400 7924)">
      <path id="Trazado_593385" data-name="Trazado 593385" d="M44.206,9.146a4.573,4.573,0,1,0-4.573-4.573A4.578,4.578,0,0,0,44.206,9.146Zm0,0" transform="translate(-37.362)" fill="#fff"/>
      <path id="Trazado_593386" data-name="Trazado 593386" d="M166.13,372.4a5.468,5.468,0,0,0-5.462,5.462v1.678a.86.86,0,0,0,.86.86h9.207a.86.86,0,0,0,.86-.86v-1.677a5.47,5.47,0,0,0-5.464-5.463Zm0,0" transform="translate(-151.461 -351.058)" fill="#fff"/>
      <path id="Trazado_593387" data-name="Trazado 593387" d="M7.488,205.536a7.189,7.189,0,0,1,3.976-6.425,5.824,5.824,0,0,1-1.252-8.624A6.841,6.841,0,0,0,0,196.442v10.771a.86.86,0,0,0,.86.86H7.635a2.568,2.568,0,0,1-.148-.86Zm0,0" transform="translate(0 -178.733)" fill="#fff"/>
      <path id="Trazado_593388" data-name="Trazado 593388" d="M188.347,207.092a4.112,4.112,0,1,0-4.112-4.112A4.117,4.117,0,0,0,188.347,207.092Zm0,0" transform="translate(-173.677 -187.47)" fill="#fff"/>
      <path id="Trazado_593389" data-name="Trazado 593389" d="M317.338,9.146a4.573,4.573,0,1,0-4.573-4.573A4.578,4.578,0,0,0,317.338,9.146Zm0,0" transform="translate(-294.843)" fill="#fff"/>
      <path id="Trazado_593390" data-name="Trazado 593390" d="M316.565,189.6a6.8,6.8,0,0,0-3.368.888,5.824,5.824,0,0,1-1.252,8.624,7.189,7.189,0,0,1,3.976,6.425v1.678a2.568,2.568,0,0,1-.148.86h6.776a.86.86,0,0,0,.86-.86V196.445a6.852,6.852,0,0,0-6.844-6.844Zm0,0" transform="translate(-294.069 -178.736)" fill="#fff"/>
    </g>
    <g id="Grupo_873740" data-name="Grupo 873740" transform="translate(388.436 7956.822) rotate(171)">
      <path id="Trazado_213115" data-name="Trazado 213115" d="M22.91,0l-7.37,30.082L0,32.073Z" transform="translate(3.386 0)" fill="none" stroke="#ea3584" stroke-width="2"/>
      <path id="Trazado_213116" data-name="Trazado 213116" d="M17.329,0,2.787,17.729,0,7.769Z" transform="translate(0 0)" fill="none" stroke="#ea3584" stroke-width="2"/>
    </g>
    <g id="Grupo_873741" data-name="Grupo 873741" transform="translate(418.526 7984)">
      <g id="Grupo_870619" data-name="Grupo 870619" clip-path="url(#clip-path-20)">
        <g id="Grupo_870618" data-name="Grupo 870618" transform="translate(0 0)">
          <g id="Grupo_870617" data-name="Grupo 870617" clip-path="url(#clip-path-20)">
            <g id="Grupo_870616" data-name="Grupo 870616" transform="translate(0 0)" opacity="0.7">
              <g id="Grupo_870615" data-name="Grupo 870615" transform="translate(0 0)">
                <g id="Grupo_870614" data-name="Grupo 870614" clip-path="url(#clip-path-20)">
                  <path id="Trazado_213110" data-name="Trazado 213110" d="M11.03.55,7.718,3.862,4.4.55.55,4.405,3.862,7.717.55,11.03,4.4,14.885l3.313-3.313,3.312,3.313,3.855-3.855L11.573,7.717l3.312-3.312Z" transform="translate(-0.181 -0.181)" fill="#ea3584"/>
                </g>
              </g>
            </g>
          </g>
        </g>
      </g>
    </g>
    <rect id="Rectángulo_293080" data-name="Rectángulo 293080" width="295" height="198" transform="translate(180 7885)" fill="none"/>
  </g>
</svg>
