<svg xmlns="http://www.w3.org/2000/svg" xmlns:xlink="http://www.w3.org/1999/xlink" width="505" height="49" viewBox="0 0 505 49">
  <defs>
    <linearGradient id="linear-gradient" x1="0.795" y1="0.5" x2="1" y2="0.5" gradientUnits="objectBoundingBox">
      <stop offset="0" stop-color="#ecedf4"/>
      <stop offset="1" stop-color="#fff"/>
    </linearGradient>
  </defs>
  <g id="Grupo_873843" data-name="Grupo 873843" transform="translate(-180 -9513)">
    <path id="Trazado_593623" data-name="Trazado 593623" d="M0,0H505V49H0Z" transform="translate(180 9513)" fill="url(#linear-gradient)"/>
    <path id="Trazado_593624" data-name="Trazado 593624" d="M4.5,14.176V19H1.074V4.781H6.748a6.608,6.608,0,0,1,2.886.6,4.526,4.526,0,0,1,1.943,1.709,4.667,4.667,0,0,1,.688,2.515,4.114,4.114,0,0,1-1.489,3.325,6.179,6.179,0,0,1-4.087,1.245Zm0-2.646H6.748a2.118,2.118,0,0,0,1.519-.5,1.85,1.85,0,0,0,.522-1.406,2.287,2.287,0,0,0-.537-1.592,1.9,1.9,0,0,0-1.465-.605H4.5Zm15.83-.117-1.084-.078a1.947,1.947,0,0,0-1.992.977V19H13.965V8.434h3.086l.107,1.357a2.548,2.548,0,0,1,2.314-1.553,3.209,3.209,0,0,1,.918.117Zm.42,2.207a6.236,6.236,0,0,1,.615-2.817,4.4,4.4,0,0,1,1.768-1.9,5.323,5.323,0,0,1,2.705-.664,4.858,4.858,0,0,1,3.74,1.47,5.64,5.64,0,0,1,1.367,4v.117a5.472,5.472,0,0,1-1.372,3.921,4.871,4.871,0,0,1-3.716,1.45,4.927,4.927,0,0,1-3.623-1.353,5.29,5.29,0,0,1-1.475-3.667Zm3.291.205a3.932,3.932,0,0,0,.459,2.148,1.529,1.529,0,0,0,1.357.684q1.758,0,1.8-2.705v-.332q0-2.842-1.816-2.842-1.65,0-1.787,2.451ZM37.93,16.031a.76.76,0,0,0-.439-.674,6.685,6.685,0,0,0-1.67-.527,7.615,7.615,0,0,1-2.031-.718,3.4,3.4,0,0,1-1.221-1.079,2.577,2.577,0,0,1-.42-1.455,2.92,2.92,0,0,1,1.2-2.4,4.948,4.948,0,0,1,3.145-.942,5.482,5.482,0,0,1,3.359.947,2.962,2.962,0,0,1,1.27,2.49h-3.3q0-1.27-1.338-1.27a1.326,1.326,0,0,0-.869.288.892.892,0,0,0-.352.718.819.819,0,0,0,.43.713,4.06,4.06,0,0,0,1.372.449,11.857,11.857,0,0,1,1.655.42A3.007,3.007,0,0,1,41.1,15.934a2.767,2.767,0,0,1-1.284,2.354,5.632,5.632,0,0,1-3.325.908,5.747,5.747,0,0,1-2.422-.488,4.05,4.05,0,0,1-1.66-1.328,3.007,3.007,0,0,1-.6-1.768h3.076a1.272,1.272,0,0,0,.488,1.069,2.009,2.009,0,0,0,1.2.337,1.58,1.58,0,0,0,1.011-.273A.875.875,0,0,0,37.93,16.031Zm14.521-2.236a6.372,6.372,0,0,1-1.108,3.931A3.554,3.554,0,0,1,48.35,19.2a3.046,3.046,0,0,1-2.393-1.064v4.932H42.666V8.434h3.076l.1.977a3.046,3.046,0,0,1,2.49-1.172,3.582,3.582,0,0,1,3.037,1.44,6.45,6.45,0,0,1,1.084,3.96ZM49.16,13.59q0-2.812-1.641-2.812a1.549,1.549,0,0,0-1.562.84v4.16a1.6,1.6,0,0,0,1.582.879q1.572,0,1.621-2.715ZM59.014,19.2a5.432,5.432,0,0,1-3.936-1.45,5.008,5.008,0,0,1-1.5-3.774V13.7a6.489,6.489,0,0,1,.6-2.861,4.395,4.395,0,0,1,1.753-1.919,5.292,5.292,0,0,1,2.734-.679A4.574,4.574,0,0,1,62.178,9.62a5.43,5.43,0,0,1,1.289,3.853v1.279H56.924a2.372,2.372,0,0,0,.771,1.4,2.3,2.3,0,0,0,1.543.508,2.958,2.958,0,0,0,2.441-1.094l1.5,1.777a4.2,4.2,0,0,1-1.743,1.353A5.891,5.891,0,0,1,59.014,19.2Zm-.371-8.418q-1.445,0-1.719,1.914h3.32v-.254a1.63,1.63,0,0,0-.4-1.226A1.593,1.593,0,0,0,58.643,10.777Zm10.615,5.879a1.464,1.464,0,0,0,1.074-.376,1.379,1.379,0,0,0,.371-1.05h3.086a3.653,3.653,0,0,1-1.245,2.852A4.631,4.631,0,0,1,69.336,19.2,4.689,4.689,0,0,1,65.7,17.75a5.7,5.7,0,0,1-1.328-4v-.137a6.436,6.436,0,0,1,.591-2.827A4.3,4.3,0,0,1,66.67,8.9a5.081,5.081,0,0,1,2.637-.659,4.573,4.573,0,0,1,3.271,1.143,4.053,4.053,0,0,1,1.211,3.1H70.7a1.806,1.806,0,0,0-.4-1.26,1.382,1.382,0,0,0-1.074-.439q-1.279,0-1.494,1.631a11.508,11.508,0,0,0-.068,1.426,4.52,4.52,0,0,0,.381,2.207A1.319,1.319,0,0,0,69.258,16.656Zm10.391,0a1.464,1.464,0,0,0,1.074-.376,1.379,1.379,0,0,0,.371-1.05H84.18a3.653,3.653,0,0,1-1.245,2.852A4.631,4.631,0,0,1,79.727,19.2a4.689,4.689,0,0,1-3.633-1.445,5.7,5.7,0,0,1-1.328-4v-.137a6.436,6.436,0,0,1,.591-2.827,4.3,4.3,0,0,1,1.7-1.885A5.081,5.081,0,0,1,79.7,8.238a4.573,4.573,0,0,1,3.271,1.143,4.053,4.053,0,0,1,1.211,3.1H81.094a1.806,1.806,0,0,0-.4-1.26,1.382,1.382,0,0,0-1.074-.439q-1.279,0-1.494,1.631a11.508,11.508,0,0,0-.068,1.426,4.52,4.52,0,0,0,.381,2.207A1.319,1.319,0,0,0,79.648,16.656ZM89.043,19h-3.3V8.434h3.3Zm-3.5-13.3a1.482,1.482,0,0,1,.508-1.159,2.149,2.149,0,0,1,2.637,0A1.482,1.482,0,0,1,89.2,5.7a1.482,1.482,0,0,1-.508,1.159,2.149,2.149,0,0,1-2.637,0A1.482,1.482,0,0,1,85.547,5.7Zm5.107,7.92A6.236,6.236,0,0,1,91.27,10.8a4.4,4.4,0,0,1,1.768-1.9,5.323,5.323,0,0,1,2.705-.664,4.858,4.858,0,0,1,3.74,1.47,5.64,5.64,0,0,1,1.367,4v.117a5.472,5.472,0,0,1-1.372,3.921,4.871,4.871,0,0,1-3.716,1.45,4.927,4.927,0,0,1-3.623-1.353,5.29,5.29,0,0,1-1.475-3.667Zm3.291.205a3.932,3.932,0,0,0,.459,2.148,1.529,1.529,0,0,0,1.357.684q1.758,0,1.8-2.705v-.332q0-2.842-1.816-2.842-1.65,0-1.787,2.451ZM96.191,4h3.477L96.953,7.066l-2.686,0Zm9.131,4.434.107,1.24a3.583,3.583,0,0,1,3.018-1.436,3.015,3.015,0,0,1,2.466.986,4.7,4.7,0,0,1,.845,2.969V19h-3.3V12.33a1.783,1.783,0,0,0-.322-1.177,1.491,1.491,0,0,0-1.172-.376,1.569,1.569,0,0,0-1.436.762V19h-3.291V8.434Zm23.047,5.361a6.372,6.372,0,0,1-1.108,3.931,3.554,3.554,0,0,1-2.993,1.47,3.046,3.046,0,0,1-2.393-1.064v4.932h-3.291V8.434h3.076l.1.977a3.046,3.046,0,0,1,2.49-1.172,3.582,3.582,0,0,1,3.037,1.44,6.45,6.45,0,0,1,1.084,3.96Zm-3.291-.205q0-2.812-1.641-2.812a1.549,1.549,0,0,0-1.562.84v4.16a1.6,1.6,0,0,0,1.582.879q1.572,0,1.621-2.715Zm9.854,5.605A5.432,5.432,0,0,1,131,17.745a5.008,5.008,0,0,1-1.5-3.774V13.7a6.489,6.489,0,0,1,.6-2.861,4.395,4.395,0,0,1,1.753-1.919,5.292,5.292,0,0,1,2.734-.679A4.574,4.574,0,0,1,138.1,9.62a5.43,5.43,0,0,1,1.289,3.853v1.279h-6.543a2.372,2.372,0,0,0,.771,1.4,2.3,2.3,0,0,0,1.543.508,2.958,2.958,0,0,0,2.441-1.094l1.5,1.777a4.2,4.2,0,0,1-1.743,1.353A5.891,5.891,0,0,1,134.932,19.2Zm-.371-8.418q-1.445,0-1.719,1.914h3.32v-.254a1.63,1.63,0,0,0-.4-1.226A1.593,1.593,0,0,0,134.561,10.777Zm12.539.635-1.084-.078a1.947,1.947,0,0,0-1.992.977V19h-3.291V8.434h3.086l.107,1.357a2.548,2.548,0,0,1,2.314-1.553,3.209,3.209,0,0,1,.918.117Zm6.719,4.619a.76.76,0,0,0-.439-.674,6.685,6.685,0,0,0-1.67-.527,7.615,7.615,0,0,1-2.031-.718,3.4,3.4,0,0,1-1.221-1.079,2.577,2.577,0,0,1-.42-1.455,2.92,2.92,0,0,1,1.2-2.4,4.948,4.948,0,0,1,3.145-.942,5.482,5.482,0,0,1,3.359.947,2.962,2.962,0,0,1,1.27,2.49h-3.3q0-1.27-1.338-1.27a1.326,1.326,0,0,0-.869.288.892.892,0,0,0-.352.718.819.819,0,0,0,.43.713,4.06,4.06,0,0,0,1.372.449,11.857,11.857,0,0,1,1.655.42,3.007,3.007,0,0,1,2.383,2.939,2.767,2.767,0,0,1-1.284,2.354,5.632,5.632,0,0,1-3.325.908,5.747,5.747,0,0,1-2.422-.488,4.05,4.05,0,0,1-1.66-1.328,3.007,3.007,0,0,1-.6-1.768h3.076a1.272,1.272,0,0,0,.488,1.069,2.009,2.009,0,0,0,1.2.337,1.58,1.58,0,0,0,1.011-.273A.875.875,0,0,0,153.818,16.031Zm4.3-2.412a6.236,6.236,0,0,1,.615-2.817A4.4,4.4,0,0,1,160.5,8.9a5.323,5.323,0,0,1,2.705-.664,4.858,4.858,0,0,1,3.74,1.47,5.64,5.64,0,0,1,1.367,4v.117a5.472,5.472,0,0,1-1.372,3.921,4.871,4.871,0,0,1-3.716,1.45,4.927,4.927,0,0,1-3.623-1.353,5.29,5.29,0,0,1-1.475-3.667Zm3.291.205a3.932,3.932,0,0,0,.459,2.148,1.529,1.529,0,0,0,1.357.684q1.758,0,1.8-2.705v-.332q0-2.842-1.816-2.842-1.65,0-1.787,2.451Zm11.377-5.391.107,1.24a3.583,3.583,0,0,1,3.018-1.436,3.015,3.015,0,0,1,2.466.986,4.7,4.7,0,0,1,.845,2.969V19h-3.3V12.33a1.783,1.783,0,0,0-.322-1.177,1.491,1.491,0,0,0-1.172-.376,1.569,1.569,0,0,0-1.436.762V19H169.7V8.434ZM186.992,19a3.716,3.716,0,0,1-.312-.947,3.06,3.06,0,0,1-2.539,1.143,3.749,3.749,0,0,1-2.539-.9,2.875,2.875,0,0,1-1.045-2.271,2.955,2.955,0,0,1,1.27-2.6,6.468,6.468,0,0,1,3.691-.879h1.016v-.559q0-1.462-1.26-1.462a1.03,1.03,0,0,0-1.172,1.158h-3.291a2.95,2.95,0,0,1,1.3-2.487,5.479,5.479,0,0,1,3.325-.956,4.8,4.8,0,0,1,3.193.986,3.429,3.429,0,0,1,1.2,2.705v4.678a4.79,4.79,0,0,0,.449,2.227V19Zm-2.061-2.148a1.836,1.836,0,0,0,1.021-.264,1.653,1.653,0,0,0,.581-.6V14.3h-.957q-1.719,0-1.719,1.543a.942.942,0,0,0,.3.728A1.1,1.1,0,0,0,184.932,16.852ZM202.588,19a3.716,3.716,0,0,1-.312-.947,3.06,3.06,0,0,1-2.539,1.143,3.749,3.749,0,0,1-2.539-.9,2.875,2.875,0,0,1-1.045-2.271,2.955,2.955,0,0,1,1.27-2.6,6.468,6.468,0,0,1,3.691-.879h1.016v-.559q0-1.462-1.26-1.462a1.03,1.03,0,0,0-1.172,1.158h-3.291a2.95,2.95,0,0,1,1.3-2.487,5.479,5.479,0,0,1,3.325-.956,4.8,4.8,0,0,1,3.193.986,3.429,3.429,0,0,1,1.2,2.705v4.678a4.79,4.79,0,0,0,.449,2.227V19Zm-2.061-2.148a1.836,1.836,0,0,0,1.021-.264,1.653,1.653,0,0,0,.581-.6V14.3h-.957q-1.719,0-1.719,1.543a.942.942,0,0,0,.3.728A1.1,1.1,0,0,0,200.527,16.852Zm21.514-3.057a6.372,6.372,0,0,1-1.108,3.931,3.554,3.554,0,0,1-2.993,1.47,3.046,3.046,0,0,1-2.393-1.064v4.932h-3.291V8.434h3.076l.1.977a3.046,3.046,0,0,1,2.49-1.172,3.582,3.582,0,0,1,3.037,1.44,6.45,6.45,0,0,1,1.084,3.96Zm-3.291-.205q0-2.812-1.641-2.812a1.549,1.549,0,0,0-1.562.84v4.16a1.6,1.6,0,0,0,1.582.879q1.572,0,1.621-2.715ZM228.6,19.2a5.432,5.432,0,0,1-3.936-1.45,5.008,5.008,0,0,1-1.5-3.774V13.7a6.489,6.489,0,0,1,.6-2.861,4.395,4.395,0,0,1,1.753-1.919,5.292,5.292,0,0,1,2.734-.679,4.574,4.574,0,0,1,3.516,1.382,5.43,5.43,0,0,1,1.289,3.853v1.279h-6.543a2.372,2.372,0,0,0,.771,1.4,2.3,2.3,0,0,0,1.543.508,2.958,2.958,0,0,0,2.441-1.094l1.5,1.777a4.2,4.2,0,0,1-1.743,1.353A5.891,5.891,0,0,1,228.6,19.2Zm-.371-8.418q-1.445,0-1.719,1.914h3.32v-.254a1.63,1.63,0,0,0-.4-1.226A1.593,1.593,0,0,0,228.232,10.777Zm12.539.635-1.084-.078a1.947,1.947,0,0,0-1.992.977V19H234.4V8.434h3.086l.107,1.357a2.548,2.548,0,0,1,2.314-1.553,3.209,3.209,0,0,1,.918.117Zm6.719,4.619a.76.76,0,0,0-.439-.674,6.685,6.685,0,0,0-1.67-.527,7.615,7.615,0,0,1-2.031-.718,3.4,3.4,0,0,1-1.221-1.079,2.577,2.577,0,0,1-.42-1.455,2.92,2.92,0,0,1,1.2-2.4,4.948,4.948,0,0,1,3.145-.942,5.482,5.482,0,0,1,3.359.947,2.962,2.962,0,0,1,1.27,2.49h-3.3q0-1.27-1.338-1.27a1.326,1.326,0,0,0-.869.288.892.892,0,0,0-.352.718.819.819,0,0,0,.43.713,4.06,4.06,0,0,0,1.372.449,11.857,11.857,0,0,1,1.655.42,3.007,3.007,0,0,1,2.383,2.939,2.767,2.767,0,0,1-1.284,2.354,5.632,5.632,0,0,1-3.325.908,5.747,5.747,0,0,1-2.422-.488,4.05,4.05,0,0,1-1.66-1.328,3.007,3.007,0,0,1-.6-1.768h3.076a1.272,1.272,0,0,0,.488,1.069,2.009,2.009,0,0,0,1.2.337,1.58,1.58,0,0,0,1.011-.273A.875.875,0,0,0,247.49,16.031Zm4.3-2.412A6.236,6.236,0,0,1,252.4,10.8a4.4,4.4,0,0,1,1.768-1.9,5.323,5.323,0,0,1,2.705-.664,4.859,4.859,0,0,1,3.74,1.47,5.64,5.64,0,0,1,1.367,4v.117a5.472,5.472,0,0,1-1.372,3.921,4.871,4.871,0,0,1-3.716,1.45,4.927,4.927,0,0,1-3.623-1.353,5.29,5.29,0,0,1-1.475-3.667Zm3.291.205a3.932,3.932,0,0,0,.459,2.148,1.529,1.529,0,0,0,1.357.684q1.758,0,1.8-2.705v-.332q0-2.842-1.816-2.842-1.65,0-1.787,2.451Zm11.377-5.391.107,1.24a3.583,3.583,0,0,1,3.018-1.436,3.015,3.015,0,0,1,2.466.986,4.7,4.7,0,0,1,.845,2.969V19h-3.3V12.33a1.783,1.783,0,0,0-.322-1.177,1.491,1.491,0,0,0-1.172-.376,1.569,1.569,0,0,0-1.436.762V19h-3.291V8.434ZM280.664,19a3.716,3.716,0,0,1-.312-.947,3.06,3.06,0,0,1-2.539,1.143,3.749,3.749,0,0,1-2.539-.9,2.875,2.875,0,0,1-1.045-2.271,2.955,2.955,0,0,1,1.27-2.6,6.468,6.468,0,0,1,3.691-.879h1.016v-.559q0-1.462-1.26-1.462a1.03,1.03,0,0,0-1.172,1.158h-3.291a2.95,2.95,0,0,1,1.3-2.487,5.479,5.479,0,0,1,3.325-.956,4.8,4.8,0,0,1,3.193.986,3.429,3.429,0,0,1,1.2,2.705v4.678a4.79,4.79,0,0,0,.449,2.227V19ZM278.6,16.852a1.836,1.836,0,0,0,1.021-.264,1.653,1.653,0,0,0,.581-.6V14.3h-.957q-1.719,0-1.719,1.543a.942.942,0,0,0,.3.728A1.1,1.1,0,0,0,278.6,16.852Z" transform="translate(285 9525)" fill="#12263f"/>
    <g id="Grupo_873656" data-name="Grupo 873656" transform="translate(0 7470)">
      <rect id="Rect치ngulo_292720" data-name="Rect치ngulo 292720" width="53" height="49" transform="translate(180 2043)" fill="#ffeeb0"/>
      <rect id="Rect치ngulo_292721" data-name="Rect치ngulo 292721" width="3" height="49" transform="translate(238 2043)" fill="#fffae7"/>
      <g id="Grupo_873020" data-name="Grupo 873020" transform="translate(193.667 2049.836)">
        <path id="Trazado_218669" data-name="Trazado 218669" d="M43.512,23.606l22.327.606-9.978-5.6L35.553,15.9Z" transform="translate(5.494 2.457)" fill="#ff8dc9"/>
        <path id="Trazado_218670" data-name="Trazado 218670" d="M17.562,0l9.9,10.509,28.361,5.616-9.979-5.6Z" transform="translate(2.714)" fill="#ff8dc9"/>
        <path id="Trazado_218671" data-name="Trazado 218671" d="M20.989,25.407l9.019,7.163,5.617-9.115-9.978-5.6Z" transform="translate(3.244 2.759)" fill="#b51067"/>
        <path id="Trazado_218672" data-name="Trazado 218672" d="M20.276,0,0,20.785l12.15,12.94L30.179,10.509Z" fill="#b51067"/>
        <path id="Trazado_218673" data-name="Trazado 218673" d="M10.524,32.319l26.72-7.513-5.618,9.115,38.081-8.659L47.38,24.657l9.534-9.938L28.553,9.1Z" transform="translate(1.626 1.407)" fill="#ea3584"/>
      </g>
    </g>
  </g>
</svg>
