<svg xmlns="http://www.w3.org/2000/svg" xmlns:xlink="http://www.w3.org/1999/xlink" width="1030" height="415.173" viewBox="0 0 1030 415.173">
  <defs>
    <linearGradient id="linear-gradient" x1="0.815" y1="0.594" x2="0.045" y2="-0.146" gradientUnits="objectBoundingBox">
      <stop offset="0" stop-color="#ea3584"/>
      <stop offset="1" stop-color="#6826cc"/>
    </linearGradient>
    <linearGradient id="linear-gradient-2" x1="1" y1="0.5" x2="0" y2="0.5" gradientUnits="objectBoundingBox">
      <stop offset="0" stop-color="#ff599f"/>
      <stop offset="1" stop-color="#7c48e5"/>
    </linearGradient>
    <linearGradient id="linear-gradient-3" x1="1.328" y1="-0.148" x2="-0.046" y2="0.928" gradientUnits="objectBoundingBox">
      <stop offset="0" stop-color="#9c74ff"/>
      <stop offset="1" stop-color="#383838"/>
    </linearGradient>
    <linearGradient id="linear-gradient-4" x1="0.622" y1="0.5" x2="0.393" y2="0.5" gradientUnits="objectBoundingBox">
      <stop offset="0" stop-color="#b17638"/>
      <stop offset="1" stop-color="#ffbc74"/>
    </linearGradient>
    <linearGradient id="linear-gradient-5" x1="2.861" y1="7.97" x2="2.795" y2="7.97" gradientUnits="objectBoundingBox">
      <stop offset="0" stop-color="#a688ff"/>
      <stop offset="1" stop-color="#c0abff"/>
    </linearGradient>
    <linearGradient id="linear-gradient-6" x1="3.05" y1="8.264" x2="3.036" y2="8.227" gradientUnits="objectBoundingBox">
      <stop offset="0" stop-color="#3300bf"/>
      <stop offset="1" stop-color="#c0abff"/>
    </linearGradient>
    <linearGradient id="linear-gradient-7" x1="2.76" y1="8.408" x2="2.776" y2="8.364" xlink:href="#linear-gradient-6"/>
    <linearGradient id="linear-gradient-8" x1="4.295" y1="9.621" x2="2.996" y2="7.826" gradientUnits="objectBoundingBox">
      <stop offset="0" stop-color="#9c74ff"/>
      <stop offset="1" stop-color="#fff6ff"/>
    </linearGradient>
    <linearGradient id="linear-gradient-9" x1="2.939" y1="8.998" x2="6.256" y2="4.24" gradientUnits="objectBoundingBox">
      <stop offset="0" stop-color="#0e9cff"/>
      <stop offset="1" stop-color="#fff6ff"/>
    </linearGradient>
    <linearGradient id="linear-gradient-10" x1="2.734" y1="11.758" x2="4.58" y2="11.81" gradientUnits="objectBoundingBox">
      <stop offset="0" stop-color="#4f47ff"/>
      <stop offset="1" stop-color="#13ffe2"/>
    </linearGradient>
    <linearGradient id="linear-gradient-11" x1="243.131" y1="1026.072" x2="249.029" y2="1041.714" xlink:href="#linear-gradient-10"/>
    <linearGradient id="linear-gradient-12" x1="33.365" y1="207.327" x2="34.855" y2="213.404" xlink:href="#linear-gradient-10"/>
    <linearGradient id="linear-gradient-13" x1="50.653" y1="158.494" x2="51.79" y2="159.741" gradientUnits="objectBoundingBox">
      <stop offset="0" stop-color="#ff4aff"/>
      <stop offset="1" stop-color="#13ffe2"/>
    </linearGradient>
    <linearGradient id="linear-gradient-14" x1="50.848" y1="234.82" x2="51.954" y2="238.026" xlink:href="#linear-gradient-10"/>
    <linearGradient id="linear-gradient-15" x1="88.932" y1="173.761" x2="91.122" y2="172.841" gradientUnits="objectBoundingBox">
      <stop offset="0" stop-color="#3818d6"/>
      <stop offset="1" stop-color="#13ffe2"/>
    </linearGradient>
    <linearGradient id="linear-gradient-16" x1="92.492" y1="172.779" x2="91.39" y2="171.761" xlink:href="#linear-gradient-8"/>
    <linearGradient id="linear-gradient-17" x1="91.417" y1="173.974" x2="93.606" y2="173.053" xlink:href="#linear-gradient-15"/>
    <linearGradient id="linear-gradient-18" x1="94.968" y1="172.974" x2="93.862" y2="171.956" xlink:href="#linear-gradient-8"/>
    <linearGradient id="linear-gradient-19" x1="197.68" y1="340.426" x2="199.76" y2="339.678" xlink:href="#linear-gradient-15"/>
    <linearGradient id="linear-gradient-20" x1="204.321" y1="338.173" x2="202.74" y2="336.913" xlink:href="#linear-gradient-8"/>
    <linearGradient id="linear-gradient-21" x1="153.211" y1="202.755" x2="153.905" y2="203.749" xlink:href="#linear-gradient-10"/>
    <linearGradient id="linear-gradient-22" x1="2.657" y1="9.026" x2="3.607" y2="8.387" xlink:href="#linear-gradient-9"/>
    <linearGradient id="linear-gradient-23" x1="2.627" y1="8.892" x2="3.578" y2="8.257" xlink:href="#linear-gradient-9"/>
    <linearGradient id="linear-gradient-24" x1="0.699" y1="-0.415" x2="0.5" y2="-0.415" gradientUnits="objectBoundingBox">
      <stop offset="0" stop-color="#a477ff"/>
      <stop offset="1" stop-color="#c2aaff"/>
    </linearGradient>
    <linearGradient id="linear-gradient-25" x1="-0.169" y1="-1.053" x2="1.353" y2="-1.053" xlink:href="#linear-gradient-24"/>
    <linearGradient id="linear-gradient-26" x1="1.267" y1="-17.952" x2="1.877" y2="-17.952" xlink:href="#linear-gradient-24"/>
    <linearGradient id="linear-gradient-27" x1="-2.515" y1="12.652" x2="-2.736" y2="12.652" gradientUnits="objectBoundingBox">
      <stop offset="0" stop-color="#b4b5bf"/>
      <stop offset="1" stop-color="#807d99"/>
    </linearGradient>
    <linearGradient id="linear-gradient-28" x1="-16.528" y1="67.857" x2="-17.663" y2="67.857" xlink:href="#linear-gradient-27"/>
    <linearGradient id="linear-gradient-29" x1="-16.02" y1="68.429" x2="-17.154" y2="68.429" xlink:href="#linear-gradient-27"/>
    <linearGradient id="linear-gradient-30" x1="-15.512" y1="69.001" x2="-16.646" y2="69.001" xlink:href="#linear-gradient-27"/>
    <linearGradient id="linear-gradient-31" x1="-1.841" y1="-9.818" x2="-2.824" y2="-9.818" gradientUnits="objectBoundingBox">
      <stop offset="0" stop-color="#703eff"/>
      <stop offset="1" stop-color="#dbc8ff"/>
    </linearGradient>
    <linearGradient id="linear-gradient-32" x1="4.411" y1="3.352" x2="-0.324" y2="0.891" gradientUnits="objectBoundingBox">
      <stop offset="0" stop-color="#cab9ff"/>
      <stop offset="1" stop-color="#fff"/>
    </linearGradient>
    <linearGradient id="linear-gradient-33" x1="11.912" y1="-17.335" x2="11.685" y2="-17.335" xlink:href="#linear-gradient-27"/>
    <linearGradient id="linear-gradient-34" x1="0" y1="0.5" x2="1" y2="0.5" xlink:href="#linear-gradient-27"/>
    <linearGradient id="linear-gradient-35" x1="0.111" y1="1.161" x2="-0.176" y2="1.161" xlink:href="#linear-gradient-24"/>
    <linearGradient id="linear-gradient-36" x1="1.449" y1="12.016" x2="-0.496" y2="10.697" xlink:href="#linear-gradient-24"/>
    <linearGradient id="linear-gradient-37" x1="1.099" y1="7.751" x2="-0.131" y2="6.92" xlink:href="#linear-gradient-24"/>
    <clipPath id="clip-path">
      <rect id="Rect치ngulo_42719" data-name="Rect치ngulo 42719" width="27.974" height="27.974" fill="#ea3584"/>
    </clipPath>
    <clipPath id="clip-path-4">
      <rect id="Rect치ngulo_42617" data-name="Rect치ngulo 42617" width="21.196" height="21.196" fill="#6826cc"/>
    </clipPath>
    <linearGradient id="linear-gradient-38" x1="-0.337" y1="3.671" x2="1.545" y2="4.95" gradientUnits="objectBoundingBox">
      <stop offset="0" stop-color="#ea3584"/>
      <stop offset="1" stop-color="#fff6ff"/>
    </linearGradient>
    <linearGradient id="linear-gradient-39" x1="0.931" y1="5.172" x2="-0.358" y2="3.882" xlink:href="#linear-gradient-38"/>
    <linearGradient id="linear-gradient-40" x1="0.5" x2="0.5" y2="1" gradientUnits="objectBoundingBox">
      <stop offset="0" stop-color="#ffedaf"/>
      <stop offset="0.271" stop-color="#fe7e81"/>
      <stop offset="0.864" stop-color="#ff1787"/>
      <stop offset="1" stop-color="#c13099"/>
    </linearGradient>
  </defs>
  <g id="Grupo_873844" data-name="Grupo 873844" transform="translate(-285 -9680.232)">
    <path id="_67139977_1579952822137281_9115964151846404096_n" data-name="67139977_1579952822137281_9115964151846404096_n" d="M89.143,119.073l27.532-79.344s15.993-36.69,61.956-30.59L423.226,41.6s50.3,5.127,52.245,58.15S485.1,352.552,485.1,352.552s11.349,76-78.061,66.78S105.95,379.378,105.95,379.378l-34.77-4.944s-60.641-12.5-41.818-77.2,59.781-178.16,59.781-178.16" transform="translate(500.92 9675.298)" fill="#fffae7"/>
    <g id="_540_Convertido_" data-name="540 [Convertido]" transform="translate(619.001 9689.992)">
      <g id="content" transform="translate(-0.001 0.008)">
        <path id="Trazado_593436" data-name="Trazado 593436" d="M225.977,296.819,168.658,263.59c-7.846-4.552-21.55-4-30.63,1.222L89.561,292.686c-9.068,5.223-10.074,13.129-2.228,17.681L144.652,343.6c7.846,4.552,21.55,4,30.63-1.222L223.748,314.5C232.816,309.277,233.823,301.371,225.977,296.819Z" transform="translate(16.237 51.541)" fill="#c3c0b4"/>
        <g id="_3" transform="translate(225.132 241.444)">
          <path id="Trazado_593437" data-name="Trazado 593437" d="M222.247,257.826c0,5.642-7.678,10.206-17.154,10.206s-17.154-4.576-17.154-10.206,7.678-10.206,17.154-10.206,17.154,4.576,17.154,10.206Z" transform="translate(-187.94 -192.452)" fill="#c3c0b4"/>
          <g id="_4" transform="translate(5.378)">
            <g id="Grupo_873766" data-name="Grupo 873766" transform="translate(9.954 64.044)">
              <path id="Trazado_593438" data-name="Trazado 593438" d="M208.67,255.03a4.352,4.352,0,0,1,.539,1.737,3.462,3.462,0,0,0,0,.91l-1.342.515-.323-.515-.18.815a16.065,16.065,0,0,1-3.666,2.084c-1.1.216-2.947-.4-2.959-.683a2.585,2.585,0,0,1,.934-1.749,34.9,34.9,0,0,0,2.8-3.1h4.193Z" transform="translate(-200.74 -255.03)" fill="#226"/>
              <path id="Trazado_593439" data-name="Trazado 593439" d="M203.827,255.977l1.126.287a.225.225,0,0,0,.276-.144h0a.2.2,0,0,0-.156-.252l-1.126-.287a.225.225,0,0,0-.276.144h0A.2.2,0,0,0,203.827,255.977Z" transform="translate(-200.162 -254.923)" fill="#f6f9ed"/>
              <path id="Trazado_593440" data-name="Trazado 593440" d="M203.407,256.547l1.126.287a.225.225,0,0,0,.276-.144h0a.2.2,0,0,0-.156-.252l-1.126-.287a.225.225,0,0,0-.276.144h0A.2.2,0,0,0,203.407,256.547Z" transform="translate(-200.245 -254.81)" fill="#f6f9ed"/>
            </g>
            <g id="Grupo_873767" data-name="Grupo 873767" transform="translate(3.366 62.439)">
              <path id="Trazado_593441" data-name="Trazado 593441" d="M202.655,253.69a3.934,3.934,0,0,1,.5,1.605,2.9,2.9,0,0,0,0,.839l-1.246.479-.3-.479-.168.755a15.66,15.66,0,0,1-3.462,1.977c-1.018.192-2.731-.371-2.743-.635a2.394,2.394,0,0,1,.839-1.629,37.928,37.928,0,0,0,2.683-2.911h3.893Z" transform="translate(-195.24 -253.69)" fill="#226"/>
              <path id="Trazado_593442" data-name="Trazado 593442" d="M198.1,254.322l1.042.264a.212.212,0,0,0,.252-.132h0a.2.2,0,0,0-.144-.24l-1.042-.264a.212.212,0,0,0-.252.132h0A.2.2,0,0,0,198.1,254.322Z" transform="translate(-194.705 -253.639)" fill="#f6f9ed"/>
              <path id="Trazado_593443" data-name="Trazado 593443" d="M197.705,254.852l1.042.264a.212.212,0,0,0,.252-.132h0a.2.2,0,0,0-.144-.24l-1.042-.264a.212.212,0,0,0-.252.132h0A.192.192,0,0,0,197.705,254.852Z" transform="translate(-194.782 -253.535)" fill="#f6f9ed"/>
            </g>
            <path id="Trazado_593444" data-name="Trazado 593444" d="M202.286,236.187s.288,8.984.228,12.757.228,9.775.228,9.775a5.08,5.08,0,0,1-3.1.767c-1.821-.144-1.857-.407-1.857-.407L196.956,248s-.5-1.366-.85-7.523c-.335-6.1-.012-7.918-.012-7.918l2.432-4.708,4,6.481-.24,1.845Z" transform="translate(-191.733 -196.365)" fill="#2f2f91"/>
            <path id="Trazado_593445" data-name="Trazado 593445" d="M208.844,233.958s.2,12.41.072,14.4,0,.719,0,.719l.347,10.661a5.86,5.86,0,0,1-2.683.862,6.787,6.787,0,0,1-3.162-1.018s-.815-10.673-.922-11.2-.827-7.235-1.39-11.5c-1.1-8.385,7.738-2.911,7.738-2.911Z" transform="translate(-190.732 -195.501)" fill="#5151b7"/>
            <path id="Trazado_593446" data-name="Trazado 593446" d="M203.211,240.273a7.594,7.594,0,0,0,3.594.024l4.408-1.018s.5.072.3-1.689-1.03-12.326-.3-16.794a26.853,26.853,0,0,0,.347-7.331s-3.977-2.575-4.863-2.408-4.875-1.066-4.875-1.066l-3.7.719a4.026,4.026,0,0,0-1.725,1.509c-.91,1.258-1.965,5.319-1.965,5.319l1.246,5.654v5.163a51.779,51.779,0,0,1,0,6.552c-.264,1.9-.323,2.971,0,3.27s2.659,1.234,3.282.12.419-5.786.419-5.786.767,6.684,2.276,7.259a14.22,14.22,0,0,0,1.581.491Z" transform="translate(-192.034 -199.899)" fill="#3232cc"/>
            <path id="Trazado_593447" data-name="Trazado 593447" d="M201,209.813a5.844,5.844,0,0,1-.12,2.623,4.884,4.884,0,0,1-1.126,2.156v1.473l3.833-2.348,2-2.5a15.2,15.2,0,0,1-.851-4.2l-3.917,1.881.18.934Z" transform="translate(-190.981 -200.489)" fill="#efae6f"/>
            <path id="Trazado_593448" data-name="Trazado 593448" d="M202.533,210.864s-1.473.683-2.132,0a6.385,6.385,0,0,1-1.318-4.5,6.857,6.857,0,0,1,1.15-3.33l6.085,1.773-1.174,3.378-.036.8-2.587,1.869Z" transform="translate(-191.117 -201.276)" fill="#fcbf9d"/>
            <path id="Trazado_593449" data-name="Trazado 593449" d="M202.939,202.767a.9.9,0,0,1,1.27-.479,9.156,9.156,0,0,1,1.018.611,4.134,4.134,0,0,1,1.294,3.342c-.3,1.03-.695,2.432-1.437,2.875a1.838,1.838,0,0,1-1.2.347l.132-1.078s.767-.491.719-1.186a.779.779,0,0,0-.743-.731,1.716,1.716,0,0,0-.216-1.09,6.754,6.754,0,0,0-1.5-.8l.683-1.809Z" transform="translate(-190.481 -201.444)" fill="#3232cc"/>
            <path id="Trazado_593450" data-name="Trazado 593450" d="M205.357,203.919a3.245,3.245,0,0,0-2.911-2.348c-1.629-.108-3.57,1.545-4.157,2.851a2.154,2.154,0,0,0,.695,2.767c.515.371,3.138-.419,4.456-1.27a5.826,5.826,0,0,0,1.9-2Z" transform="translate(-191.317 -201.566)" fill="#4a4af4"/>
            <path id="Trazado_593451" data-name="Trazado 593451" d="M198.312,219.641l.216-6.744,1.857-.755-1.785-.024v-.97a3.581,3.581,0,0,1,1.749-1.27c.779-.192,1.054.264,1.054.264l-.12,1.306-2.4,8.565-.587-.359Z" transform="translate(-191.268 -199.93)" fill="#9a95ef"/>
            <path id="Trazado_593452" data-name="Trazado 593452" d="M200.03,222.186l4.516-8.96.719-3.067a.329.329,0,0,1,.515-.24c.719.5,1.653,1.581,1.653,2.264a10.261,10.261,0,0,1-.527,2.492l-2-1.294,1.342,2.06-5.438,6.732h-.779Z" transform="translate(-190.926 -199.924)" fill="#9a95ef"/>
            <path id="Trazado_593453" data-name="Trazado 593453" d="M201.2,211.85l2.276,1.066,1.33-.084-4.528,8.96-1.258-2.06-.216-.144,1.186-4.36.779-2.719Z" transform="translate(-191.169 -199.531)" fill="#ffe9f4"/>
            <path id="Trazado_593454" data-name="Trazado 593454" d="M202.98,212.753l-.791,1.162a.674.674,0,0,1-.683.287l-.276-.048a.693.693,0,0,1-.551-.731l.12-1.473,2.156.8Z" transform="translate(-190.798 -199.511)" fill="#2f2f91"/>
            <path id="Trazado_593455" data-name="Trazado 593455" d="M204.816,210.79s-1.126,1.318-1.893,1.485a5.147,5.147,0,0,1-1.533.072l.24,1.545a.79.79,0,0,0,.851.671l.994.06.815-1.569Z" transform="translate(-190.657 -199.741)" fill="#ffe9f4"/>
            <path id="Trazado_593456" data-name="Trazado 593456" d="M200.14,213.9l1.5-1.641-.707-1.09Z" transform="translate(-190.904 -199.665)" fill="#ffe9f4"/>
            <path id="Trazado_593457" data-name="Trazado 593457" d="M201.146,213.54l-2.156,5.834.791.647.587,1.174L202,213.887Z" transform="translate(-191.132 -199.196)" fill="#2f2f91"/>
            <path id="Trazado_593458" data-name="Trazado 593458" d="M198.956,219.627H199s.156.06-.12-.359l-.276-.419s-1.174-.036-1.294-.036-.515-.623-.515-.623l1.773-.18a1.881,1.881,0,0,1,.958.288,10.36,10.36,0,0,1,1.318,1.677l.791.551-.491.491c-.719-.467-1.629-1.03-2.192-1.378Z" transform="translate(-191.565 -198.312)" fill="#efae6f"/>
            <g id="Grupo_873768" data-name="Grupo 873768" transform="translate(0 14.063)">
              <path id="Trazado_593459" data-name="Trazado 593459" d="M194.875,222.63l4.851,2.647c.311.168.563,0,.563-.4L199,217.012a1.213,1.213,0,0,0-.551-.994l-4.851-2.647c-.311-.168-.563,0-.563.4l1.294,7.87A1.213,1.213,0,0,0,194.875,222.63Z" transform="translate(-192.311 -213.306)" fill="#7ac0ea"/>
              <path id="Trazado_593460" data-name="Trazado 593460" d="M194.275,222.88l4.851,2.647c.311.168.563,0,.563-.4l-1.294-7.87a1.213,1.213,0,0,0-.551-.994l-4.851-2.647c-.311-.168-.563,0-.563.4l1.294,7.87A1.213,1.213,0,0,0,194.275,222.88Z" transform="translate(-192.43 -213.257)" fill="#fff"/>
              <path id="Trazado_593461" data-name="Trazado 593461" d="M195.221,216.652h0c.311.12.515-.084.467-.443l-.3-1.833a1.173,1.173,0,0,0-.671-.85h0c-.311-.12-.515.084-.467.443l.3,1.833A1.173,1.173,0,0,0,195.221,216.652Z" transform="translate(-192.071 -213.269)" fill="#343499"/>
            </g>
            <path id="Trazado_593462" data-name="Trazado 593462" d="M196.3,218.8a15.842,15.842,0,0,0,1.941.743,1.844,1.844,0,0,0,.946-.06c.575.347,1.485.91,2.192,1.378l-1.318,1.306a5.291,5.291,0,0,0-.755,0,5.875,5.875,0,0,1-2.8-.922c-.683-.695-.491-.91-.8-1.893s.587-.575.587-.575Z" transform="translate(-191.796 -198.177)" fill="#efae6f"/>
            <path id="Trazado_593463" data-name="Trazado 593463" d="M205.918,225.536a65.6,65.6,0,0,1,1.965-10.242c.707-1.833,1.521-3.174,2.408-2.623s1.641,1.4,1.8,3.8-2.875,13.057-3.821,13.931-1.521.779-2.468.072-6.708-6.96-6.708-6.96a2.934,2.934,0,0,1,.982-1.378c.767-.587,1.078-.874,1.078-.874l4.756,4.276Z" transform="translate(-191.112 -199.393)" fill="#9a95ef"/>
            <path id="Trazado_593464" data-name="Trazado 593464" d="M194.011,216.042h0c.311.12.515-.084.467-.443l-.3-1.833a1.173,1.173,0,0,0-.671-.851h0c-.311-.12-.515.084-.467.443l.3,1.833A1.173,1.173,0,0,0,194.011,216.042Z" transform="translate(-192.31 -199.327)" fill="#2773e2"/>
            <path id="Trazado_593465" data-name="Trazado 593465" d="M200.5,225.841h-1.138a.271.271,0,0,1-.276-.275h0a.271.271,0,0,1,.276-.276H200.5a.271.271,0,0,1,.275.276h0A.271.271,0,0,1,200.5,225.841Z" transform="translate(-191.112 -196.871)" fill="#c4cacc"/>
            <path id="Trazado_593466" data-name="Trazado 593466" d="M200.554,227.7h-1.138a.271.271,0,0,1-.276-.276h0a.271.271,0,0,1,.276-.276h1.138a.271.271,0,0,1,.276.276h0A.271.271,0,0,1,200.554,227.7Z" transform="translate(-191.102 -196.503)" fill="#c4cacc"/>
          </g>
        </g>
        <path id="Trazado_593467" data-name="Trazado 593467" d="M173.294,234.131a9.4,9.4,0,0,0,.731-1.533l4.193-8.757h-5.367a17.456,17.456,0,0,0-5.858-5.163c-10.194-5.882-26.725-5.882-36.919,0a17.574,17.574,0,0,0-5.858,5.163H118.85l4.193,8.745a10.842,10.842,0,0,0,.743,1.557v.024h0a16.7,16.7,0,0,0,6.265,5.822c10.194,5.882,26.725,5.882,36.919,0a16.9,16.9,0,0,0,6.265-5.822h0v-.024Z" transform="translate(23.52 42.391)" fill="#a2a7c5"/>
        <path id="Trazado_593468" data-name="Trazado 593468" d="M268.418,132.986,56.38,132.83l75.754,108.936a19.815,19.815,0,0,0,7.223,6.636c11.9,6.864,31.193,6.864,43.088,0a19.815,19.815,0,0,0,7.223-6.636Z" transform="translate(11.158 26.276)" fill="url(#linear-gradient)"/>
        <path id="Trazado_593469" data-name="Trazado 593469" d="M272.013,98.687h0l-.024-.036c-.419-.635-.851-1.282-1.294-1.917L262.73,84.995h-2.875a93.1,93.1,0,0,0-14.339-10.074c-45.028-25.994-118.04-25.994-163.068,0A93.683,93.683,0,0,0,68.109,84.995H64.372L55.579,99.286h0c-14.77,23.538-5.822,50.922,26.869,69.789,45.028,25.994,118.04,25.994,163.068,0C278.482,150.04,287.31,122.357,272.013,98.687Z" transform="translate(9.635 10.959)" fill="url(#linear-gradient-2)"/>
        <ellipse id="Elipse_4750" data-name="Elipse 4750" cx="106.396" cy="61.428" rx="106.396" ry="61.428" transform="translate(66.795 56.783)" fill="#d0d2e1"/>
        <ellipse id="Elipse_4751" data-name="Elipse 4751" cx="98.861" cy="57.139" rx="98.861" ry="57.139" transform="translate(74.33 60.4)" fill="url(#linear-gradient-3)"/>
        <path id="Trazado_593470" data-name="Trazado 593470" d="M278.887,106.67c.024,17.058-11.224,34.116-33.768,47.125-45.028,25.994-118.04,25.994-163.068,0C61.795,142.1,50.666,127.142,48.63,111.857c0,17.046,11.248,34.08,33.768,47.089,45.028,25.994,118.04,25.994,163.068,0,24.808-14.327,35.937-33.541,33.421-52.264Z" transform="translate(9.624 21.099)" fill="#d0d2e1"/>
        <g id="_3-2" transform="translate(103.49 298.809)">
          <g id="_">
            <g id="Grupo_873769" data-name="Grupo 873769">
              <path id="Trazado_593471" data-name="Trazado 593471" d="M225.187,296.835v-8.062l-9.355-1.509-48.874-28.33c-7.3-4.229-20.053-3.725-28.486,1.126L93.384,285.982c-.371.216-.719.431-1.054.659l-5.93,1.03v7.762h0c.06,2.623,1.665,5.115,4.911,7l53.318,30.905c7.3,4.229,20.053,3.725,28.486-1.126L218.2,306.286c4.7-2.7,7.056-6.169,6.984-9.451h0Z" transform="translate(-86.392 -248.147)" fill="url(#linear-gradient-4)"/>
              <path id="Trazado_593472" data-name="Trazado 593472" d="M220.277,283.229l-53.318-30.905c-7.3-4.229-20.053-3.725-28.486,1.126L93.385,279.372c-8.445,4.851-9.367,12.218-2.072,16.447l53.318,30.905c7.3,4.229,20.053,3.725,28.486-1.126L218.2,299.676C226.65,294.825,227.572,287.458,220.277,283.229Z" transform="translate(-86.393 -249.455)" fill="#ffeeb0"/>
            </g>
          </g>
        </g>
        <g id="_-3" transform="translate(0 1.514)">
          <g id="Grupo_873797" data-name="Grupo 873797">
            <g id="_0" transform="translate(0 7.301)">
              <g id="Grupo_873795" data-name="Grupo 873795">
                <path id="Trazado_593492" data-name="Trazado 593492" d="M1.929,22.734c2.156-1.665,1.965.144,1.282,2.24L40.549,10.168a4.964,4.964,0,0,1,4.78,1.018l46,39.578c2.18-.623,4.1-.6,4.732.994,1.15,2.887-.084,4.133-1.066,4.863a2.939,2.939,0,0,1-.874.5l-.048.024L55.726,72.327a4.863,4.863,0,0,1-4.7-1.006L1.605,28.748S-2.216,25.909,1.929,22.734Z" transform="translate(0.001 -6.858)" fill="url(#linear-gradient-5)"/>
                <g id="Grupo_873787" data-name="Grupo 873787" transform="translate(0 3.079)">
                  <path id="Trazado_593493" data-name="Trazado 593493" d="M1.929,22.734c2.156-1.665,1.965.144,1.282,2.24L40.549,10.168a4.964,4.964,0,0,1,4.78,1.018l46,39.578c2.18-.623,4.1-.6,4.732.994,1.15,2.887-.084,4.133-1.066,4.863a2.939,2.939,0,0,1-.874.5l-.048.024L55.726,72.327a4.863,4.863,0,0,1-4.7-1.006L1.605,28.748S-2.216,25.909,1.929,22.734Z" transform="translate(0.001 -9.936)" opacity="0.8" fill="url(#linear-gradient-6)"/>
                </g>
                <g id="Grupo_873788" data-name="Grupo 873788" transform="translate(0 3.079)">
                  <path id="Trazado_593494" data-name="Trazado 593494" d="M1.929,22.734c2.156-1.665,1.965.144,1.282,2.24L40.549,10.168a4.964,4.964,0,0,1,4.78,1.018l46,39.578c2.18-.623,4.1-.6,4.732.994,1.15,2.887-.084,4.133-1.066,4.863a2.939,2.939,0,0,1-.874.5l-.048.024L55.726,72.327a4.863,4.863,0,0,1-4.7-1.006L1.605,28.748S-2.216,25.909,1.929,22.734Z" transform="translate(0.001 -9.936)" opacity="0.8" fill="url(#linear-gradient-7)"/>
                </g>
                <path id="Trazado_593495" data-name="Trazado 593495" d="M95.2,51.309,45.586,8.617A4.964,4.964,0,0,0,40.806,7.6L2.462,22.8a2.185,2.185,0,0,0-.647,3.7L51.24,69.062a4.869,4.869,0,0,0,4.7,1.006L94.28,54.891C96.173,54.112,96.316,52.4,95.2,51.309Z" transform="translate(0.211 -7.366)" fill="url(#linear-gradient-8)"/>
                <path id="Trazado_593496" data-name="Trazado 593496" d="M92.163,51.021l-40.608,15.7a.882.882,0,0,1-.85-.18L3.7,26.285a.323.323,0,0,1,.1-.551L44.379,9.826a.809.809,0,0,1,.779.168L92.247,50.53a.3.3,0,0,1-.084.5Z" transform="translate(0.711 -6.887)" fill="url(#linear-gradient-9)"/>
                <path id="Trazado_593497" data-name="Trazado 593497" d="M92.216,50.939,45.139,10.4a.809.809,0,0,0-.779-.168l-40.6,15.92a.534.534,0,0,0-.1.06.319.319,0,0,1,.156-.479L44.409,9.816a.809.809,0,0,1,.779.168L92.276,50.52a.3.3,0,0,1-.012.467c0-.012-.024-.036-.036-.048Z" transform="translate(0.717 -6.889)" fill="url(#linear-gradient-10)"/>
                <g id="Grupo_873789" data-name="Grupo 873789" transform="translate(70.422 52.298)">
                  <path id="Trazado_593498" data-name="Trazado 593498" d="M63.865,51.462h.024c.132-.06.132-.192,0-.311h0a.556.556,0,0,0-.479-.108h-.024c-.132.06-.132.192,0,.311h0A.556.556,0,0,0,63.865,51.462Z" transform="translate(-57.897 -51.024)" fill="url(#linear-gradient-11)"/>
                  <path id="Trazado_593499" data-name="Trazado 593499" d="M59.365,53.509,64,51.7c.132-.048.132-.18,0-.3h0a.556.556,0,0,0-.479-.108L58.886,53.1c-.132.048-.132.18,0,.3h0A.556.556,0,0,0,59.365,53.509Z" transform="translate(-58.788 -50.975)" fill="url(#linear-gradient-12)"/>
                </g>
                <g id="Grupo_873790" data-name="Grupo 873790" transform="translate(20.242 7.841)">
                  <path id="Trazado_593500" data-name="Trazado 593500" d="M19.331,16.807l2.851-1.09c.563-.228.575-.791.024-1.258h0a2.225,2.225,0,0,0-2.024-.443l-2.851,1.09c-.563.228-.575.791-.024,1.258h0a2.225,2.225,0,0,0,2.024.443Z" transform="translate(-16.896 -13.91)" fill="url(#linear-gradient-13)"/>
                  <path id="Trazado_593501" data-name="Trazado 593501" d="M22.231,14.928a2.225,2.225,0,0,0-2.024-.443l-2.851,1.09a.68.68,0,0,0-.4.347.579.579,0,0,1,.371-.827l2.851-1.09a2.225,2.225,0,0,1,2.024.443h0a.832.832,0,0,1,.371.91,1.128,1.128,0,0,0-.347-.431Z" transform="translate(-16.897 -13.912)" fill="url(#linear-gradient-14)"/>
                </g>
                <g id="Grupo_873794" data-name="Grupo 873794" transform="translate(38.447 52.089)">
                  <g id="Grupo_873791" data-name="Grupo 873791" transform="translate(3.115 2.647)">
                    <path id="Trazado_593502" data-name="Trazado 593502" d="M35.2,53.06a.314.314,0,0,1,.2.06h0l2.012,1.749h0a.618.618,0,0,1,.192.371c.036.276-.1.515-.287.527a.314.314,0,0,1-.2-.06h-.024l-1.977-1.725h0a.559.559,0,0,1-.216-.4c-.036-.276.1-.515.287-.527Z" transform="translate(-34.655 -53.06)" fill="url(#linear-gradient-15)"/>
                    <path id="Trazado_593503" data-name="Trazado 593503" d="M35,53.17a.314.314,0,0,1,.2.06h0l2.012,1.749h0a.618.618,0,0,1,.192.371c.036.276-.1.515-.287.527a.314.314,0,0,1-.2-.06h-.024l-1.977-1.725h0a.559.559,0,0,1-.216-.4c-.036-.276.1-.515.287-.527Z" transform="translate(-34.695 -53.038)" fill="url(#linear-gradient-16)"/>
                  </g>
                  <g id="Grupo_873792" data-name="Grupo 873792">
                    <path id="Trazado_593504" data-name="Trazado 593504" d="M32.6,50.85a.314.314,0,0,1,.2.06h0l2.012,1.749h0a.618.618,0,0,1,.192.371c.036.276-.1.515-.287.527a.314.314,0,0,1-.2-.06h-.024l-1.977-1.725h0a.559.559,0,0,1-.216-.4c-.036-.276.1-.515.287-.527Z" transform="translate(-32.055 -50.85)" fill="url(#linear-gradient-17)"/>
                    <path id="Trazado_593505" data-name="Trazado 593505" d="M32.4,50.96a.314.314,0,0,1,.2.06h0l2.012,1.749h0a.618.618,0,0,1,.192.371c.036.276-.1.515-.287.527a.314.314,0,0,1-.2-.06h-.024l-1.977-1.725h0a.559.559,0,0,1-.216-.4c-.036-.276.1-.515.287-.527Z" transform="translate(-32.095 -50.828)" fill="url(#linear-gradient-18)"/>
                  </g>
                  <g id="Grupo_873793" data-name="Grupo 873793" transform="translate(6.229 5.343)">
                    <path id="Trazado_593506" data-name="Trazado 593506" d="M37.8,55.322a.314.314,0,0,1,.2.06h0l.491.407h0a.618.618,0,0,1,.192.371c.036.276-.1.515-.287.527a.314.314,0,0,1-.2-.06h-.024l-.455-.4h0a.559.559,0,0,1-.216-.4c-.036-.276.1-.515.287-.527Z" transform="translate(-37.255 -55.31)" fill="url(#linear-gradient-19)"/>
                    <path id="Trazado_593507" data-name="Trazado 593507" d="M37.6,55.432a.314.314,0,0,1,.2.06h0l.491.407h0a.618.618,0,0,1,.192.371c.036.276-.1.515-.287.527a.314.314,0,0,1-.2-.06h-.024l-.455-.4h0a.559.559,0,0,1-.216-.4c-.036-.276.1-.515.287-.527Z" transform="translate(-37.295 -55.288)" fill="url(#linear-gradient-20)"/>
                  </g>
                </g>
              </g>
              <g id="Grupo_873796" data-name="Grupo 873796" transform="translate(58.485 61.788)">
                <path id="Trazado_593508" data-name="Trazado 593508" d="M48.975,60.124c-.108.467.108.755.491.647a1.493,1.493,0,0,0,.886-1.03c.108-.467-.108-.755-.491-.647A1.493,1.493,0,0,0,48.975,60.124Z" transform="translate(-48.798 -58.922)" fill="url(#linear-gradient-21)"/>
                <path id="Trazado_593509" data-name="Trazado 593509" d="M49.2,60.951a.735.735,0,0,0,.323,0,1.614,1.614,0,0,0,.982-1.138.753.753,0,0,0-.132-.719.508.508,0,0,0-.539-.12,1.611,1.611,0,0,0-.982,1.15h0a.753.753,0,0,0,.132.719.5.5,0,0,0,.216.132Zm.9-1.7a.328.328,0,0,1,.084.048.5.5,0,0,1,.048.419,1.362,1.362,0,0,1-.779.922A.237.237,0,0,1,49.2,60.6a.458.458,0,0,1-.048-.419h0a1.362,1.362,0,0,1,.779-.922.305.305,0,0,1,.18,0Z" transform="translate(-48.823 -58.947)" fill="#e7e1ff"/>
              </g>
            </g>
            <path id="Trazado_593510" data-name="Trazado 593510" d="M92.7,47.253l-40.608,15.7a.882.882,0,0,1-.85-.18l-47-40.261a.323.323,0,0,1,.1-.551L44.919,6.046a.809.809,0,0,1,.779.168L92.787,46.75A.3.3,0,0,1,92.7,47.253Z" transform="translate(0.817 -0.334)" opacity="0.5" fill="url(#linear-gradient-22)"/>
            <path id="Trazado_593511" data-name="Trazado 593511" d="M52.147,59.163a1.313,1.313,0,0,0,.611-.036l40.62-15.716a.729.729,0,0,0,.467-.563.79.79,0,0,0-.252-.731L46.517,1.581a1.232,1.232,0,0,0-1.186-.252L4.711,17.249a.724.724,0,0,0-.479.587.831.831,0,0,0,.264.755l47,40.273a1.359,1.359,0,0,0,.647.311ZM92.839,42.633,52.471,58.241a.465.465,0,0,1-.419-.108L5.238,18.04,45.619,2.2a.386.386,0,0,1,.347.084L92.827,42.633Z" transform="translate(0.836 -1.271)" fill="url(#linear-gradient-23)"/>
          </g>
        </g>
        <g id="_-4" transform="translate(90.297 68.523)">
          <path id="Trazado_593514" data-name="Trazado 593514" d="M146.151,130.325h0l4.612-4.792-6.7-10.877-8.8-30.426c-1.485-5.127-6.313-10.17-10.8-11.284l-31.5-7.774L81.346,58.32l-4.552,4.732a4.047,4.047,0,0,0-.311.323l-.072.072h0c-1.078,1.306-1.366,3.45-.6,6.109l11.548,39.925c1.485,5.127,6.313,10.17,10.8,11.284l43.2,10.673c2.12.527,3.761.06,4.768-1.09Z" transform="translate(-75.38 -56.991)" fill="url(#linear-gradient-24)"/>
          <path id="Trazado_593515" data-name="Trazado 593515" d="M145.43,126.579l-43.2-10.673c-4.48-1.1-9.32-6.157-10.8-11.284L79.882,64.7c-1.485-5.127.958-8.373,5.438-7.271l43.2,10.673c4.48,1.1,9.32,6.157,10.8,11.284l11.548,39.926c1.485,5.127-.958,8.373-5.438,7.271Z" transform="translate(-74.575 -57.211)" fill="#fff"/>
          <path id="Trazado_593516" data-name="Trazado 593516" d="M137.383,112.689c-2.851-4.947-8.062-12.35-14.3-13.9-1.2-.3-2.228-.551-3.15-.779l-1.4-3.426a4.338,4.338,0,0,0,1.162-3.678h0l-.635-8.876a6.546,6.546,0,0,0-.048-.671v-.18h-.024a10.676,10.676,0,0,0-.335-1.605c-1.641-5.69-7.643-11.464-13.4-12.877s-9.08,2.048-7.439,7.738a14.614,14.614,0,0,0,.587,1.617H98.38l.1.192c.132.3.276.587.431.886l4.744,9.811h0a16.185,16.185,0,0,0,3.642,4.863l.515,3.21c-.91-.228-1.929-.479-3.114-.767-6.253-1.545-7.654,4.229-7.882,8.421-.1,1.917,2.084,4.468,4.324,5.019l16.854,4.157.731.18,16.794,4.145c2.228.551,3.174-1.222,1.857-3.486Z" transform="translate(-71.139 -55.395)" fill="#e2ccff"/>
          <g id="Grupo_873800" data-name="Grupo 873800" transform="translate(26.677 10.988)">
            <path id="Trazado_593517" data-name="Trazado 593517" d="M102.633,69.254c5.75,1.425,11.751,7.187,13.4,12.877a12.4,12.4,0,0,1,.335,1.605h.012v.18a6.409,6.409,0,0,1,.06.659l.635,8.876h0a4.338,4.338,0,0,1-1.162,3.678l1.4,3.426c.91.228,1.953.479,3.15.779,6.241,1.545,11.452,8.96,14.3,13.9a5.738,5.738,0,0,1,.407.886l.2.048c2.228.551,3.174-1.222,1.857-3.486-2.851-4.947-8.062-12.35-14.3-13.9-1.2-.3-2.228-.551-3.15-.779l-1.4-3.426a4.338,4.338,0,0,0,1.162-3.678h0l-.635-8.876a6.088,6.088,0,0,0-.048-.659v-.18h-.024a10.675,10.675,0,0,0-.335-1.605c-1.641-5.69-7.643-11.464-13.4-12.877-3.761-.934-6.469.24-7.451,2.743a7.772,7.772,0,0,1,5-.18Z" transform="translate(-97.65 -66.383)" fill="url(#linear-gradient-25)"/>
            <path id="Trazado_593518" data-name="Trazado 593518" d="M102.039,92.245c1.186.287,2.2.551,3.115.767l2.456-2.551s-3.043-.731-3.079-.767h-.036c-3.534-.886-5.522.587-6.624,2.779a6,6,0,0,1,4.157-.228Z" transform="translate(-97.606 -61.822)" fill="url(#linear-gradient-26)"/>
          </g>
        </g>
        <g id="_-5" transform="translate(118.267 -9.768)">
          <g id="Grupo_873801" data-name="Grupo 873801">
            <path id="Trazado_593519" data-name="Trazado 593519" d="M122.334,51.725l-.97-2.12a13.821,13.821,0,0,0,1.737-3.079h0c2.707-6.528,1.857-15.74-1.917-20.568L105.863,6.265,103.012.06,97.873.755h0c-2.276.419-4.444,2.42-5.882,5.894-2.707,6.528-1.857,15.74,1.917,20.568L111.349,49.6c1.677,2.144,3.654,3.055,5.558,2.839h0l5.426-.731Z" transform="translate(-90.409 0.003)" fill="#ea3584"/>
            <path id="Trazado_593520" data-name="Trazado 593520" d="M115.63,48.932,98.189,26.544c-3.773-4.827-4.636-14.027-1.917-20.568h0c2.719-6.528,7.978-7.918,11.751-3.091l17.441,22.388c3.773,4.827,4.636,14.027,1.917,20.568h0C124.674,52.37,119.4,53.76,115.63,48.932Z" transform="translate(-89.563 -0.008)" fill="#fff"/>
          </g>
          <path id="Trazado_593521" data-name="Trazado 593521" d="M122.748,39.544c-2.132,5.2-6.636,5.81-10.074,1.366s-4.5-12.254-2.372-17.453,6.636-5.81,10.074-1.366S124.88,34.345,122.748,39.544Z" transform="translate(-86.691 3.774)" fill="#ea3584" opacity="0.38"/>
        </g>
        <g id="_-6" transform="translate(276 8.422)">
          <path id="Trazado_593522" data-name="Trazado 593522" d="M282.713,26.467h0l-2.671-4.217-9.583,7.607-11.3.5a12.223,12.223,0,0,0-9.212,6.085l-8.589,16.531L227.97,63.613l2.516,3.953a4.133,4.133,0,0,0,.24.383l.024.024h0a3.77,3.77,0,0,0,3.27,1.186l22.832-1.006a12.223,12.223,0,0,0,9.212-6.085l7.978-15.357,9.715-.431s1.294-4.66-.611-7.619l.815,1.282-3.51-5.558,1.988-3.821c.85-1.641.9-3.091.276-4.1Z" transform="translate(-227.511 -20.806)" fill="url(#linear-gradient-27)"/>
          <path id="Trazado_593523" data-name="Trazado 593523" d="M244.66,28.155l-16.375,31.5c-1.665,3.21-.252,5.69,3.174,5.534l22.832-1.006A12.222,12.222,0,0,0,263.5,58.1l7.978-15.357,9.715-.431s2.456-8.84-4.348-9.895l3.031-5.834c1.665-3.21.252-5.69-3.174-5.534l-22.832,1.006a12.223,12.223,0,0,0-9.212,6.085Z" transform="translate(-227.587 -21.044)" fill="#ecedf4"/>
          <g id="Grupo_873802" data-name="Grupo 873802" transform="translate(15.56 6.459)">
            <path id="Trazado_593524" data-name="Trazado 593524" d="M247.66,44.861c2.444-.108,3.462,1.665,2.276,3.965a8.726,8.726,0,0,1-6.588,4.348c-2.444.108-3.462-1.665-2.276-3.965A8.726,8.726,0,0,1,247.66,44.861Z" transform="translate(-240.577 -22.791)" fill="url(#linear-gradient-28)"/>
            <path id="Trazado_593525" data-name="Trazado 593525" d="M252.45,35.651c2.444-.108,3.462,1.665,2.276,3.965a8.726,8.726,0,0,1-6.588,4.348c-2.444.108-3.462-1.665-2.276-3.965A8.726,8.726,0,0,1,252.45,35.651Z" transform="translate(-239.629 -24.614)" fill="url(#linear-gradient-29)"/>
            <path id="Trazado_593526" data-name="Trazado 593526" d="M257.24,26.441c2.444-.108,3.462,1.665,2.276,3.965a8.726,8.726,0,0,1-6.588,4.348c-2.444.108-3.462-1.665-2.276-3.965a8.726,8.726,0,0,1,6.588-4.348Z" transform="translate(-238.681 -26.436)" fill="url(#linear-gradient-30)"/>
          </g>
          <path id="Trazado_593527" data-name="Trazado 593527" d="M264.22,39.231l2.659,4.193,9.715-.431L273.935,38.8Z" transform="translate(-220.338 -17.531)" fill="#8e8e8e"/>
        </g>
        <g id="_-7" transform="translate(173.929 295.008)">
          <path id="Trazado_593528" data-name="Trazado 593528" d="M175.251,250.512l-1.413,2.384a10.778,10.778,0,0,0-2.456-1.09c-.216-.072-.455-.12-.683-.18a3.314,3.314,0,0,0-.12-1.282c-.276-.623-5.379-2.288-6.9-2.635s-8.122,1.078-8.122,1.078l-5.834,6.984,1.246.359c-.359.288-.707.587-1.042.886a13.665,13.665,0,0,0-1.569,1.713l-3.138.335,1.533,5.87h.012c.6,2.024,2.42,3.7,5.4,4.636,6.528,2.024,16.147-.323,21.454-5.223,2.743-2.54,3.785-5.271,3.258-7.595h0l-1.629-6.265Zm-16.243,12.626-4.887-2.9a6.771,6.771,0,0,1,1.258-1.521c2.863-2.647,8.062-3.917,11.6-2.827a4.8,4.8,0,0,1,2.408,1.509l-10.362,5.738Z" transform="translate(-145.191 -246.01)" fill="url(#linear-gradient-31)"/>
          <path id="Trazado_593529" data-name="Trazado 593529" d="M172.285,259.576c-5.295,4.9-14.926,7.247-21.454,5.223s-7.535-7.654-2.228-12.566,14.926-7.247,21.454-5.223,7.535,7.654,2.228,12.566Zm-18.244-5.654c-2.863,2.647-2.324,5.69,1.21,6.792s8.733-.168,11.6-2.827,2.324-5.69-1.21-6.792-8.733.168-11.6,2.827Z" transform="translate(-145.196 -246.281)" fill="#fdfcff"/>
        </g>
        <g id="_-9" transform="translate(172.197 137.089)">
          <path id="Trazado_593534" data-name="Trazado 593534" d="M182.152,119.409l-16.231,17.645-22.161-4.959,16.231-17.645Zm-17.633,12.314,8.577-9.32-11.7-2.623-8.577,9.32Z" transform="translate(-143.748 -114.45)" fill="url(#linear-gradient-32)"/>
          <path id="Trazado_593535" data-name="Trazado 593535" d="M143.75,129.18l1.7,5.5,22.161,4.959-1.7-5.5Z" transform="translate(-143.75 -111.535)" fill="#c2aeff"/>
          <path id="Trazado_593536" data-name="Trazado 593536" d="M178.493,118.59l1.689,5.5-16.231,17.645-1.7-5.5Z" transform="translate(-140.089 -113.631)" fill="#9f84f4"/>
          <path id="Trazado_593537" data-name="Trazado 593537" d="M158.47,118.89l1.7,5.51,6.109,1.366,3.905-4.252Z" transform="translate(-140.837 -113.571)" fill="#c2aeff"/>
          <path id="Trazado_593538" data-name="Trazado 593538" d="M151.31,128.222l8.577-9.332,1.7,5.51-4.672,5.079Z" transform="translate(-142.254 -113.571)" fill="#9f84f4"/>
        </g>
        <g id="_-10" transform="translate(3.806 81.839)">
          <path id="Trazado_593539" data-name="Trazado 593539" d="M45.574,95.128h0l1.509-2.911-4.684-4.2L34,74.872c-1.414-2.216-4.4-3.929-6.672-3.821l-15.956.707L4.942,70.14,3.456,73.015a1.43,1.43,0,0,0-.1.192l-.024.048h0A3.284,3.284,0,0,0,3.9,76.225l11.009,17.25c1.414,2.216,4.4,3.929,6.672,3.821l21.885-.982a2.238,2.238,0,0,0,2.1-1.174Z" transform="translate(-3.176 -67.968)" fill="url(#linear-gradient-33)"/>
          <path id="Trazado_593540" data-name="Trazado 593540" d="M44.807,93.594l-21.885.982a8.539,8.539,0,0,1-6.672-3.821L5.241,73.505c-1.414-2.216-.719-4.085,1.557-4.193l21.885-.982a8.539,8.539,0,0,1,6.672,3.821L46.364,89.4C47.778,91.618,47.083,93.486,44.807,93.594Z" transform="translate(-2.913 -68.327)" fill="#ecedf4"/>
          <g id="Grupo_873804" data-name="Grupo 873804" transform="translate(10.604 3.416)">
            <path id="Trazado_593541" data-name="Trazado 593541" d="M24.74,80.632l-.276-8.625a17.473,17.473,0,0,0-5.75-.815c-6.181.276-8.493,4.732-5.163,9.942s11.033,9.224,17.214,8.936,8.493-4.732,5.163-9.942c-.1-.156-.216-.311-.323-.467l-10.865.97Z" transform="translate(-12.028 -71.179)" fill="url(#linear-gradient-34)"/>
            <path id="Trazado_593542" data-name="Trazado 593542" d="M17.59,73.312a17.163,17.163,0,0,1,5.75.815l.276,8.625,10.865-.97c.108.156.228.311.323.467a7.54,7.54,0,0,1,1.378,5.678c1.665-1.845,1.713-4.684-.287-7.8-.1-.156-.216-.311-.323-.467l-10.865.97-.276-8.625a17.473,17.473,0,0,0-5.75-.815c-3.7.168-6,1.833-6.54,4.252a7.57,7.57,0,0,1,5.45-2.132Z" transform="translate(-12.006 -71.179)" fill="#8e8e8e"/>
          </g>
        </g>
        <path id="Trazado_593543" data-name="Trazado 593543" d="M251.872,325.934c0,5-6.8,9.044-15.2,9.044s-15.2-4.049-15.2-9.044,6.8-9.044,15.2-9.044S251.872,320.939,251.872,325.934Z" transform="translate(43.827 62.699)" fill="#636363" opacity="0.38"/>
        <path id="Trazado_593544" data-name="Trazado 593544" d="M78.582,279.644c0,5-6.8,9.044-15.2,9.044s-15.2-4.049-15.2-9.044,6.8-9.044,15.2-9.044S78.582,274.649,78.582,279.644Z" transform="translate(9.535 53.539)" fill="#c3c0b4"/>
        <g id="_4-2" transform="translate(59.895 263.85)">
          <g id="_3-3">
            <g id="Grupo_873806" data-name="Grupo 873806" transform="translate(14.227 66.242)">
              <path id="Trazado_593545" data-name="Trazado 593545" d="M62.5,277.007s-.311.024-.4.886-.5,1.521.1,1.929a4.714,4.714,0,0,0,2.815.563,6.922,6.922,0,0,0,1.222-.5c.18-.084,4.7-2.384,4.7-2.384s.335-.479.216-.791a1.65,1.65,0,0,0-1.15-.946c-.168-.06-2.5.156-3.126.2a12.956,12.956,0,0,1-2.492-.4L62.514,277Z" transform="translate(-61.875 -275.57)" fill="#226"/>
              <g id="Grupo_873805" data-name="Grupo 873805" transform="translate(0 0.851)">
                <path id="Trazado_593546" data-name="Trazado 593546" d="M61.941,278.664a1.379,1.379,0,0,0,.264.479,4.1,4.1,0,0,0,2.4.611c.563-.024.419-.491,1.006-.743a2.7,2.7,0,0,1,1.354-.108c.2,0,3.57-1.845,3.761-1.988a1.18,1.18,0,0,0,.264-.635,1.009,1.009,0,0,1,.156.3c.132.323-.216.791-.216.791s-4.5,2.3-4.7,2.384a7.376,7.376,0,0,1-1.222.5,4.714,4.714,0,0,1-2.815-.563c-.371-.252-.347-.6-.264-1.03Z" transform="translate(-61.877 -276.28)" fill="#c5c5ff"/>
              </g>
            </g>
            <g id="Grupo_873808" data-name="Grupo 873808" transform="translate(5.782 63.392)">
              <path id="Trazado_593547" data-name="Trazado 593547" d="M55.452,274.628s-.311.024-.4.886-.5,1.521.1,1.929a4.714,4.714,0,0,0,2.815.563,6.924,6.924,0,0,0,1.222-.5c.18-.084,4.7-2.384,4.7-2.384s.335-.479.216-.791a1.65,1.65,0,0,0-1.15-.946c-.168-.06-2.5.156-3.126.2a12.956,12.956,0,0,1-2.492-.4l-1.869,1.425Z" transform="translate(-54.825 -273.19)" fill="#226"/>
              <g id="Grupo_873807" data-name="Grupo 873807" transform="translate(0 0.851)">
                <path id="Trazado_593548" data-name="Trazado 593548" d="M54.891,276.284a1.378,1.378,0,0,0,.264.479,4.1,4.1,0,0,0,2.4.611c.563-.036.419-.491,1.006-.743a2.7,2.7,0,0,1,1.354-.108c.2,0,3.57-1.845,3.761-1.988a1.18,1.18,0,0,0,.264-.635,1.009,1.009,0,0,1,.156.3c.132.323-.216.791-.216.791s-4.5,2.3-4.7,2.384a6.924,6.924,0,0,1-1.222.5,4.714,4.714,0,0,1-2.815-.563c-.371-.252-.347-.6-.264-1.03Z" transform="translate(-54.827 -273.9)" fill="#c5c5ff"/>
              </g>
            </g>
            <path id="Trazado_593549" data-name="Trazado 593549" d="M65.045,247.283l-2.791-1.617a1.138,1.138,0,0,0-.2-.12L62,245.522h0a1.077,1.077,0,0,0-.934.072l-9.739,5.594a2.656,2.656,0,0,0-1.33,2.3v8.541a1.071,1.071,0,0,0,.443.874h0l.048.036s1.15.8,1.186.827l1.833.946,2.959-4.468,4.9-2.779a2.658,2.658,0,0,0,1.342-2.312V250.8l2.336-3.534Z" transform="translate(-50 -215.288)" fill="#3333a0"/>
            <path id="Trazado_593550" data-name="Trazado 593550" d="M54.073,264.42l9.727-5.51a2.658,2.658,0,0,0,1.342-2.312v-8.625a1.1,1.1,0,0,0-1.653-.958l-9.739,5.594a2.656,2.656,0,0,0-1.33,2.3v8.541a1.1,1.1,0,0,0,1.641.958Z" transform="translate(-49.521 -215.007)" fill="#867ce2"/>
            <path id="Trazado_593551" data-name="Trazado 593551" d="M54.346,249.712s-.084,10.961,0,13.045c.084,2.132.587,7.367.563,11.044s-.06,4.983.659,5.5,3.953-.06,4.36-.683.12-9.188.347-10.829,1.294-8.11,1.294-8.11l-.467-7.654L54.346,249.7Z" transform="translate(-49.147 -214.447)" fill="#2f2f91"/>
            <path id="Trazado_593552" data-name="Trazado 593552" d="M67.216,252.165s1.581,12.194,1.473,15.021-.827,12.59-1.054,13.38-.467,1.306-1.521,1.473a5.928,5.928,0,0,1-2.647,0,1.326,1.326,0,0,1-.994-1.533c.12-.743.886-10.661.647-12.242s-3.234-8.445-3.642-11a48.128,48.128,0,0,1-.467-5.618l8.217.515Z" transform="translate(-48.217 -214.061)" fill="#5151b7"/>
            <path id="Trazado_593553" data-name="Trazado 593553" d="M66.9,257.015a3.457,3.457,0,0,1-1.9-1.15,17.42,17.42,0,0,1-1.318-2.611l2.611-1.174.611,4.947Z" transform="translate(-47.293 -213.976)" fill="#2f2f91"/>
            <path id="Trazado_593554" data-name="Trazado 593554" d="M55.212,230.79s-3.546,7.415-4.133,9-.527,2.24,0,3.043,3.642,5.51,3.642,5.51l3.582-4.444.934-7.283-1.7-4.72-2.324-1.1Z" transform="translate(-49.869 -218.189)" fill="#9a95ef"/>
            <path id="Trazado_593555" data-name="Trazado 593555" d="M71.56,241.911s-.862-3.737-1.641-5.858-1.366-2.575-2.192-3.138-1.8-1.354-1.8-1.354l-7.774-1.821S55.3,229.9,54.67,231c-.994,1.761-1.581,20.675-1.1,22.041s2.731,3.282,6.72,4.312,7.99.455,8.864-.168,1.054-7.367.587-10.6a4.689,4.689,0,0,1,1.821-4.672Z" transform="translate(-49.328 -218.397)" fill="#3232cc"/>
            <path id="Trazado_593556" data-name="Trazado 593556" d="M63.942,231.961a10.522,10.522,0,0,1-.383-2.228,15.189,15.189,0,0,1,.3-3.282l-4.612-.671a5.072,5.072,0,0,1-.946,5.355,15.989,15.989,0,0,0,3.091,1.737c.635.06,2.084,0,2.084,0l.479-.9Z" transform="translate(-48.358 -219.18)" fill="#f4b489"/>
            <path id="Trazado_593557" data-name="Trazado 593557" d="M65.013,223.371a5.424,5.424,0,0,1,1.018,3.462c-.144,2.048-.946,3.426-1.557,3.546a4.4,4.4,0,0,1-3.138-1.1c-.815-.85-1.665-4.2-1.665-4.2L63.9,221.43l1.126,1.941Z" transform="translate(-48.086 -220.041)" fill="#fcbf9d"/>
            <path id="Trazado_593558" data-name="Trazado 593558" d="M64.621,220.963c.779.5,1.665,1.354,1.629,2.24a3.293,3.293,0,0,1-.922,1.773,4.4,4.4,0,0,0-1.725-1.533c-.85-.359-.946.407-.946.407l-1.917-2.432s2.2-1.521,3.881-.455Z" transform="translate(-47.875 -220.209)" fill="#3232cc"/>
            <path id="Trazado_593559" data-name="Trazado 593559" d="M63.084,221.384l.982-.491a6.233,6.233,0,0,0-3.282-.563,2.588,2.588,0,0,0-2.012,1.569,3.8,3.8,0,0,0-1.39,2.516,3.526,3.526,0,0,0,1.449,3.354c.982.635,1.138,1.006,2.587.635a2.734,2.734,0,0,0,1.917-2.647c-.18-1.006.515-.575,1.018-1.366a2.3,2.3,0,0,0,0-2.528,1.217,1.217,0,0,0-1.258-.491Z" transform="translate(-48.542 -220.27)" fill="#4a4af4"/>
            <path id="Trazado_593560" data-name="Trazado 593560" d="M65.554,231.781a9.582,9.582,0,0,0-1.042-1.1.625.625,0,0,0-.623-.132,4.226,4.226,0,0,1-2.12.18,3.5,3.5,0,0,1-2.492-1.449c-.443-.743-2,.132-1.917.623a3.692,3.692,0,0,0,2.408,2.348,8.1,8.1,0,0,0,4.456.407,10.47,10.47,0,0,0,1.126-.252.379.379,0,0,0,.2-.611Z" transform="translate(-48.544 -218.545)" fill="#867ce2"/>
            <path id="Trazado_593561" data-name="Trazado 593561" d="M74.116,238.133l1.018-1.641s1.03.12,1.354-.431.839-1.354.623-2.012a2.647,2.647,0,0,0-.97-1.162,16.031,16.031,0,0,0,1.018-2.623.318.318,0,0,0-.539-.168c-.18.144-1.437,2.228-1.437,2.228s-.743.252-1.222,1.557a7.162,7.162,0,0,0-.467,1.485l-.683,1.054,1.294,1.713Z" transform="translate(-45.486 -218.344)" fill="#fcbf9d"/>
            <path id="Trazado_593562" data-name="Trazado 593562" d="M74.119,238.444l.623-.97-1.8-2.384L72.19,236.4Z" transform="translate(-45.609 -217.338)" fill="#4b4baa"/>
            <path id="Trazado_593563" data-name="Trazado 593563" d="M75.94,238.589a.728.728,0,0,1,.036.791c-1.006,1.713-4.923,8.241-6.4,8.589-1.042.24-3.342-3.007-4.576-6.241s-1.881-5.271-1.473-6.8,1.749-2.947,2.659-2.264,1.917,1.809,2.743,5.379l.827,3.57s3.055-4.193,3.582-4.875a2.762,2.762,0,0,1,.4-.419.435.435,0,0,1,.635.084l1.569,2.18Z" transform="translate(-47.347 -217.854)" fill="#9a95ef"/>
            <path id="Trazado_593564" data-name="Trazado 593564" d="M74.613,237.551l.228-.335a.4.4,0,0,0-.012-.455l-1.461-1.977a.209.209,0,0,0-.359.036l-.168.359,1.8,2.384Z" transform="translate(-45.48 -217.416)" fill="#f5e6ff"/>
            <path id="Trazado_593565" data-name="Trazado 593565" d="M61.666,230.583a.96.96,0,0,1-.216-.048,4.567,4.567,0,0,0,1.641-.24.625.625,0,0,1,.623.132,10.693,10.693,0,0,1,1.042,1.1.381.381,0,0,1-.1.563,8.543,8.543,0,0,0-2.995-1.521Z" transform="translate(-47.734 -218.293)" fill="#ffe9f4"/>
          </g>
        </g>
        <g id="_2" transform="translate(264.469 319.863)">
          <g id="_-11">
            <g id="Grupo_873810" data-name="Grupo 873810" transform="translate(7.785 66.242)">
              <path id="Trazado_593566" data-name="Trazado 593566" d="M235.544,323.767s.3.024.383.886.479,1.521-.084,1.929a4.33,4.33,0,0,1-2.683.563,7.183,7.183,0,0,1-1.174-.5c-.18-.084-4.468-2.384-4.468-2.384s-.323-.479-.2-.791a1.561,1.561,0,0,1,1.1-.946c.156-.06,2.384.156,2.983.2a11.865,11.865,0,0,0,2.372-.4l1.785,1.425Z" transform="translate(-227.276 -322.33)" fill="#226"/>
              <g id="Grupo_873809" data-name="Grupo 873809" transform="translate(0 0.851)">
                <path id="Trazado_593567" data-name="Trazado 593567" d="M236.085,325.424a1.549,1.549,0,0,1-.252.479,3.787,3.787,0,0,1-2.288.611c-.527-.024-.4-.491-.958-.743a2.427,2.427,0,0,0-1.282-.108c-.192,0-3.4-1.845-3.594-1.988s-.252-.611-.252-.635a1.4,1.4,0,0,0-.156.3c-.12.323.2.791.2.791s4.288,2.3,4.468,2.384a6.714,6.714,0,0,0,1.174.5,4.314,4.314,0,0,0,2.683-.563c.347-.252.335-.6.252-1.03Z" transform="translate(-227.278 -323.04)" fill="#c5c5ff"/>
              </g>
            </g>
            <g id="Grupo_873812" data-name="Grupo 873812" transform="translate(15.823 63.391)">
              <path id="Trazado_593568" data-name="Trazado 593568" d="M242.254,321.387s.3.024.383.886.479,1.521-.084,1.929a4.33,4.33,0,0,1-2.683.563,7.185,7.185,0,0,1-1.174-.5c-.18-.084-4.468-2.384-4.468-2.384s-.323-.479-.2-.791a1.561,1.561,0,0,1,1.1-.946c.156-.06,2.384.156,2.983.2a11.864,11.864,0,0,0,2.372-.4l1.785,1.425Z" transform="translate(-233.986 -319.95)" fill="#226"/>
              <g id="Grupo_873811" data-name="Grupo 873811" transform="translate(0 0.851)">
                <path id="Trazado_593569" data-name="Trazado 593569" d="M242.795,323.044a1.547,1.547,0,0,1-.252.479,3.787,3.787,0,0,1-2.288.611c-.527-.024-.4-.491-.958-.743a2.427,2.427,0,0,0-1.282-.108c-.192,0-3.4-1.845-3.594-1.988s-.252-.611-.252-.635a1.4,1.4,0,0,0-.156.3c-.12.323.2.791.2.791s4.288,2.3,4.468,2.384a6.715,6.715,0,0,0,1.174.5,4.314,4.314,0,0,0,2.683-.563c.347-.252.335-.6.252-1.03Z" transform="translate(-233.988 -320.66)" fill="#c5c5ff"/>
              </g>
            </g>
            <path id="Trazado_593570" data-name="Trazado 593570" d="M234.02,294.043l2.659-1.617a1.676,1.676,0,0,1,.192-.12l.048-.024h0a1,1,0,0,1,.9.072l9.284,5.594a2.678,2.678,0,0,1,1.27,2.3v8.541a1.094,1.094,0,0,1-.431.874h0l-.048.036s-1.1.8-1.126.827l-1.749.946L242.2,307l-4.672-2.779a2.68,2.68,0,0,1-1.282-2.312v-4.348l-2.228-3.534Z" transform="translate(-218.158 -262.048)" fill="#3333a0"/>
            <path id="Trazado_593571" data-name="Trazado 593571" d="M244.113,311.18l-9.272-5.51a2.68,2.68,0,0,1-1.282-2.312v-8.625a1.05,1.05,0,0,1,1.569-.958l9.284,5.594a2.678,2.678,0,0,1,1.27,2.3v8.541a1.052,1.052,0,0,1-1.569.958Z" transform="translate(-218.249 -261.767)" fill="#867ce2"/>
            <path id="Trazado_593572" data-name="Trazado 593572" d="M243,296.472s.072,10.961,0,13.045c-.072,2.132-.563,7.367-.527,11.044s.048,4.983-.635,5.5-3.761-.06-4.157-.683-.108-9.188-.335-10.829-1.234-8.11-1.234-8.11l.443-7.654,6.433-2.324Z" transform="translate(-217.745 -261.207)" fill="#2f2f91"/>
            <path id="Trazado_593573" data-name="Trazado 593573" d="M231.1,298.925s-1.509,12.194-1.4,15.021.779,12.59,1.006,13.38.443,1.306,1.449,1.473a5.358,5.358,0,0,0,2.516,0,1.324,1.324,0,0,0,.946-1.533c-.108-.743-.839-10.661-.611-12.242s3.079-8.445,3.474-11a48.356,48.356,0,0,0,.443-5.618l-7.834.515Z" transform="translate(-219.014 -260.821)" fill="#5151b7"/>
            <path id="Trazado_593574" data-name="Trazado 593574" d="M230.39,303.785a3.281,3.281,0,0,0,1.821-1.15,18.657,18.657,0,0,0,1.258-2.611l-2.492-1.174L230.4,303.8Z" transform="translate(-218.877 -260.734)" fill="#2f2f91"/>
            <path id="Trazado_593575" data-name="Trazado 593575" d="M242.375,277.55s3.378,7.415,3.941,9,.5,2.24,0,3.043-3.474,5.51-3.474,5.51l-3.414-4.444-.9-7.283,1.617-4.72,2.216-1.1Z" transform="translate(-217.266 -264.949)" fill="#9a95ef"/>
            <path id="Trazado_593576" data-name="Trazado 593576" d="M228.3,288.671s.827-3.737,1.569-5.858,1.306-2.575,2.084-3.138,1.713-1.354,1.713-1.354l7.4-1.821s2.719.156,3.318,1.258c.946,1.761,1.5,20.676,1.054,22.041s-2.6,3.294-6.409,4.312-7.607.455-8.457-.168-1.006-7.367-.563-10.6a4.775,4.775,0,0,0-1.737-4.672Z" transform="translate(-219.294 -265.157)" fill="#3232cc"/>
            <path id="Trazado_593577" data-name="Trazado 593577" d="M233.592,278.721a11.08,11.08,0,0,0,.371-2.228,15.515,15.515,0,0,0-.288-3.282l4.4-.671a5.25,5.25,0,0,0,.9,5.355,15.272,15.272,0,0,1-2.947,1.737c-.6.06-1.988,0-1.988,0l-.455-.9Z" transform="translate(-218.245 -265.94)" fill="#f4b489"/>
            <path id="Trazado_593578" data-name="Trazado 593578" d="M232.682,270.131a5.553,5.553,0,0,0-.97,3.462c.132,2.048.9,3.426,1.485,3.546a4.048,4.048,0,0,0,2.983-1.1c.779-.85,1.593-4.2,1.593-4.2l-4.025-3.642-1.066,1.941Z" transform="translate(-218.617 -266.801)" fill="#fcbf9d"/>
            <path id="Trazado_593579" data-name="Trazado 593579" d="M232.927,267.723a3.081,3.081,0,0,0-1.557,2.24,3.358,3.358,0,0,0,.874,1.773A4.238,4.238,0,0,1,233.9,270.2c.815-.359.9.407.9.407l1.821-2.432S234.509,266.657,232.927,267.723Z" transform="translate(-218.683 -266.969)" fill="#3232cc"/>
            <path id="Trazado_593580" data-name="Trazado 593580" d="M234.679,268.144l-.934-.491a5.7,5.7,0,0,1,3.126-.563,2.528,2.528,0,0,1,1.917,1.569,3.807,3.807,0,0,1,1.318,2.516,3.615,3.615,0,0,1-1.378,3.354c-.934.635-1.078,1.006-2.468.635a2.708,2.708,0,0,1-1.821-2.647c.18-1.006-.491-.575-.97-1.366a2.4,2.4,0,0,1,0-2.527,1.127,1.127,0,0,1,1.2-.491Z" transform="translate(-218.338 -267.03)" fill="#4a4af4"/>
            <path id="Trazado_593581" data-name="Trazado 593581" d="M232.472,278.541a9.716,9.716,0,0,1,.994-1.1.562.562,0,0,1,.587-.132,3.855,3.855,0,0,0,2.024.18,3.3,3.3,0,0,0,2.372-1.449c.431-.743,1.9.132,1.821.623a3.6,3.6,0,0,1-2.288,2.348,7.353,7.353,0,0,1-4.241.407,8.415,8.415,0,0,1-1.066-.252.386.386,0,0,1-.192-.611Z" transform="translate(-218.479 -265.305)" fill="#9a95ef"/>
            <path id="Trazado_593582" data-name="Trazado 593582" d="M223.691,284.893l-.97-1.641s-.982.12-1.294-.431-.8-1.354-.6-2.012a2.681,2.681,0,0,1,.922-1.162,17.463,17.463,0,0,1-.97-2.623.3.3,0,0,1,.515-.168c.168.144,1.366,2.228,1.366,2.228s.707.252,1.162,1.557a7.383,7.383,0,0,1,.443,1.485l.647,1.054-1.234,1.713Z" transform="translate(-220.779 -265.104)" fill="#fcbf9d"/>
            <path id="Trazado_593583" data-name="Trazado 593583" d="M223.4,285.216l-.587-.982,1.713-2.384.731,1.306Z" transform="translate(-220.377 -264.098)" fill="#4b4baa"/>
            <path id="Trazado_593584" data-name="Trazado 593584" d="M223.262,285.349a.753.753,0,0,0-.036.791c.958,1.713,4.684,8.241,6.1,8.589.994.24,3.186-3.007,4.36-6.241s1.8-5.271,1.4-6.8-1.677-2.947-2.539-2.264-1.833,1.809-2.611,5.378l-.779,3.57s-2.911-4.193-3.414-4.875a2.815,2.815,0,0,0-.371-.419.419.419,0,0,0-.611.084l-1.5,2.18Z" transform="translate(-220.313 -264.614)" fill="#9a95ef"/>
            <path id="Trazado_593585" data-name="Trazado 593585" d="M222.856,284.311l-.216-.335a.418.418,0,0,1,.012-.455l1.4-1.977a.2.2,0,0,1,.347.036l.168.359-1.713,2.384Z" transform="translate(-220.422 -264.176)" fill="#f5e6ff"/>
            <path id="Trazado_593586" data-name="Trazado 593586" d="M235.409,277.343a1.388,1.388,0,0,0,.216-.048,4.229,4.229,0,0,1-1.569-.24.562.562,0,0,0-.587.132,10.878,10.878,0,0,0-.994,1.1.389.389,0,0,0,.084.563,7.982,7.982,0,0,1,2.851-1.521Z" transform="translate(-218.481 -265.053)" fill="#ffe9f4"/>
          </g>
        </g>
        <g id="Grupo_873813" data-name="Grupo 873813" transform="translate(137.97 315.905)" opacity="0.75">
          <path id="Trazado_593587" data-name="Trazado 593587" d="M130.753,277.159A14.092,14.092,0,0,1,124,278.932a11.8,11.8,0,0,1-6.3-1.725c-2.048-1.27-2.851-2.755-2.4-4.48s2.084-3.45,4.911-5.211l1.15-.707a20.979,20.979,0,0,1,5.618-2.468,15.775,15.775,0,0,1,5.546-.563,10.72,10.72,0,0,1,4.7,1.461c1.893,1.138,2.827,2.408,2.8,3.833s-1.018,2.851-2.983,4.264l-3.366-2.036c1.15-.8,1.749-1.533,1.8-2.18s-.443-1.282-1.473-1.9a5.618,5.618,0,0,0-3.905-.647,14.964,14.964,0,0,0-5.187,2.156l-1.425.886c-2.036,1.258-3.27,2.336-3.678,3.234s-.06,1.7,1.078,2.4a5.562,5.562,0,0,0,3.114.9,7.718,7.718,0,0,0,3.426-1.042l3.342,2.048Z" transform="translate(-115.177 -263.726)"/>
          <path id="Trazado_593588" data-name="Trazado 593588" d="M142.395,270.145a4.032,4.032,0,0,1,1.917-.575,3.44,3.44,0,0,1,1.9.467q.845.5.791,1.15a1.647,1.647,0,0,1-.922,1.174,3.87,3.87,0,0,1-1.941.575,3.351,3.351,0,0,1-1.893-.467c-.551-.335-.815-.719-.779-1.138a1.626,1.626,0,0,1,.922-1.174ZM127.924,283.2l-3.234-2,14.195-8.685,3.294,1.988-14.255,8.7Z" transform="translate(-113.294 -262.57)"/>
          <path id="Trazado_593589" data-name="Trazado 593589" d="M134.489,287.1c-1.8-1.1-2.611-2.4-2.456-3.869s1.306-2.851,3.438-4.157l.371-.228a16.491,16.491,0,0,1,4.576-1.917,13.348,13.348,0,0,1,4.672-.359,9.329,9.329,0,0,1,3.953,1.27c1.7,1.03,2.42,2.216,2.156,3.57s-1.557,2.719-3.845,4.109l-1.581.958-7.87-4.815a2.779,2.779,0,0,0-1.294,1.953,1.993,1.993,0,0,0,1.174,1.761,6.921,6.921,0,0,0,4.576.85l-.491,2.276a11.948,11.948,0,0,1-3.917-.084,10.153,10.153,0,0,1-3.474-1.306Zm11.428-7.379a4,4,0,0,0-2.372-.5,8.532,8.532,0,0,0-2.995.874l4.588,2.8.311-.192c.839-.527,1.306-1.054,1.39-1.569S146.611,280.141,145.917,279.722Z" transform="translate(-111.845 -261.198)"/>
          <path id="Trazado_593590" data-name="Trazado 593590" d="M158.01,287.985a9.383,9.383,0,0,0-1.1-.8,5,5,0,0,0-4-.623l-9.5,5.714-3.318-2.048,14.494-8.745,3.174,1.917-1.653,1.1a6.681,6.681,0,0,1,4.827.491,3.238,3.238,0,0,1,.874.743L158,287.961Z" transform="translate(-110.247 -260.213)"/>
          <path id="Trazado_593591" data-name="Trazado 593591" d="M165.374,292.454a9.7,9.7,0,0,0-1.126-.815A5.113,5.113,0,0,0,160.2,291l-9.6,5.726-3.354-2.072,14.626-8.769,3.222,1.941-1.665,1.114a6.774,6.774,0,0,1,4.887.515,2.969,2.969,0,0,1,.886.755l-3.857,2.24Z" transform="translate(-108.83 -259.34)"/>
          <path id="Trazado_593592" data-name="Trazado 593592" d="M159.438,302.511c-1.869-1.15-2.731-2.492-2.575-4s1.33-2.923,3.534-4.229l.383-.228a16.58,16.58,0,0,1,4.732-1.917,13.959,13.959,0,0,1,4.839-.323,10.028,10.028,0,0,1,4.109,1.342c1.785,1.078,2.54,2.3,2.264,3.689s-1.593,2.779-3.953,4.181l-1.629.958-8.206-5.019a2.765,2.765,0,0,0-1.318,1.988,2.114,2.114,0,0,0,1.234,1.821,7.4,7.4,0,0,0,4.768.922l-.491,2.336a12.481,12.481,0,0,1-4.061-.12,10.671,10.671,0,0,1-3.618-1.378Zm11.8-7.463a4.125,4.125,0,0,0-2.468-.539,8.749,8.749,0,0,0-3.1.862l4.792,2.923.323-.192c.874-.539,1.354-1.066,1.437-1.593s-.24-1.018-.97-1.461Z" transform="translate(-106.931 -258.185)"/>
        </g>
      </g>
    </g>
    <path id="Trazado_593620" data-name="Trazado 593620" d="M27,0H196c14.912,0,27,12.89,27,28.79a30.576,30.576,0,0,1-2.9,13A26.774,26.774,0,0,1,196,57.58H27c-14.912,0-27-12.89-27-28.79S12.088,0,27,0Z" transform="translate(285 9860.21)" fill="#ebe3f9"/>
    <path id="Trazado_593625" data-name="Trazado 593625" d="M27,0H196a27,27,0,0,1,0,54H27A27,27,0,0,1,27,0Z" transform="translate(1315 9854) rotate(180)" fill="#ecedf4"/>
    <path id="Trazado_593626" data-name="Trazado 593626" d="M29.5,0h164a29.5,29.5,0,0,1,0,59H29.5a29.5,29.5,0,0,1,0-59Z" transform="translate(1243 9962) rotate(180)" fill="#ffe0f0"/>
    <path id="Trazado_593627" data-name="Trazado 593627" d="M17.519,10.272a7.415,7.415,0,0,1-.614,3.117,4.644,4.644,0,0,1-1.756,2.059,4.829,4.829,0,0,1-2.627.718A4.84,4.84,0,0,1,9.9,15.448,4.716,4.716,0,0,1,8.126,13.4a7.183,7.183,0,0,1-.635-3.063V9.658a7.351,7.351,0,0,1,.627-3.121A4.71,4.71,0,0,1,9.886,4.466a4.814,4.814,0,0,1,2.619-.718,4.856,4.856,0,0,1,2.619.71A4.65,4.65,0,0,1,16.888,6.5a7.336,7.336,0,0,1,.631,3.1Zm-2.1-.631a5.283,5.283,0,0,0-.76-3.08,2.485,2.485,0,0,0-2.154-1.071,2.477,2.477,0,0,0-2.129,1.067,5.181,5.181,0,0,0-.784,3.017v.7a5.243,5.243,0,0,0,.776,3.08,2.5,2.5,0,0,0,2.154,1.087,2.47,2.47,0,0,0,2.146-1.062,5.356,5.356,0,0,0,.751-3.1ZM27.3,11.6a5.4,5.4,0,0,1-.934,3.329,3.042,3.042,0,0,1-2.569,1.237,2.93,2.93,0,0,1-2.457-1.137l-.1.971H19.411V3.25h2.017V7.882a2.92,2.92,0,0,1,2.349-1.029,3.077,3.077,0,0,1,2.582,1.22,5.484,5.484,0,0,1,.938,3.412Zm-2.017-.174a3.813,3.813,0,0,0-.515-2.191,1.714,1.714,0,0,0-1.494-.73A1.873,1.873,0,0,0,21.428,9.65v3.7a1.892,1.892,0,0,0,1.859,1.17,1.7,1.7,0,0,0,1.461-.706,3.7,3.7,0,0,0,.531-2.133Zm6.234-6.591V7.019H33.1V8.513H31.514v5.014a1.1,1.1,0,0,0,.2.743.943.943,0,0,0,.726.228,3.107,3.107,0,0,0,.706-.083v1.561a4.968,4.968,0,0,1-1.328.191q-2.324,0-2.324-2.565V8.513H28.019V7.019H29.5V4.835Zm7.081,11.331a4.173,4.173,0,0,1-3.109-1.208,4.381,4.381,0,0,1-1.191-3.217v-.249a5.389,5.389,0,0,1,.519-2.4A3.949,3.949,0,0,1,36.27,7.442a3.851,3.851,0,0,1,2.092-.589A3.525,3.525,0,0,1,41.2,8.023a4.949,4.949,0,0,1,1,3.312v.813H36.328a2.7,2.7,0,0,0,.743,1.76,2.23,2.23,0,0,0,1.639.647,2.731,2.731,0,0,0,2.258-1.121l1.087,1.038a3.631,3.631,0,0,1-1.44,1.249A4.509,4.509,0,0,1,38.594,16.166Zm-.241-7.695a1.7,1.7,0,0,0-1.341.581,3.012,3.012,0,0,0-.652,1.619H40.2v-.149a2.452,2.452,0,0,0-.54-1.531A1.686,1.686,0,0,0,38.354,8.471Zm7.28-1.453.058,1.038a3.229,3.229,0,0,1,2.615-1.2q2.806,0,2.855,3.212V16H49.145V10.181a1.85,1.85,0,0,0-.369-1.266A1.554,1.554,0,0,0,47.568,8.5a1.944,1.944,0,0,0-1.818,1.1V16H43.733V7.019Zm11.538,9.147a4.173,4.173,0,0,1-3.109-1.208,4.381,4.381,0,0,1-1.191-3.217v-.249a5.389,5.389,0,0,1,.519-2.4,3.949,3.949,0,0,1,1.457-1.648,3.851,3.851,0,0,1,2.092-.589,3.525,3.525,0,0,1,2.835,1.17,4.949,4.949,0,0,1,1,3.312v.813H54.906a2.7,2.7,0,0,0,.743,1.76,2.23,2.23,0,0,0,1.639.647,2.731,2.731,0,0,0,2.258-1.121l1.087,1.038a3.631,3.631,0,0,1-1.44,1.249A4.509,4.509,0,0,1,57.172,16.166Zm-.241-7.695a1.7,1.7,0,0,0-1.341.581,3.012,3.012,0,0,0-.652,1.619h3.843v-.149a2.452,2.452,0,0,0-.54-1.531A1.686,1.686,0,0,0,56.931,8.471Zm10.11.39a4.991,4.991,0,0,0-.822-.066,1.85,1.85,0,0,0-1.868,1.063V16H62.335V7.019H64.26l.05,1a2.273,2.273,0,0,1,2.025-1.17,1.888,1.888,0,0,1,.714.116ZM74.695,16H72.677V7.019h2.017ZM72.553,4.678a1.083,1.083,0,0,1,.295-.778,1.108,1.108,0,0,1,.843-.31,1.122,1.122,0,0,1,.847.31,1.075,1.075,0,0,1,.3.778,1.05,1.05,0,0,1-.3.765,1.131,1.131,0,0,1-.847.305,1.117,1.117,0,0,1-.843-.305A1.058,1.058,0,0,1,72.553,4.678Zm6.209,2.341.058,1.038a3.229,3.229,0,0,1,2.615-1.2q2.806,0,2.855,3.212V16H82.273V10.181A1.85,1.85,0,0,0,81.9,8.915,1.554,1.554,0,0,0,80.7,8.5a1.944,1.944,0,0,0-1.818,1.1V16H76.861V7.019ZM87.054,16V8.513h-1.37V7.019h1.37V6.2a3.085,3.085,0,0,1,.83-2.308,3.18,3.18,0,0,1,2.324-.813,4.662,4.662,0,0,1,1.129.149L91.288,4.8a3.973,3.973,0,0,0-.772-.066,1.3,1.3,0,0,0-1.444,1.486v.8H90.9V8.513H89.072V16Zm4.939-4.574a5.3,5.3,0,0,1,.523-2.378,3.819,3.819,0,0,1,1.469-1.627,4.14,4.14,0,0,1,2.175-.569,3.923,3.923,0,0,1,2.951,1.17,4.6,4.6,0,0,1,1.224,3.1l.008.473a5.343,5.343,0,0,1-.51,2.374,3.773,3.773,0,0,1-1.461,1.619,4.17,4.17,0,0,1-2.2.573A3.9,3.9,0,0,1,93.135,14.9a4.848,4.848,0,0,1-1.141-3.374Zm2.017.174a3.619,3.619,0,0,0,.573,2.171,1.862,1.862,0,0,0,1.594.784,1.842,1.842,0,0,0,1.59-.8,4,4,0,0,0,.569-2.333,3.572,3.572,0,0,0-.585-2.158,1.973,1.973,0,0,0-3.158-.012A3.922,3.922,0,0,0,94.01,11.6Zm12.742-2.739a4.991,4.991,0,0,0-.822-.066,1.85,1.85,0,0,0-1.868,1.063V16h-2.017V7.019h1.926l.05,1a2.273,2.273,0,0,1,2.025-1.17,1.888,1.888,0,0,1,.714.116Zm3.171-1.843.058.938a3.232,3.232,0,0,1,2.59-1.1,2.483,2.483,0,0,1,2.465,1.378,3.186,3.186,0,0,1,2.756-1.378A2.8,2.8,0,0,1,120,7.674a3.618,3.618,0,0,1,.743,2.424V16H118.73V10.156a1.786,1.786,0,0,0-.374-1.253,1.635,1.635,0,0,0-1.237-.4A1.679,1.679,0,0,0,116,8.874a1.948,1.948,0,0,0-.61.967L115.393,16h-2.017V10.09A1.439,1.439,0,0,0,111.758,8.5a1.776,1.776,0,0,0-1.718.988V16h-2.017V7.019ZM128.185,16a3.113,3.113,0,0,1-.232-.838,3.393,3.393,0,0,1-4.565.232,2.47,2.47,0,0,1-.855-1.909,2.55,2.55,0,0,1,1.067-2.2,5.169,5.169,0,0,1,3.051-.768h1.237V9.924a1.573,1.573,0,0,0-.39-1.116,1.547,1.547,0,0,0-1.187-.419,1.777,1.777,0,0,0-1.129.344,1.066,1.066,0,0,0-.44.876h-2.017a2.239,2.239,0,0,1,.49-1.382,3.263,3.263,0,0,1,1.332-1.009,4.68,4.68,0,0,1,1.88-.365,3.769,3.769,0,0,1,2.515.793,2.827,2.827,0,0,1,.963,2.229v4.051a4.591,4.591,0,0,0,.34,1.934V16Zm-2.216-1.453a2.294,2.294,0,0,0,1.125-.291,1.941,1.941,0,0,0,.793-.78V11.783H126.8a2.973,2.973,0,0,0-1.685.39,1.264,1.264,0,0,0-.564,1.1,1.179,1.179,0,0,0,.386.926A1.5,1.5,0,0,0,125.969,14.547Zm9.737.008a1.824,1.824,0,0,0,1.253-.44,1.5,1.5,0,0,0,.531-1.087h1.9a2.963,2.963,0,0,1-.523,1.565,3.43,3.43,0,0,1-1.328,1.15,3.958,3.958,0,0,1-1.81.423,3.829,3.829,0,0,1-2.988-1.22,4.84,4.84,0,0,1-1.1-3.37v-.208a4.759,4.759,0,0,1,1.1-3.283,3.8,3.8,0,0,1,2.988-1.233,3.69,3.69,0,0,1,2.611.934,3.345,3.345,0,0,1,1.058,2.453h-1.9a1.847,1.847,0,0,0-.527-1.27,1.7,1.7,0,0,0-1.258-.5,1.775,1.775,0,0,0-1.511.71,3.621,3.621,0,0,0-.54,2.154v.324a3.682,3.682,0,0,0,.527,2.179A1.773,1.773,0,0,0,135.705,14.556ZM143.06,16h-2.017V7.019h2.017ZM140.918,4.678a1.083,1.083,0,0,1,.295-.778,1.108,1.108,0,0,1,.843-.31,1.122,1.122,0,0,1,.847.31,1.075,1.075,0,0,1,.3.778,1.05,1.05,0,0,1-.3.765,1.131,1.131,0,0,1-.847.305,1.117,1.117,0,0,1-.843-.305A1.058,1.058,0,0,1,140.918,4.678Zm3.959,6.749a5.3,5.3,0,0,1,.523-2.378,3.819,3.819,0,0,1,1.469-1.627,4.14,4.14,0,0,1,2.175-.569A3.923,3.923,0,0,1,152,8.023a4.6,4.6,0,0,1,1.224,3.1l.008.473a5.343,5.343,0,0,1-.51,2.374,3.773,3.773,0,0,1-1.461,1.619,4.17,4.17,0,0,1-2.2.573,3.9,3.9,0,0,1-3.042-1.266,4.848,4.848,0,0,1-1.141-3.374Zm2.017.174a3.619,3.619,0,0,0,.573,2.171,1.862,1.862,0,0,0,1.594.784,1.842,1.842,0,0,0,1.59-.8,4,4,0,0,0,.569-2.333,3.572,3.572,0,0,0-.585-2.158,1.973,1.973,0,0,0-3.158-.012A3.922,3.922,0,0,0,146.895,11.6ZM149.6,3.25h2.3l-2.3,2.515-1.619,0Zm7.205,3.769.058,1.038a3.229,3.229,0,0,1,2.615-1.2q2.806,0,2.855,3.212V16h-2.017V10.181a1.85,1.85,0,0,0-.369-1.266A1.554,1.554,0,0,0,158.74,8.5a1.944,1.944,0,0,0-1.818,1.1V16h-2.017V7.019ZM46.542,31.443a5.34,5.34,0,0,1,.963-3.333,3.085,3.085,0,0,1,2.582-1.258,2.931,2.931,0,0,1,2.308,1v-4.6h2.017V36H52.585l-.1-.93a2.973,2.973,0,0,1-2.416,1.1,3.068,3.068,0,0,1-2.552-1.27A5.535,5.535,0,0,1,46.542,31.443Zm2.017.174a3.739,3.739,0,0,0,.527,2.137,1.71,1.71,0,0,0,1.5.768,1.9,1.9,0,0,0,1.81-1.1V29.583A1.876,1.876,0,0,0,50.6,28.5a1.723,1.723,0,0,0-1.511.776A4.163,4.163,0,0,0,48.56,31.617Zm11.912,4.549a4.173,4.173,0,0,1-3.109-1.208,4.381,4.381,0,0,1-1.191-3.217v-.249a5.389,5.389,0,0,1,.519-2.4,3.949,3.949,0,0,1,1.457-1.648,3.851,3.851,0,0,1,2.092-.589,3.525,3.525,0,0,1,2.835,1.17,4.949,4.949,0,0,1,1,3.312v.813H58.205a2.7,2.7,0,0,0,.743,1.76,2.23,2.23,0,0,0,1.639.647,2.731,2.731,0,0,0,2.258-1.121l1.087,1.038a3.631,3.631,0,0,1-1.44,1.249A4.509,4.509,0,0,1,60.471,36.166Zm-.241-7.695a1.7,1.7,0,0,0-1.341.581,3.012,3.012,0,0,0-.652,1.619h3.843v-.149a2.452,2.452,0,0,0-.54-1.531A1.686,1.686,0,0,0,60.23,28.471ZM67.784,36H65.767V23.25h2.017ZM77.9,34.556a1.824,1.824,0,0,0,1.253-.44,1.5,1.5,0,0,0,.531-1.087h1.9a2.963,2.963,0,0,1-.523,1.565,3.43,3.43,0,0,1-1.328,1.15,3.958,3.958,0,0,1-1.81.423,3.829,3.829,0,0,1-2.988-1.22,4.84,4.84,0,0,1-1.1-3.37v-.208a4.759,4.759,0,0,1,1.1-3.283,3.8,3.8,0,0,1,2.988-1.233,3.69,3.69,0,0,1,2.611.934,3.345,3.345,0,0,1,1.058,2.453h-1.9a1.847,1.847,0,0,0-.527-1.27,1.7,1.7,0,0,0-1.258-.5,1.775,1.775,0,0,0-1.511.71,3.621,3.621,0,0,0-.54,2.154v.324a3.681,3.681,0,0,0,.527,2.179A1.773,1.773,0,0,0,77.9,34.556ZM85.257,36H83.24V23.25h2.017ZM89.6,36H87.582V27.019H89.6ZM87.457,24.678a1.083,1.083,0,0,1,.295-.778,1.108,1.108,0,0,1,.843-.31,1.122,1.122,0,0,1,.847.31,1.075,1.075,0,0,1,.3.778,1.05,1.05,0,0,1-.3.765,1.131,1.131,0,0,1-.847.305,1.117,1.117,0,0,1-.843-.305A1.058,1.058,0,0,1,87.457,24.678ZM95.75,36.166a4.173,4.173,0,0,1-3.109-1.208,4.381,4.381,0,0,1-1.191-3.217v-.249a5.389,5.389,0,0,1,.519-2.4,3.949,3.949,0,0,1,1.457-1.648,3.851,3.851,0,0,1,2.092-.589,3.525,3.525,0,0,1,2.835,1.17,4.949,4.949,0,0,1,1,3.312v.813H93.483a2.7,2.7,0,0,0,.743,1.76,2.23,2.23,0,0,0,1.639.647,2.731,2.731,0,0,0,2.258-1.121l1.087,1.038a3.631,3.631,0,0,1-1.44,1.249A4.509,4.509,0,0,1,95.75,36.166Zm-.241-7.695a1.7,1.7,0,0,0-1.341.581,3.012,3.012,0,0,0-.652,1.619H97.36v-.149a2.452,2.452,0,0,0-.54-1.531A1.686,1.686,0,0,0,95.509,28.471Zm7.28-1.453.058,1.038a3.229,3.229,0,0,1,2.615-1.2q2.806,0,2.855,3.212V36H106.3V30.181a1.85,1.85,0,0,0-.369-1.266,1.554,1.554,0,0,0-1.208-.411,1.944,1.944,0,0,0-1.818,1.1V36h-2.017V27.019Zm10.11-2.183v2.183h1.585v1.494H112.9v5.014a1.1,1.1,0,0,0,.2.743.943.943,0,0,0,.726.228,3.107,3.107,0,0,0,.706-.083v1.561a4.968,4.968,0,0,1-1.328.191q-2.324,0-2.324-2.565V28.513H109.4V27.019h1.478V24.835Zm7.081,11.331a4.173,4.173,0,0,1-3.109-1.208,4.381,4.381,0,0,1-1.191-3.217v-.249a5.389,5.389,0,0,1,.519-2.4,3.949,3.949,0,0,1,1.457-1.648,3.851,3.851,0,0,1,2.092-.589,3.525,3.525,0,0,1,2.835,1.17,4.949,4.949,0,0,1,1,3.312v.813h-5.869a2.7,2.7,0,0,0,.743,1.76,2.23,2.23,0,0,0,1.639.647,2.731,2.731,0,0,0,2.258-1.121l1.087,1.038A3.631,3.631,0,0,1,122,35.722,4.509,4.509,0,0,1,119.979,36.166Zm-.241-7.695a1.7,1.7,0,0,0-1.341.581,3.012,3.012,0,0,0-.652,1.619h3.843v-.149a2.452,2.452,0,0,0-.54-1.531A1.686,1.686,0,0,0,119.739,28.471Z" transform="translate(312 9869)" fill="#12263f"/>
    <path id="Trazado_593628" data-name="Trazado 593628" d="M5.8,11.518V16H3.7V3.914H8.322a4.675,4.675,0,0,1,3.217,1.055,3.549,3.549,0,0,1,1.191,2.792,3.431,3.431,0,0,1-1.166,2.767,4.9,4.9,0,0,1-3.266.989Zm0-1.693H8.322a2.485,2.485,0,0,0,1.71-.527,1.937,1.937,0,0,0,.589-1.523,2.09,2.09,0,0,0-.6-1.565,2.3,2.3,0,0,0-1.644-.6H5.8Zm13.273-.963a4.991,4.991,0,0,0-.822-.066,1.85,1.85,0,0,0-1.868,1.063V16H14.365V7.019H16.29l.05,1a2.273,2.273,0,0,1,2.025-1.17,1.888,1.888,0,0,1,.714.116Zm5.072,7.3a4.173,4.173,0,0,1-3.109-1.208,4.381,4.381,0,0,1-1.191-3.217v-.249a5.389,5.389,0,0,1,.519-2.4,3.949,3.949,0,0,1,1.457-1.648,3.851,3.851,0,0,1,2.092-.589,3.525,3.525,0,0,1,2.835,1.17,4.949,4.949,0,0,1,1,3.312v.813H21.877a2.7,2.7,0,0,0,.743,1.76,2.23,2.23,0,0,0,1.639.647,2.731,2.731,0,0,0,2.258-1.121L27.6,14.473a3.631,3.631,0,0,1-1.44,1.249A4.509,4.509,0,0,1,24.143,16.166ZM23.9,8.471a1.7,1.7,0,0,0-1.341.581,3.012,3.012,0,0,0-.652,1.619h3.843v-.149a2.452,2.452,0,0,0-.54-1.531A1.686,1.686,0,0,0,23.9,8.471ZM34.344,13.56a.914.914,0,0,0-.444-.822,4.723,4.723,0,0,0-1.473-.5,7.574,7.574,0,0,1-1.718-.548A2.293,2.293,0,0,1,29.2,9.575a2.391,2.391,0,0,1,.979-1.942,3.872,3.872,0,0,1,2.49-.78,4.029,4.029,0,0,1,2.6.8,2.529,2.529,0,0,1,.992,2.067H34.245a1.243,1.243,0,0,0-.432-.967,1.654,1.654,0,0,0-1.146-.386,1.787,1.787,0,0,0-1.083.307.968.968,0,0,0-.419.822.818.818,0,0,0,.39.722,5.365,5.365,0,0,0,1.577.519A7.466,7.466,0,0,1,35,11.356a2.639,2.639,0,0,1,1,.867,2.212,2.212,0,0,1,.328,1.229,2.34,2.34,0,0,1-1,1.963,4.283,4.283,0,0,1-2.631.751,4.644,4.644,0,0,1-1.967-.4,3.238,3.238,0,0,1-1.345-1.1,2.594,2.594,0,0,1-.481-1.5h1.959a1.421,1.421,0,0,0,.54,1.1,2.1,2.1,0,0,0,1.32.386,2.04,2.04,0,0,0,1.212-.3A.938.938,0,0,0,34.344,13.56Zm7.695,2.606a4.173,4.173,0,0,1-3.109-1.208,4.381,4.381,0,0,1-1.191-3.217v-.249a5.389,5.389,0,0,1,.519-2.4,3.949,3.949,0,0,1,1.457-1.648,3.851,3.851,0,0,1,2.092-.589,3.525,3.525,0,0,1,2.835,1.17,4.949,4.949,0,0,1,1,3.312v.813H39.773a2.7,2.7,0,0,0,.743,1.76,2.23,2.23,0,0,0,1.639.647,2.731,2.731,0,0,0,2.258-1.121L45.5,14.473a3.631,3.631,0,0,1-1.44,1.249A4.509,4.509,0,0,1,42.039,16.166ZM41.8,8.471a1.7,1.7,0,0,0-1.341.581,3.012,3.012,0,0,0-.652,1.619H43.65v-.149a2.452,2.452,0,0,0-.54-1.531A1.686,1.686,0,0,0,41.8,8.471Zm7.28-1.453.058,1.038a3.229,3.229,0,0,1,2.615-1.2q2.806,0,2.855,3.212V16H52.59V10.181a1.85,1.85,0,0,0-.369-1.266A1.554,1.554,0,0,0,51.012,8.5a1.944,1.944,0,0,0-1.818,1.1V16H47.177V7.019Zm10.11-2.183V7.019h1.585V8.513H59.189v5.014a1.1,1.1,0,0,0,.2.743.943.943,0,0,0,.726.228,3.107,3.107,0,0,0,.706-.083v1.561a4.968,4.968,0,0,1-1.328.191q-2.324,0-2.324-2.565V8.513H55.694V7.019h1.478V4.835ZM67.68,16a3.113,3.113,0,0,1-.232-.838,3.393,3.393,0,0,1-4.565.232,2.47,2.47,0,0,1-.855-1.909,2.55,2.55,0,0,1,1.067-2.2,5.169,5.169,0,0,1,3.051-.768h1.237V9.924a1.573,1.573,0,0,0-.39-1.116A1.547,1.547,0,0,0,65.8,8.388a1.777,1.777,0,0,0-1.129.344,1.066,1.066,0,0,0-.44.876H62.219a2.239,2.239,0,0,1,.49-1.382,3.263,3.263,0,0,1,1.332-1.009,4.68,4.68,0,0,1,1.88-.365,3.769,3.769,0,0,1,2.515.793A2.827,2.827,0,0,1,69.4,9.874v4.051a4.591,4.591,0,0,0,.34,1.934V16Zm-2.216-1.453a2.294,2.294,0,0,0,1.125-.291,1.941,1.941,0,0,0,.793-.78V11.783H66.294a2.973,2.973,0,0,0-1.685.39,1.264,1.264,0,0,0-.564,1.1,1.179,1.179,0,0,0,.386.926A1.5,1.5,0,0,0,65.464,14.547Zm9.737.008a1.824,1.824,0,0,0,1.253-.44,1.5,1.5,0,0,0,.531-1.087h1.9a2.963,2.963,0,0,1-.523,1.565,3.43,3.43,0,0,1-1.328,1.15,3.958,3.958,0,0,1-1.81.423,3.829,3.829,0,0,1-2.988-1.22,4.84,4.84,0,0,1-1.1-3.37v-.208a4.759,4.759,0,0,1,1.1-3.283,3.8,3.8,0,0,1,2.988-1.233,3.69,3.69,0,0,1,2.611.934,3.345,3.345,0,0,1,1.058,2.453h-1.9a1.847,1.847,0,0,0-.527-1.27,1.7,1.7,0,0,0-1.258-.5,1.775,1.775,0,0,0-1.511.71,3.621,3.621,0,0,0-.54,2.154v.324a3.681,3.681,0,0,0,.527,2.179A1.773,1.773,0,0,0,75.2,14.556ZM82.555,16H80.538V7.019h2.017ZM80.414,4.678a1.083,1.083,0,0,1,.295-.778,1.108,1.108,0,0,1,.843-.31,1.122,1.122,0,0,1,.847.31,1.075,1.075,0,0,1,.3.778,1.05,1.05,0,0,1-.3.765,1.131,1.131,0,0,1-.847.305,1.117,1.117,0,0,1-.843-.305A1.058,1.058,0,0,1,80.414,4.678Zm3.959,6.749A5.3,5.3,0,0,1,84.9,9.048a3.819,3.819,0,0,1,1.469-1.627,4.14,4.14,0,0,1,2.175-.569,3.923,3.923,0,0,1,2.951,1.17,4.6,4.6,0,0,1,1.224,3.1l.008.473a5.343,5.343,0,0,1-.51,2.374,3.773,3.773,0,0,1-1.461,1.619,4.17,4.17,0,0,1-2.2.573A3.9,3.9,0,0,1,85.515,14.9a4.848,4.848,0,0,1-1.141-3.374Zm2.017.174a3.619,3.619,0,0,0,.573,2.171,1.862,1.862,0,0,0,1.594.784,1.842,1.842,0,0,0,1.59-.8,4,4,0,0,0,.569-2.333,3.572,3.572,0,0,0-.585-2.158,1.973,1.973,0,0,0-3.158-.012A3.922,3.922,0,0,0,86.39,11.6ZM89.1,3.25h2.3L89.1,5.765l-1.619,0ZM96.3,7.019l.058,1.038a3.229,3.229,0,0,1,2.615-1.2q2.806,0,2.855,3.212V16H99.813V10.181a1.85,1.85,0,0,0-.369-1.266A1.554,1.554,0,0,0,98.236,8.5a1.944,1.944,0,0,0-1.818,1.1V16H94.4V7.019Zm15.771,9.147a4.173,4.173,0,0,1-3.109-1.208,4.381,4.381,0,0,1-1.191-3.217v-.249a5.389,5.389,0,0,1,.519-2.4,3.949,3.949,0,0,1,1.457-1.648,3.851,3.851,0,0,1,2.092-.589,3.525,3.525,0,0,1,2.835,1.17,4.949,4.949,0,0,1,1,3.312v.813h-5.869a2.7,2.7,0,0,0,.743,1.76,2.23,2.23,0,0,0,1.639.647,2.731,2.731,0,0,0,2.258-1.121l1.087,1.038a3.631,3.631,0,0,1-1.44,1.249A4.509,4.509,0,0,1,112.073,16.166Zm-.241-7.695a1.7,1.7,0,0,0-1.341.581,3.012,3.012,0,0,0-.652,1.619h3.843v-.149a2.452,2.452,0,0,0-.54-1.531A1.686,1.686,0,0,0,111.832,8.471ZM117.95,16V8.513h-1.37V7.019h1.37V6.2a3.085,3.085,0,0,1,.83-2.308,3.18,3.18,0,0,1,2.324-.813,4.662,4.662,0,0,1,1.129.149l-.05,1.577a3.973,3.973,0,0,0-.772-.066,1.3,1.3,0,0,0-1.444,1.486v.8h1.826V8.513h-1.826V16Zm9.073.166a4.173,4.173,0,0,1-3.109-1.208,4.381,4.381,0,0,1-1.191-3.217v-.249a5.389,5.389,0,0,1,.519-2.4A3.949,3.949,0,0,1,124.7,7.442a3.851,3.851,0,0,1,2.092-.589,3.525,3.525,0,0,1,2.835,1.17,4.949,4.949,0,0,1,1,3.312v.813h-5.869a2.7,2.7,0,0,0,.743,1.76,2.23,2.23,0,0,0,1.639.647,2.731,2.731,0,0,0,2.258-1.121l1.087,1.038a3.631,3.631,0,0,1-1.44,1.249A4.509,4.509,0,0,1,127.023,16.166Zm-.241-7.695a1.7,1.7,0,0,0-1.341.581,3.012,3.012,0,0,0-.652,1.619h3.843v-.149a2.452,2.452,0,0,0-.54-1.531A1.686,1.686,0,0,0,126.782,8.471Zm9.1,6.084a1.824,1.824,0,0,0,1.253-.44,1.5,1.5,0,0,0,.531-1.087h1.9a2.963,2.963,0,0,1-.523,1.565,3.43,3.43,0,0,1-1.328,1.15,3.958,3.958,0,0,1-1.81.423,3.829,3.829,0,0,1-2.988-1.22,4.84,4.84,0,0,1-1.1-3.37v-.208a4.759,4.759,0,0,1,1.1-3.283A3.8,3.8,0,0,1,135.9,6.853a3.69,3.69,0,0,1,2.611.934,3.345,3.345,0,0,1,1.058,2.453h-1.9a1.847,1.847,0,0,0-.527-1.27,1.7,1.7,0,0,0-1.258-.5,1.775,1.775,0,0,0-1.511.71,3.621,3.621,0,0,0-.54,2.154v.324a3.682,3.682,0,0,0,.527,2.179A1.773,1.773,0,0,0,135.88,14.556Zm7.736-9.72V7.019H145.2V8.513h-1.585v5.014a1.1,1.1,0,0,0,.2.743.943.943,0,0,0,.726.228,3.107,3.107,0,0,0,.706-.083v1.561a4.968,4.968,0,0,1-1.328.191q-2.324,0-2.324-2.565V8.513h-1.478V7.019H141.6V4.835ZM148.887,16H146.87V7.019h2.017ZM146.745,4.678a1.083,1.083,0,0,1,.295-.778,1.108,1.108,0,0,1,.843-.31,1.122,1.122,0,0,1,.847.31,1.075,1.075,0,0,1,.3.778,1.05,1.05,0,0,1-.3.765,1.131,1.131,0,0,1-.847.305,1.117,1.117,0,0,1-.843-.305A1.058,1.058,0,0,1,146.745,4.678Zm7.5,8.766,1.9-6.425h2.083L155.121,16h-1.751l-3.138-8.981h2.092ZM164.733,16a3.113,3.113,0,0,1-.232-.838,3.393,3.393,0,0,1-4.565.232,2.47,2.47,0,0,1-.855-1.909,2.55,2.55,0,0,1,1.067-2.2,5.169,5.169,0,0,1,3.051-.768h1.237V9.924a1.573,1.573,0,0,0-.39-1.116,1.547,1.547,0,0,0-1.187-.419,1.777,1.777,0,0,0-1.129.344,1.066,1.066,0,0,0-.44.876h-2.017a2.239,2.239,0,0,1,.49-1.382,3.263,3.263,0,0,1,1.332-1.009,4.68,4.68,0,0,1,1.88-.365,3.769,3.769,0,0,1,2.515.793,2.827,2.827,0,0,1,.963,2.229v4.051a4.591,4.591,0,0,0,.34,1.934V16Zm-2.216-1.453a2.294,2.294,0,0,0,1.125-.291,1.941,1.941,0,0,0,.793-.78V11.783h-1.087a2.973,2.973,0,0,0-1.685.39,1.264,1.264,0,0,0-.564,1.1,1.179,1.179,0,0,0,.386.926A1.5,1.5,0,0,0,162.517,14.547Z" transform="translate(1119 9817)" fill="#12263f"/>
    <path id="Trazado_593593" data-name="Trazado 593593" d="M-3611.506-1882.187h-99.182v71.766h-119.719" transform="translate(4338.406 11700)" fill="none" stroke="#c2aaff" stroke-width="2"/>
    <path id="Trazado_593594" data-name="Trazado 593594" d="M-3835.24-1827.137s5.212,9.974,5.212,18.839-5.212,16.623-5.212,16.623" transform="translate(4338 11698.21)" fill="none" stroke="#c2aaff" stroke-linecap="round" stroke-width="2"/>
    <path id="Trazado_593595" data-name="Trazado 593595" d="M-3835.24-1827.137s5.212,8.967,5.212,16.938-5.212,14.945-5.212,14.945" transform="translate(-2738 8016) rotate(180)" fill="none" stroke="#a477ff" stroke-linecap="round" stroke-width="2"/>
    <path id="Trazado_593596" data-name="Trazado 593596" d="M0,0S5.212,10.49,5.212,19.814,0,37.3,0,37.3" transform="translate(1025.24 9953.552) rotate(180)" fill="none" stroke="#6826cc" stroke-linecap="round" stroke-width="2"/>
    <path id="Trazado_593629" data-name="Trazado 593629" d="M51,11.518V16H48.9V3.914h4.624a4.675,4.675,0,0,1,3.217,1.055,3.549,3.549,0,0,1,1.191,2.792,3.431,3.431,0,0,1-1.166,2.767,4.9,4.9,0,0,1-3.266.989Zm0-1.693h2.523a2.485,2.485,0,0,0,1.71-.527,1.937,1.937,0,0,0,.589-1.523,2.09,2.09,0,0,0-.6-1.565,2.3,2.3,0,0,0-1.644-.6H51Zm13.273-.963a4.991,4.991,0,0,0-.822-.066,1.85,1.85,0,0,0-1.868,1.063V16H59.564V7.019H61.49l.05,1a2.273,2.273,0,0,1,2.025-1.17,1.888,1.888,0,0,1,.714.116Zm.6,2.565a5.3,5.3,0,0,1,.523-2.378,3.819,3.819,0,0,1,1.469-1.627,4.14,4.14,0,0,1,2.175-.569,3.923,3.923,0,0,1,2.951,1.17,4.6,4.6,0,0,1,1.224,3.1l.008.473a5.343,5.343,0,0,1-.51,2.374,3.773,3.773,0,0,1-1.461,1.619,4.17,4.17,0,0,1-2.2.573A3.9,3.9,0,0,1,66.01,14.9a4.848,4.848,0,0,1-1.141-3.374Zm2.017.174a3.619,3.619,0,0,0,.573,2.171,1.862,1.862,0,0,0,1.594.784,1.842,1.842,0,0,0,1.59-.8,4,4,0,0,0,.569-2.333,3.572,3.572,0,0,0-.585-2.158,1.973,1.973,0,0,0-3.158-.012A3.922,3.922,0,0,0,66.886,11.6Zm7.662-.158A5.34,5.34,0,0,1,75.51,8.11a3.085,3.085,0,0,1,2.582-1.258,2.931,2.931,0,0,1,2.308,1V3.25h2.017V16H80.59l-.1-.93a2.973,2.973,0,0,1-2.416,1.1,3.068,3.068,0,0,1-2.552-1.27A5.535,5.535,0,0,1,74.547,11.443Zm2.017.174a3.739,3.739,0,0,0,.527,2.137,1.71,1.71,0,0,0,1.5.768,1.9,1.9,0,0,0,1.81-1.1V9.583A1.876,1.876,0,0,0,78.606,8.5a1.723,1.723,0,0,0-1.511.776A4.163,4.163,0,0,0,76.564,11.617Zm13.4,3.5a3.128,3.128,0,0,1-2.523,1.046,2.788,2.788,0,0,1-2.212-.855,3.637,3.637,0,0,1-.751-2.474V7.019h2.017v5.794q0,1.71,1.419,1.71A1.993,1.993,0,0,0,89.9,13.468V7.019h2.017V16h-1.9Zm7.695-.564a1.824,1.824,0,0,0,1.253-.44,1.5,1.5,0,0,0,.531-1.087h1.9a2.963,2.963,0,0,1-.523,1.565,3.43,3.43,0,0,1-1.328,1.15,3.958,3.958,0,0,1-1.81.423,3.829,3.829,0,0,1-2.988-1.22,4.84,4.84,0,0,1-1.1-3.37v-.208a4.759,4.759,0,0,1,1.1-3.283,3.8,3.8,0,0,1,2.988-1.233,3.69,3.69,0,0,1,2.611.934,3.345,3.345,0,0,1,1.058,2.453h-1.9a1.847,1.847,0,0,0-.527-1.27,1.7,1.7,0,0,0-1.258-.5,1.775,1.775,0,0,0-1.511.71,3.621,3.621,0,0,0-.54,2.154v.324a3.681,3.681,0,0,0,.527,2.179A1.773,1.773,0,0,0,97.657,14.556Zm7.736-9.72V7.019h1.585V8.513h-1.585v5.014a1.1,1.1,0,0,0,.2.743.943.943,0,0,0,.726.228,3.107,3.107,0,0,0,.706-.083v1.561a4.968,4.968,0,0,1-1.328.191q-2.324,0-2.324-2.565V8.513H101.9V7.019h1.478V4.835Zm2.5,6.591a5.3,5.3,0,0,1,.523-2.378,3.819,3.819,0,0,1,1.469-1.627,4.14,4.14,0,0,1,2.175-.569,3.923,3.923,0,0,1,2.951,1.17,4.6,4.6,0,0,1,1.224,3.1l.008.473a5.343,5.343,0,0,1-.51,2.374,3.773,3.773,0,0,1-1.461,1.619,4.17,4.17,0,0,1-2.2.573,3.9,3.9,0,0,1-3.042-1.266,4.848,4.848,0,0,1-1.141-3.374Zm2.017.174a3.619,3.619,0,0,0,.573,2.171,1.862,1.862,0,0,0,1.594.784,1.842,1.842,0,0,0,1.59-.8,4,4,0,0,0,.569-2.333,3.572,3.572,0,0,0-.585-2.158,1.973,1.973,0,0,0-3.158-.012A3.922,3.922,0,0,0,109.909,11.6Zm15.439,1.843,1.9-6.425h2.083L126.22,16h-1.751l-3.138-8.981h2.092Zm10.276.116a.914.914,0,0,0-.444-.822,4.723,4.723,0,0,0-1.473-.5,7.574,7.574,0,0,1-1.718-.548,2.293,2.293,0,0,1-1.511-2.117,2.391,2.391,0,0,1,.979-1.942,3.872,3.872,0,0,1,2.49-.78,4.029,4.029,0,0,1,2.6.8,2.529,2.529,0,0,1,.992,2.067h-2.017a1.243,1.243,0,0,0-.432-.967,1.654,1.654,0,0,0-1.146-.386,1.787,1.787,0,0,0-1.083.307.968.968,0,0,0-.419.822.818.818,0,0,0,.39.722,5.365,5.365,0,0,0,1.577.519,7.466,7.466,0,0,1,1.864.623,2.639,2.639,0,0,1,1,.867,2.212,2.212,0,0,1,.328,1.229,2.34,2.34,0,0,1-1,1.963,4.283,4.283,0,0,1-2.631.751,4.644,4.644,0,0,1-1.967-.4,3.238,3.238,0,0,1-1.345-1.1,2.594,2.594,0,0,1-.481-1.5h1.959a1.421,1.421,0,0,0,.54,1.1,2.1,2.1,0,0,0,1.32.386,2.04,2.04,0,0,0,1.212-.3A.938.938,0,0,0,135.625,13.56ZM6.676,27.019l.058,1.038a3.229,3.229,0,0,1,2.615-1.2q2.806,0,2.855,3.212V36H10.187V30.181a1.85,1.85,0,0,0-.369-1.266A1.554,1.554,0,0,0,8.61,28.5a1.944,1.944,0,0,0-1.818,1.1V36H4.775V27.019Zm11.538,9.147a4.173,4.173,0,0,1-3.109-1.208,4.381,4.381,0,0,1-1.191-3.217v-.249a5.389,5.389,0,0,1,.519-2.4,3.949,3.949,0,0,1,1.457-1.648,3.851,3.851,0,0,1,2.092-.589,3.525,3.525,0,0,1,2.835,1.17,4.949,4.949,0,0,1,1,3.312v.813H15.948a2.7,2.7,0,0,0,.743,1.76,2.23,2.23,0,0,0,1.639.647,2.731,2.731,0,0,0,2.258-1.121l1.087,1.038a3.631,3.631,0,0,1-1.44,1.249A4.509,4.509,0,0,1,18.214,36.166Zm-.241-7.695a1.7,1.7,0,0,0-1.341.581,3.012,3.012,0,0,0-.652,1.619h3.843v-.149a2.452,2.452,0,0,0-.54-1.531A1.686,1.686,0,0,0,17.973,28.471Zm9.1,6.084a1.824,1.824,0,0,0,1.253-.44,1.5,1.5,0,0,0,.531-1.087h1.9a2.963,2.963,0,0,1-.523,1.565,3.43,3.43,0,0,1-1.328,1.15,3.958,3.958,0,0,1-1.81.423,3.829,3.829,0,0,1-2.988-1.22,4.84,4.84,0,0,1-1.1-3.37v-.208a4.759,4.759,0,0,1,1.1-3.283,3.8,3.8,0,0,1,2.988-1.233,3.69,3.69,0,0,1,2.611.934,3.345,3.345,0,0,1,1.058,2.453h-1.9a1.847,1.847,0,0,0-.527-1.27,1.7,1.7,0,0,0-1.258-.5,1.775,1.775,0,0,0-1.511.71,3.621,3.621,0,0,0-.54,2.154v.324a3.682,3.682,0,0,0,.527,2.179A1.773,1.773,0,0,0,27.071,34.556Zm9.164,1.61a4.173,4.173,0,0,1-3.109-1.208,4.381,4.381,0,0,1-1.191-3.217v-.249a5.389,5.389,0,0,1,.519-2.4,3.949,3.949,0,0,1,1.457-1.648A3.851,3.851,0,0,1,36,26.853a3.525,3.525,0,0,1,2.835,1.17,4.949,4.949,0,0,1,1,3.312v.813H33.969a2.7,2.7,0,0,0,.743,1.76,2.23,2.23,0,0,0,1.639.647,2.731,2.731,0,0,0,2.258-1.121L39.7,34.473a3.631,3.631,0,0,1-1.44,1.249A4.509,4.509,0,0,1,36.235,36.166Zm-.241-7.695a1.7,1.7,0,0,0-1.341.581A3.012,3.012,0,0,0,34,30.671h3.843v-.149a2.452,2.452,0,0,0-.54-1.531A1.686,1.686,0,0,0,35.994,28.471ZM46.437,33.56a.914.914,0,0,0-.444-.822,4.723,4.723,0,0,0-1.473-.5,7.574,7.574,0,0,1-1.718-.548,2.293,2.293,0,0,1-1.511-2.117,2.391,2.391,0,0,1,.979-1.942,3.872,3.872,0,0,1,2.49-.78,4.029,4.029,0,0,1,2.6.8,2.529,2.529,0,0,1,.992,2.067H46.337a1.243,1.243,0,0,0-.432-.967,1.654,1.654,0,0,0-1.146-.386,1.787,1.787,0,0,0-1.083.307.968.968,0,0,0-.419.822.818.818,0,0,0,.39.722,5.365,5.365,0,0,0,1.577.519,7.466,7.466,0,0,1,1.864.623,2.639,2.639,0,0,1,1,.867,2.212,2.212,0,0,1,.328,1.229,2.34,2.34,0,0,1-1,1.963,4.283,4.283,0,0,1-2.631.751,4.644,4.644,0,0,1-1.967-.4,3.238,3.238,0,0,1-1.345-1.1,2.594,2.594,0,0,1-.481-1.5H42.95a1.421,1.421,0,0,0,.54,1.1,2.1,2.1,0,0,0,1.32.386,2.04,2.04,0,0,0,1.212-.3A.938.938,0,0,0,46.437,33.56ZM52.322,36H50.3V27.019h2.017ZM50.18,24.678a1.083,1.083,0,0,1,.295-.778,1.108,1.108,0,0,1,.843-.31,1.122,1.122,0,0,1,.847.31,1.075,1.075,0,0,1,.3.778,1.05,1.05,0,0,1-.3.765,1.131,1.131,0,0,1-.847.305,1.117,1.117,0,0,1-.843-.305A1.058,1.058,0,0,1,50.18,24.678Zm3.959,6.765A5.34,5.34,0,0,1,55.1,28.11a3.085,3.085,0,0,1,2.582-1.258,2.931,2.931,0,0,1,2.308,1v-4.6h2.017V36H60.183l-.1-.93a2.973,2.973,0,0,1-2.416,1.1,3.068,3.068,0,0,1-2.552-1.27A5.535,5.535,0,0,1,54.14,31.443Zm2.017.174a3.739,3.739,0,0,0,.527,2.137,1.71,1.71,0,0,0,1.5.768,1.9,1.9,0,0,0,1.81-1.1V29.583A1.876,1.876,0,0,0,58.2,28.5a1.723,1.723,0,0,0-1.511.776A4.163,4.163,0,0,0,56.157,31.617ZM69.48,36a3.113,3.113,0,0,1-.232-.838,3.393,3.393,0,0,1-4.565.232,2.47,2.47,0,0,1-.855-1.909,2.55,2.55,0,0,1,1.067-2.2,5.169,5.169,0,0,1,3.051-.768h1.237v-.589a1.573,1.573,0,0,0-.39-1.116,1.547,1.547,0,0,0-1.187-.419,1.777,1.777,0,0,0-1.129.344,1.066,1.066,0,0,0-.44.876H64.018a2.239,2.239,0,0,1,.49-1.382,3.263,3.263,0,0,1,1.332-1.009,4.68,4.68,0,0,1,1.88-.365,3.769,3.769,0,0,1,2.515.793,2.827,2.827,0,0,1,.963,2.229v4.051a4.591,4.591,0,0,0,.34,1.934V36Zm-2.216-1.453a2.294,2.294,0,0,0,1.125-.291,1.941,1.941,0,0,0,.793-.78V31.783H68.094a2.973,2.973,0,0,0-1.685.39,1.264,1.264,0,0,0-.564,1.1,1.179,1.179,0,0,0,.386.926A1.5,1.5,0,0,0,67.263,34.547Zm5.669-3.1A5.34,5.34,0,0,1,73.9,28.11a3.085,3.085,0,0,1,2.582-1.258,2.931,2.931,0,0,1,2.308,1v-4.6H80.8V36H78.976l-.1-.93a2.973,2.973,0,0,1-2.416,1.1,3.068,3.068,0,0,1-2.552-1.27A5.535,5.535,0,0,1,72.933,31.443Zm2.017.174a3.739,3.739,0,0,0,.527,2.137,1.71,1.71,0,0,0,1.5.768,1.9,1.9,0,0,0,1.81-1.1V29.583A1.876,1.876,0,0,0,76.992,28.5a1.723,1.723,0,0,0-1.511.776A4.163,4.163,0,0,0,74.95,31.617Zm11.912,4.549a4.173,4.173,0,0,1-3.109-1.208,4.381,4.381,0,0,1-1.191-3.217v-.249a5.389,5.389,0,0,1,.519-2.4,3.949,3.949,0,0,1,1.457-1.648,3.851,3.851,0,0,1,2.092-.589,3.525,3.525,0,0,1,2.835,1.17,4.949,4.949,0,0,1,1,3.312v.813H84.6a2.7,2.7,0,0,0,.743,1.76,2.23,2.23,0,0,0,1.639.647,2.731,2.731,0,0,0,2.258-1.121l1.087,1.038a3.631,3.631,0,0,1-1.44,1.249A4.509,4.509,0,0,1,86.862,36.166Zm-.241-7.695a1.7,1.7,0,0,0-1.341.581,3.012,3.012,0,0,0-.652,1.619h3.843v-.149a2.452,2.452,0,0,0-.54-1.531A1.686,1.686,0,0,0,86.621,28.471ZM97.063,33.56a.914.914,0,0,0-.444-.822,4.723,4.723,0,0,0-1.473-.5,7.574,7.574,0,0,1-1.718-.548,2.293,2.293,0,0,1-1.511-2.117,2.391,2.391,0,0,1,.979-1.942,3.872,3.872,0,0,1,2.49-.78,4.029,4.029,0,0,1,2.6.8,2.529,2.529,0,0,1,.992,2.067H96.964a1.243,1.243,0,0,0-.432-.967,1.654,1.654,0,0,0-1.146-.386,1.787,1.787,0,0,0-1.083.307.968.968,0,0,0-.419.822.818.818,0,0,0,.39.722,5.365,5.365,0,0,0,1.577.519,7.466,7.466,0,0,1,1.864.623,2.639,2.639,0,0,1,1,.867,2.212,2.212,0,0,1,.328,1.229,2.34,2.34,0,0,1-1,1.963,4.283,4.283,0,0,1-2.631.751,4.644,4.644,0,0,1-1.967-.4,3.238,3.238,0,0,1-1.345-1.1,2.594,2.594,0,0,1-.481-1.5h1.959a1.421,1.421,0,0,0,.54,1.1,2.1,2.1,0,0,0,1.32.386,2.04,2.04,0,0,0,1.212-.3A.938.938,0,0,0,97.063,33.56Zm7.6-2.117a5.34,5.34,0,0,1,.963-3.333,3.085,3.085,0,0,1,2.582-1.258,2.931,2.931,0,0,1,2.308,1v-4.6h2.017V36H110.7l-.1-.93a2.973,2.973,0,0,1-2.416,1.1,3.068,3.068,0,0,1-2.552-1.27A5.535,5.535,0,0,1,104.658,31.443Zm2.017.174a3.739,3.739,0,0,0,.527,2.137,1.71,1.71,0,0,0,1.5.768,1.9,1.9,0,0,0,1.81-1.1V29.583a1.876,1.876,0,0,0-1.793-1.079,1.723,1.723,0,0,0-1.511.776A4.163,4.163,0,0,0,106.676,31.617Zm11.912,4.549a4.173,4.173,0,0,1-3.109-1.208,4.381,4.381,0,0,1-1.191-3.217v-.249a5.389,5.389,0,0,1,.519-2.4,3.949,3.949,0,0,1,1.457-1.648,3.851,3.851,0,0,1,2.092-.589,3.525,3.525,0,0,1,2.835,1.17,4.949,4.949,0,0,1,1,3.312v.813h-5.869a2.7,2.7,0,0,0,.743,1.76,2.23,2.23,0,0,0,1.639.647,2.731,2.731,0,0,0,2.258-1.121l1.087,1.038a3.631,3.631,0,0,1-1.44,1.249A4.509,4.509,0,0,1,118.587,36.166Zm-.241-7.695a1.7,1.7,0,0,0-1.341.581,3.012,3.012,0,0,0-.652,1.619H120.2v-.149a2.452,2.452,0,0,0-.54-1.531A1.686,1.686,0,0,0,118.346,28.471ZM125.9,36h-2.017V23.25H125.9Zm10.119-1.444a1.824,1.824,0,0,0,1.253-.44,1.5,1.5,0,0,0,.531-1.087h1.9a2.963,2.963,0,0,1-.523,1.565,3.43,3.43,0,0,1-1.328,1.15,3.958,3.958,0,0,1-1.81.423,3.829,3.829,0,0,1-2.988-1.22,4.84,4.84,0,0,1-1.1-3.37v-.208a4.759,4.759,0,0,1,1.1-3.283,3.8,3.8,0,0,1,2.988-1.233,3.69,3.69,0,0,1,2.611.934,3.345,3.345,0,0,1,1.058,2.453h-1.9a1.847,1.847,0,0,0-.527-1.27,1.7,1.7,0,0,0-1.258-.5,1.775,1.775,0,0,0-1.511.71,3.621,3.621,0,0,0-.54,2.154v.324a3.682,3.682,0,0,0,.527,2.179A1.773,1.773,0,0,0,136.019,34.556ZM143.373,36h-2.017V23.25h2.017Zm4.341,0H145.7V27.019h2.017Zm-2.142-11.322a1.083,1.083,0,0,1,.295-.778,1.108,1.108,0,0,1,.843-.31,1.122,1.122,0,0,1,.847.31,1.075,1.075,0,0,1,.3.778,1.05,1.05,0,0,1-.3.765,1.131,1.131,0,0,1-.847.305,1.117,1.117,0,0,1-.843-.305A1.058,1.058,0,0,1,145.573,24.678Zm8.292,11.488a4.173,4.173,0,0,1-3.109-1.208,4.381,4.381,0,0,1-1.191-3.217v-.249a5.389,5.389,0,0,1,.519-2.4,3.949,3.949,0,0,1,1.457-1.648,3.851,3.851,0,0,1,2.092-.589,3.525,3.525,0,0,1,2.835,1.17,4.949,4.949,0,0,1,1,3.312v.813H151.6a2.7,2.7,0,0,0,.743,1.76,2.23,2.23,0,0,0,1.639.647,2.731,2.731,0,0,0,2.258-1.121l1.087,1.038a3.631,3.631,0,0,1-1.44,1.249A4.509,4.509,0,0,1,153.865,36.166Zm-.241-7.695a1.7,1.7,0,0,0-1.341.581,3.012,3.012,0,0,0-.652,1.619h3.843v-.149a2.452,2.452,0,0,0-.54-1.531A1.686,1.686,0,0,0,153.625,28.471Zm7.28-1.453.058,1.038a3.229,3.229,0,0,1,2.615-1.2q2.806,0,2.855,3.212V36h-2.017V30.181a1.85,1.85,0,0,0-.369-1.266,1.554,1.554,0,0,0-1.208-.411,1.944,1.944,0,0,0-1.818,1.1V36H159V27.019Zm10.11-2.183v2.183H172.6v1.494h-1.585v5.014a1.1,1.1,0,0,0,.2.743.943.943,0,0,0,.726.228,3.107,3.107,0,0,0,.706-.083v1.561a4.968,4.968,0,0,1-1.328.191Q169,36.166,169,33.6V28.513H167.52V27.019H169V24.835ZM178.1,36.166a4.173,4.173,0,0,1-3.109-1.208,4.381,4.381,0,0,1-1.191-3.217v-.249a5.389,5.389,0,0,1,.519-2.4,3.949,3.949,0,0,1,1.457-1.648,3.851,3.851,0,0,1,2.092-.589,3.525,3.525,0,0,1,2.835,1.17,4.949,4.949,0,0,1,1,3.312v.813h-5.869a2.7,2.7,0,0,0,.743,1.76,2.23,2.23,0,0,0,1.639.647,2.731,2.731,0,0,0,2.258-1.121l1.087,1.038a3.631,3.631,0,0,1-1.44,1.249A4.509,4.509,0,0,1,178.1,36.166Zm-.241-7.695a1.7,1.7,0,0,0-1.341.581,3.012,3.012,0,0,0-.652,1.619h3.843v-.149a2.452,2.452,0,0,0-.54-1.531A1.686,1.686,0,0,0,177.855,28.471Z" transform="translate(1039 9912)" fill="#12263f"/>
    <path id="Trazado_593597" data-name="Trazado 593597" d="M-3582.223-1945.52h130.263v73.416H-3351" transform="translate(4443 11700)" fill="none" stroke="#a477ff" stroke-width="2"/>
    <path id="Trazado_593598" data-name="Trazado 593598" d="M-3530.162-1908.812h44.465v87.176H-3527v53.832h103.2" transform="translate(4443 11700)" fill="none" stroke="#6826cc" stroke-width="2"/>
    <g id="_-8" transform="translate(810 9712.039)">
      <path id="Trazado_593530" data-name="Trazado 593530" d="M206.27,17.968h0l-4.444-3.5L193.2,21.046l-24.94,10c-4.2,1.689-8.05,6.193-8.613,10.074l-3.905,27.252-4.8,10.386,4.384,3.438a2.812,2.812,0,0,0,.3.228l.072.06h0c1.2.791,3.031.862,5.2-.012l32.726-13.117c4.2-1.689,8.05-6.193,8.613-10.074l5.355-37.374a3.86,3.86,0,0,0-1.33-3.941Z" transform="translate(-149.556 -13.617)" fill="url(#linear-gradient-35)"/>
      <path id="Trazado_593531" data-name="Trazado 593531" d="M203.145,18.372,197.79,55.746c-.551,3.881-4.408,8.385-8.613,10.074L156.451,78.937c-4.2,1.689-7.151-.1-6.6-3.977l5.355-37.374c.551-3.881,4.408-8.385,8.613-10.074L196.545,14.4c4.2-1.689,7.151.1,6.6,3.977Z" transform="translate(-149.785 -13.758)" fill="#fff"/>
      <g id="Grupo_873830" data-name="Grupo 873830" transform="translate(7.885 11.297)">
        <path id="Trazado_593616" data-name="Trazado 593616" d="M196.6,49.992c-6.79,2.716-13.087,10.618-14.075,17.531-.988,7.037,3.7,10.494,10.618,7.778s13.334-10.741,14.2-17.778C208.328,50.486,203.39,47.153,196.6,49.992Zm5.556,7.9-7.9,10c-1.111,1.358-2.716,1.975-3.457,1.358l-2.963-2.222c-.864-.617-.617-2.222.494-3.58s2.593-1.975,3.457-1.358l1.482,1.111,5.926-7.408c1.111-1.358,2.716-1.975,3.457-1.358C203.513,54.931,203.266,56.536,202.155,57.894Z" transform="translate(-175.279 -41.165)" fill="url(#linear-gradient-36)"/>
        <path id="Trazado_593617" data-name="Trazado 593617" d="M212.026,44.317c-3.21-2.222-7.9-2.222-13.087,0-5.185,2.1-10.247,6.173-14.445,11.358s-6.914,10.988-7.655,16.3.494,9.63,3.58,11.976c3.21,2.346,7.778,2.593,13.087.494a37.352,37.352,0,0,0,14.939-11.605c4.321-5.432,7.037-11.358,7.655-16.667.741-5.556-.741-9.63-4.074-11.852ZM194.248,79.133c-8.148,3.21-13.828-.988-12.593-9.26,1.235-8.148,8.642-17.408,16.667-20.741s13.828.617,12.84,8.889c-1.111,8.4-8.642,17.9-16.914,21.112Z" transform="translate(-176.631 -42.65)" fill="url(#linear-gradient-37)"/>
      </g>
    </g>
    <path id="Trazado_593599" data-name="Trazado 593599" d="M-3877.629-1865.657l41.838-117.821" transform="translate(4435.791 11695.518)" fill="none" stroke="#ea3584" stroke-width="1" stroke-dasharray="4"/>
    <g id="Grupo_870620" data-name="Grupo 870620" transform="translate(657.027 9902.014)">
      <g id="Grupo_870619" data-name="Grupo 870619" clip-path="url(#clip-path)">
        <g id="Grupo_870618" data-name="Grupo 870618" transform="translate(0 0)">
          <g id="Grupo_870617" data-name="Grupo 870617" clip-path="url(#clip-path)">
            <g id="Grupo_870616" data-name="Grupo 870616" transform="translate(0 0)" opacity="0.7">
              <g id="Grupo_870615" data-name="Grupo 870615" transform="translate(0 0)">
                <g id="Grupo_870614" data-name="Grupo 870614" clip-path="url(#clip-path)">
                  <path id="Trazado_213110" data-name="Trazado 213110" d="M20,.55,13.852,6.7,7.7.55.55,7.7,6.7,13.851.55,20,7.7,27.154l6.148-6.148L20,27.154,27.153,20l-6.147-6.148L27.153,7.7Z" transform="translate(0.135 0.135)" fill="#ea3584"/>
                </g>
              </g>
            </g>
          </g>
        </g>
      </g>
    </g>
    <g id="Grupo_870622" data-name="Grupo 870622" transform="matrix(-0.407, 0.914, -0.914, -0.407, 3126.72, 9675.319)">
      <path id="Trazado_213115" data-name="Trazado 213115" d="M-11658.307-11210.486l-12.108,49.416-25.526,3.273Z" transform="translate(12867.724 13521.999)" fill="none" stroke="#a2a7c5" stroke-width="2"/>
      <path id="Trazado_213116" data-name="Trazado 213116" d="M-11672.309-11210.486l-23.889,29.125-4.58-16.362Z" transform="translate(12866.998 13521.999)" fill="none" stroke="#a2a7c5" stroke-width="2"/>
    </g>
    <g id="Grupo_873814" data-name="Grupo 873814" transform="matrix(0.407, 0.914, -0.914, 0.407, 1048.135, 9724.034)">
      <path id="Trazado_213115-2" data-name="Trazado 213115" d="M37.635,52.69,25.526,3.274,0,0Z" transform="translate(5.562 0)" fill="none" stroke="#ea3584" stroke-width="2"/>
      <path id="Trazado_213116-2" data-name="Trazado 213116" d="M28.469,29.125,4.58,0,0,16.362Z" transform="translate(0 23.565)" fill="none" stroke="#ea3584" stroke-width="2"/>
    </g>
    <g id="Grupo_151661" data-name="Grupo 151661" transform="translate(1055.105 9871.035)">
      <g id="Grupo_151654" data-name="Grupo 151654" transform="translate(0 0)" clip-path="url(#clip-path-4)">
        <path id="Trazado_212262" data-name="Trazado 212262" d="M10.6,21.2A10.6,10.6,0,1,1,21.2,10.6,10.61,10.61,0,0,1,10.6,21.2m0-20.165A9.567,9.567,0,1,0,20.165,10.6,9.577,9.577,0,0,0,10.6,1.031" transform="translate(0 0)" fill="#6826cc"/>
      </g>
    </g>
    <path id="Trazado_593600" data-name="Trazado 593600" d="M-2526.746-7648.452l9.5-9.954,9.954,9.954" transform="matrix(-0.966, 0.259, -0.259, -0.966, -3664.283, 3239.888)" fill="none" stroke="#6931bf" stroke-width="2"/>
    <path id="Trazado_593601" data-name="Trazado 593601" d="M-3733.315-1772.931s30.732,3.7,38.7,57.765" transform="translate(4443 11700)" fill="none" stroke="#6826cc" stroke-linecap="round" stroke-width="2" stroke-dasharray="4"/>
    <g id="_x39__1_" transform="translate(842.188 9773.657)">
      <g id="XMLID_2275_">
        <g id="XMLID_2312_" transform="translate(0 2.83)">
          <path id="XMLID_2325_" d="M270.654,97.525s-1.556,0-1.077,1.676l-21.065-9.455a4.189,4.189,0,0,0-4.069.6l-40.694,29.443c-1.8-.6-3.471-.718-4.069.6-1.077,2.274-.12,3.351.718,3.95.239.12.479.359.718.479h0l21.9,9.814a4.189,4.189,0,0,0,4.069-.6l43.566-31.6C270.774,102.432,273.646,100.278,270.654,97.525Z" transform="translate(-199.199 -86.988)" fill="#b4b5bf"/>
          <path id="XMLID_2313_" d="M200.2,119.956l43.686-31.717a4.519,4.519,0,0,1,4.069-.6l21.9,9.814c1.2.718,1.556,2.154.359,2.992l-43.566,31.6a4.467,4.467,0,0,1-4.069.6l-21.9-9.814A1.666,1.666,0,0,1,200.2,119.956Z" transform="translate(-199.125 -87.396)" fill="#fff"/>
        </g>
        <g id="XMLID_2309_" transform="translate(10.444 40.058)">
          <g id="Grupo_873815" data-name="Grupo 873815">
            <path id="XMLID_00000124128178671302207060000016215395151681016217_" d="M208.015,118.979h0a.224.224,0,0,1,0-.359h0a.72.72,0,0,1,.479-.12h0a.224.224,0,0,1,0,.359h0A.3.3,0,0,1,208.015,118.979Z" transform="translate(-207.925 -118.5)" fill="#66676d"/>
            <path id="XMLID_00000108292011196463244520000011266958128283392447_" d="M213.522,121.433l-4.907-2.154a.224.224,0,0,1,0-.359h0a.72.72,0,0,1,.479-.12L214,120.954a.224.224,0,0,1,0,.359h0C213.881,121.553,213.761,121.553,213.522,121.433Z" transform="translate(-207.807 -118.441)" fill="#66676d"/>
          </g>
        </g>
        <g id="XMLID_2299_" transform="translate(33.035 39.101)">
          <g id="XMLID_2306_" transform="translate(1.556 2.394)">
            <path id="XMLID_2308_" d="M230.733,119.7h-.239l-2.154,1.556h0c-.12.12-.239.239-.239.359,0,.239.12.479.239.479h.239l2.154-1.556h0c.12-.12.239-.239.239-.359C231.092,119.939,230.973,119.7,230.733,119.7Z" transform="translate(-228.1 -119.7)" fill="#66676d"/>
            <path id="XMLID_2307_" d="M231.033,119.8h-.239l-2.154,1.556h0c-.12.12-.239.239-.239.359,0,.239.12.479.239.479h.239l2.154-1.556h0c.12-.12.239-.239.239-.359C231.273,120.039,231.153,119.8,231.033,119.8Z" transform="translate(-228.041 -119.68)" fill="#fff"/>
          </g>
          <g id="XMLID_2303_" transform="translate(4.907)">
            <path id="XMLID_2305_" d="M233.533,117.7h-.239l-2.154,1.556h0c-.12.12-.239.239-.239.359,0,.239.12.479.239.479h.239l2.154-1.556h0c.12-.12.239-.239.239-.359C233.892,117.939,233.773,117.7,233.533,117.7Z" transform="translate(-230.9 -117.7)" fill="#66676d"/>
            <path id="XMLID_2304_" d="M233.733,117.8h-.239l-2.154,1.556h0c-.12.12-.239.239-.239.359,0,.239.12.479.239.479h.239l2.154-1.556h0c.12-.12.239-.239.239-.359C234.092,118.039,233.973,117.8,233.733,117.8Z" transform="translate(-230.861 -117.68)" fill="#fff"/>
          </g>
          <g id="XMLID_2300_" transform="translate(0 4.788)">
            <path id="XMLID_2302_" d="M227.758,121.7h-.239l-.479.359h0c-.12.12-.239.239-.239.359,0,.239.12.479.239.479h.239l.479-.359h0c.12-.12.239-.239.239-.359C228,121.939,227.877,121.7,227.758,121.7Z" transform="translate(-226.8 -121.7)" fill="#66676d"/>
            <path id="XMLID_2301_" d="M227.958,121.8h-.239l-.479.359h0c-.12.12-.239.239-.239.359,0,.239.12.479.239.479h.239l.479-.359h0c.12-.12.239-.239.239-.359C228.2,122.039,228.077,121.8,227.958,121.8Z" transform="translate(-226.761 -121.68)" fill="#fff"/>
          </g>
        </g>
        <path id="XMLID_2298_" d="M268.4,97.989l-21.3-9.455a3.076,3.076,0,0,0-2.873.359l-42.848,31.119c-.718.6-.6,1.556.479,2.035l4.309,1.915.6-.479a2.549,2.549,0,0,1,2.394-.359l9.575,4.309c.718.239.6.958,0,1.436l-.6.479,4.907,2.154a3.076,3.076,0,0,0,2.873-.359l42.729-31A1.243,1.243,0,0,0,268.4,97.989Z" transform="translate(-198.86 -84.382)" fill="url(#linear-gradient-38)"/>
        <g id="XMLID_2295_" transform="translate(1.703)">
          <path id="XMLID_2297_" d="M268.1,94.689l-21.3-9.455a3.076,3.076,0,0,0-2.872.359l-42.848,31.119c-.718.6-.6,1.556.479,2.035l4.309,1.915.6-.479a2.549,2.549,0,0,1,2.394-.359l9.575,4.309c.718.239.6.958,0,1.436l-.6.479,4.907,2.154a3.076,3.076,0,0,0,2.872-.359l42.729-31A1.29,1.29,0,0,0,268.1,94.689Z" transform="translate(-200.622 -85.031)" fill="url(#linear-gradient-39)"/>
          <path id="XMLID_2296_" d="M268.1,94.689l-21.3-9.455a3.076,3.076,0,0,0-2.872.359l-42.848,31.119c-.718.6-.6,1.556.479,2.035l4.309,1.915.6-.479a2.549,2.549,0,0,1,2.394-.359l9.575,4.309c.718.239.6.958,0,1.436l-.6.479,4.907,2.154a3.076,3.076,0,0,0,2.872-.359l42.729-31A1.29,1.29,0,0,0,268.1,94.689Z" transform="translate(-200.622 -85.031)" opacity="0.86" fill="url(#linear-gradient-40)"/>
        </g>
      </g>
    </g>
    <g id="Grupo_873833" data-name="Grupo 873833" transform="translate(861.579 9783.62)">
      <path id="Trazado_593618" data-name="Trazado 593618" d="M228.251,101.787l9.575,4.309a1.469,1.469,0,0,0,1.556-.239l9.336-6.942c.479-.359.359-.718-.12-.958l-2.513-1.077.718-.6c1.2-.958,1.2-2.154-.239-2.633a5.068,5.068,0,0,0-4.668.718l-.718.6-2.394-.958a1.505,1.505,0,0,0-1.556.239l-9.216,6.7A.631.631,0,0,0,228.251,101.787Zm15.44-6.7a1.773,1.773,0,0,1,1.556-.239c.479.239.479.6.12.838l-.718.6-1.676-.718Z" transform="translate(-212.931 -93.356)" fill="#fff"/>
      <path id="Trazado_593619" data-name="Trazado 593619" d="M248.673,106.972c.12-.239,0-.479-.359-.6a7.868,7.868,0,0,0-5.506-.12l-7.181,2.274a4.9,4.9,0,0,1-3.471-.12l-5.386-2.513c-.479-.239-.479-.6,0-.958a1.833,1.833,0,0,1,1.556-.239l5.386,2.513a2.029,2.029,0,0,0,1.2,0c.359-.12,1.676-.479,2.633-.838.359-.12.6-.359.6-.479.12-.239,0-.359-.239-.479l-8.258-3.83a7.876,7.876,0,0,0-3.83-.479l-9.1,1.2c-.6.12-1.077.479-1.077.838l-.239,4.668a.622.622,0,0,0,.239.479,1.518,1.518,0,0,0,.718.12l5.865-.838,6.583,3.232a10.848,10.848,0,0,0,8.019.12l10.892-3.471C248.314,107.451,248.673,107.211,248.673,106.972Z" transform="translate(-215.4 -91.838)" fill="#fff"/>
    </g>
  </g>
</svg>
