<svg xmlns="http://www.w3.org/2000/svg" xmlns:xlink="http://www.w3.org/1999/xlink" width="523.545" height="49" viewBox="0 0 523.545 49">
  <defs>
    <linearGradient id="linear-gradient" x1="0.795" y1="0.5" x2="1" y2="0.5" gradientUnits="objectBoundingBox">
      <stop offset="0" stop-color="#ecedf4"/>
      <stop offset="1" stop-color="#fff0f8" stop-opacity="0"/>
    </linearGradient>
  </defs>
  <g id="Grupo_873847" data-name="Grupo 873847" transform="translate(-180 -12554)">
    <path id="Trazado_593639" data-name="Trazado 593639" d="M0,0H505V49H0Z" transform="translate(180 12554)" fill="url(#linear-gradient)"/>
    <path id="Trazado_593638" data-name="Trazado 593638" d="M4.5,14.176V19H1.074V4.781H6.748a6.608,6.608,0,0,1,2.886.6,4.526,4.526,0,0,1,1.943,1.709,4.667,4.667,0,0,1,.688,2.515,4.114,4.114,0,0,1-1.489,3.325,6.179,6.179,0,0,1-4.087,1.245Zm0-2.646H6.748a2.118,2.118,0,0,0,1.519-.5,1.85,1.85,0,0,0,.522-1.406,2.287,2.287,0,0,0-.537-1.592,1.9,1.9,0,0,0-1.465-.605H4.5Zm15.83-.117-1.084-.078a1.947,1.947,0,0,0-1.992.977V19H13.965V8.434h3.086l.107,1.357a2.548,2.548,0,0,1,2.314-1.553,3.209,3.209,0,0,1,.918.117Zm.42,2.207a6.236,6.236,0,0,1,.615-2.817,4.4,4.4,0,0,1,1.768-1.9,5.323,5.323,0,0,1,2.705-.664,4.858,4.858,0,0,1,3.74,1.47,5.64,5.64,0,0,1,1.367,4v.117a5.472,5.472,0,0,1-1.372,3.921,4.871,4.871,0,0,1-3.716,1.45,4.927,4.927,0,0,1-3.623-1.353,5.29,5.29,0,0,1-1.475-3.667Zm3.291.205a3.932,3.932,0,0,0,.459,2.148,1.529,1.529,0,0,0,1.357.684q1.758,0,1.8-2.705v-.332q0-2.842-1.816-2.842-1.65,0-1.787,2.451Zm7.939-.186a6.455,6.455,0,0,1,1.084-3.955,3.568,3.568,0,0,1,3.027-1.445,3.035,3.035,0,0,1,2.383,1.113V4h3.3V19H38.818l-.166-1.133A3.116,3.116,0,0,1,36.074,19.2a3.562,3.562,0,0,1-2.988-1.445A6.659,6.659,0,0,1,31.982,13.639Zm3.291.205q0,2.813,1.641,2.813a1.62,1.62,0,0,0,1.563-.918V11.715a1.576,1.576,0,0,0-1.543-.937q-1.523,0-1.65,2.461Zm14.668,4.014A3.393,3.393,0,0,1,47.119,19.2a3.328,3.328,0,0,1-2.632-1.011,4.251,4.251,0,0,1-.894-2.905V8.434h3.291V15.3A1.183,1.183,0,0,0,48.2,16.656a1.72,1.72,0,0,0,1.611-.811V8.434h3.311V19H50.039Zm9.453-1.2a1.464,1.464,0,0,0,1.074-.376,1.379,1.379,0,0,0,.371-1.05h3.086a3.653,3.653,0,0,1-1.245,2.852A4.631,4.631,0,0,1,59.473,19.2,4.689,4.689,0,0,1,55.84,17.75a5.7,5.7,0,0,1-1.328-4v-.137a6.436,6.436,0,0,1,.591-2.827,4.3,4.3,0,0,1,1.7-1.885,5.081,5.081,0,0,1,2.637-.659,4.573,4.573,0,0,1,3.271,1.143,4.053,4.053,0,0,1,1.211,3.1H60.84a1.807,1.807,0,0,0-.4-1.26,1.382,1.382,0,0,0-1.074-.439q-1.279,0-1.494,1.631a11.507,11.507,0,0,0-.068,1.426,4.52,4.52,0,0,0,.381,2.207A1.319,1.319,0,0,0,59.395,16.656ZM69.15,5.807V8.434h1.738v2.285H69.15v4.834a1.234,1.234,0,0,0,.215.83,1.152,1.152,0,0,0,.85.234,4.828,4.828,0,0,0,.82-.059v2.354a6.074,6.074,0,0,1-1.855.283,3.448,3.448,0,0,1-2.51-.8,3.282,3.282,0,0,1-.811-2.432V10.719H64.512V8.434h1.348V5.807Zm2.324,7.813A6.236,6.236,0,0,1,72.09,10.8a4.4,4.4,0,0,1,1.768-1.9,5.323,5.323,0,0,1,2.705-.664,4.858,4.858,0,0,1,3.74,1.47,5.64,5.64,0,0,1,1.367,4v.117A5.472,5.472,0,0,1,80.3,17.745a4.871,4.871,0,0,1-3.716,1.45,4.927,4.927,0,0,1-3.623-1.353,5.29,5.29,0,0,1-1.475-3.667Zm3.291.205a3.932,3.932,0,0,0,.459,2.148,1.529,1.529,0,0,0,1.357.684q1.758,0,1.8-2.705v-.332q0-2.842-1.816-2.842-1.65,0-1.787,2.451Zm13.887,2.207a.76.76,0,0,0-.439-.674,6.685,6.685,0,0,0-1.67-.527,7.615,7.615,0,0,1-2.031-.718,3.4,3.4,0,0,1-1.221-1.079,2.577,2.577,0,0,1-.42-1.455,2.92,2.92,0,0,1,1.2-2.4,4.948,4.948,0,0,1,3.145-.942,5.482,5.482,0,0,1,3.359.947,2.962,2.962,0,0,1,1.27,2.49h-3.3q0-1.27-1.338-1.27a1.326,1.326,0,0,0-.869.288.892.892,0,0,0-.352.718.819.819,0,0,0,.43.713,4.06,4.06,0,0,0,1.372.449,11.857,11.857,0,0,1,1.655.42,3.007,3.007,0,0,1,2.383,2.939,2.767,2.767,0,0,1-1.284,2.354,5.631,5.631,0,0,1-3.325.908,5.747,5.747,0,0,1-2.422-.488,4.05,4.05,0,0,1-1.66-1.328,3.007,3.007,0,0,1-.6-1.768h3.076a1.272,1.272,0,0,0,.488,1.069,2.009,2.009,0,0,0,1.2.337,1.58,1.58,0,0,0,1.011-.273A.875.875,0,0,0,88.652,16.031Zm13.916-1.641,1.758-5.957h3.525l-4.307,12.334-.186.449a3.272,3.272,0,0,1-3.242,2.051,5.158,5.158,0,0,1-1.357-.195V20.729h.43a2.251,2.251,0,0,0,1.06-.2,1.216,1.216,0,0,0,.542-.718l.264-.7L97.383,8.434H100.9Zm16.65,1.641a.76.76,0,0,0-.439-.674,6.685,6.685,0,0,0-1.67-.527,7.615,7.615,0,0,1-2.031-.718,3.4,3.4,0,0,1-1.221-1.079,2.577,2.577,0,0,1-.42-1.455,2.92,2.92,0,0,1,1.2-2.4,4.948,4.948,0,0,1,3.145-.942,5.482,5.482,0,0,1,3.359.947,2.962,2.962,0,0,1,1.27,2.49h-3.3q0-1.27-1.338-1.27a1.326,1.326,0,0,0-.869.288.892.892,0,0,0-.352.718.819.819,0,0,0,.43.713,4.06,4.06,0,0,0,1.372.449,11.857,11.857,0,0,1,1.655.42,3.007,3.007,0,0,1,2.383,2.939,2.767,2.767,0,0,1-1.284,2.354,5.631,5.631,0,0,1-3.325.908,5.747,5.747,0,0,1-2.422-.488,4.05,4.05,0,0,1-1.66-1.328,3.007,3.007,0,0,1-.6-1.768h3.076a1.272,1.272,0,0,0,.488,1.069,2.009,2.009,0,0,0,1.2.337,1.58,1.58,0,0,0,1.011-.273A.875.875,0,0,0,119.219,16.031Zm9.824,3.164a5.432,5.432,0,0,1-3.936-1.45,5.008,5.008,0,0,1-1.5-3.774V13.7a6.489,6.489,0,0,1,.6-2.861,4.395,4.395,0,0,1,1.753-1.919,5.292,5.292,0,0,1,2.734-.679,4.574,4.574,0,0,1,3.516,1.382,5.43,5.43,0,0,1,1.289,3.853v1.279h-6.543a2.372,2.372,0,0,0,.771,1.4,2.3,2.3,0,0,0,1.543.508,2.958,2.958,0,0,0,2.441-1.094l1.5,1.777a4.2,4.2,0,0,1-1.743,1.353A5.891,5.891,0,0,1,129.043,19.2Zm-.371-8.418q-1.445,0-1.719,1.914h3.32v-.254a1.63,1.63,0,0,0-.4-1.226A1.593,1.593,0,0,0,128.672,10.777Zm12.539.635-1.084-.078a1.947,1.947,0,0,0-1.992.977V19h-3.291V8.434h3.086l.107,1.357a2.548,2.548,0,0,1,2.314-1.553,3.209,3.209,0,0,1,.918.117Zm5.576,3.672,1.67-6.65h3.467L148.477,19h-3.359L141.67,8.434h3.477ZM156.377,19h-3.3V8.434h3.3Zm-3.5-13.3a1.482,1.482,0,0,1,.508-1.159,2.149,2.149,0,0,1,2.637,0,1.482,1.482,0,0,1,.508,1.159,1.482,1.482,0,0,1-.508,1.159,2.149,2.149,0,0,1-2.637,0A1.482,1.482,0,0,1,152.881,5.7Zm9.99,10.957a1.464,1.464,0,0,0,1.074-.376,1.379,1.379,0,0,0,.371-1.05H167.4a3.653,3.653,0,0,1-1.245,2.852,4.631,4.631,0,0,1-3.208,1.113,4.689,4.689,0,0,1-3.633-1.445,5.7,5.7,0,0,1-1.328-4v-.137a6.436,6.436,0,0,1,.591-2.827,4.3,4.3,0,0,1,1.7-1.885,5.081,5.081,0,0,1,2.637-.659,4.573,4.573,0,0,1,3.271,1.143,4.053,4.053,0,0,1,1.211,3.1h-3.086a1.807,1.807,0,0,0-.4-1.26,1.382,1.382,0,0,0-1.074-.439q-1.279,0-1.494,1.631a11.507,11.507,0,0,0-.068,1.426,4.52,4.52,0,0,0,.381,2.207A1.319,1.319,0,0,0,162.871,16.656ZM172.266,19h-3.3V8.434h3.3Zm-3.5-13.3a1.482,1.482,0,0,1,.508-1.159,2.149,2.149,0,0,1,2.637,0,1.482,1.482,0,0,1,.508,1.159,1.482,1.482,0,0,1-.508,1.159,2.149,2.149,0,0,1-2.637,0A1.482,1.482,0,0,1,168.77,5.7Zm5.107,7.92a6.236,6.236,0,0,1,.615-2.817,4.4,4.4,0,0,1,1.768-1.9,5.323,5.323,0,0,1,2.705-.664,4.858,4.858,0,0,1,3.74,1.47,5.64,5.64,0,0,1,1.367,4v.117a5.472,5.472,0,0,1-1.372,3.921,4.871,4.871,0,0,1-3.716,1.45,4.927,4.927,0,0,1-3.623-1.353,5.29,5.29,0,0,1-1.475-3.667Zm3.291.205a3.932,3.932,0,0,0,.459,2.148,1.529,1.529,0,0,0,1.357.684q1.758,0,1.8-2.705v-.332q0-2.842-1.816-2.842-1.65,0-1.787,2.451Zm13.887,2.207a.76.76,0,0,0-.439-.674,6.685,6.685,0,0,0-1.67-.527,7.615,7.615,0,0,1-2.031-.718,3.4,3.4,0,0,1-1.221-1.079,2.577,2.577,0,0,1-.42-1.455,2.92,2.92,0,0,1,1.2-2.4,4.948,4.948,0,0,1,3.145-.942,5.482,5.482,0,0,1,3.359.947,2.962,2.962,0,0,1,1.27,2.49h-3.3q0-1.27-1.338-1.27a1.326,1.326,0,0,0-.869.288.892.892,0,0,0-.352.718.819.819,0,0,0,.43.713,4.06,4.06,0,0,0,1.372.449,11.857,11.857,0,0,1,1.655.42,3.007,3.007,0,0,1,2.383,2.939,2.767,2.767,0,0,1-1.284,2.354,5.632,5.632,0,0,1-3.325.908,5.747,5.747,0,0,1-2.422-.488,4.05,4.05,0,0,1-1.66-1.328,3.007,3.007,0,0,1-.6-1.768h3.076a1.272,1.272,0,0,0,.488,1.069,2.009,2.009,0,0,0,1.2.337,1.58,1.58,0,0,0,1.011-.273A.875.875,0,0,0,191.055,16.031Zm5.869,6.8-1.66-.781.332-.664a5.416,5.416,0,0,0,.713-2.422V16.52h2.637l-.01,2.119a5.3,5.3,0,0,1-.576,2.285A5.806,5.806,0,0,1,196.924,22.828Zm15.156-9.98a6.627,6.627,0,0,1-.3,2.251,3.362,3.362,0,0,1-1,1.382l-.645.6a2.547,2.547,0,0,0-.908,1.816,1.357,1.357,0,0,0,.327,1.011,1.162,1.162,0,0,0,.845.317,1.29,1.29,0,0,0,1.021-.415,1.794,1.794,0,0,0,.386-1.177h3.311a4,4,0,0,1-1.245,3.047,4.9,4.9,0,0,1-3.394,1.084,5.039,5.039,0,0,1-3.364-1.011,3.547,3.547,0,0,1-1.187-2.856,3.281,3.281,0,0,1,.371-1.528,6.061,6.061,0,0,1,1.27-1.558l.83-.762a2.243,2.243,0,0,0,.84-1.494l.049-.7Zm-1.309-1.318a1.892,1.892,0,0,1-1.3-.464,1.609,1.609,0,0,1,0-2.373,1.892,1.892,0,0,1,1.3-.464,1.86,1.86,0,0,1,1.313.474,1.607,1.607,0,0,1,0,2.354A1.86,1.86,0,0,1,210.771,11.529ZM221.436,19.2a5.432,5.432,0,0,1-3.936-1.45,5.008,5.008,0,0,1-1.5-3.774V13.7a6.489,6.489,0,0,1,.6-2.861,4.395,4.395,0,0,1,1.753-1.919,5.292,5.292,0,0,1,2.734-.679A4.574,4.574,0,0,1,224.6,9.62a5.43,5.43,0,0,1,1.289,3.853v1.279h-6.543a2.372,2.372,0,0,0,.771,1.4,2.3,2.3,0,0,0,1.543.508,2.958,2.958,0,0,0,2.441-1.094l1.5,1.777a4.2,4.2,0,0,1-1.743,1.353A5.891,5.891,0,0,1,221.436,19.2Zm-.371-8.418q-1.445,0-1.719,1.914h3.32v-.254a1.63,1.63,0,0,0-.4-1.226A1.593,1.593,0,0,0,221.064,10.777Zm9.17-2.344.107,1.24a3.583,3.583,0,0,1,3.018-1.436,3.015,3.015,0,0,1,2.466.986,4.7,4.7,0,0,1,.845,2.969V19h-3.3V12.33a1.783,1.783,0,0,0-.322-1.177,1.491,1.491,0,0,0-1.172-.376,1.569,1.569,0,0,0-1.436.762V19h-3.291V8.434Zm12.822,5.176a6.343,6.343,0,0,1,1.094-3.945,3.592,3.592,0,0,1,3.018-1.426,3.068,3.068,0,0,1,2.6,1.328L250,8.434h2.852V23.063h-3.3V18.121a3.063,3.063,0,0,1-2.4,1.074,3.561,3.561,0,0,1-2.983-1.45A6.7,6.7,0,0,1,243.057,13.609Zm3.291.205q0,2.842,1.641,2.842a1.589,1.589,0,0,0,1.563-.859v-4.18a1.555,1.555,0,0,0-1.543-.84q-1.533,0-1.65,2.451Zm14.658,4.043a3.393,3.393,0,0,1-2.822,1.338,3.328,3.328,0,0,1-2.632-1.011,4.251,4.251,0,0,1-.894-2.905V8.434h3.291V15.3a1.183,1.183,0,0,0,1.318,1.357,1.72,1.72,0,0,0,1.611-.811V8.434h3.311V19H261.1ZM271.1,19.2a5.432,5.432,0,0,1-3.936-1.45,5.008,5.008,0,0,1-1.5-3.774V13.7a6.489,6.489,0,0,1,.6-2.861,4.395,4.395,0,0,1,1.753-1.919,5.292,5.292,0,0,1,2.734-.679,4.574,4.574,0,0,1,3.516,1.382,5.43,5.43,0,0,1,1.289,3.853v1.279h-6.543a2.372,2.372,0,0,0,.771,1.4,2.3,2.3,0,0,0,1.543.508,2.958,2.958,0,0,0,2.441-1.094l1.5,1.777a4.2,4.2,0,0,1-1.743,1.353A5.891,5.891,0,0,1,271.1,19.2Zm-.371-8.418q-1.445,0-1.719,1.914h3.32v-.254a1.63,1.63,0,0,0-.4-1.226A1.593,1.593,0,0,0,270.732,10.777Zm-.039-6.787h3.477l-2.715,3.066-2.686,0Zm16.7,12.041a.76.76,0,0,0-.439-.674,6.685,6.685,0,0,0-1.67-.527,7.615,7.615,0,0,1-2.031-.718,3.4,3.4,0,0,1-1.221-1.079,2.577,2.577,0,0,1-.42-1.455,2.92,2.92,0,0,1,1.2-2.4,4.948,4.948,0,0,1,3.145-.942,5.482,5.482,0,0,1,3.359.947,2.962,2.962,0,0,1,1.27,2.49h-3.3q0-1.27-1.338-1.27a1.326,1.326,0,0,0-.869.288.892.892,0,0,0-.352.718.819.819,0,0,0,.43.713,4.06,4.06,0,0,0,1.372.449,11.856,11.856,0,0,1,1.655.42,3.007,3.007,0,0,1,2.383,2.939,2.767,2.767,0,0,1-1.284,2.354,5.631,5.631,0,0,1-3.325.908,5.747,5.747,0,0,1-2.422-.488,4.05,4.05,0,0,1-1.66-1.328,3.007,3.007,0,0,1-.6-1.768h3.076a1.272,1.272,0,0,0,.488,1.069,2.009,2.009,0,0,0,1.2.337,1.58,1.58,0,0,0,1.011-.273A.875.875,0,0,0,287.393,16.031Zm9.824,3.164a5.432,5.432,0,0,1-3.936-1.45,5.008,5.008,0,0,1-1.5-3.774V13.7a6.489,6.489,0,0,1,.6-2.861,4.395,4.395,0,0,1,1.753-1.919,5.292,5.292,0,0,1,2.734-.679,4.574,4.574,0,0,1,3.516,1.382,5.43,5.43,0,0,1,1.289,3.853v1.279h-6.543a2.372,2.372,0,0,0,.771,1.4,2.3,2.3,0,0,0,1.543.508,2.958,2.958,0,0,0,2.441-1.094l1.5,1.777a4.2,4.2,0,0,1-1.743,1.353A5.891,5.891,0,0,1,297.217,19.2Zm-.371-8.418q-1.445,0-1.719,1.914h3.32v-.254a1.63,1.63,0,0,0-.4-1.226A1.593,1.593,0,0,0,296.846,10.777Zm10.713,2.861a6.455,6.455,0,0,1,1.084-3.955,3.568,3.568,0,0,1,3.027-1.445,3.035,3.035,0,0,1,2.383,1.113V4h3.3V19h-2.959l-.166-1.133A3.116,3.116,0,0,1,311.65,19.2a3.562,3.562,0,0,1-2.988-1.445A6.659,6.659,0,0,1,307.559,13.639Zm3.291.205q0,2.813,1.641,2.813a1.62,1.62,0,0,0,1.563-.918V11.715a1.576,1.576,0,0,0-1.543-.937q-1.523,0-1.65,2.461ZM322.7,19h-3.3V8.434h3.3ZM319.2,5.7a1.482,1.482,0,0,1,.508-1.159,2.149,2.149,0,0,1,2.637,0,1.482,1.482,0,0,1,.508,1.159,1.482,1.482,0,0,1-.508,1.159,2.149,2.149,0,0,1-2.637,0A1.482,1.482,0,0,1,319.2,5.7Zm6.25,13.3V10.719h-1.533V8.434h1.533v-.84a3.651,3.651,0,0,1,1.064-2.8,4.206,4.206,0,0,1,2.988-1A6.544,6.544,0,0,1,331.045,4l.01,2.422a3.007,3.007,0,0,0-.811-.088q-1.494,0-1.494,1.289v.811h2.061v2.285H328.75V19Zm11.4.2a5.432,5.432,0,0,1-3.936-1.45,5.008,5.008,0,0,1-1.5-3.774V13.7a6.489,6.489,0,0,1,.6-2.861,4.395,4.395,0,0,1,1.753-1.919,5.292,5.292,0,0,1,2.734-.679A4.574,4.574,0,0,1,340.01,9.62a5.43,5.43,0,0,1,1.289,3.853v1.279h-6.543a2.372,2.372,0,0,0,.771,1.4,2.3,2.3,0,0,0,1.543.508,2.958,2.958,0,0,0,2.441-1.094l1.5,1.777a4.2,4.2,0,0,1-1.743,1.353A5.891,5.891,0,0,1,336.846,19.2Zm-.371-8.418q-1.445,0-1.719,1.914h3.32v-.254a1.63,1.63,0,0,0-.4-1.226A1.593,1.593,0,0,0,336.475,10.777Zm12.539.635-1.084-.078a1.947,1.947,0,0,0-1.992.977V19h-3.291V8.434h3.086l.107,1.357a2.548,2.548,0,0,1,2.314-1.553,3.209,3.209,0,0,1,.918.117Zm6.113,7.783a5.432,5.432,0,0,1-3.936-1.45,5.008,5.008,0,0,1-1.5-3.774V13.7a6.489,6.489,0,0,1,.6-2.861,4.395,4.395,0,0,1,1.753-1.919,5.292,5.292,0,0,1,2.734-.679,4.574,4.574,0,0,1,3.516,1.382,5.43,5.43,0,0,1,1.289,3.853v1.279h-6.543a2.372,2.372,0,0,0,.771,1.4,2.3,2.3,0,0,0,1.543.508,2.958,2.958,0,0,0,2.441-1.094l1.5,1.777a4.2,4.2,0,0,1-1.743,1.353A5.891,5.891,0,0,1,355.127,19.2Zm-.371-8.418q-1.445,0-1.719,1.914h3.32v-.254a1.63,1.63,0,0,0-.4-1.226A1.593,1.593,0,0,0,354.756,10.777Zm9.17-2.344.107,1.24a3.583,3.583,0,0,1,3.018-1.436,3.015,3.015,0,0,1,2.466.986,4.7,4.7,0,0,1,.845,2.969V19h-3.3V12.33a1.783,1.783,0,0,0-.322-1.177,1.491,1.491,0,0,0-1.172-.376,1.569,1.569,0,0,0-1.436.762V19H360.84V8.434Zm12.725,8.223a1.464,1.464,0,0,0,1.074-.376,1.379,1.379,0,0,0,.371-1.05h3.086a3.653,3.653,0,0,1-1.245,2.852,4.631,4.631,0,0,1-3.208,1.113A4.689,4.689,0,0,1,373.1,17.75a5.7,5.7,0,0,1-1.328-4v-.137a6.436,6.436,0,0,1,.591-2.827,4.3,4.3,0,0,1,1.7-1.885,5.081,5.081,0,0,1,2.637-.659,4.573,4.573,0,0,1,3.271,1.143,4.053,4.053,0,0,1,1.211,3.1H378.1a1.806,1.806,0,0,0-.4-1.26,1.382,1.382,0,0,0-1.074-.439q-1.279,0-1.494,1.631a11.51,11.51,0,0,0-.068,1.426,4.52,4.52,0,0,0,.381,2.207A1.319,1.319,0,0,0,376.65,16.656ZM386.045,19h-3.3V8.434h3.3Zm-3.5-13.3a1.482,1.482,0,0,1,.508-1.159,2.149,2.149,0,0,1,2.637,0A1.482,1.482,0,0,1,386.2,5.7a1.482,1.482,0,0,1-.508,1.159,2.149,2.149,0,0,1-2.637,0A1.482,1.482,0,0,1,382.549,5.7ZM394.023,19a3.716,3.716,0,0,1-.312-.947,3.06,3.06,0,0,1-2.539,1.143,3.749,3.749,0,0,1-2.539-.9,2.875,2.875,0,0,1-1.045-2.271,2.955,2.955,0,0,1,1.27-2.6,6.468,6.468,0,0,1,3.691-.879h1.016v-.559q0-1.462-1.26-1.462a1.03,1.03,0,0,0-1.172,1.158h-3.291a2.95,2.95,0,0,1,1.3-2.487,5.479,5.479,0,0,1,3.325-.956,4.8,4.8,0,0,1,3.193.986,3.429,3.429,0,0,1,1.2,2.705v4.678a4.79,4.79,0,0,0,.449,2.227V19Zm-2.061-2.148a1.836,1.836,0,0,0,1.021-.264,1.653,1.653,0,0,0,.581-.6V14.3h-.957q-1.719,0-1.719,1.543a.942.942,0,0,0,.3.728A1.1,1.1,0,0,0,391.963,16.852Zm9.746-8.418.107,1.24a3.583,3.583,0,0,1,3.018-1.436,3.015,3.015,0,0,1,2.466.986,4.7,4.7,0,0,1,.845,2.969V19h-3.3V12.33a1.783,1.783,0,0,0-.322-1.177,1.491,1.491,0,0,0-1.172-.376,1.569,1.569,0,0,0-1.436.762V19h-3.291V8.434ZM412.4,14.5a6.356,6.356,0,0,1,.322-2.251,3.52,3.52,0,0,1,1.045-1.431,6.946,6.946,0,0,0,1.1-1.108,1.809,1.809,0,0,0,.376-1.108q0-1.475-1.27-1.475a1.178,1.178,0,0,0-.947.43,1.828,1.828,0,0,0-.381,1.162h-3.3a3.937,3.937,0,0,1,1.23-3.042,4.906,4.906,0,0,1,3.4-1.089,5.1,5.1,0,0,1,3.374,1.006,3.53,3.53,0,0,1,1.2,2.861,3.333,3.333,0,0,1-.322,1.475,4.984,4.984,0,0,1-1.035,1.357l-1.123,1.045a2.642,2.642,0,0,0-.664.942A3.735,3.735,0,0,0,415.2,14.5Zm-.4,2.969a1.516,1.516,0,0,1,.522-1.187,2.064,2.064,0,0,1,2.607,0,1.609,1.609,0,0,1,0,2.373,2.064,2.064,0,0,1-2.607,0A1.516,1.516,0,0,1,412,17.467Z" transform="translate(285 12566)" fill="#12263f"/>
    <g id="Grupo_873747" data-name="Grupo 873747" transform="translate(0 10511)">
      <rect id="Rect치ngulo_292720" data-name="Rect치ngulo 292720" width="53" height="49" transform="translate(180 2043)" fill="#ffeeb0"/>
      <rect id="Rect치ngulo_292721" data-name="Rect치ngulo 292721" width="3" height="49" transform="translate(238 2043)" fill="#fffae7"/>
      <g id="Grupo_873020" data-name="Grupo 873020" transform="translate(193.667 2049.836)">
        <path id="Trazado_218669" data-name="Trazado 218669" d="M43.512,23.606l22.327.606-9.978-5.6L35.553,15.9Z" transform="translate(5.494 2.457)" fill="#ff8dc9"/>
        <path id="Trazado_218670" data-name="Trazado 218670" d="M17.562,0l9.9,10.509,28.361,5.616-9.979-5.6Z" transform="translate(2.714)" fill="#ff8dc9"/>
        <path id="Trazado_218671" data-name="Trazado 218671" d="M20.989,25.407l9.019,7.163,5.617-9.115-9.978-5.6Z" transform="translate(3.244 2.759)" fill="#b51067"/>
        <path id="Trazado_218672" data-name="Trazado 218672" d="M20.276,0,0,20.785l12.15,12.94L30.179,10.509Z" fill="#b51067"/>
        <path id="Trazado_218673" data-name="Trazado 218673" d="M10.524,32.319l26.72-7.513-5.618,9.115,38.081-8.659L47.38,24.657l9.534-9.938L28.553,9.1Z" transform="translate(1.626 1.407)" fill="#ea3584"/>
      </g>
    </g>
  </g>
</svg>
