<svg xmlns="http://www.w3.org/2000/svg" xmlns:xlink="http://www.w3.org/1999/xlink" width="505" height="49" viewBox="0 0 505 49">
  <defs>
    <linearGradient id="linear-gradient" x1="0.795" y1="0.5" x2="1" y2="0.5" gradientUnits="objectBoundingBox">
      <stop offset="0" stop-color="#ecedf4"/>
      <stop offset="1" stop-color="#fff"/>
    </linearGradient>
  </defs>
  <g id="Grupo_873843" data-name="Grupo 873843" transform="translate(-180 -2554)">
    <path id="Trazado_593623" data-name="Trazado 593623" d="M0,0H505V49H0Z" transform="translate(180 2554)" fill="url(#linear-gradient)"/>
    <path id="Trazado_593624" data-name="Trazado 593624" d="M12.578,14.186a5.193,5.193,0,0,1-.8,2.622A4.833,4.833,0,0,1,9.722,18.57,7,7,0,0,1,6.7,19.2a5.584,5.584,0,0,1-4.414-1.826A7.54,7.54,0,0,1,.674,12.213v-.7A8.607,8.607,0,0,1,1.4,7.853,5.513,5.513,0,0,1,3.5,5.431,5.844,5.844,0,0,1,6.66,4.576a6.129,6.129,0,0,1,4.16,1.362,5.383,5.383,0,0,1,1.787,3.755H9.189a2.547,2.547,0,0,0-.654-1.865A2.691,2.691,0,0,0,6.66,7.262a2.048,2.048,0,0,0-1.875.957,6.151,6.151,0,0,0-.625,3.057v1.006a6.806,6.806,0,0,0,.571,3.252A2.091,2.091,0,0,0,6.7,16.51a2.632,2.632,0,0,0,1.807-.557,2.363,2.363,0,0,0,.664-1.768ZM17.52,19h-3.3V4h3.3Zm5.5,0h-3.3V8.434h3.3Zm-3.5-13.3a1.482,1.482,0,0,1,.508-1.159,2.149,2.149,0,0,1,2.637,0A1.482,1.482,0,0,1,23.174,5.7a1.482,1.482,0,0,1-.508,1.159,2.149,2.149,0,0,1-2.637,0A1.482,1.482,0,0,1,19.521,5.7ZM30.156,19.2a5.432,5.432,0,0,1-3.936-1.45,5.008,5.008,0,0,1-1.5-3.774V13.7a6.489,6.489,0,0,1,.6-2.861A4.395,4.395,0,0,1,27.07,8.917,5.292,5.292,0,0,1,29.8,8.238,4.574,4.574,0,0,1,33.32,9.62a5.43,5.43,0,0,1,1.289,3.853v1.279H28.066a2.372,2.372,0,0,0,.771,1.4,2.3,2.3,0,0,0,1.543.508,2.958,2.958,0,0,0,2.441-1.094l1.5,1.777a4.2,4.2,0,0,1-1.743,1.353A5.891,5.891,0,0,1,30.156,19.2Zm-.371-8.418q-1.445,0-1.719,1.914h3.32v-.254a1.63,1.63,0,0,0-.4-1.226A1.593,1.593,0,0,0,29.785,10.777Zm9.17-2.344.107,1.24A3.583,3.583,0,0,1,42.08,8.238a3.015,3.015,0,0,1,2.466.986,4.7,4.7,0,0,1,.845,2.969V19h-3.3V12.33a1.783,1.783,0,0,0-.322-1.177,1.491,1.491,0,0,0-1.172-.376,1.569,1.569,0,0,0-1.436.762V19H35.869V8.434Zm12.09-2.627V8.434h1.738v2.285H51.045v4.834a1.234,1.234,0,0,0,.215.83,1.152,1.152,0,0,0,.85.234,4.828,4.828,0,0,0,.82-.059v2.354a6.074,6.074,0,0,1-1.855.283,3.448,3.448,0,0,1-2.51-.8,3.282,3.282,0,0,1-.811-2.432V10.719H46.406V8.434h1.348V5.807ZM59.189,19.2a5.432,5.432,0,0,1-3.936-1.45,5.008,5.008,0,0,1-1.5-3.774V13.7a6.489,6.489,0,0,1,.6-2.861A4.395,4.395,0,0,1,56.1,8.917a5.292,5.292,0,0,1,2.734-.679A4.574,4.574,0,0,1,62.354,9.62a5.43,5.43,0,0,1,1.289,3.853v1.279H57.1a2.372,2.372,0,0,0,.771,1.4,2.3,2.3,0,0,0,1.543.508,2.958,2.958,0,0,0,2.441-1.094l1.5,1.777a4.2,4.2,0,0,1-1.743,1.353A5.891,5.891,0,0,1,59.189,19.2Zm-.371-8.418q-1.445,0-1.719,1.914h3.32v-.254a1.63,1.63,0,0,0-.4-1.226A1.593,1.593,0,0,0,58.818,10.777ZM70.5,16.031a.76.76,0,0,0-.439-.674,6.685,6.685,0,0,0-1.67-.527,7.615,7.615,0,0,1-2.031-.718,3.4,3.4,0,0,1-1.221-1.079,2.577,2.577,0,0,1-.42-1.455,2.92,2.92,0,0,1,1.2-2.4,4.948,4.948,0,0,1,3.145-.942,5.482,5.482,0,0,1,3.359.947,2.962,2.962,0,0,1,1.27,2.49h-3.3q0-1.27-1.338-1.27a1.326,1.326,0,0,0-.869.288.892.892,0,0,0-.352.718.819.819,0,0,0,.43.713,4.06,4.06,0,0,0,1.372.449,11.857,11.857,0,0,1,1.655.42,3.007,3.007,0,0,1,2.383,2.939,2.767,2.767,0,0,1-1.284,2.354,5.631,5.631,0,0,1-3.325.908,5.747,5.747,0,0,1-2.422-.488,4.05,4.05,0,0,1-1.66-1.328,3.007,3.007,0,0,1-.6-1.768h3.076a1.272,1.272,0,0,0,.488,1.069,2.009,2.009,0,0,0,1.2.337,1.58,1.58,0,0,0,1.011-.273A.875.875,0,0,0,70.5,16.031Zm12.8-7.6.107,1.24a3.633,3.633,0,0,1,3.018-1.436A2.675,2.675,0,0,1,89.131,9.83a3.517,3.517,0,0,1,3.105-1.592q3.213,0,3.3,3.887V19h-3.3V12.33a2.014,2.014,0,0,0-.273-1.182,1.164,1.164,0,0,0-1-.371,1.559,1.559,0,0,0-1.455.869l.01.137V19h-3.3V12.35a2.117,2.117,0,0,0-.264-1.2,1.161,1.161,0,0,0-1.006-.371,1.578,1.578,0,0,0-1.445.869V19H80.215V8.434ZM103.369,19a3.716,3.716,0,0,1-.312-.947,3.06,3.06,0,0,1-2.539,1.143,3.749,3.749,0,0,1-2.539-.9,2.875,2.875,0,0,1-1.045-2.271,2.955,2.955,0,0,1,1.27-2.6,6.468,6.468,0,0,1,3.691-.879h1.016v-.559q0-1.462-1.26-1.462a1.03,1.03,0,0,0-1.172,1.158H97.188a2.95,2.95,0,0,1,1.3-2.487,5.479,5.479,0,0,1,3.325-.956,4.8,4.8,0,0,1,3.193.986,3.429,3.429,0,0,1,1.2,2.705v4.678a4.79,4.79,0,0,0,.449,2.227V19Zm-2.061-2.148a1.836,1.836,0,0,0,1.021-.264,1.653,1.653,0,0,0,.581-.6V14.3h-.957q-1.719,0-1.719,1.543a.942.942,0,0,0,.3.728A1.1,1.1,0,0,0,101.309,16.852Zm10.8-2.461,1.758-5.957h3.525l-4.307,12.334-.186.449a3.272,3.272,0,0,1-3.242,2.051,5.158,5.158,0,0,1-1.357-.195V20.729h.43a2.251,2.251,0,0,0,1.06-.2,1.216,1.216,0,0,0,.542-.718l.264-.7L106.924,8.434h3.516Zm5.576-.771A6.236,6.236,0,0,1,118.3,10.8a4.4,4.4,0,0,1,1.768-1.9,5.323,5.323,0,0,1,2.705-.664,4.858,4.858,0,0,1,3.74,1.47,5.64,5.64,0,0,1,1.367,4v.117a5.472,5.472,0,0,1-1.372,3.921,4.871,4.871,0,0,1-3.716,1.45,4.927,4.927,0,0,1-3.623-1.353,5.29,5.29,0,0,1-1.475-3.667Zm3.291.205a3.932,3.932,0,0,0,.459,2.148,1.529,1.529,0,0,0,1.357.684q1.758,0,1.8-2.705v-.332q0-2.842-1.816-2.842-1.65,0-1.787,2.451Zm14.746-2.412-1.084-.078a1.947,1.947,0,0,0-1.992.977V19h-3.291V8.434h3.086l.107,1.357a2.548,2.548,0,0,1,2.314-1.553,3.209,3.209,0,0,1,.918.117ZM140.381,19h-3.3V8.434h3.3Zm-3.5-13.3a1.482,1.482,0,0,1,.508-1.159,2.149,2.149,0,0,1,2.637,0,1.482,1.482,0,0,1,.508,1.159,1.482,1.482,0,0,1-.508,1.159,2.149,2.149,0,0,1-2.637,0A1.482,1.482,0,0,1,136.885,5.7Zm11.055,10.332a.76.76,0,0,0-.439-.674,6.685,6.685,0,0,0-1.67-.527,7.615,7.615,0,0,1-2.031-.718,3.4,3.4,0,0,1-1.221-1.079,2.577,2.577,0,0,1-.42-1.455,2.92,2.92,0,0,1,1.2-2.4,4.948,4.948,0,0,1,3.145-.942,5.482,5.482,0,0,1,3.359.947,2.962,2.962,0,0,1,1.27,2.49h-3.3q0-1.27-1.338-1.27a1.326,1.326,0,0,0-.869.288.892.892,0,0,0-.352.718.819.819,0,0,0,.43.713,4.06,4.06,0,0,0,1.372.449,11.857,11.857,0,0,1,1.655.42,3.007,3.007,0,0,1,2.383,2.939,2.767,2.767,0,0,1-1.284,2.354,5.632,5.632,0,0,1-3.325.908,5.747,5.747,0,0,1-2.422-.488,4.05,4.05,0,0,1-1.66-1.328,3.007,3.007,0,0,1-.6-1.768H144.9a1.272,1.272,0,0,0,.488,1.069,2.009,2.009,0,0,0,1.2.337,1.58,1.58,0,0,0,1.011-.273A.875.875,0,0,0,147.939,16.031Zm8.545-10.225V8.434h1.738v2.285h-1.738v4.834a1.234,1.234,0,0,0,.215.83,1.152,1.152,0,0,0,.85.234,4.828,4.828,0,0,0,.82-.059v2.354a6.074,6.074,0,0,1-1.855.283,3.448,3.448,0,0,1-2.51-.8,3.282,3.282,0,0,1-.811-2.432V10.719h-1.348V8.434h1.348V5.807ZM165.469,19a3.716,3.716,0,0,1-.312-.947,3.06,3.06,0,0,1-2.539,1.143,3.749,3.749,0,0,1-2.539-.9,2.875,2.875,0,0,1-1.045-2.271,2.955,2.955,0,0,1,1.27-2.6,6.468,6.468,0,0,1,3.691-.879h1.016v-.559q0-1.462-1.26-1.462a1.03,1.03,0,0,0-1.172,1.158h-3.291a2.95,2.95,0,0,1,1.3-2.487,5.479,5.479,0,0,1,3.325-.956,4.8,4.8,0,0,1,3.193.986,3.429,3.429,0,0,1,1.2,2.705v4.678a4.79,4.79,0,0,0,.449,2.227V19Zm-2.061-2.148a1.836,1.836,0,0,0,1.021-.264,1.653,1.653,0,0,0,.581-.6V14.3h-.957q-1.719,0-1.719,1.543a.942.942,0,0,0,.3.728A1.1,1.1,0,0,0,163.408,16.852Zm12.256-.82a.76.76,0,0,0-.439-.674,6.685,6.685,0,0,0-1.67-.527,7.615,7.615,0,0,1-2.031-.718,3.4,3.4,0,0,1-1.221-1.079,2.577,2.577,0,0,1-.42-1.455,2.92,2.92,0,0,1,1.2-2.4,4.948,4.948,0,0,1,3.145-.942,5.482,5.482,0,0,1,3.359.947,2.962,2.962,0,0,1,1.27,2.49h-3.3q0-1.27-1.338-1.27a1.326,1.326,0,0,0-.869.288.892.892,0,0,0-.352.718.819.819,0,0,0,.43.713,4.06,4.06,0,0,0,1.372.449,11.857,11.857,0,0,1,1.655.42,3.007,3.007,0,0,1,2.383,2.939,2.767,2.767,0,0,1-1.284,2.354,5.632,5.632,0,0,1-3.325.908,5.747,5.747,0,0,1-2.422-.488,4.05,4.05,0,0,1-1.66-1.328,3.007,3.007,0,0,1-.6-1.768h3.076a1.272,1.272,0,0,0,.488,1.069,2.009,2.009,0,0,0,1.2.337,1.58,1.58,0,0,0,1.011-.273A.875.875,0,0,0,175.664,16.031Z" transform="translate(285 2566)" fill="#12263f"/>
    <g id="Grupo_873022" data-name="Grupo 873022" transform="translate(180 2554)">
      <rect id="Rect치ngulo_292720" data-name="Rect치ngulo 292720" width="53" height="49" fill="#ffeeb0"/>
      <rect id="Rect치ngulo_292721" data-name="Rect치ngulo 292721" width="3" height="49" transform="translate(58)" fill="#fffae7"/>
      <g id="Grupo_873020" data-name="Grupo 873020" transform="translate(13.667 6.836)">
        <path id="Trazado_218669" data-name="Trazado 218669" d="M43.512,23.606l22.327.606-9.978-5.6L35.553,15.9Z" transform="translate(5.495 2.457)" fill="#ff8dc9"/>
        <path id="Trazado_218670" data-name="Trazado 218670" d="M17.562,0l9.9,10.509,28.361,5.616-9.979-5.6Z" transform="translate(2.714 0)" fill="#ff8dc9"/>
        <path id="Trazado_218671" data-name="Trazado 218671" d="M20.989,25.407l9.019,7.163,5.617-9.115-9.978-5.6Z" transform="translate(3.244 2.758)" fill="#b51067"/>
        <path id="Trazado_218672" data-name="Trazado 218672" d="M20.276,0,0,20.785l12.15,12.94L30.179,10.509Z" transform="translate(0 0)" fill="#b51067"/>
        <path id="Trazado_218673" data-name="Trazado 218673" d="M10.524,32.319l26.72-7.513-5.618,9.115,38.081-8.659L47.38,24.657l9.534-9.938L28.553,9.1Z" transform="translate(1.627 1.406)" fill="#ea3584"/>
      </g>
    </g>
  </g>
</svg>
