<svg xmlns="http://www.w3.org/2000/svg" xmlns:xlink="http://www.w3.org/1999/xlink" width="505" height="49" viewBox="0 0 505 49">
  <defs>
    <linearGradient id="linear-gradient" x1="0.795" y1="0.5" x2="1" y2="0.5" gradientUnits="objectBoundingBox">
      <stop offset="0" stop-color="#ecedf4"/>
      <stop offset="1" stop-color="#fff"/>
    </linearGradient>
  </defs>
  <g id="Grupo_873844" data-name="Grupo 873844" transform="translate(-180 -2897)">
    <path id="Trazado_593625" data-name="Trazado 593625" d="M0,0H505V49H0Z" transform="translate(180 2897)" fill="url(#linear-gradient)"/>
    <path id="Trazado_593626" data-name="Trazado 593626" d="M12.236,7.428H7.969V19H4.541V7.428H.352V4.781H12.236ZM17,19H13.7V8.434H17Zm-3.5-13.3a1.482,1.482,0,0,1,.508-1.159,1.909,1.909,0,0,1,1.318-.452,1.909,1.909,0,0,1,1.318.452A1.482,1.482,0,0,1,17.158,5.7a1.482,1.482,0,0,1-.508,1.159,1.909,1.909,0,0,1-1.318.452,1.909,1.909,0,0,1-1.318-.452A1.482,1.482,0,0,1,13.506,5.7Zm15.332,8.1a6.372,6.372,0,0,1-1.108,3.931,3.554,3.554,0,0,1-2.993,1.47,3.046,3.046,0,0,1-2.393-1.064v4.932H19.053V8.434h3.076l.1.977a3.046,3.046,0,0,1,2.49-1.172,3.582,3.582,0,0,1,3.037,1.44,6.45,6.45,0,0,1,1.084,3.96Zm-3.291-.205q0-2.812-1.641-2.812a1.549,1.549,0,0,0-1.562.84v4.16a1.6,1.6,0,0,0,1.582.879q1.572,0,1.621-2.715Zm4.326.029a6.236,6.236,0,0,1,.615-2.817,4.4,4.4,0,0,1,1.768-1.9,5.323,5.323,0,0,1,2.705-.664,4.858,4.858,0,0,1,3.74,1.47,5.64,5.64,0,0,1,1.367,4v.117A5.472,5.472,0,0,1,38.7,17.745,4.871,4.871,0,0,1,34.98,19.2a4.927,4.927,0,0,1-3.623-1.353,5.29,5.29,0,0,1-1.475-3.667Zm3.291.205a3.932,3.932,0,0,0,.459,2.148,1.529,1.529,0,0,0,1.357.684q1.758,0,1.8-2.705v-.332q0-2.842-1.816-2.842-1.65,0-1.787,2.451Zm13.887,2.207a.76.76,0,0,0-.439-.674,6.685,6.685,0,0,0-1.67-.527,7.615,7.615,0,0,1-2.031-.718,3.4,3.4,0,0,1-1.221-1.079,2.577,2.577,0,0,1-.42-1.455,2.92,2.92,0,0,1,1.2-2.4,4.948,4.948,0,0,1,3.145-.942,5.482,5.482,0,0,1,3.359.947,2.962,2.962,0,0,1,1.27,2.49h-3.3q0-1.27-1.338-1.27a1.326,1.326,0,0,0-.869.288.892.892,0,0,0-.352.718.819.819,0,0,0,.43.713,4.06,4.06,0,0,0,1.372.449,11.857,11.857,0,0,1,1.655.42,3.007,3.007,0,0,1,2.383,2.939,2.767,2.767,0,0,1-1.284,2.354,5.632,5.632,0,0,1-3.325.908,5.747,5.747,0,0,1-2.422-.488,4.05,4.05,0,0,1-1.66-1.328,3.007,3.007,0,0,1-.6-1.768h3.076a1.272,1.272,0,0,0,.488,1.069,2.009,2.009,0,0,0,1.2.337,1.58,1.58,0,0,0,1.011-.273A.875.875,0,0,0,47.051,16.031Zm9.277-2.393a6.455,6.455,0,0,1,1.084-3.955,3.568,3.568,0,0,1,3.027-1.445,3.035,3.035,0,0,1,2.383,1.113V4h3.3V19H63.164L63,17.867A3.116,3.116,0,0,1,60.42,19.2a3.562,3.562,0,0,1-2.988-1.445A6.659,6.659,0,0,1,56.328,13.639Zm3.291.205q0,2.813,1.641,2.813a1.62,1.62,0,0,0,1.563-.918V11.715a1.576,1.576,0,0,0-1.543-.937q-1.523,0-1.65,2.461ZM73.105,19.2a5.432,5.432,0,0,1-3.936-1.45,5.008,5.008,0,0,1-1.5-3.774V13.7a6.489,6.489,0,0,1,.6-2.861A4.395,4.395,0,0,1,70.02,8.917a5.292,5.292,0,0,1,2.734-.679A4.574,4.574,0,0,1,76.27,9.62a5.43,5.43,0,0,1,1.289,3.853v1.279H71.016a2.372,2.372,0,0,0,.771,1.4,2.3,2.3,0,0,0,1.543.508,2.958,2.958,0,0,0,2.441-1.094l1.5,1.777a4.2,4.2,0,0,1-1.743,1.353A5.891,5.891,0,0,1,73.105,19.2Zm-.371-8.418q-1.445,0-1.719,1.914h3.32v-.254a1.63,1.63,0,0,0-.4-1.226A1.593,1.593,0,0,0,72.734,10.777Zm15.6,5.879A1.464,1.464,0,0,0,89.4,16.28a1.379,1.379,0,0,0,.371-1.05h3.086a3.653,3.653,0,0,1-1.245,2.852A4.631,4.631,0,0,1,88.408,19.2a4.689,4.689,0,0,1-3.633-1.445,5.7,5.7,0,0,1-1.328-4v-.137a6.436,6.436,0,0,1,.591-2.827,4.3,4.3,0,0,1,1.7-1.885,5.081,5.081,0,0,1,2.637-.659A4.573,4.573,0,0,1,91.65,9.381a4.053,4.053,0,0,1,1.211,3.1H89.775a1.806,1.806,0,0,0-.4-1.26,1.382,1.382,0,0,0-1.074-.439q-1.279,0-1.494,1.631a11.508,11.508,0,0,0-.068,1.426,4.52,4.52,0,0,0,.381,2.207A1.319,1.319,0,0,0,88.33,16.656ZM97.725,19h-3.3V4h3.3Zm5.5,0h-3.3V8.434h3.3Zm-3.5-13.3a1.482,1.482,0,0,1,.508-1.159,2.149,2.149,0,0,1,2.637,0,1.482,1.482,0,0,1,.508,1.159,1.482,1.482,0,0,1-.508,1.159,2.149,2.149,0,0,1-2.637,0A1.482,1.482,0,0,1,99.727,5.7Zm10.635,13.5a5.432,5.432,0,0,1-3.936-1.45,5.008,5.008,0,0,1-1.5-3.774V13.7a6.489,6.489,0,0,1,.6-2.861,4.395,4.395,0,0,1,1.753-1.919,5.292,5.292,0,0,1,2.734-.679,4.574,4.574,0,0,1,3.516,1.382,5.43,5.43,0,0,1,1.289,3.853v1.279h-6.543a2.372,2.372,0,0,0,.771,1.4,2.3,2.3,0,0,0,1.543.508,2.958,2.958,0,0,0,2.441-1.094l1.5,1.777a4.2,4.2,0,0,1-1.743,1.353A5.891,5.891,0,0,1,110.361,19.2Zm-.371-8.418q-1.445,0-1.719,1.914h3.32v-.254a1.63,1.63,0,0,0-.4-1.226A1.593,1.593,0,0,0,109.99,10.777Zm9.17-2.344.107,1.24a3.583,3.583,0,0,1,3.018-1.436,3.015,3.015,0,0,1,2.466.986,4.7,4.7,0,0,1,.845,2.969V19h-3.3V12.33a1.783,1.783,0,0,0-.322-1.177,1.491,1.491,0,0,0-1.172-.376,1.569,1.569,0,0,0-1.436.762V19h-3.291V8.434Zm12.09-2.627V8.434h1.738v2.285H131.25v4.834a1.234,1.234,0,0,0,.215.83,1.152,1.152,0,0,0,.85.234,4.828,4.828,0,0,0,.82-.059v2.354a6.074,6.074,0,0,1-1.855.283,3.448,3.448,0,0,1-2.51-.8,3.282,3.282,0,0,1-.811-2.432V10.719h-1.348V8.434h1.348V5.807ZM139.395,19.2a5.432,5.432,0,0,1-3.936-1.45,5.008,5.008,0,0,1-1.5-3.774V13.7a6.489,6.489,0,0,1,.6-2.861,4.395,4.395,0,0,1,1.753-1.919,5.292,5.292,0,0,1,2.734-.679,4.574,4.574,0,0,1,3.516,1.382,5.43,5.43,0,0,1,1.289,3.853v1.279H137.3a2.372,2.372,0,0,0,.771,1.4,2.3,2.3,0,0,0,1.543.508,2.958,2.958,0,0,0,2.441-1.094l1.5,1.777a4.2,4.2,0,0,1-1.743,1.353A5.891,5.891,0,0,1,139.395,19.2Zm-.371-8.418q-1.445,0-1.719,1.914h3.32v-.254a1.63,1.63,0,0,0-.4-1.226A1.593,1.593,0,0,0,139.023,10.777Zm11.68,5.254a.76.76,0,0,0-.439-.674,6.685,6.685,0,0,0-1.67-.527,7.615,7.615,0,0,1-2.031-.718,3.4,3.4,0,0,1-1.221-1.079,2.577,2.577,0,0,1-.42-1.455,2.92,2.92,0,0,1,1.2-2.4,4.948,4.948,0,0,1,3.145-.942,5.482,5.482,0,0,1,3.359.947,2.962,2.962,0,0,1,1.27,2.49h-3.3q0-1.27-1.338-1.27a1.326,1.326,0,0,0-.869.288.892.892,0,0,0-.352.718.819.819,0,0,0,.43.713,4.06,4.06,0,0,0,1.372.449,11.857,11.857,0,0,1,1.655.42,3.007,3.007,0,0,1,2.383,2.939,2.767,2.767,0,0,1-1.284,2.354,5.632,5.632,0,0,1-3.325.908,5.747,5.747,0,0,1-2.422-.488,4.05,4.05,0,0,1-1.66-1.328,3.007,3.007,0,0,1-.6-1.768h3.076a1.272,1.272,0,0,0,.488,1.069,2.009,2.009,0,0,0,1.2.337,1.58,1.58,0,0,0,1.011-.273A.875.875,0,0,0,150.7,16.031Z" transform="translate(285 2909)" fill="#12263f"/>
    <g id="Grupo_873023" data-name="Grupo 873023" transform="translate(180 2897)">
      <rect id="Rect치ngulo_292720" data-name="Rect치ngulo 292720" width="53" height="49" fill="#ffeeb0"/>
      <rect id="Rect치ngulo_292721" data-name="Rect치ngulo 292721" width="3" height="49" transform="translate(58)" fill="#fffae7"/>
      <g id="Grupo_873020" data-name="Grupo 873020" transform="translate(13.667 6.836)">
        <path id="Trazado_218669" data-name="Trazado 218669" d="M43.512,23.606l22.327.606-9.978-5.6L35.553,15.9Z" transform="translate(5.495 2.457)" fill="#ff8dc9"/>
        <path id="Trazado_218670" data-name="Trazado 218670" d="M17.562,0l9.9,10.509,28.361,5.616-9.979-5.6Z" transform="translate(2.714 0)" fill="#ff8dc9"/>
        <path id="Trazado_218671" data-name="Trazado 218671" d="M20.989,25.407l9.019,7.163,5.617-9.115-9.978-5.6Z" transform="translate(3.244 2.758)" fill="#b51067"/>
        <path id="Trazado_218672" data-name="Trazado 218672" d="M20.276,0,0,20.785l12.15,12.94L30.179,10.509Z" transform="translate(0 0)" fill="#b51067"/>
        <path id="Trazado_218673" data-name="Trazado 218673" d="M10.524,32.319l26.72-7.513-5.618,9.115,38.081-8.659L47.38,24.657l9.534-9.938L28.553,9.1Z" transform="translate(1.627 1.406)" fill="#ea3584"/>
      </g>
    </g>
  </g>
</svg>
